<svg width="64" height="64" viewBox="0 0 64 64" fill="none" xmlns="http://www.w3.org/2000/svg">
<mask id="mask0_3776_22034" style="mask-type:alpha" maskUnits="userSpaceOnUse" x="0" y="0" width="64" height="64">
<rect width="64" height="64" fill="#D9D9D9"/>
</mask>
<g mask="url(#mask0_3776_22034)">
<path d="M31.332 56C30.7654 56 30.2905 55.8071 29.9074 55.4213C29.5238 55.036 29.332 54.5582 29.332 53.988C29.332 53.4182 29.5238 52.9444 29.9074 52.5667C30.2905 52.1889 30.7654 52 31.332 52H51.9987V31.7333C51.9987 26.236 50.0583 21.5729 46.1774 17.744C42.2965 13.9147 37.5703 12 31.9987 12C26.4271 12 21.7009 13.9147 17.82 17.744C13.9391 21.5729 11.9987 26.236 11.9987 31.7333V46.6667C11.9987 47.0444 11.8709 47.3611 11.6154 47.6167C11.3598 47.8722 11.0431 48 10.6654 48C9.1987 48 7.94314 47.4778 6.8987 46.4333C5.85425 45.3889 5.33203 44.1333 5.33203 42.6667V37.3333C5.33203 36.4 5.56536 35.5222 6.03203 34.7C6.4987 33.8778 7.15425 33.2222 7.9987 32.7333L8.1987 29.2C8.55425 26.1778 9.43203 23.3778 10.832 20.8C12.232 18.2222 13.9876 15.9778 16.0987 14.0667C18.2098 12.1556 20.632 10.6667 23.3654 9.6C26.0987 8.53333 28.9765 8 31.9987 8C35.0209 8 37.8876 8.53333 40.5987 9.6C43.3098 10.6667 45.732 12.1444 47.8654 14.0333C49.9987 15.9222 51.7543 18.1556 53.132 20.7333C54.5098 23.3111 55.3987 26.1111 55.7987 29.1333L55.9987 32.6C56.8431 33 57.4987 33.6 57.9654 34.4C58.432 35.2 58.6654 36.0444 58.6654 36.9333V43.0667C58.6654 43.9556 58.432 44.8 57.9654 45.6C57.4987 46.4 56.8431 47 55.9987 47.4V52C55.9987 53.1 55.6071 54.0416 54.824 54.8247C54.0405 55.6082 53.0987 56 51.9987 56H31.332ZM23.9867 36.6667C23.4169 36.6667 22.9431 36.4738 22.5654 36.088C22.1876 35.7027 21.9987 35.2249 21.9987 34.6547C21.9987 34.0849 22.1916 33.6111 22.5774 33.2333C22.9627 32.8556 23.4405 32.6667 24.0107 32.6667C24.5805 32.6667 25.0543 32.8596 25.432 33.2453C25.8098 33.6307 25.9987 34.1084 25.9987 34.6787C25.9987 35.2484 25.8058 35.7222 25.42 36.1C25.0347 36.4778 24.5569 36.6667 23.9867 36.6667ZM39.9867 36.6667C39.4169 36.6667 38.9431 36.4738 38.5654 36.088C38.1876 35.7027 37.9987 35.2249 37.9987 34.6547C37.9987 34.0849 38.1916 33.6111 38.5774 33.2333C38.9627 32.8556 39.4405 32.6667 40.0107 32.6667C40.5805 32.6667 41.0543 32.8596 41.432 33.2453C41.8098 33.6307 41.9987 34.1084 41.9987 34.6787C41.9987 35.2484 41.8058 35.7222 41.42 36.1C41.0347 36.4778 40.5569 36.6667 39.9867 36.6667ZM16.0654 33.2C15.7543 28.4889 17.1765 24.4444 20.332 21.0667C23.4876 17.6889 27.4209 16 32.132 16C35.9987 16 39.3543 17.2778 42.1987 19.8333C45.0431 22.3889 46.7765 25.5778 47.3987 29.4C43.4431 29.3556 39.832 28.2444 36.5654 26.0667C33.2987 23.8889 30.7703 21.0222 28.98 17.4667C28.2814 21.0222 26.7876 24.1889 24.4987 26.9667C22.2098 29.7444 19.3987 31.8222 16.0654 33.2Z" fill="#4EE39D"/>
</g>
</svg>
