<svg width="64" height="64" viewBox="0 0 64 64" fill="none" xmlns="http://www.w3.org/2000/svg">
<mask id="mask0_3776_35673" style="mask-type:alpha" maskUnits="userSpaceOnUse" x="0" y="0" width="64" height="64">
<rect width="64" height="64" fill="#D9D9D9"/>
</mask>
<g mask="url(#mask0_3776_35673)">
<path d="M40.0013 53.3332C34.0457 53.3332 29.0013 51.2665 24.868 47.1332C20.7346 42.9998 18.668 37.9554 18.668 31.9998C18.668 26.0443 20.7346 20.9998 24.868 16.8665C29.0013 12.7332 34.0457 10.6665 40.0013 10.6665C45.9569 10.6665 51.0013 12.7332 55.1346 16.8665C59.268 20.9998 61.3346 26.0443 61.3346 31.9998C61.3346 37.9554 59.268 42.9998 55.1346 47.1332C51.0013 51.2665 45.9569 53.3332 40.0013 53.3332ZM42.0013 31.1332V23.3332C42.0013 22.7998 41.8097 22.3332 41.4266 21.9332C41.0431 21.5332 40.568 21.3332 40.0013 21.3332C39.4346 21.3332 38.9598 21.5221 38.5766 21.8998C38.1931 22.2776 38.0013 22.7554 38.0013 23.3332V31.9998C38.0013 32.2474 38.0457 32.4869 38.1346 32.7185C38.2235 32.9505 38.3791 33.1776 38.6013 33.3998L45.4013 40.1332C45.7924 40.5332 46.2569 40.7332 46.7946 40.7332C47.3324 40.7332 47.8013 40.5367 48.2013 40.1438C48.6013 39.7509 48.8013 39.2843 48.8013 38.7438C48.8013 38.2034 48.6013 37.7332 48.2013 37.3332L42.0013 31.1332ZM7.33464 23.3332C6.76797 23.3332 6.29308 23.1403 5.90997 22.7545C5.52641 22.3692 5.33464 21.8914 5.33464 21.3212C5.33464 20.7514 5.52641 20.2776 5.90997 19.8998C6.29308 19.5221 6.76797 19.3332 7.33464 19.3332H14.0013C14.568 19.3332 15.0431 19.5261 15.4266 19.9118C15.8097 20.2972 16.0013 20.7749 16.0013 21.3452C16.0013 21.9149 15.8097 22.3887 15.4266 22.7665C15.0431 23.1443 14.568 23.3332 14.0013 23.3332H7.33464ZM4.66797 33.9998C4.1013 33.9998 3.62641 33.8069 3.2433 33.4212C2.85975 33.0358 2.66797 32.5581 2.66797 31.9878C2.66797 31.4181 2.85975 30.9443 3.2433 30.5665C3.62641 30.1887 4.1013 29.9998 4.66797 29.9998H14.0013C14.568 29.9998 15.0431 30.1927 15.4266 30.5785C15.8097 30.9638 16.0013 31.4416 16.0013 32.0118C16.0013 32.5816 15.8097 33.0554 15.4266 33.4332C15.0431 33.8109 14.568 33.9998 14.0013 33.9998H4.66797ZM7.33464 44.6665C6.76797 44.6665 6.29308 44.4736 5.90997 44.0878C5.52641 43.7025 5.33464 43.2247 5.33464 42.6545C5.33464 42.0847 5.52641 41.611 5.90997 41.2332C6.29308 40.8554 6.76797 40.6665 7.33464 40.6665H14.0013C14.568 40.6665 15.0431 40.8594 15.4266 41.2452C15.8097 41.6305 16.0013 42.1083 16.0013 42.6785C16.0013 43.2483 15.8097 43.7221 15.4266 44.0998C15.0431 44.4776 14.568 44.6665 14.0013 44.6665H7.33464Z" fill="#4EE39D"/>
</g>
</svg>
