<svg width="28" height="28" viewBox="0 0 28 28" fill="none" xmlns="http://www.w3.org/2000/svg">
<mask id="mask0_4084_12327" style="mask-type:alpha" maskUnits="userSpaceOnUse" x="0" y="0" width="28" height="28">
<rect width="28" height="28" fill="#D9D9D9"/>
</mask>
<g mask="url(#mask0_4084_12327)">
<path d="M8.45573 14.8745H19.5391V13.1245H8.45573V14.8745ZM13.9994 25.0829C12.4664 25.0829 11.0255 24.792 9.67665 24.2102C8.32778 23.6284 7.15451 22.8389 6.15681 21.8416C5.15912 20.8443 4.36919 19.6715 3.78702 18.3232C3.20505 16.9749 2.91406 15.5344 2.91406 14.0016C2.91406 12.4686 3.20495 11.0276 3.78673 9.67878C4.36851 8.32992 5.15805 7.15664 6.15535 6.15895C7.15266 5.16125 8.32545 4.37132 9.67373 3.78916C11.022 3.20718 12.4625 2.9162 13.9954 2.9162C15.5284 2.9162 16.9693 3.20709 18.3181 3.78886C19.667 4.37064 20.8403 5.16019 21.838 6.15749C22.8357 7.1548 23.6256 8.32759 24.2078 9.67587C24.7897 11.0241 25.0807 12.4647 25.0807 13.9975C25.0807 15.5305 24.7898 16.9714 24.2081 18.3203C23.6263 19.6691 22.8367 20.8424 21.8394 21.8401C20.8421 22.8378 19.6693 23.6277 18.3211 24.2099C16.9728 24.7919 15.5322 25.0829 13.9994 25.0829ZM13.9974 23.3329C16.603 23.3329 18.8099 22.4287 20.6182 20.6204C22.4266 18.812 23.3307 16.6051 23.3307 13.9995C23.3307 11.394 22.4266 9.18703 20.6182 7.3787C18.8099 5.57037 16.603 4.6662 13.9974 4.6662C11.3918 4.6662 9.1849 5.57037 7.37656 7.3787C5.56823 9.18703 4.66406 11.394 4.66406 13.9995C4.66406 16.6051 5.56823 18.812 7.37656 20.6204C9.1849 22.4287 11.3918 23.3329 13.9974 23.3329Z" fill="#4EE39D"/>
</g>
</svg>
