<svg width="276" height="56" viewBox="0 0 276 56" fill="none" xmlns="http://www.w3.org/2000/svg">
<path d="M38.6313 27.0049L24.2251 45.0342H18.5273C24.306 39.2195 30.0644 33.4244 35.8228 27.6098C36.5704 27.6293 37.3382 27.6293 38.0858 27.6488C38.2676 27.4342 38.4495 27.2195 38.6313 27.0049Z" fill="url(#paint0_linear_3776_41516)"/>
<path d="M32.3877 27.5902C26.3868 33.4049 20.3657 39.2195 14.3648 45.0341H8.34375C15.3953 39.2195 22.4468 33.4049 29.4984 27.5707L32.3877 27.5902Z" fill="url(#paint1_linear_3776_41516)"/>
<path fill-rule="evenodd" clip-rule="evenodd" d="M47.8263 15.4731C45.7048 18.2439 42.6135 22.2048 38.4916 27.2C38.4916 27.2195 38.4714 27.2195 38.4714 27.2195C38.3502 27.3756 38.229 27.5317 38.0875 27.6878C37.8249 27.678 37.5622 27.6731 37.2996 27.6682C37.0369 27.6634 36.7742 27.6585 36.5116 27.6487C36.3928 27.6487 36.274 27.6441 36.1528 27.6393H36.1528L36.1527 27.6393C36.0266 27.6343 35.8979 27.6292 35.764 27.6292H34.3496L32.3291 27.6097C31.8543 27.6 31.3795 27.5951 30.9047 27.5902L30.9041 27.5902C30.4295 27.5853 29.9549 27.5804 29.4802 27.5707C29.6924 27.3658 29.9045 27.1561 30.1167 26.9463C30.3288 26.7365 30.541 26.5268 30.7531 26.3219C32.5514 25.6975 34.3294 25.0731 36.1277 24.4292C36.1479 24.4097 36.1681 24.3902 36.1681 24.3707C37.645 22.6081 39.1314 20.8547 40.6209 19.0979L40.6209 19.0978L40.6213 19.0975C41.2917 18.3067 41.9627 17.5153 42.6337 16.7219C42.6539 16.7024 42.6741 16.6829 42.6741 16.6634C42.8862 16.4195 43.0933 16.1756 43.3004 15.9317C43.5075 15.6878 43.7146 15.4439 43.9268 15.2C43.9941 15.1219 44.0615 15.046 44.1288 14.9702C44.2635 14.8184 44.3982 14.6666 44.5329 14.4975C44.5935 14.4195 44.735 14.2634 44.9168 14.0878C45.3411 13.639 49.766 10.7122 50.2307 11.1804C50.7157 11.6878 48.877 14.1073 47.8263 15.4731ZM37.1552 18.7547L37.1547 18.7544C36.5605 18.346 35.9703 17.9404 35.3801 17.5414C34.067 17.1644 32.754 16.7941 31.4369 16.4227L31.4366 16.4226C30.5041 16.1597 29.5696 15.8961 28.6316 15.6292C28.6224 15.5673 28.6091 15.5055 28.5955 15.4418C28.5789 15.3649 28.5618 15.2853 28.5508 15.2C30.8339 15.2195 33.1121 15.2341 35.3902 15.2487C37.6683 15.2634 39.9464 15.278 42.2295 15.2975C41.5931 16.0194 40.9617 16.7414 40.3303 17.4633C39.6989 18.1853 39.0675 18.9073 38.431 19.6292C38.0027 19.3373 37.5779 19.0453 37.1552 18.7547ZM69.4456 12.9171H63.6064V45.0342H84.4175V39.7659H69.4456V12.9171ZM97.6316 45.5415C100.642 45.5415 103.673 44.7025 105.815 42.9659L104.279 39.2781C103.047 40.2342 100.844 41.1512 98.2378 41.1512C94.8636 41.1512 92.2975 39.4537 91.8126 36.3317H107.249C107.471 35.5512 107.572 34.7707 107.572 33.4829C107.572 27.6878 102.966 23.8829 97.4498 23.8829C90.4185 23.8829 86.135 28.7024 86.135 34.7122C86.135 41.2293 90.7417 45.5415 97.6316 45.5415ZM102.097 32.7805H91.5904C92.1763 30.0878 93.9341 28.2927 97.2073 28.2732C100.339 28.2732 102.137 30.2634 102.097 32.7805ZM112.28 25.8537C114.139 24.8 117.028 23.8829 119.837 23.8829C126.161 23.8829 128.384 27.0049 128.384 32.4683V45.0342H123.635V42.6537C122.504 44.2146 120.221 45.3073 117.311 45.3073C113.412 45.3073 110.603 42.9659 110.603 38.9659C110.603 34.4195 114.078 32.2732 118.402 32.2732C120.302 32.2732 122.201 32.8781 123.251 33.6C123.393 30.1659 122.443 28.2732 119.251 28.2732C116.907 28.2732 115.368 28.9433 113.867 29.5962L113.634 29.6976L112.28 25.8537ZM123.251 38.9854V36.8781C122.302 36.1951 121.069 35.8634 119.493 35.8634C117.695 35.8634 116.079 36.6829 116.079 38.439C116.079 40 117.412 40.8781 119.13 40.8781C121.393 40.8585 122.585 39.9025 123.251 38.9854ZM142.749 45.4049C145.497 45.4049 147.437 44.3513 148.871 42.8878V45.0537H154.327V12.9171H148.871V24.8976C147.679 24.1952 146.305 23.883 144.406 23.883C137.516 23.883 132.667 28.4293 132.667 34.9464C132.667 41.2293 136.627 45.4049 142.749 45.4049ZM148.871 30.0683V38.3805C147.639 39.5708 145.881 40.4878 143.901 40.4683C140.992 40.4683 138.526 38.4 138.526 34.7318C138.526 30.9269 141.416 28.8196 144.649 28.8196C146.124 28.8196 147.498 29.2488 148.871 30.0683ZM178.755 42.9659C176.613 44.7025 173.582 45.5415 170.572 45.5415C163.682 45.5415 159.075 41.2293 159.075 34.7122C159.075 28.7024 163.358 23.8829 170.39 23.8829C175.906 23.8829 180.512 27.6878 180.512 33.4829C180.512 34.7707 180.411 35.5512 180.189 36.3317H164.753C165.237 39.4537 167.803 41.1512 171.178 41.1512C173.784 41.1512 175.986 40.2342 177.219 39.2781L178.755 42.9659ZM164.55 32.7805H175.057C175.097 30.2634 173.299 28.2732 170.167 28.2732C166.874 28.2927 165.116 30.0878 164.55 32.7805ZM190.393 24.3903H184.958V45.0342H190.413V31.1805C191.039 29.9903 192.029 28.9756 193.929 28.9756C195.06 28.9756 195.626 29.1512 196.676 29.7561L198.616 24.8C197.889 24.2927 197.04 24.0195 195.282 24.0195C192.716 24.0195 191.383 25.0732 190.393 26.4V24.3903ZM222.721 37.4635C222.721 42.5952 220.114 45.5415 214.679 45.5415C212.153 45.5415 209.87 44.5269 209.022 43.5708L210.921 39.2586C211.689 39.8049 212.82 40.2732 213.871 40.2732C216.013 40.2732 216.861 38.8098 216.861 36.5074V12.9171H222.7V37.4635H222.721ZM240.541 45.5415C243.552 45.5415 246.583 44.7025 248.724 42.9659L247.189 39.2781C245.956 40.2342 243.754 41.1512 241.148 41.1512C237.773 41.1512 235.207 39.4537 234.722 36.3317H250.159C250.381 35.5512 250.482 34.7707 250.482 33.4829C250.482 27.6878 245.876 23.8829 240.36 23.8829C233.328 23.8829 229.045 28.7024 229.045 34.7122C229.045 41.2293 233.652 45.5415 240.541 45.5415ZM245.007 32.7805H234.5C235.086 30.0878 236.844 28.2927 240.117 28.2732C243.249 28.2732 245.047 30.2634 245.007 32.7805ZM254.422 18.6537H259.878V24.3903H266.768V29.3464H259.878V36.8781C259.878 39.122 260.645 40.6049 262.444 40.6049C263.919 40.6049 264.969 39.961 265.717 39.4147L267.374 43.4927C266.081 44.5073 263.818 45.5025 261.049 45.5025C256.2 45.5025 254.402 42.4781 254.402 37.1903V18.6537H254.422Z" fill="white"/>
<defs>
<linearGradient id="paint0_linear_3776_41516" x1="28.5773" y1="45.0381" x2="28.5773" y2="27.0049" gradientUnits="userSpaceOnUse">
<stop stop-color="#070729" stop-opacity="0"/>
<stop offset="0.15" stop-color="#0D1E32" stop-opacity="0.24"/>
<stop offset="0.39" stop-color="#153E3E" stop-opacity="0.57"/>
<stop offset="0.62" stop-color="#1B5646" stop-opacity="0.81"/>
<stop offset="0.83" stop-color="#1F644C" stop-opacity="0.95"/>
<stop offset="1" stop-color="#21694E"/>
</linearGradient>
<linearGradient id="paint1_linear_3776_41516" x1="20.3667" y1="45.0361" x2="20.3667" y2="27.5805" gradientUnits="userSpaceOnUse">
<stop stop-color="#070729" stop-opacity="0"/>
<stop offset="0.19" stop-color="#183C3E" stop-opacity="0.27"/>
<stop offset="0.39" stop-color="#296E52" stop-opacity="0.53"/>
<stop offset="0.58" stop-color="#369662" stop-opacity="0.73"/>
<stop offset="0.75" stop-color="#40B26D" stop-opacity="0.88"/>
<stop offset="0.89" stop-color="#45C374" stop-opacity="0.97"/>
<stop offset="1" stop-color="#48CA77"/>
</linearGradient>
</defs>
</svg>
