<svg width="32" height="32" viewBox="0 0 32 32" fill="none" xmlns="http://www.w3.org/2000/svg">
<path fill-rule="evenodd" clip-rule="evenodd" d="M0 16C0 24.8366 7.16344 32 16 32C24.8366 32 32 24.8366 32 16C32 7.16344 24.8366 0 16 0C7.16344 0 0 7.16344 0 16ZM26.0414 15.3877C26.0393 20.6322 21.7729 24.8996 16.5273 24.9017H16.5234C14.9311 24.9012 13.3665 24.5017 11.9768 23.7437L6.93327 25.0667L8.28301 20.1366C7.45042 18.6937 7.01232 17.057 7.01304 15.3802C7.01512 10.1345 11.2831 5.8667 16.5272 5.8667C19.0724 5.8678 21.4611 6.85861 23.2574 8.65697C25.0537 10.4552 26.0424 12.8456 26.0414 15.3877Z" fill="white"/>
<path fill-rule="evenodd" clip-rule="evenodd" d="M9.21539 22.8064L12.2083 22.0213L12.4971 22.1926C13.7112 22.9131 15.1029 23.2944 16.5219 23.2949H16.5251C20.8836 23.2949 24.431 19.7474 24.4328 15.3871C24.4336 13.2741 23.6118 11.2874 22.1188 9.79267C20.6259 8.29794 18.6404 7.47437 16.5282 7.47363C12.1664 7.47363 8.61892 11.0207 8.61719 15.3807C8.61658 16.8749 9.03465 18.3301 9.82623 19.5891L10.0142 19.8883L9.21539 22.8064ZM20.9927 17.436C21.1585 17.5162 21.2705 17.5703 21.3183 17.6501C21.3777 17.7492 21.3777 18.2252 21.1797 18.7806C20.9815 19.3358 20.0318 19.8427 19.575 19.9109C19.1655 19.9721 18.6472 19.9977 18.0777 19.8167C17.7324 19.7071 17.2897 19.5609 16.7225 19.3159C14.4939 18.3536 12.9878 16.1936 12.7031 15.7853C12.6832 15.7567 12.6692 15.7367 12.6614 15.7264L12.6595 15.7238C12.5337 15.5559 11.6908 14.4312 11.6908 13.2672C11.6908 12.1721 12.2286 11.5982 12.4762 11.334C12.4932 11.3159 12.5088 11.2993 12.5228 11.284C12.7407 11.046 12.9982 10.9865 13.1567 10.9865C13.3152 10.9865 13.4738 10.988 13.6123 10.9949C13.6294 10.9958 13.6472 10.9957 13.6656 10.9956C13.8041 10.9947 13.9768 10.9937 14.1472 11.403C14.2127 11.5605 14.3087 11.794 14.4098 12.0402C14.6144 12.5383 14.8404 13.0885 14.8801 13.1681C14.9396 13.2871 14.9792 13.4259 14.9 13.5846C14.8881 13.6084 14.8771 13.6309 14.8666 13.6523C14.807 13.7738 14.7633 13.8632 14.6622 13.9812C14.6225 14.0275 14.5815 14.0775 14.5404 14.1275C14.4586 14.2271 14.3769 14.3267 14.3057 14.3977C14.1866 14.5162 14.0628 14.6448 14.2014 14.8828C14.3401 15.1208 14.8172 15.8993 15.5239 16.5296C16.2836 17.2073 16.9439 17.4937 17.2785 17.6388C17.3439 17.6672 17.3968 17.6901 17.4357 17.7096C17.6733 17.8286 17.812 17.8087 17.9507 17.6501C18.0893 17.4914 18.5449 16.9559 18.7034 16.7179C18.8618 16.48 19.0204 16.5197 19.2382 16.599C19.4562 16.6784 20.625 17.2534 20.8627 17.3724C20.9091 17.3956 20.9525 17.4166 20.9927 17.436Z" fill="white"/>
</svg>
