<svg width="64" height="64" viewBox="0 0 64 64" fill="none" xmlns="http://www.w3.org/2000/svg">
<path fill-rule="evenodd" clip-rule="evenodd" d="M32 0C14.3269 0 0 14.3269 0 32C0 49.6731 14.3269 64 32 64C49.6731 64 64 49.6731 64 32C64 14.3269 49.6731 0 32 0ZM45.3355 20.9991C46.8042 21.4021 47.9608 22.5896 48.3534 24.0976C49.0667 26.8307 49.0667 32.5333 49.0667 32.5333C49.0667 32.5333 49.0667 38.2357 48.3534 40.969C47.9608 42.4771 46.8042 43.6645 45.3355 44.0678C42.6739 44.8 32 44.8 32 44.8C32 44.8 21.3262 44.8 18.6644 44.0678C17.1957 43.6645 16.039 42.4771 15.6465 40.969C14.9333 38.2357 14.9333 32.5333 14.9333 32.5333C14.9333 32.5333 14.9333 26.8307 15.6465 24.0976C16.039 22.5896 17.1957 21.4021 18.6644 20.9991C21.3262 20.2667 32 20.2667 32 20.2667C32 20.2667 42.6739 20.2667 45.3355 20.9991Z" fill="url(#paint0_linear_3776_41710)"/>
<path d="M28.8008 38.4001V27.7334L37.3341 33.0669L28.8008 38.4001Z" fill="url(#paint1_linear_3776_41710)"/>
<defs>
<linearGradient id="paint0_linear_3776_41710" x1="0" y1="32" x2="64" y2="32" gradientUnits="userSpaceOnUse">
<stop stop-color="#4EE39D"/>
<stop offset="1" stop-color="#0DC97A"/>
</linearGradient>
<linearGradient id="paint1_linear_3776_41710" x1="28.8008" y1="33.0667" x2="37.3341" y2="33.0667" gradientUnits="userSpaceOnUse">
<stop stop-color="#4EE39D"/>
<stop offset="1" stop-color="#0DC97A"/>
</linearGradient>
</defs>
</svg>
