<svg width="512" height="512" viewBox="0 0 512 512" fill="none" xmlns="http://www.w3.org/2000/svg">
<path d="M67.682 480.81H19.5273" stroke="#263238" stroke-width="1.024" stroke-miterlimit="10" stroke-linecap="round" stroke-linejoin="round"/>
<path d="M498.707 480.81H76.2656" stroke="#263238" stroke-width="1.024" stroke-miterlimit="10" stroke-linecap="round" stroke-linejoin="round"/>
<path d="M163.908 369.709C163.908 369.709 162.069 374.768 158.159 375.458C154.251 376.148 147.352 368.559 151.72 364.651C156.09 360.741 162.069 366.949 163.908 369.709Z" fill="#4EE39D" stroke="#263238" stroke-width="1.024" stroke-miterlimit="10" stroke-linecap="round" stroke-linejoin="round"/>
<path d="M169.886 344.875C169.886 344.875 164.138 358.902 166.438 365.8C168.737 372.699 182.994 377.758 187.133 368.789C191.272 359.821 182.074 347.175 178.624 344.415C175.175 341.655 171.036 342.575 169.886 344.875Z" fill="#4EE39D" stroke="#263238" stroke-width="1.024" stroke-miterlimit="10" stroke-linecap="round" stroke-linejoin="round"/>
<path d="M203.461 350.853C203.461 350.853 193.573 359.821 192.423 368.788C191.273 377.757 197.941 380.976 204.84 379.826C211.739 378.676 215.188 361.201 213.118 353.152C211.05 345.104 203.461 350.853 203.461 350.853Z" fill="#4EE39D" stroke="#263238" stroke-width="1.024" stroke-miterlimit="10" stroke-linecap="round" stroke-linejoin="round"/>
<path d="M205.299 400.521C205.299 400.521 194.261 400.981 193.801 406.27C193.342 411.559 198.631 412.709 203.919 408.109C209.207 403.511 209.898 400.752 205.299 400.521Z" fill="#4EE39D" stroke="#263238" stroke-width="1.024" stroke-miterlimit="10" stroke-linecap="round" stroke-linejoin="round"/>
<path d="M193.984 407.53C193.984 407.53 202.683 403.551 206.6 402.86" stroke="#263238" stroke-width="1.024" stroke-miterlimit="10"/>
<path d="M207.76 435.128C207.76 435.128 199.653 427.624 195.577 431.027C191.502 434.43 194.415 438.991 201.405 439.5C208.395 440.008 210.839 438.551 207.76 435.128Z" fill="#4EE39D" stroke="#263238" stroke-width="1.024" stroke-miterlimit="10" stroke-linecap="round" stroke-linejoin="round"/>
<path d="M194.812 432.045C194.812 432.045 203.767 435.409 207.02 437.699" stroke="#263238" stroke-width="1.024" stroke-miterlimit="10"/>
<path d="M164.993 432.918C164.993 432.918 176.169 422.575 181.786 427.265C187.404 431.955 183.388 438.243 173.752 438.944C164.116 439.645 160.748 437.638 164.993 432.918Z" fill="#4EE39D" stroke="#263238" stroke-width="1.024" stroke-miterlimit="10" stroke-linecap="round" stroke-linejoin="round"/>
<path d="M182.839 428.668C182.839 428.668 170.495 433.304 166.012 436.462" stroke="#263238" stroke-width="1.024" stroke-miterlimit="10"/>
<path d="M177.936 411.559C177.936 411.559 176.786 417.077 172.647 419.147C168.508 421.216 161.149 416.847 165.059 410.179C168.967 403.511 175.866 408.799 177.936 411.559Z" fill="#4EE39D" stroke="#263238" stroke-width="1.024" stroke-miterlimit="10" stroke-linecap="round" stroke-linejoin="round"/>
<path d="M168.278 394.314C168.278 394.314 166.208 389.715 158.16 392.704C150.112 395.693 146.892 400.292 151.951 401.901C157.011 403.511 168.278 394.314 168.278 394.314Z" fill="#4EE39D" stroke="#263238" stroke-width="1.024" stroke-miterlimit="10" stroke-linecap="round" stroke-linejoin="round"/>
<path d="M166.735 394.104C166.735 394.104 158.21 395.025 153.602 398.943" stroke="#263238" stroke-width="1.024" stroke-miterlimit="10"/>
<path d="M191.273 339.126C191.273 339.126 192.653 342.346 195.412 341.656C198.172 340.966 198.861 336.826 203.231 337.976C207.6 339.126 211.278 344.185 211.278 341.886C211.278 339.586 205.76 333.608 199.551 333.608C193.343 333.607 191.503 336.136 191.273 339.126Z" fill="#4EE39D" stroke="#263238" stroke-width="1.024" stroke-miterlimit="10" stroke-linecap="round" stroke-linejoin="round"/>
<path d="M168.277 394.314C168.277 394.314 178.178 392.413 182.302 403.408C182.707 404.486 183.049 405.615 183.335 406.773" stroke="#263238" stroke-width="1.024" stroke-miterlimit="10"/>
<path d="M209.602 383.661C209.602 383.661 211.671 379.062 219.72 382.051C227.767 385.04 230.987 389.639 225.928 391.249C220.869 392.86 209.602 383.661 209.602 383.661Z" fill="#4EE39D" stroke="#263238" stroke-width="1.024" stroke-miterlimit="10" stroke-linecap="round" stroke-linejoin="round"/>
<path d="M211.438 383.965C211.438 383.965 219.733 383.504 223.65 388.344" stroke="#263238" stroke-width="1.024" stroke-miterlimit="10"/>
<path d="M209.6 383.661C209.6 383.661 206.318 383.031 202.746 384.595" stroke="#263238" stroke-width="1.024" stroke-miterlimit="10"/>
<path d="M173.555 375.413C168.703 370.457 163.908 369.709 163.908 369.709C163.908 369.709 156.828 367.835 154.062 370.369" stroke="#263238" stroke-width="1.024" stroke-miterlimit="10"/>
<path d="M174.543 349.94L174.113 348.019" stroke="#263238" stroke-width="1.024" stroke-miterlimit="10"/>
<path d="M185.741 451.597C185.741 451.597 186.772 411.997 185.741 399.971C184.71 387.945 179.9 373.858 179.9 373.858L175 351.976" stroke="#263238" stroke-width="1.024" stroke-miterlimit="10"/>
<path d="M206.176 358.442L207.062 356.544" stroke="#263238" stroke-width="1.024" stroke-miterlimit="10"/>
<path d="M188.145 451.553C188.145 451.553 188.489 415.432 189.863 405.125C191.237 394.817 196.735 378.668 196.735 378.668L205.172 360.595" stroke="#263238" stroke-width="1.024" stroke-miterlimit="10"/>
<path d="M193.987 407.53C193.987 407.53 191.581 428.239 190.207 451.603" stroke="#263238" stroke-width="1.024" stroke-miterlimit="10"/>
<path d="M182.304 451.553C182.304 451.553 182.991 418.525 181.617 414.058C180.243 409.592 177.938 411.559 177.938 411.559C177.938 411.559 171.577 412.306 169.273 415.994" stroke="#263238" stroke-width="1.024" stroke-miterlimit="10"/>
<path d="M183.883 409.345C185.681 419.417 184.022 451.588 184.022 451.588" stroke="#263238" stroke-width="1.024" stroke-miterlimit="10"/>
<path d="M200.798 385.675C198.808 387.037 196.895 389.236 195.575 392.756C191.452 403.752 191.923 451.603 191.923 451.603" stroke="#263238" stroke-width="1.024" stroke-miterlimit="10"/>
<path d="M174.754 376.723C176.902 379.246 178.985 382.655 180.586 387.258C186.083 403.064 188.145 443.994 187.114 451.553" stroke="#263238" stroke-width="1.024" stroke-miterlimit="10"/>
<path d="M188.716 391.515C188.381 411.462 188.145 451.553 188.145 451.553" stroke="#263238" stroke-width="1.024" stroke-miterlimit="10"/>
<path d="M188.758 389.033C188.984 375.843 189.251 362.933 189.519 355.991C190.206 338.124 191.273 339.125 191.273 339.125C191.273 339.125 192.545 335.113 199.688 335.575" stroke="#263238" stroke-width="1.024" stroke-miterlimit="10"/>
<path d="M179.957 404.096C179.957 404.096 174.208 398.97 176.508 396.449C178.808 393.928 193.064 392.078 197.203 395.356C201.342 398.634 192.144 403.255 188.695 404.264C185.246 405.273 181.107 404.937 179.957 404.096Z" fill="#4EE39D" stroke="#263238" stroke-width="1.024" stroke-miterlimit="10" stroke-linecap="round" stroke-linejoin="round"/>
<path d="M185.265 399.899C185.185 400.418 185.137 400.934 185.137 401.43" stroke="#263238" stroke-width="1.024" stroke-miterlimit="10"/>
<path d="M187.241 393.913C187.241 393.913 186.386 395.624 185.766 397.722" stroke="#263238" stroke-width="1.024" stroke-miterlimit="10"/>
<path d="M179.957 437.615C179.957 437.615 174.208 432.488 176.508 429.967C178.808 427.446 193.064 425.597 197.203 428.875C201.342 432.153 192.144 436.775 188.695 437.783C185.246 438.791 181.107 438.454 179.957 437.615Z" fill="#4EE39D" stroke="#263238" stroke-width="1.024" stroke-miterlimit="10" stroke-linecap="round" stroke-linejoin="round"/>
<path d="M187.241 427.432C187.241 427.432 185.137 431.641 185.137 434.947" stroke="#263238" stroke-width="1.024" stroke-miterlimit="10"/>
<path d="M184.238 423.438C184.238 423.438 180.334 419.958 181.896 418.245C183.458 416.533 193.137 415.279 195.947 417.504C198.757 419.729 192.513 422.868 190.171 423.552C187.829 424.237 185.019 424.009 184.238 423.438Z" fill="#4EE39D" stroke="#263238" stroke-width="1.024" stroke-miterlimit="10" stroke-linecap="round" stroke-linejoin="round"/>
<path d="M189.186 416.525C189.186 416.525 187.758 419.382 187.758 421.628" stroke="#263238" stroke-width="1.024" stroke-miterlimit="10"/>
<path d="M194.402 445.852H178.84V480.357H194.402V445.852Z" fill="#263238" stroke="#263238" stroke-width="1.024" stroke-miterlimit="10" stroke-linecap="round" stroke-linejoin="round"/>
<path d="M455.891 400.263C450.092 400.263 445.3 396.741 445.016 396.528C444.066 395.816 443.874 394.467 444.587 393.517C445.299 392.569 446.647 392.372 447.598 393.088C447.897 393.308 455.104 398.549 461.121 394.288C465.548 391.152 466.148 370.042 465.16 356.054C465.076 354.869 465.967 353.842 467.153 353.758C468.347 353.691 469.366 354.568 469.449 355.751C469.875 361.779 471.599 392.136 463.607 397.797C461.034 399.619 458.37 400.263 455.891 400.263Z" fill="#263238"/>
<path d="M429.353 399.875H422.195V452.528H429.353V399.875Z" fill="#263238" stroke="#263238" stroke-width="1.024" stroke-miterlimit="10" stroke-linecap="round" stroke-linejoin="round"/>
<path d="M453.817 394.806H397.732C395.569 394.806 393.816 393.053 393.816 390.89V383.283C393.816 381.12 395.569 379.367 397.732 379.367H453.817C455.979 379.367 457.732 381.12 457.732 383.283V390.89C457.731 393.053 455.979 394.806 453.817 394.806Z" fill="#8C8C8C" stroke="#263238" stroke-width="1.024" stroke-miterlimit="10" stroke-linecap="round" stroke-linejoin="round"/>
<path d="M463.369 307.769C462.803 309.035 462.356 310.359 461.971 311.691C459.269 321.023 459.067 331.12 458.964 340.777C458.924 344.616 457.922 350.833 459.413 354.395C461.27 358.834 469.642 360.87 471.951 355.867C474.862 349.558 473.101 341.179 474.502 334.383C476.057 326.845 480.342 317.52 478.473 309.894C476.689 302.62 470.835 296.775 465.14 304.65C464.437 305.622 463.858 306.674 463.369 307.769Z" fill="#8C8C8C" stroke="#263238" stroke-width="1.024" stroke-miterlimit="10" stroke-linecap="round" stroke-linejoin="round"/>
<path d="M438.94 394.96H412.609V402.118H438.94V394.96Z" fill="#263238" stroke="#263238" stroke-width="1.024" stroke-miterlimit="10" stroke-linecap="round" stroke-linejoin="round"/>
<path d="M394.843 477.441C394.843 479.302 393.335 480.81 391.474 480.81C389.614 480.81 388.105 479.302 388.105 477.441C388.105 475.58 389.614 474.072 391.474 474.072C393.335 474.072 394.843 475.58 394.843 477.441Z" fill="white" stroke="#263238" stroke-width="1.024" stroke-miterlimit="10" stroke-linecap="round" stroke-linejoin="round"/>
<path d="M464.054 477.441C464.054 479.302 462.546 480.81 460.685 480.81C458.825 480.81 457.316 479.302 457.316 477.441C457.316 475.58 458.825 474.072 460.685 474.072C462.546 474.072 464.054 475.58 464.054 477.441Z" fill="white" stroke="#263238" stroke-width="1.024" stroke-miterlimit="10" stroke-linecap="round" stroke-linejoin="round"/>
<path d="M429.043 477.441C429.043 479.302 427.534 480.81 425.674 480.81C423.813 480.81 422.305 479.302 422.305 477.441C422.305 475.58 423.813 474.072 425.674 474.072C427.534 474.072 429.043 475.58 429.043 477.441Z" fill="white" stroke="#263238" stroke-width="1.024" stroke-miterlimit="10" stroke-linecap="round" stroke-linejoin="round"/>
<path d="M428.044 452.528L425.775 452.614L423.506 452.528L386.473 473.46V476.522H391.481V473.868L425.775 461.81L460.069 473.868V476.522H465.077V473.46L428.044 452.528Z" fill="#263238" stroke="#263238" stroke-width="1.024" stroke-miterlimit="10" stroke-linecap="round" stroke-linejoin="round"/>
<path d="M422.496 452.431H429.05L428.067 476.523H423.479L422.496 452.431Z" fill="#263238" stroke="#263238" stroke-width="1.024" stroke-miterlimit="10" stroke-linecap="round" stroke-linejoin="round"/>
<path d="M387.936 234.203C387.936 234.203 387.018 241.391 389.771 245.367C392.523 249.343 393.288 251.637 393.288 253.472C393.288 255.307 392.065 258.365 393.288 259.283C394.512 260.2 398.182 259.283 398.182 259.283C398.182 259.283 404.757 266.012 407.051 265.399C409.345 264.788 411.638 262.953 411.638 262.953C411.638 262.953 418.52 269.987 419.437 271.975C420.355 273.963 420.966 275.493 420.966 275.493L431.211 259.284C431.211 259.284 424.482 254.39 421.271 245.827C418.06 237.263 418.06 225.948 408.274 223.5C398.487 221.052 389.007 230.074 387.936 234.203Z" fill="white" stroke="#263238" stroke-width="1.024" stroke-miterlimit="10" stroke-linecap="round" stroke-linejoin="round"/>
<path d="M400.672 258.211C400.672 258.211 403.577 256.835 403.577 254.082" stroke="#263238" stroke-width="1.024" stroke-miterlimit="10" stroke-linecap="round" stroke-linejoin="round"/>
<path d="M391.962 246.663C391.962 246.663 391.809 243.299 395.479 243.911" stroke="#263238" stroke-width="1.024" stroke-miterlimit="10" stroke-linecap="round" stroke-linejoin="round"/>
<path d="M396.994 249.032C397.566 249.918 397.657 250.879 397.196 251.177C396.736 251.475 395.897 250.998 395.325 250.111C394.752 249.224 394.661 248.264 395.123 247.966C395.583 247.668 396.421 248.145 396.994 249.032Z" fill="#263238"/>
<path d="M411.637 262.952L415.76 259.821V266.759L411.637 262.952Z" fill="#263238" stroke="#263238" stroke-width="1.024" stroke-miterlimit="10" stroke-linecap="round" stroke-linejoin="round"/>
<path d="M349.439 373.878L340.517 463.482C340.517 463.482 327.87 463.745 322.6 463.219C317.331 462.691 312.324 460.584 312.851 463.482C313.378 466.38 321.282 471.123 324.18 472.441C327.078 473.759 330.768 474.548 333.138 475.866C335.51 477.184 340.516 480.873 342.623 480.345C344.732 479.818 349.474 460.584 349.474 460.584L373.942 381.783L401.345 379.676C401.345 379.676 359.978 368.609 355.762 368.082C351.548 367.555 349.439 373.878 349.439 373.878Z" fill="white" stroke="#263238" stroke-width="1.024" stroke-miterlimit="10" stroke-linecap="round" stroke-linejoin="round"/>
<path d="M335.774 470.86C326.815 468.751 323.654 466.117 323.654 466.117L326.041 463.432C324.734 463.382 323.547 463.313 322.6 463.219C317.331 462.691 312.324 460.584 312.851 463.482C313.378 466.381 321.282 471.123 324.18 472.441C327.078 473.758 330.768 474.548 333.138 475.866C335.51 477.184 340.516 480.873 342.623 480.345C343.499 480.126 344.827 476.682 346.082 472.73C343.847 472.476 340.418 471.952 335.774 470.86Z" fill="#4EE39D" stroke="#263238" stroke-width="1.024" stroke-miterlimit="10" stroke-linecap="round" stroke-linejoin="round"/>
<path d="M414.835 333.601L411.358 347.266C411.358 347.266 395.548 347.793 377.631 351.482C359.714 355.17 343.114 360.177 342.588 363.339C342.062 366.501 362.613 404.179 378.685 433.162C382.161 439.43 389.751 455.295 389.751 455.295C389.751 455.295 386.854 463.199 383.955 467.679C381.057 472.158 376.577 476.374 375.523 476.901C374.469 477.429 371.307 478.746 372.361 480.063C373.415 481.381 384.218 480.063 385.008 480.063C385.799 480.063 394.23 472.686 396.602 470.578C398.974 468.47 408.196 461.619 407.932 458.984C407.668 456.35 399.5 450.553 398.974 448.709C398.446 446.864 387.907 423.941 387.38 421.833C386.852 419.724 372.888 378.358 372.888 378.358C372.888 378.358 430.064 381.52 442.449 380.466C454.832 379.412 456.677 374.669 457.468 370.453C458.258 366.238 452.724 331.985 452.724 331.985L415.837 331.722L414.835 333.601Z" fill="white" stroke="#263238" stroke-width="1.024" stroke-miterlimit="10" stroke-linecap="round" stroke-linejoin="round"/>
<path d="M372.889 378.358L360.242 373.087" stroke="#263238" stroke-width="1.024" stroke-miterlimit="10" stroke-linecap="round" stroke-linejoin="round"/>
<path d="M407.931 458.983C407.802 457.69 405.767 455.635 403.667 453.66C402.821 454.735 401.849 455.936 400.816 457.139C397.654 460.828 384.217 474.002 384.217 474.002L379.923 472.831C377.95 474.998 376.142 476.59 375.523 476.9C374.469 477.428 371.307 478.745 372.36 480.062C373.414 481.38 384.217 480.062 385.008 480.062C385.798 480.062 394.23 472.685 396.602 470.577C398.972 468.469 408.194 461.618 407.931 458.983Z" fill="#4EE39D" stroke="#263238" stroke-width="1.024" stroke-miterlimit="10" stroke-linecap="round" stroke-linejoin="round"/>
<path d="M415.836 331.72L414.835 333.602L411.357 347.267C411.357 347.267 395.547 347.793 377.631 351.483C372.258 352.589 367.008 353.813 362.27 355.072L374.505 378.447C383.871 378.949 431.3 381.415 442.448 380.467C454.831 379.413 456.676 374.67 457.467 370.454C458.257 366.238 452.724 331.986 452.724 331.986L415.836 331.72Z" fill="#4EE39D" stroke="#263238" stroke-width="1.024" stroke-miterlimit="10" stroke-linecap="round" stroke-linejoin="round"/>
<path d="M414.52 348.584C414.52 348.584 433.227 351.218 441.659 358.332" stroke="#263238" stroke-width="1.024" stroke-miterlimit="10" stroke-linecap="round" stroke-linejoin="round"/>
<path d="M421.105 347.529C421.105 347.529 432.962 349.11 436.651 351.745" stroke="#263238" stroke-width="1.024" stroke-miterlimit="10" stroke-linecap="round" stroke-linejoin="round"/>
<path d="M367.205 308.514C367.205 308.514 363.088 308.155 361.119 309.409C359.15 310.662 349.663 317.105 347.158 319.254C344.652 321.402 342.324 325.16 342.146 325.698C341.967 326.234 343.22 326.413 343.757 326.234C344.294 326.055 346.621 324.265 345.905 325.16C345.19 326.055 346.45 326.273 346.45 326.273C346.45 326.273 359.688 318.537 360.762 318.716C361.836 318.895 363.983 318.179 365.416 317.105C366.847 316.031 370.606 314.062 370.606 314.062L412.849 322.296L419.293 316.389L417.862 302.07L408.376 309.945L367.205 308.514Z" fill="white" stroke="#263238" stroke-width="1.024" stroke-miterlimit="10" stroke-linecap="round" stroke-linejoin="round"/>
<path d="M426.401 261.902C426.401 261.902 418.538 277.861 414.605 290.12C410.673 302.378 412.755 305.153 413.68 305.847C414.605 306.542 416.686 308.161 416.686 308.161C416.686 308.161 413.217 331.752 414.836 333.602C416.455 335.452 429.869 336.147 440.74 336.147C451.611 336.147 454.154 331.752 454.154 329.439C454.154 327.126 449.298 289.889 445.597 277.863C441.897 265.835 431.952 257.97 426.401 261.902Z" fill="white" stroke="#263238" stroke-width="1.024" stroke-miterlimit="10" stroke-linecap="round" stroke-linejoin="round"/>
<path d="M421.174 260.705C421.174 260.705 412.36 269.252 413.161 271.922C413.963 274.593 417.434 274.326 417.434 274.326C417.434 274.326 416.899 278.599 418.769 278.064C420.639 277.53 429.185 266.58 429.185 266.58C429.185 266.58 424.913 255.899 421.174 260.705Z" fill="white" stroke="#263238" stroke-width="1.024" stroke-miterlimit="10" stroke-linecap="round" stroke-linejoin="round"/>
<path d="M425.947 280.19L421.006 314.94C421.006 314.94 369.892 312.165 368.966 312.165C368.04 312.165 357.864 316.791 353.701 319.104C349.539 321.417 346.763 323.036 346.069 324.655C345.375 326.274 345.375 326.274 345.375 326.274C345.375 326.274 348.613 326.968 351.619 326.274C354.626 325.581 356.939 324.424 356.939 324.424C356.939 324.424 362.952 323.729 365.034 322.342C367.116 320.954 371.741 317.022 371.741 317.022C371.741 317.022 411.985 327.893 416.148 328.586C420.311 329.28 430.256 333.443 432.569 331.131C434.494 329.206 440.267 295.541 442.146 284.318C442.609 281.555 441.923 278.713 440.185 276.516C438.791 274.755 436.885 273.143 434.65 272.847C427.851 271.945 425.947 280.19 425.947 280.19Z" fill="white" stroke="#263238" stroke-width="1.024" stroke-miterlimit="10" stroke-linecap="round" stroke-linejoin="round"/>
<path d="M440.189 276.516C438.795 274.755 436.888 273.143 434.654 272.847C427.853 271.946 425.949 280.191 425.949 280.191L421.007 314.941C421.007 314.941 416.05 314.672 409.195 314.301C409.935 318.31 410.967 324.121 411.378 327.48C413.741 328.068 415.453 328.471 416.149 328.587C420.313 329.282 430.258 333.444 432.57 331.131C434.495 329.206 440.269 295.541 442.148 284.318C442.613 281.555 441.926 278.713 440.189 276.516Z" stroke="#263238" stroke-width="1.024" stroke-miterlimit="10" stroke-linecap="round" stroke-linejoin="round"/>
<path d="M422.777 317.327C422.777 317.327 430.256 328.011 429.455 325.34C428.654 322.67 427.318 316.259 425.182 314.123" stroke="#263238" stroke-width="1.024" stroke-miterlimit="10" stroke-linecap="round" stroke-linejoin="round"/>
<path d="M351.619 326.273C351.619 326.273 351.537 324.807 352.524 324.242C353.511 323.678 358.447 321.421 358.871 321.281" stroke="#263238" stroke-width="1.024" stroke-miterlimit="10" stroke-linecap="round" stroke-linejoin="round"/>
<path d="M348.859 326.641C348.859 326.641 349.565 324.384 350.129 323.961C350.693 323.538 356.616 320.153 356.616 320.153" stroke="#263238" stroke-width="1.024" stroke-miterlimit="10" stroke-linecap="round" stroke-linejoin="round"/>
<path d="M477.263 260.172C476.996 248.955 462.307 252.159 459.369 247.352C456.431 242.545 461.505 242.545 458.301 234.799C455.096 227.054 441.474 233.197 434.798 232.129C431.22 231.556 428.181 227.84 426.129 224.514C425.025 221.216 424.124 218.691 419.972 214.539C414.098 208.665 397.649 216.302 397.649 216.302C397.649 216.302 380.026 225.995 380.32 231.576C380.614 237.156 404.406 240.681 406.462 240.681C408.518 240.681 408.812 235.394 411.455 236.862C413.947 238.247 414.601 241.439 414.422 243.032C414.027 244.6 413.7 245.861 413.511 246.555C412.629 249.785 416.103 251.358 415.568 261.774C415.034 272.19 430.792 270.321 434.531 270.855C438.269 271.39 442.15 284.318 444.947 289.017C447.742 293.716 456.431 293.557 460.705 289.284C464.978 285.011 461.24 281.004 461.506 277.533C461.772 274.06 477.529 271.389 477.263 260.172Z" fill="#263238" stroke="#263238" stroke-width="1.024" stroke-miterlimit="10" stroke-linecap="round" stroke-linejoin="round"/>
<path d="M262.315 481.359H256.159L254.84 338.115H263.634L262.315 481.359Z" fill="white" stroke="#263238" stroke-width="1.024" stroke-miterlimit="10" stroke-linecap="round" stroke-linejoin="round"/>
<path d="M375.116 481.359H368.96L367.641 338.115H376.435L375.116 481.359Z" fill="white" stroke="#263238" stroke-width="1.024" stroke-miterlimit="10" stroke-linecap="round" stroke-linejoin="round"/>
<path d="M386.19 329.415H246.137V338.858H386.19V329.415Z" fill="#263238" stroke="#263238" stroke-width="1.024" stroke-miterlimit="10" stroke-linecap="round" stroke-linejoin="round"/>
<path d="M305.662 329.491H284.616C283.3 329.491 282.116 328.815 281.446 327.682C280.777 326.549 280.757 325.184 281.392 324.032L304.512 282.129C304.861 281.494 305.661 281.264 306.296 281.612C306.932 281.964 307.162 282.763 306.812 283.398L283.693 325.3C283.431 325.777 283.616 326.19 283.709 326.346C283.802 326.503 284.074 326.864 284.617 326.864H305.663C306.388 326.864 306.977 327.452 306.977 328.178C306.976 328.903 306.388 329.491 305.662 329.491Z" fill="#263238"/>
<path d="M302.937 243.897L298.324 244.79L313.09 321.049L317.702 320.155L302.937 243.897Z" fill="white" stroke="#263238" stroke-width="1.024" stroke-miterlimit="10" stroke-linecap="round" stroke-linejoin="round"/>
<path d="M371.047 327.749L333.254 326.673V329.189H371.047V327.749Z" fill="white" stroke="#263238" stroke-width="1.024" stroke-miterlimit="10" stroke-linecap="round" stroke-linejoin="round"/>
<path d="M373.836 160.975C406.497 160.975 432.973 134.498 432.973 101.838C432.973 69.1772 406.497 42.7007 373.836 42.7007C341.176 42.7007 314.699 69.1772 314.699 101.838C314.699 134.498 341.176 160.975 373.836 160.975Z" stroke="#263238" stroke-width="1.024" stroke-miterlimit="10" stroke-linecap="round" stroke-linejoin="round"/>
<path d="M334.134 145.644C334.553 128.914 334.872 112.298 334.685 111.359C334.303 109.449 329.91 109.449 329.91 109.449C329.91 109.449 326.471 118.427 325.707 127.022C325.541 128.885 325.187 131.629 324.734 134.783C327.418 138.778 330.58 142.421 334.134 145.644Z" fill="white" stroke="#263238" stroke-width="1.024" stroke-miterlimit="10" stroke-linecap="round" stroke-linejoin="round"/>
<path d="M373.837 160.975C386.56 160.975 398.339 156.948 407.985 150.111L408.053 114.546C408.053 114.546 395.559 108.186 383.975 106.368C372.39 104.55 337.863 109.775 337.863 109.775L336.711 147.855C346.861 156.055 359.771 160.975 373.837 160.975Z" fill="#4EE39D" stroke="#263238" stroke-width="1.024" stroke-miterlimit="10" stroke-linecap="round" stroke-linejoin="round"/>
<path d="M362.379 86.7185C362.379 86.7185 359.705 114.224 360.47 115.943C361.233 117.663 364.481 122.247 371.166 122.247C377.852 122.247 385.11 115.18 385.11 115.18L387.402 87.4824C387.402 87.4824 378.615 91.6849 372.503 90.3476C366.391 89.0102 362.379 86.7185 362.379 86.7185Z" fill="white" stroke="#263238" stroke-width="1.024" stroke-miterlimit="10" stroke-linecap="round" stroke-linejoin="round"/>
<path d="M371.492 97.5247L386.447 107.019L387.633 85.6555L371.492 97.5247Z" fill="#263238"/>
<path d="M356.142 63.6057C356.142 63.6057 354.232 59.2128 352.321 62.6503C350.412 66.0889 356.714 74.8749 356.714 74.8749L356.142 63.6057Z" fill="white" stroke="#263238" stroke-width="1.024" stroke-miterlimit="10" stroke-linecap="round" stroke-linejoin="round"/>
<path d="M392.815 63.6057C392.815 63.6057 394.725 59.2128 396.636 62.6503C398.545 66.0889 391.262 75.4401 391.262 75.4401L392.815 63.6057Z" fill="white" stroke="#263238" stroke-width="1.024" stroke-miterlimit="10" stroke-linecap="round" stroke-linejoin="round"/>
<path d="M356.714 66.0888C356.714 66.0888 354.805 59.2126 354.805 57.3018C354.805 55.3921 358.243 55.3921 358.243 55.3921L356.714 66.0888Z" fill="#263238"/>
<path d="M356.971 56.1202C356.971 56.1202 356.301 79.7798 358.087 83.5737C359.873 87.3676 366.122 96.0726 367.685 97.1888C369.247 98.305 374.604 98.7514 376.167 98.5282C377.729 98.3049 389.694 86.3702 390.14 84.8076C390.587 83.245 392.46 61.4768 392.46 61.4768L392.237 43.3981C392.237 43.3981 387.774 40.9425 381.077 41.389C374.381 41.8354 357.864 48.9778 357.864 48.9778L356.971 56.1202Z" fill="white" stroke="#263238" stroke-width="1.024" stroke-miterlimit="10" stroke-linecap="round" stroke-linejoin="round"/>
<path d="M387.104 46.9688C387.104 46.9688 381.524 54.3344 379.069 55.4505C376.613 56.5667 377.059 51.8799 377.059 51.8799C377.059 51.8799 371.256 56.3435 362.998 58.1293C354.739 59.9152 348.043 60.3617 345.811 57.2364C343.579 54.1112 350.721 49.6475 350.721 49.6475C350.721 49.6475 345.141 46.2991 350.721 40.2728C356.301 34.2466 370.586 27.5506 380.853 31.5678C391.121 35.586 389.112 39.3799 389.112 39.3799C389.112 39.3799 396.924 38.2637 397.594 44.5132C398.263 50.7627 393.577 57.9051 393.577 57.9051C393.577 57.9051 393.353 63.2616 393.353 64.601C393.353 65.9404 391.791 65.7172 391.791 65.7172L391.121 59.0212C391.121 59.0212 388.665 59.2445 387.327 54.5576C385.988 49.8708 387.104 46.9688 387.104 46.9688Z" fill="#263238"/>
<path d="M368.555 78.5049C368.555 78.5049 370.846 80.4146 372.948 80.4146C375.049 80.4146 377.15 78.6953 377.15 78.6953" stroke="#263238" stroke-width="1.024" stroke-miterlimit="10" stroke-linecap="round" stroke-linejoin="round"/>
<path d="M366.262 83.4712C366.262 83.4712 370.464 85.7639 374.093 85.381C377.722 84.999 380.015 81.9424 380.015 81.9424" stroke="#263238" stroke-width="1.024" stroke-miterlimit="10" stroke-linecap="round" stroke-linejoin="round"/>
<path d="M377.152 61.6958C377.152 61.6958 384.41 59.5946 386.703 63.6056" stroke="#263238" stroke-width="1.024" stroke-miterlimit="10" stroke-linecap="round" stroke-linejoin="round"/>
<path d="M369.318 62.2682C369.318 62.2682 364.352 58.8296 360.531 62.4597" stroke="#263238" stroke-width="1.024" stroke-miterlimit="10" stroke-linecap="round" stroke-linejoin="round"/>
<path d="M367.218 67.1968C367.218 68.7584 366.516 70.0241 365.65 70.0241C364.785 70.0241 364.082 68.7584 364.082 67.1968C364.082 65.6352 364.783 64.3706 365.65 64.3706C366.516 64.3696 367.218 65.6352 367.218 67.1968Z" fill="#263238"/>
<path d="M380.443 71.1976C381.309 71.1976 382.01 69.9323 382.01 68.3714C382.01 66.8105 381.309 65.5452 380.443 65.5452C379.577 65.5452 378.875 66.8105 378.875 68.3714C378.875 69.9323 379.577 71.1976 380.443 71.1976Z" fill="#263238"/>
<path d="M425.211 131.124C421.257 121.734 418.045 114.494 417.393 113.842C415.483 111.932 391.797 99.8984 391.797 99.8984C391.797 99.8984 389.124 95.1235 386.449 97.6067C386.449 97.6067 378.426 123.394 375.752 146.125C375.277 150.164 374.911 155.279 374.629 160.957C396.299 160.671 415.151 148.738 425.211 131.124Z" fill="white" stroke="#263238" stroke-width="1.024" stroke-miterlimit="10" stroke-linecap="round" stroke-linejoin="round"/>
<path d="M391.798 99.8983C391.798 99.8983 392.372 106.011 392.372 113.842C392.372 121.674 391.226 129.505 391.226 129.505C391.226 129.505 387.023 128.359 382.821 129.697C378.618 131.034 377.664 132.562 377.664 132.562C377.664 132.562 383.586 101.426 386.451 97.6066C389.315 93.7861 390.271 96.6512 391.798 99.8983Z" fill="white" stroke="#263238" stroke-width="1.024" stroke-miterlimit="10" stroke-linecap="round" stroke-linejoin="round"/>
<path d="M403.357 150.68C402.818 149.093 402.545 147.653 402.685 146.506C403.448 140.202 404.594 133.326 404.594 133.326" stroke="#263238" stroke-width="1.024" stroke-miterlimit="10" stroke-linecap="round" stroke-linejoin="round"/>
<path d="M355.534 158.082C355.716 151.259 356.008 145.664 356.461 142.495C358.562 127.787 360.854 97.6066 360.854 97.6066C358.562 97.0332 354.36 101.045 354.36 101.045C354.36 101.045 331.82 107.539 329.91 109.45C329.014 110.346 328.874 125.017 328.979 140.348C335.963 148.476 345.108 154.692 355.534 158.082Z" fill="white" stroke="#263238" stroke-width="1.024" stroke-miterlimit="10" stroke-linecap="round" stroke-linejoin="round"/>
<path d="M354.359 101.044C354.359 101.044 351.876 109.831 349.584 117.281C347.292 124.73 346.719 128.741 346.719 128.741C346.719 128.741 349.01 125.494 352.449 127.977C355.888 130.461 357.989 132.562 357.989 132.562L361.226 97.6261C361.226 97.6261 356.651 97.0332 354.359 101.044Z" fill="white" stroke="#263238" stroke-width="1.024" stroke-miterlimit="10" stroke-linecap="round" stroke-linejoin="round"/>
<path d="M94.0143 188.269C116.12 188.269 135.383 176.132 145.529 158.164L141.955 153.922C139.8 150.152 137.633 148.317 135.774 147.811C132.205 146.837 106.74 143.057 106.74 143.057L80.2998 144.454C80.2998 144.454 67.3032 147.599 57.1339 151.955L45.7695 163.319C56.4836 178.413 74.0934 188.269 94.0143 188.269Z" fill="#4EE39D" stroke="#263238" stroke-width="1.024" stroke-miterlimit="10" stroke-linecap="round" stroke-linejoin="round"/>
<path d="M99.7374 161.673C98.5372 162.37 97.2706 163.015 95.9414 163.581" stroke="#263238" stroke-width="1.024" stroke-miterlimit="10" stroke-linecap="round" stroke-linejoin="round"/>
<path d="M113.262 149.41C113.262 149.41 108.831 155.797 101.453 160.615" stroke="#263238" stroke-width="1.024" stroke-miterlimit="10" stroke-linecap="round" stroke-linejoin="round"/>
<path d="M111.099 155.905C111.099 155.905 107.753 160.629 104.801 162.204" stroke="#263238" stroke-width="1.024" stroke-miterlimit="10" stroke-linecap="round" stroke-linejoin="round"/>
<path d="M80.0744 76.4808C80.0744 76.4808 68.6138 73.848 66.445 76.79C64.2772 79.733 68.6138 82.5203 67.9943 83.1398C67.3748 83.7593 54.0556 90.5741 55.139 97.2342C56.2234 103.894 65.206 110.709 65.5162 112.568C65.8255 114.426 55.139 115.046 53.7453 117.834C52.3517 120.621 50.3385 133.787 61.9537 138.124C73.57 142.46 88.1282 135.181 92.1556 135.181C96.182 135.181 100.209 143.08 104.855 142.615C109.501 142.15 112.135 138.743 112.135 138.743C112.135 138.743 116.936 145.403 123.906 142.615C130.875 139.827 138.929 130.07 135.522 127.127C132.115 124.184 128.242 123.255 130.72 120.621C133.199 117.989 138.309 111.018 137.535 104.979C136.761 98.9381 129.636 98.4742 126.849 96.6157C124.06 94.7571 129.946 91.6595 129.792 86.5487C129.637 81.4379 125.92 72.9193 107.024 67.189C88.1292 61.4587 78.8364 64.246 77.9066 69.0475C76.9768 73.8481 80.0744 76.4808 80.0744 76.4808Z" fill="#263238" stroke="#263238" stroke-width="1.024" stroke-miterlimit="10" stroke-linecap="round" stroke-linejoin="round"/>
<path d="M82.1344 126.172C82.1344 126.172 78.2626 150.334 78.108 151.108C77.9534 151.882 84.9227 158.851 94.3701 157.612C103.818 156.373 108.619 150.024 108.619 150.024L105.676 126.017C105.676 126.017 97.6224 129.889 92.6662 129.734C87.71 129.58 82.1344 126.172 82.1344 126.172Z" fill="white" stroke="#263238" stroke-width="1.024" stroke-miterlimit="10" stroke-linecap="round" stroke-linejoin="round"/>
<path d="M80.543 139.135L96.8491 135.979L82.1322 126.172L80.543 139.135Z" fill="#263238" stroke="#263238" stroke-width="1.024" stroke-miterlimit="10" stroke-linecap="round" stroke-linejoin="round"/>
<path d="M73.5263 104.87C73.5263 104.87 70.7984 101.414 69.5245 105.779C68.2517 110.145 73.7076 115.419 73.7076 115.419L73.5263 104.87Z" fill="white" stroke="#263238" stroke-width="1.024" stroke-miterlimit="10" stroke-linecap="round" stroke-linejoin="round"/>
<path d="M112.623 104.87C112.623 104.87 115.351 101.414 116.624 105.779C117.898 110.145 112.441 115.419 112.441 115.419L112.623 104.87Z" fill="white" stroke="#263238" stroke-width="1.024" stroke-miterlimit="10" stroke-linecap="round" stroke-linejoin="round"/>
<path d="M82.099 83.0292C82.099 83.0292 74.289 90.613 73.1564 92.877C72.0239 95.1411 72.4775 121.063 73.7227 123.553C74.9679 126.043 87.4197 135.778 89.4564 136.57C91.4942 137.363 96.135 138.155 99.7569 136.344C103.379 134.532 112.095 125.251 113 122.874C113.905 120.497 112.774 93.3307 112.208 90.7266C111.641 88.1226 97.9454 78.8411 92.1721 78.3885C86.3998 77.9348 82.099 83.0292 82.099 83.0292Z" fill="white" stroke="#263238" stroke-width="1.024" stroke-miterlimit="10" stroke-linecap="round" stroke-linejoin="round"/>
<path d="M86.1953 120.085C86.1953 120.085 88.5341 122.618 92.8206 122.618C97.1071 122.618 100.615 119.5 100.615 119.5" stroke="#263238" stroke-width="1.024" stroke-miterlimit="10" stroke-linecap="round" stroke-linejoin="round"/>
<path d="M86.1661 93.0655C86.1661 93.0655 82.3988 93.2161 79.6863 95.6276C76.9737 98.0391 79.8368 98.4907 80.8915 98.0391C81.9462 97.5875 84.9599 95.7791 87.0703 95.7791C89.1798 95.7791 88.8787 92.915 86.1661 93.0655Z" fill="#263238" stroke="#263238" stroke-width="1.024" stroke-miterlimit="10" stroke-linecap="round" stroke-linejoin="round"/>
<path d="M98.1718 91.5592C98.1718 91.5592 101.939 91.7097 104.652 94.1212C107.364 96.5328 104.501 96.9843 103.446 96.5328C102.392 96.0802 99.3781 94.2718 97.2676 94.2718C95.1572 94.2718 95.4593 91.4087 98.1718 91.5592Z" fill="#263238" stroke="#263238" stroke-width="1.024" stroke-miterlimit="10" stroke-linecap="round" stroke-linejoin="round"/>
<path d="M88.24 78.3916C88.24 78.3916 99.9402 89.0647 108.355 89.4753C116.771 89.886 116.771 89.886 116.771 89.886C116.771 89.886 98.2967 87.4232 92.55 74.9018C92.55 74.9018 86.1869 69.5647 88.24 78.3916Z" fill="#263238" stroke="#263238" stroke-width="1.024" stroke-miterlimit="10" stroke-linecap="round" stroke-linejoin="round"/>
<path d="M96.5889 113.365C96.5889 113.365 94.5512 116.422 93.0797 116.422C91.6082 116.422 90.1367 114.724 90.1367 114.724" stroke="#263238" stroke-width="1.024" stroke-miterlimit="10" stroke-linecap="round" stroke-linejoin="round"/>
<path d="M89.5506 105.191C89.5506 107.164 88.5512 108.762 87.3183 108.762C86.0854 108.762 85.0859 107.163 85.0859 105.191C85.0859 103.217 86.0854 101.618 87.3183 101.618C88.5512 101.618 89.5506 103.217 89.5506 105.191Z" fill="#263238"/>
<path d="M102.119 108.914C103.352 108.914 104.351 107.314 104.351 105.341C104.351 103.368 103.352 101.769 102.119 101.769C100.886 101.769 99.8867 103.368 99.8867 105.341C99.8867 107.314 100.886 108.914 102.119 108.914Z" fill="#263238"/>
<path d="M94.012 188.268C126.673 188.268 153.149 161.792 153.149 129.131C153.149 96.4709 126.673 69.9944 94.012 69.9944C61.3515 69.9944 34.875 96.4709 34.875 129.131C34.875 161.792 61.3515 188.268 94.012 188.268Z" stroke="#263238" stroke-width="1.024" stroke-miterlimit="10" stroke-linecap="round" stroke-linejoin="round"/>
<path d="M145.19 339.368C144.139 332.987 139.072 325.078 139.072 325.078C139.072 325.078 136.84 327.886 136.566 329.225C136.291 330.565 129.866 344.993 127.919 356.442C127.686 357.818 127.538 359.098 127.453 360.294C134.879 354.821 140.986 347.661 145.19 339.368Z" fill="#4EE39D" stroke="#263238" stroke-width="1.024" stroke-miterlimit="10" stroke-linecap="round" stroke-linejoin="round"/>
<path d="M92.4179 371.803C108.167 371.803 122.466 365.637 133.064 355.599C134.488 349.111 135.913 342.732 136.074 342.445C136.406 341.854 141.449 329.039 139.073 325.078C136.698 321.117 113.975 309.678 113.975 309.678L104.99 305.472C104.99 305.472 76.6042 306.142 75.4952 306.416C74.3862 306.689 58.5583 313.93 48.519 320.538C38.535 327.11 38.6783 327.319 36.8945 333.015C45.191 355.647 66.91 371.803 92.4179 371.803Z" fill="#4EE39D" stroke="#263238" stroke-width="1.024" stroke-miterlimit="10" stroke-linecap="round" stroke-linejoin="round"/>
<path d="M92.4183 371.803C125.079 371.803 151.555 345.327 151.555 312.666C151.555 280.006 125.079 253.529 92.4183 253.529C59.7578 253.529 33.2812 280.006 33.2812 312.666C33.2812 345.327 59.7578 371.803 92.4183 371.803Z" stroke="#263238" stroke-width="1.024" stroke-miterlimit="10" stroke-linecap="round" stroke-linejoin="round"/>
<path d="M80.9756 297.525C77.4715 297.68 74.3299 299.724 72.7314 302.846L67.296 309.615C67.296 309.615 67.0236 309.381 71.6183 316.159C76.213 322.938 86.6701 329.776 86.6701 329.776C86.6701 329.776 87.7484 319.188 89.8517 320.045C91.955 320.902 98.6888 340.663 98.6888 340.663C98.6888 340.663 100.283 317.741 103.926 318.735C107.568 319.73 111.561 328.884 111.561 328.884C111.561 328.884 117.309 317.492 116.765 310.403C116.222 303.314 106.543 299.982 106.543 299.982C106.543 299.982 90.4732 297.107 80.9756 297.525Z" fill="white" stroke="#263238" stroke-width="1.024" stroke-miterlimit="10" stroke-linecap="round" stroke-linejoin="round"/>
<path d="M108.8 291.229L108.894 307.442C108.894 307.442 103.696 321.771 95.1992 321.481C86.702 321.191 77.3242 304.26 77.3242 304.26L78.3697 292.245L108.8 291.229Z" fill="#C2C2C2" stroke="#263238" stroke-width="1.024" stroke-miterlimit="10" stroke-linecap="round" stroke-linejoin="round"/>
<path d="M78.6082 246.657C78.6082 246.657 73.1083 252.073 72.3024 255.212C71.4965 258.352 73.1001 284.087 75.1317 289.515C77.1633 294.945 82.6519 304.404 88.629 307.5C94.6061 310.594 101.792 307.756 105.607 302.211C109.422 296.666 111.581 288.169 112.185 285.201C112.789 282.235 113.317 255.721 111.948 251.474C110.578 247.225 100.294 241.353 93.7275 241.036C87.1616 240.722 81.4447 244.05 78.6082 246.657Z" fill="#A8A8A8" stroke="#263238" stroke-width="1.024" stroke-miterlimit="10" stroke-linecap="round" stroke-linejoin="round"/>
<path d="M87.7188 282.572C87.7188 282.572 89.0295 285.12 92.5725 285.58C96.1155 286.04 98.3612 283.765 98.6489 282.468" stroke="#263238" stroke-width="1.024" stroke-miterlimit="10" stroke-linecap="round" stroke-linejoin="round"/>
<path d="M88.7982 265.838C88.7982 265.838 82.3152 267.269 80.8458 267.755C79.3763 268.243 78.6165 265.663 82.6798 264.604C86.743 263.545 90.8759 263.422 88.7982 265.838Z" fill="#263238" stroke="#263238" stroke-width="1.024" stroke-miterlimit="10" stroke-linecap="round" stroke-linejoin="round"/>
<path d="M97.6749 265.875C97.6749 265.875 104.156 267.314 105.624 267.804C107.094 268.293 107.857 265.715 103.794 264.651C99.7332 263.586 95.6003 263.457 97.6749 265.875Z" fill="#263238" stroke="#263238" stroke-width="1.024" stroke-miterlimit="10" stroke-linecap="round" stroke-linejoin="round"/>
<path d="M88.0624 273.283C87.9753 274.421 87.234 275.291 86.4066 275.228C85.5792 275.164 84.9791 274.19 85.0672 273.054C85.1542 271.916 85.8956 271.045 86.723 271.109C87.5493 271.172 88.1494 272.145 88.0624 273.283Z" fill="#263238"/>
<path d="M104.094 273.283C104.007 274.421 103.265 275.291 102.438 275.228C101.61 275.164 101.01 274.19 101.098 273.054C101.185 271.916 101.927 271.045 102.754 271.109C103.581 271.172 104.181 272.145 104.094 273.283Z" fill="#263238"/>
<path d="M91.0622 285.653C91.0622 285.653 83.6741 286.216 82.7105 288.967C81.7459 291.717 82.1944 300.603 84.2117 303.77C86.2279 306.939 91.7299 308.867 94.7404 308.91C97.75 308.953 101.695 306.619 102.948 305.02C104.2 303.421 105.179 300.482 105.365 298.049C105.552 295.615 106.545 290.042 103.894 287.767C101.244 285.492 91.0622 285.653 91.0622 285.653Z" fill="#263238" stroke="#263238" stroke-width="1.024" stroke-miterlimit="10" stroke-linecap="round" stroke-linejoin="round"/>
<path d="M102.672 289.868C102.672 289.868 97.7806 289.962 94.1946 290.063C90.6085 290.165 85.9258 289.993 85.9258 289.993C85.9258 289.993 87.3645 298.096 93.7297 298.584C100.095 299.073 102.672 289.868 102.672 289.868Z" fill="#C2C2C2" stroke="#263238" stroke-width="1.024" stroke-miterlimit="10" stroke-linecap="round" stroke-linejoin="round"/>
<path d="M85.1992 289.656C85.1992 289.656 94.8156 299.138 102.521 289.386" stroke="#263238" stroke-width="1.024" stroke-miterlimit="10" stroke-linecap="round" stroke-linejoin="round"/>
<path d="M87.344 277.646C87.344 277.646 84.5075 280.253 83.3555 280.542" stroke="#263238" stroke-width="1.024" stroke-miterlimit="10" stroke-linecap="round" stroke-linejoin="round"/>
<path d="M100.465 278.464C100.465 278.464 102.409 280.12 103.72 280.221" stroke="#263238" stroke-width="1.024" stroke-miterlimit="10" stroke-linecap="round" stroke-linejoin="round"/>
<path d="M72.5084 272.177C72.5084 272.177 69.5696 268.75 68.0581 271.271C66.5467 273.791 68.2189 281.452 69.9617 283.281C71.7046 285.11 74.11 285.671 74.11 285.671L72.5084 272.177Z" fill="#A8A8A8" stroke="#263238" stroke-width="1.024" stroke-miterlimit="10" stroke-linecap="round" stroke-linejoin="round"/>
<path d="M112.92 270.757C112.92 270.757 116.534 267.832 117.34 269.589C118.147 271.347 118.177 275.869 116.81 278.965C115.443 282.062 112.289 283.892 112.289 283.892L112.92 270.757Z" fill="#A8A8A8" stroke="#263238" stroke-width="1.024" stroke-miterlimit="10" stroke-linecap="round" stroke-linejoin="round"/>
<path d="M58.6571 361.219C59.0062 354.097 57.9423 346.784 54.2242 341.414C45.6779 329.071 40.0233 327.337 40.0233 327.337C40.0233 327.337 38.4965 327.625 36.0625 330.58C40.0459 343.123 48.0863 353.855 58.6571 361.219Z" fill="#4EE39D" stroke="#263238" stroke-width="1.024" stroke-miterlimit="10" stroke-linecap="round" stroke-linejoin="round"/>
<path d="M289.862 228.038V136.61C289.862 130.391 284.821 125.349 278.601 125.349H188.53C182.312 125.349 177.27 130.391 177.27 136.61V228.038C177.27 234.256 182.312 239.299 188.53 239.299H246.696L289.862 257.612L269.777 239.299H278.601C284.82 239.299 289.862 234.257 289.862 228.038Z" fill="#263238"/>
<path d="M282.032 231.584H183.609V137.807C183.609 134.383 186.385 131.605 189.811 131.605H275.832C279.256 131.605 282.033 134.382 282.033 137.807V231.584H282.032Z" fill="white" stroke="#263238" stroke-width="1.024" stroke-miterlimit="10" stroke-linecap="round" stroke-linejoin="round"/>
<path d="M282.032 144.67H183.609V137.807C183.609 134.383 186.385 131.605 189.811 131.605H275.832C279.256 131.605 282.033 134.382 282.033 137.807V144.67H282.032Z" fill="#4EE39D" stroke="#263238" stroke-width="1.024" stroke-miterlimit="10" stroke-linecap="round" stroke-linejoin="round"/>
<path d="M207.15 160.079C207.15 164.359 203.679 167.829 199.399 167.829C195.119 167.829 191.648 164.359 191.648 160.079C191.648 155.798 195.119 152.329 199.399 152.329C203.68 152.329 207.15 155.798 207.15 160.079Z" fill="#4EE39D"/>
<path d="M203.827 177.022H191.633V180.562H203.827V177.022Z" fill="#B0B0B0"/>
<path d="M203.827 189.864H191.633V193.404H203.827V189.864Z" fill="#B0B0B0"/>
<path d="M203.827 202.705H191.633V206.245H203.827V202.705Z" fill="#B0B0B0"/>
<path d="M203.827 215.404H191.633V218.944H203.827V215.404Z" fill="#B0B0B0"/>
<path d="M274.685 150.668H214.344V170.597H274.685V150.668Z" fill="#4EE39D"/>
<path d="M271.795 175.757H215.684V203.813H271.795V175.757Z" stroke="#263238" stroke-width="1.024" stroke-miterlimit="10" stroke-linecap="round" stroke-linejoin="round"/>
<path d="M215.684 203.813L235.265 192.708L245.2 195.63L260.689 183.355L271.503 190.37V203.813H215.684Z" fill="#263238" stroke="#263238" stroke-width="1.024" stroke-miterlimit="10" stroke-linecap="round" stroke-linejoin="round"/>
<path d="M226.204 189.2C228.625 189.2 230.588 187.238 230.588 184.817C230.588 182.396 228.625 180.433 226.204 180.433C223.783 180.433 221.82 182.396 221.82 184.817C221.82 187.238 223.783 189.2 226.204 189.2Z" fill="#263238" stroke="#263238" stroke-width="1.024" stroke-miterlimit="10" stroke-linecap="round" stroke-linejoin="round"/>
<path d="M232.5 209.784H274.283" stroke="#263238" stroke-width="1.024" stroke-miterlimit="10" stroke-linecap="round" stroke-linejoin="round"/>
<path d="M215.031 209.784H229.658" stroke="#263238" stroke-width="1.024" stroke-miterlimit="10" stroke-linecap="round" stroke-linejoin="round"/>
<path d="M261.477 215.359H274.283" stroke="#263238" stroke-width="1.024" stroke-miterlimit="10" stroke-linecap="round" stroke-linejoin="round"/>
<path d="M228.523 215.359H257.785" stroke="#263238" stroke-width="1.024" stroke-miterlimit="10" stroke-linecap="round" stroke-linejoin="round"/>
<path d="M215.031 215.359H225.397" stroke="#263238" stroke-width="1.024" stroke-miterlimit="10" stroke-linecap="round" stroke-linejoin="round"/>
<path d="M242.16 220.934H274.284" stroke="#263238" stroke-width="1.024" stroke-miterlimit="10" stroke-linecap="round" stroke-linejoin="round"/>
<path d="M215.031 220.934H238.749" stroke="#263238" stroke-width="1.024" stroke-miterlimit="10" stroke-linecap="round" stroke-linejoin="round"/>
<path d="M262.898 226.51H274.284" stroke="#263238" stroke-width="1.024" stroke-miterlimit="10" stroke-linecap="round" stroke-linejoin="round"/>
<path d="M222.555 226.51H260.056" stroke="#263238" stroke-width="1.024" stroke-miterlimit="10" stroke-linecap="round" stroke-linejoin="round"/>
<path d="M215.031 226.51H219.43" stroke="#263238" stroke-width="1.024" stroke-miterlimit="10" stroke-linecap="round" stroke-linejoin="round"/>
<path d="M407.385 195.814H284.981C281.583 195.814 278.828 193.059 278.828 189.661V176.524C278.828 173.126 281.583 170.37 284.981 170.37H407.385C410.784 170.37 413.539 173.126 413.539 176.524V189.661C413.539 193.059 410.784 195.814 407.385 195.814Z" fill="#4EE39D" stroke="#263238" stroke-width="1.024" stroke-miterlimit="10" stroke-linecap="round" stroke-linejoin="round"/>
<path d="M298.267 174.146L300.505 181.031H307.745L301.887 185.288L304.124 192.173L298.267 187.917L292.409 192.173L294.646 185.288L288.789 181.031H296.03L298.267 174.146Z" fill="white" stroke="#263238" stroke-width="1.024" stroke-miterlimit="10" stroke-linecap="round" stroke-linejoin="round"/>
<path d="M322.4 174.146L324.637 181.031H331.878L326.02 185.288L328.257 192.173L322.4 187.917L316.542 192.173L318.779 185.288L312.922 181.031H320.163L322.4 174.146Z" fill="white" stroke="#263238" stroke-width="1.024" stroke-miterlimit="10" stroke-linecap="round" stroke-linejoin="round"/>
<path d="M346.533 174.146L348.77 181.031H356.011L350.153 185.288L352.39 192.173L346.533 187.917L340.675 192.173L342.912 185.288L337.055 181.031H344.295L346.533 174.146Z" fill="white" stroke="#263238" stroke-width="1.024" stroke-miterlimit="10" stroke-linecap="round" stroke-linejoin="round"/>
<path d="M370.666 174.146L372.903 181.031H380.144L374.287 185.288L376.524 192.173L370.666 187.917L364.807 192.173L367.045 185.288L361.188 181.031H368.428L370.666 174.146Z" fill="white" stroke="#263238" stroke-width="1.024" stroke-miterlimit="10" stroke-linecap="round" stroke-linejoin="round"/>
<path d="M394.798 174.146L397.036 181.031H404.277L398.418 185.288L400.657 192.173L394.798 187.917L388.94 192.173L391.179 185.288L385.32 181.031H392.561L394.798 174.146Z" fill="white" stroke="#263238" stroke-width="1.024" stroke-miterlimit="10" stroke-linecap="round" stroke-linejoin="round"/>
<path d="M196.874 114.284C217.082 109.282 229.409 88.8443 224.406 68.6362C219.403 48.4281 198.966 36.1015 178.758 41.1041C158.55 46.1067 146.223 66.544 151.226 86.7521C156.229 106.96 176.666 119.287 196.874 114.284Z" fill="#263238" stroke="#263238" stroke-width="1.024" stroke-miterlimit="10"/>
<path d="M195.507 108.775C212.679 104.525 223.155 87.1604 218.906 69.9886C214.656 52.8168 197.291 42.341 180.12 46.5902C162.948 50.8393 152.472 68.2044 156.721 85.3762C160.97 102.548 178.335 113.024 195.507 108.775Z" fill="#4EE39D" stroke="#263238" stroke-width="1.024" stroke-miterlimit="10" stroke-linecap="round" stroke-linejoin="round"/>
<path d="M205.048 74.9538C206.667 75.6317 207.877 76.5778 207.887 78.3217C207.897 79.9581 207.089 81.1694 205.383 81.8627C205.547 81.9876 205.664 82.0962 205.801 82.1781C206.635 82.6798 207.18 83.3926 207.502 84.2537C208.198 86.1102 206.746 88.3528 204.655 88.6498C204.03 88.7389 203.397 88.7727 202.659 88.8423C202.86 88.9723 202.992 89.0583 203.124 89.1423C204.784 90.195 204.806 92.3474 203.176 93.4472C202.674 93.7851 202.163 93.9735 201.509 93.9643C196.875 93.8998 192.241 93.8926 187.606 93.8292C184.157 93.7821 180.757 93.3202 177.377 92.6884C174.903 92.2256 172.397 92.0105 169.872 91.9757C169.428 91.9696 168.98 91.9399 168.542 91.8703C167.868 91.7627 167.692 91.561 167.69 90.919C167.676 87.082 167.659 83.2461 167.666 79.4102C167.669 77.8353 167.721 76.2604 167.763 74.6865C167.779 74.0649 168.001 73.7782 168.668 73.7096C169.81 73.5908 170.962 73.554 172.109 73.4761C172.754 73.4321 173.398 73.3789 174.043 73.3246C174.822 73.2601 175.47 72.9303 176.034 72.4419C177.354 71.2981 178.389 69.9372 179.363 68.5374C180.414 67.026 181.383 65.4644 182.467 63.9744C183.209 62.9535 184.06 61.9971 184.91 61.0489C186.096 59.7269 186.828 58.2216 187.208 56.5443C187.533 55.1097 187.891 53.6822 188.24 52.2527C188.294 52.0305 188.368 51.8114 188.451 51.5963C188.81 50.6573 189.527 50.2836 190.556 50.5826C192.436 51.1284 193.57 52.3582 194.028 54.1256C194.448 55.7507 194.257 57.3768 193.805 58.9599C193.264 60.8553 192.6 62.7211 192.001 64.6022C191.809 65.2073 191.621 65.8176 191.493 66.4361C191.341 67.1785 191.6 67.4837 192.408 67.4991C194.724 67.5441 197.041 67.5543 199.358 67.5933C200.925 67.6189 202.492 67.6926 204.06 67.7038C206.134 67.7192 208.288 70.057 207.371 72.6365C207.028 73.6011 206.401 74.3373 205.403 74.7756C205.3 74.8207 205.204 74.8749 205.048 74.9538Z" fill="white" stroke="#263238" stroke-width="1.024" stroke-miterlimit="10" stroke-linecap="round" stroke-linejoin="round"/>
<path d="M227.173 297.447H136.412C133.047 297.447 130.32 294.721 130.32 291.356V258.508C130.32 255.143 133.047 252.416 136.412 252.416H227.173C230.538 252.416 233.265 255.143 233.265 258.508V291.356C233.265 294.721 230.537 297.447 227.173 297.447Z" fill="#263238" stroke="#263238" stroke-width="1.024" stroke-miterlimit="10" stroke-linecap="round" stroke-linejoin="round"/>
<path d="M136.412 252.416H124.668L130.242 261.184L136.412 252.416Z" fill="#263238" stroke="#263238" stroke-width="1.024" stroke-miterlimit="10" stroke-linecap="round" stroke-linejoin="round"/>
<path d="M157.515 267.791C158.848 262.149 155.354 256.496 149.712 255.163C144.07 253.831 138.416 257.325 137.084 262.967C135.752 268.609 139.246 274.263 144.888 275.595C150.53 276.927 156.183 273.433 157.515 267.791Z" fill="white" stroke="#263238" stroke-width="1.024" stroke-miterlimit="10" stroke-linecap="round" stroke-linejoin="round"/>
<path d="M147.308 275.856C150.187 275.856 152.793 274.695 154.69 272.818C154.237 269.14 151.108 266.29 147.308 266.29C143.508 266.29 140.378 269.14 139.926 272.818C141.822 274.695 144.429 275.856 147.308 275.856Z" fill="white" stroke="#263238" stroke-width="1.024" stroke-miterlimit="10" stroke-linecap="round" stroke-linejoin="round"/>
<path d="M151.885 262.694C151.885 265.223 149.835 267.273 147.306 267.273C144.777 267.273 142.727 265.223 142.727 262.694C142.727 260.166 144.777 258.116 147.306 258.116C149.835 258.115 151.885 260.165 151.885 262.694Z" fill="white" stroke="#263238" stroke-width="1.024" stroke-miterlimit="10" stroke-linecap="round" stroke-linejoin="round"/>
<path d="M165.941 259.266H204.983" stroke="white" stroke-width="1.024" stroke-miterlimit="10" stroke-linecap="round" stroke-linejoin="round"/>
<path d="M165.941 263.204H195.395" stroke="white" stroke-width="1.024" stroke-miterlimit="10" stroke-linecap="round" stroke-linejoin="round"/>
<path d="M165.941 271.422H224.162" stroke="white" stroke-width="1.024" stroke-miterlimit="10" stroke-linecap="round" stroke-linejoin="round"/>
<path d="M165.941 278.101H224.162" stroke="white" stroke-width="1.024" stroke-miterlimit="10" stroke-linecap="round" stroke-linejoin="round"/>
<path d="M165.941 284.78H194.423" stroke="white" stroke-width="1.024" stroke-miterlimit="10" stroke-linecap="round" stroke-linejoin="round"/>
<path d="M202.484 289.836C205.213 289.836 207.425 287.624 207.425 284.895C207.425 282.166 205.213 279.954 202.484 279.954C199.755 279.954 197.543 282.166 197.543 284.895C197.543 287.624 199.755 289.836 202.484 289.836Z" fill="#4EE39D" stroke="#263238" stroke-width="1.024" stroke-miterlimit="10" stroke-linecap="round" stroke-linejoin="round"/>
<path d="M205.312 285.762C204.941 286.974 203.814 287.854 202.482 287.854C201.135 287.854 199.998 286.953 199.641 285.721" stroke="#263238" stroke-width="0.512" stroke-miterlimit="10" stroke-linecap="round" stroke-linejoin="round"/>
<path d="M199.457 283.789C199.457 283.789 200.412 282.834 201.686 283.869" stroke="#263238" stroke-width="0.512" stroke-miterlimit="10" stroke-linecap="round" stroke-linejoin="round"/>
<path d="M203.277 283.789C203.277 283.789 204.233 282.834 205.507 283.869" stroke="#263238" stroke-width="0.512" stroke-miterlimit="10" stroke-linecap="round" stroke-linejoin="round"/>
<path d="M214.355 289.836C217.084 289.836 219.296 287.624 219.296 284.895C219.296 282.166 217.084 279.954 214.355 279.954C211.626 279.954 209.414 282.166 209.414 284.895C209.414 287.624 211.626 289.836 214.355 289.836Z" fill="#4EE39D" stroke="#263238" stroke-width="1.024" stroke-miterlimit="10" stroke-linecap="round" stroke-linejoin="round"/>
<path d="M217.187 285.763C216.816 286.974 215.689 287.855 214.357 287.855C213.01 287.855 211.873 286.954 211.516 285.722" stroke="#263238" stroke-width="0.512" stroke-miterlimit="10" stroke-linecap="round" stroke-linejoin="round"/>
<path d="M211.328 283.789C211.328 283.789 212.284 282.834 213.557 283.869" stroke="#263238" stroke-width="0.512" stroke-miterlimit="10" stroke-linecap="round" stroke-linejoin="round"/>
<path d="M215.148 283.789C215.148 283.789 216.104 282.834 217.378 283.869" stroke="#263238" stroke-width="0.512" stroke-miterlimit="10" stroke-linecap="round" stroke-linejoin="round"/>
</svg>
