<svg width="460" height="460" viewBox="0 0 460 460" fill="none" xmlns="http://www.w3.org/2000/svg">
<path d="M81.6923 440.871C81.5598 440.871 81.4531 359.122 81.4531 258.302C81.4531 157.447 81.5608 75.7148 81.6923 75.7148C81.8248 75.7148 81.9315 157.447 81.9315 258.302C81.9324 359.122 81.8248 440.871 81.6923 440.871Z" fill="#263238"/>
<path d="M61.6064 440.871C61.4739 440.871 61.3672 359.122 61.3672 258.302C61.3672 157.447 61.4748 75.7148 61.6064 75.7148C61.7379 75.7148 61.8456 157.447 61.8456 258.302C61.8456 359.122 61.7389 440.871 61.6064 440.871Z" fill="#263238"/>
<path d="M373.334 440.871C373.201 440.871 373.094 359.122 373.094 258.302C373.094 157.447 373.201 75.7148 373.334 75.7148C373.466 75.7148 373.573 157.447 373.573 258.302C373.574 359.122 373.466 440.871 373.334 440.871Z" fill="#263238"/>
<path d="M386.302 440.871C386.169 440.871 386.062 359.122 386.062 258.302C386.062 157.447 386.17 75.7148 386.302 75.7148C386.433 75.7148 386.541 157.447 386.541 258.302C386.542 359.122 386.434 440.871 386.302 440.871Z" fill="#263238"/>
<path d="M441.688 76.413C441.688 76.5455 346.741 76.6522 229.646 76.6522C112.509 76.6522 17.582 76.5446 17.582 76.413C17.582 76.2806 112.509 76.1738 229.646 76.1738C346.741 76.1729 441.688 76.2806 441.688 76.413Z" fill="#263238"/>
<path d="M441.688 13.8222C441.688 13.9547 346.741 14.0614 229.646 14.0614C112.509 14.0614 17.582 13.9538 17.582 13.8222C17.582 13.6897 112.509 13.583 229.646 13.583C346.741 13.583 441.688 13.6906 441.688 13.8222Z" fill="#263238"/>
<path d="M256.094 42.2148H203.906V48.02H256.094V42.2148Z" fill="#263238"/>
<path d="M66.3191 42.2148H28.3359V48.02H66.3191V42.2148Z" fill="#263238"/>
<path d="M437.319 42.2148H399.336V48.02H437.319V42.2148Z" fill="#263238"/>
<path d="M262.589 254.841C262.589 254.841 263.047 254.801 263.941 254.748C264.39 254.722 264.944 254.69 265.604 254.652C265.934 254.629 266.293 254.623 266.675 254.583C267.055 254.523 267.46 254.46 267.891 254.392C271.325 253.956 276.486 252.817 282.201 249.428C282.907 248.998 283.633 248.554 284.378 248.099C285.078 247.575 285.795 247.039 286.53 246.489C287.287 245.965 287.976 245.323 288.683 244.669C289.381 244.008 290.159 243.394 290.804 242.617C293.616 239.74 296.152 236.092 298.085 231.814C300.018 227.54 301.303 222.595 301.503 217.272C301.596 215.946 301.584 214.59 301.579 213.215C301.578 211.842 301.576 210.449 301.574 209.037C301.571 206.216 301.569 203.321 301.566 200.354C301.557 188.489 301.547 175.493 301.536 161.542C301.533 154.567 301.528 147.352 301.524 139.921C301.523 136.205 301.521 132.435 301.519 128.614C301.43 124.814 300.948 120.97 299.824 117.227C298.639 113.511 296.935 109.918 294.708 106.599C292.444 103.305 289.618 100.361 286.413 97.8407C285.585 97.2473 284.803 96.5785 283.929 96.0421C283.052 95.5095 282.173 94.9759 281.292 94.4413C279.448 93.5232 277.599 92.5756 275.614 91.9334L274.145 91.398L272.627 91.0079C271.609 90.7742 270.612 90.42 269.563 90.3115C268.523 90.1587 267.484 89.9812 266.438 89.8478C265.383 89.7944 264.326 89.742 263.267 89.6886C246.198 89.6794 228.526 89.6693 210.426 89.6592C201.416 89.7098 192.596 92.8773 185.804 98.4387C179.055 104.03 174.276 111.761 172.463 120.063C171.539 124.216 171.45 128.433 171.5 132.63C171.499 136.82 171.498 140.969 171.496 145.076C171.494 153.289 171.491 161.328 171.488 169.173C171.481 184.862 171.473 199.77 171.466 213.722C171.428 215.471 171.539 217.186 171.624 218.889C171.627 219.744 171.816 220.577 171.928 221.414C172.071 222.246 172.144 223.089 172.343 223.902C172.79 225.515 173.083 227.159 173.72 228.679C174.007 229.449 174.27 230.225 174.574 230.979C174.926 231.712 175.277 232.441 175.626 233.167C178.451 238.978 182.76 243.672 187.493 247.169C192.255 250.662 197.556 252.922 202.784 253.929C208.016 255.03 213.1 254.613 217.803 254.704C227.226 254.72 235.343 254.734 241.98 254.745C248.61 254.764 253.759 254.78 257.26 254.79C259 254.8 260.33 254.808 261.233 254.814C262.131 254.824 262.589 254.841 262.589 254.841C262.589 254.841 262.131 254.857 261.236 254.865C260.332 254.871 259.003 254.878 257.262 254.889C253.762 254.899 248.613 254.915 241.983 254.934C235.346 254.945 227.228 254.959 217.805 254.975C213.113 254.896 208.015 255.328 202.727 254.231C197.456 253.228 192.105 250.96 187.295 247.446C182.514 243.928 178.159 239.198 175.298 233.337C174.944 232.604 174.589 231.868 174.232 231.128C173.925 230.367 173.658 229.584 173.367 228.807C172.722 227.272 172.422 225.613 171.969 223.985C171.768 223.164 171.691 222.313 171.546 221.473C171.432 220.628 171.241 219.787 171.236 218.923C171.147 217.202 171.034 215.465 171.069 213.724C171.062 199.771 171.055 184.863 171.047 169.175C171.045 161.33 171.042 153.291 171.039 145.078C171.038 140.971 171.037 136.822 171.035 132.631C170.983 128.457 171.069 124.159 172.004 119.963C173.836 111.56 178.671 103.731 185.501 98.0717C192.375 92.4413 201.306 89.2323 210.425 89.1826C228.528 89.1964 246.203 89.2093 263.275 89.2222C264.346 89.2765 265.415 89.3307 266.483 89.385C267.542 89.5203 268.593 89.6997 269.646 89.8551C270.707 89.9665 271.716 90.3243 272.746 90.5608L274.281 90.9564L275.768 91.4992C277.777 92.1505 279.649 93.1092 281.514 94.0402C282.405 94.5821 283.294 95.1221 284.181 95.6613C285.065 96.2041 285.855 96.8812 286.694 97.4819C289.934 100.033 292.791 103.013 295.079 106.347C297.329 109.705 299.051 113.341 300.246 117.1C301.379 120.887 301.864 124.776 301.95 128.616C301.948 132.437 301.946 136.207 301.944 139.922C301.94 147.354 301.936 154.569 301.932 161.544C301.922 175.495 301.912 188.491 301.903 200.356C301.9 203.322 301.897 206.218 301.894 209.039C301.892 210.451 301.892 211.843 301.89 213.217C301.892 214.591 301.902 215.946 301.805 217.286C301.591 222.649 300.283 227.629 298.327 231.926C296.368 236.228 293.805 239.891 290.967 242.776C290.315 243.555 289.531 244.17 288.827 244.832C288.114 245.487 287.419 246.129 286.655 246.653C285.914 247.204 285.191 247.74 284.486 248.263C283.735 248.717 283.004 249.159 282.292 249.589C276.535 252.967 271.347 254.081 267.901 254.486C267.469 254.55 267.062 254.611 266.681 254.667C266.299 254.702 265.939 254.705 265.608 254.724C264.946 254.752 264.391 254.776 263.94 254.796C263.047 254.834 262.589 254.841 262.589 254.841Z" fill="#263238"/>
<path d="M134.497 13.8223C134.629 13.8223 134.736 27.8937 134.736 45.2467C134.736 62.6062 134.629 76.6748 134.497 76.6748C134.365 76.6748 134.258 62.6071 134.258 45.2467C134.258 27.8937 134.365 13.8223 134.497 13.8223Z" fill="#263238"/>
<path d="M325.501 13.8223C325.633 13.8223 325.74 27.8937 325.74 45.2467C325.74 62.6062 325.632 76.6748 325.501 76.6748C325.369 76.6748 325.262 62.6071 325.262 45.2467C325.262 27.8937 325.369 13.8223 325.501 13.8223Z" fill="#263238"/>
<path d="M438.395 441.692C438.395 441.825 345.086 441.932 230.01 441.932C114.894 441.932 21.6055 441.824 21.6055 441.692C21.6055 441.56 114.894 441.453 230.01 441.453C345.086 441.453 438.395 441.561 438.395 441.692Z" fill="#263238"/>
<path d="M277.595 144.276C277.595 144.409 259.078 144.516 236.241 144.516C213.396 144.516 194.883 144.408 194.883 144.276C194.883 144.144 213.396 144.037 236.241 144.037C259.079 144.037 277.595 144.145 277.595 144.276Z" fill="#263238"/>
<path d="M246.602 137.006C246.6 136.982 246.787 136.99 247.103 136.879C247.409 136.768 247.871 136.482 248.087 135.891C248.247 135.337 248.297 134.39 247.622 133.827C247.289 133.536 246.852 133.42 246.327 133.461C245.799 133.466 245.242 133.472 244.661 133.477C239.929 133.496 233.506 133.521 226.408 133.547C225.626 133.527 224.942 134.228 224.961 134.986C224.941 135.445 224.977 135.77 225.188 136.099C225.385 136.409 225.702 136.637 226.052 136.724C226.38 136.806 226.836 136.757 227.24 136.773C227.652 136.774 228.06 136.775 228.465 136.777C229.273 136.779 230.064 136.782 230.837 136.785C233.91 136.804 236.687 136.822 239.043 136.836C241.329 136.868 243.202 136.893 244.575 136.913C245.185 136.931 245.682 136.946 246.079 136.958C246.421 136.973 246.602 136.989 246.602 137.006C246.602 137.022 246.422 137.039 246.077 137.053C245.681 137.065 245.183 137.08 244.573 137.099C243.201 137.117 241.327 137.143 239.041 137.175C236.685 137.19 233.908 137.207 230.835 137.226C230.062 137.229 229.271 137.232 228.463 137.235C228.059 137.236 227.651 137.237 227.238 137.238C226.82 137.22 226.431 137.288 225.936 137.181C225.47 137.067 225.05 136.767 224.787 136.356C224.505 135.964 224.457 135.388 224.482 134.986C224.456 133.977 225.365 133.043 226.406 133.07C233.504 133.097 239.927 133.122 244.659 133.14C245.241 133.146 245.797 133.152 246.325 133.157C246.847 133.12 247.44 133.275 247.797 133.626C248.172 133.962 248.365 134.42 248.392 134.843C248.4 135.248 248.404 135.634 248.26 135.959C247.988 136.608 247.463 136.885 247.132 136.972C246.787 137.057 246.602 137.006 246.602 137.006Z" fill="#263238"/>
<path d="M250.882 229.916C250.882 229.916 251.201 229.884 251.823 229.845C252.137 229.825 252.524 229.802 252.981 229.774C253.212 229.76 253.46 229.745 253.727 229.73C253.992 229.687 254.274 229.642 254.574 229.594C255.173 229.494 255.847 229.404 256.582 229.264C257.307 229.074 258.1 228.867 258.957 228.641C259.799 228.364 260.688 228.009 261.648 227.662C262.556 227.197 263.571 226.788 264.556 226.191C266.567 225.063 268.608 223.487 270.603 221.523C272.565 219.525 274.367 217.024 275.782 214.082C277.191 211.141 278.17 207.725 278.412 204.029C278.544 202.186 278.493 200.265 278.499 198.3C278.496 196.334 278.494 194.318 278.491 192.251C278.482 183.985 278.472 174.932 278.461 165.215C278.458 160.355 278.454 155.329 278.449 150.152C278.448 147.563 278.446 144.938 278.444 142.275C278.443 140.944 278.442 139.604 278.441 138.256C278.429 136.909 278.475 135.543 278.375 134.196C278.319 133.521 278.355 132.835 278.223 132.164C278.12 131.491 278.016 130.815 277.913 130.137C277.788 129.463 277.583 128.804 277.421 128.134C277.329 127.802 277.262 127.461 277.15 127.135L276.792 126.159C276.367 124.833 275.716 123.596 275.111 122.331C274.38 121.133 273.685 119.903 272.787 118.799C271.054 116.563 269.019 114.491 266.618 112.867C264.234 111.228 261.581 109.938 258.762 109.072C255.936 108.184 252.954 107.938 249.946 107.916C246.923 107.917 243.875 107.917 240.804 107.918C234.663 107.918 228.433 107.919 222.128 107.919C215.877 107.974 209.719 110.081 204.976 113.925C200.246 117.742 196.778 123.029 195.425 128.779L195.15 129.849C195.083 130.21 195.036 130.575 194.978 130.937C194.889 131.665 194.708 132.382 194.694 133.113C194.657 133.843 194.619 134.57 194.582 135.297C194.579 136.029 194.577 136.761 194.573 137.49C194.572 140.409 194.571 143.3 194.569 146.16C194.567 151.881 194.564 157.482 194.561 162.947C194.554 173.875 194.546 184.26 194.539 193.98C194.536 196.41 194.534 198.798 194.533 201.143C194.503 202.32 194.613 203.464 194.654 204.608C194.669 205.18 194.805 205.737 194.874 206.298C194.97 206.855 195.016 207.42 195.154 207.962C196.12 212.342 198.093 216.285 200.656 219.489C203.225 222.703 206.413 225.122 209.706 226.795C213.011 228.468 216.448 229.36 219.697 229.661C220.513 229.704 221.315 229.746 222.102 229.787C222.894 229.789 223.672 229.791 224.434 229.793C225.96 229.797 227.427 229.799 228.833 229.803C231.644 229.81 234.213 229.818 236.525 229.824C241.14 229.844 244.724 229.859 247.169 229.869C248.377 229.879 249.302 229.888 249.937 229.893C250.562 229.9 250.882 229.916 250.882 229.916C250.882 229.916 250.562 229.933 249.939 229.941C249.304 229.947 248.379 229.954 247.17 229.965C244.726 229.975 241.141 229.991 236.527 230.01C234.215 230.017 231.646 230.023 228.835 230.031C227.428 230.034 225.962 230.038 224.436 230.041C223.674 230.042 222.896 230.044 222.104 230.045C221.309 230.006 220.5 229.968 219.676 229.927C216.395 229.637 212.918 228.748 209.571 227.066C206.236 225.386 203.003 222.947 200.394 219.702C197.79 216.465 195.782 212.476 194.793 208.04C194.653 207.489 194.605 206.918 194.506 206.353C194.435 205.785 194.296 205.221 194.28 204.641C194.234 203.487 194.123 202.313 194.15 201.143C194.148 198.798 194.145 196.41 194.143 193.98C194.136 184.26 194.129 173.875 194.121 162.947C194.119 157.482 194.116 151.882 194.113 146.16C194.112 143.3 194.111 140.409 194.109 137.49C194.112 136.76 194.114 136.028 194.117 135.294C194.154 134.556 194.191 133.816 194.228 133.074C194.244 132.33 194.425 131.601 194.516 130.861C194.575 130.493 194.623 130.121 194.691 129.754L194.97 128.666C196.344 122.816 199.868 117.436 204.679 113.553C209.502 109.641 215.77 107.494 222.128 107.439C228.433 107.439 234.664 107.44 240.804 107.44C243.874 107.44 246.922 107.441 249.946 107.442C252.973 107.464 256.029 107.718 258.897 108.623C261.763 109.504 264.46 110.818 266.883 112.486C269.323 114.14 271.392 116.248 273.15 118.521C274.061 119.643 274.769 120.894 275.509 122.113C276.125 123.4 276.784 124.659 277.215 126.007L277.577 126.999C277.691 127.331 277.759 127.677 277.852 128.014C278.016 128.695 278.223 129.366 278.35 130.05C278.455 130.739 278.56 131.426 278.664 132.111C278.796 132.793 278.76 133.489 278.817 134.175C278.917 135.554 278.868 136.905 278.879 138.255C278.878 139.604 278.877 140.944 278.876 142.274C278.874 144.937 278.873 147.562 278.871 150.151C278.867 155.328 278.863 160.354 278.859 165.214C278.848 174.932 278.839 183.984 278.829 192.251C278.827 194.317 278.824 196.334 278.821 198.3C278.809 200.267 278.856 202.176 278.716 204.05C278.461 207.786 277.459 211.234 276.024 214.198C274.584 217.163 272.755 219.678 270.766 221.683C268.746 223.655 266.68 225.229 264.649 226.353C263.654 226.948 262.629 227.353 261.713 227.814C260.744 228.157 259.848 228.507 259 228.777C258.136 228.995 257.337 229.197 256.607 229.381C255.867 229.514 255.188 229.596 254.587 229.689C254.286 229.733 254.002 229.774 253.736 229.813C253.469 229.825 253.219 229.836 252.988 229.846C252.528 229.865 252.141 229.88 251.826 229.893C251.201 229.917 250.882 229.916 250.882 229.916Z" fill="#263238"/>
<path d="M237.683 208.554L209.086 208.256C209.29 206.942 209.574 205.728 210.35 204.843C210.764 204.371 211.404 204.048 212.04 203.973C212.673 203.899 213.228 204.075 213.57 204.495L214.277 205.363L214.452 204.257C214.849 201.74 215.253 199.268 216.409 197.126C217.562 194.99 219.598 193.266 221.897 193.125L237.683 208.554ZM237.683 208.554L237.568 208.223C237.125 207.037 236.696 205.912 236.002 204.962L236.002 204.962C235.311 204.016 234.337 203.295 233.271 203.165C232.201 203.033 231.081 203.625 230.768 204.54L229.796 204.412C229.618 201.742 229.242 199.091 227.961 196.869C226.681 194.648 224.331 192.977 221.897 193.125L237.683 208.554Z" stroke="#263238"/>
<path d="M271.959 182.947L224.483 182.453C224.82 180.172 225.272 177.961 226.675 176.361C227.405 175.529 228.522 174.967 229.633 174.837C230.74 174.707 231.766 175.01 232.411 175.801L233.118 176.669L233.293 175.564C233.94 171.465 234.605 167.379 236.521 163.827C238.434 160.282 241.839 157.371 245.734 157.133L245.734 157.133C249.864 156.88 253.796 159.708 255.923 163.399C258.052 167.092 258.668 171.481 258.96 175.845L259.932 175.973C260.501 174.306 262.494 173.289 264.354 173.516C266.209 173.743 267.867 174.99 269.027 176.577C270.189 178.168 270.902 180.048 271.624 181.978L271.959 182.947Z" stroke="#263238"/>
<path d="M284.883 441.692H82.5078V411.607H269.009L284.883 441.692Z" fill="#455A64"/>
<path d="M284.766 334.106L296.977 355.803C296.977 355.803 322.818 350.897 325.459 354.691L284.837 379.459L264.445 346.42L284.766 334.106Z" fill="#263238"/>
<path d="M283.325 361.676C282.672 362.374 282.676 363.602 283.351 364.297C284.025 364.992 285.266 365.016 285.931 364.33C286.596 363.644 286.636 362.17 285.89 361.554C285.144 360.938 283.686 360.991 283.205 361.82" fill="#263238"/>
<path d="M284.837 379.459L282.91 376.05L322.578 353.577C322.578 353.577 324.874 353.274 325.458 354.691L284.837 379.459Z" fill="#455A64"/>
<path d="M297.506 355.192C297.622 355.397 296.686 356.094 296.105 357.336C295.492 358.563 295.521 359.741 295.289 359.773C295.083 359.845 294.643 358.461 295.374 356.969C296.09 355.472 297.436 354.981 297.506 355.192Z" fill="white"/>
<path d="M302.859 354.383C303.023 354.55 302.373 355.417 302.219 356.679C302.028 357.937 302.421 358.961 302.218 359.072C302.051 359.218 301.194 358.122 301.415 356.557C301.622 354.989 302.737 354.193 302.859 354.383Z" fill="white"/>
<path d="M308.44 358.084C308.285 358.236 307.395 357.398 307.232 355.986C307.058 354.573 307.728 353.568 307.914 353.685C308.128 353.783 307.887 354.741 308.038 355.899C308.164 357.06 308.625 357.944 308.44 358.084Z" fill="white"/>
<path d="M288.46 387.715L300.728 410.542C300.728 410.542 327.721 405.959 330.393 409.96L287.616 434.915L267.062 400.119L288.46 387.715Z" fill="#263238"/>
<path d="M286.402 416.376C285.709 417.089 285.688 418.367 286.376 419.104C287.063 419.841 288.355 419.891 289.061 419.19C289.768 418.491 289.839 416.956 289.074 416.3C288.31 415.644 286.792 415.67 286.275 416.523" fill="#263238"/>
<path d="M287.616 434.916L285.68 431.329L327.417 408.744C327.417 408.744 329.813 408.474 330.393 409.961L287.616 434.916Z" fill="#455A64"/>
<path d="M301.289 409.916C301.406 410.132 300.418 410.838 299.788 412.118C299.125 413.383 299.131 414.611 298.89 414.638C298.674 414.709 298.245 413.26 299.035 411.723C299.811 410.178 301.221 409.695 301.289 409.916Z" fill="white"/>
<path d="M306.877 409.182C307.044 409.36 306.35 410.249 306.165 411.559C305.94 412.863 306.328 413.938 306.114 414.049C305.937 414.197 305.068 413.04 305.33 411.415C305.577 409.789 306.754 408.983 306.877 409.182Z" fill="white"/>
<path d="M312.61 413.146C312.447 413.302 311.538 412.412 311.396 410.938C311.244 409.464 311.962 408.432 312.152 408.557C312.372 408.663 312.102 409.656 312.237 410.864C312.344 412.075 312.806 413.004 312.61 413.146Z" fill="white"/>
<path d="M170.496 327.928C170.665 327.872 171.88 327.492 173.878 326.875C186.708 322.912 230.315 315.102 237.141 314.743C245.032 314.328 248.646 315.201 251.553 319.354C254.46 323.507 298.581 404.607 298.581 404.607L270.389 420.501L235.23 361.19C235.23 361.19 187.939 380.669 170.496 377.347C153.054 374.025 137.273 365.303 137.273 365.303V337.479L170.496 327.928Z" fill="#263238"/>
<path d="M295.639 347.328C295.639 347.328 264.594 291.116 258.126 283.262C250.46 273.952 238.96 276.468 232.015 279.246C225.07 282.024 165.07 321.639 165.07 321.639L198.803 348.779L233.844 319.353C239.832 313.502 248.03 314.109 251.717 321.626L276.179 362.779L295.639 347.328Z" fill="#263238"/>
<path d="M250.361 306.672C250.382 306.698 250.106 306.953 249.589 307.389C249.072 307.825 248.313 308.444 247.37 309.201C245.484 310.714 242.857 312.776 239.93 315.02C237.001 317.266 234.328 319.268 232.364 320.682C230.415 322.097 229.123 322.918 229.078 322.815C230.936 321.378 234.456 318.652 239.638 314.64C242.564 312.396 245.224 310.377 247.163 308.934C248.074 308.268 248.846 307.702 249.475 307.242C250.027 306.85 250.341 306.646 250.361 306.672Z" fill="#455A64"/>
<path d="M298.582 404.608C298.575 404.612 298.521 404.532 298.423 404.372C298.314 404.188 298.174 403.951 297.999 403.654C297.619 402.99 297.086 402.059 296.408 400.873C295.029 398.419 293.061 394.917 290.637 390.602C285.79 381.882 279.121 369.883 271.754 356.628C264.437 343.343 257.814 331.317 253.002 322.58C251.838 320.403 250.407 318.638 248.865 317.433C247.334 316.206 245.742 315.548 244.409 315.208C243.072 314.849 241.987 314.808 241.26 314.768C240.916 314.766 240.643 314.764 240.43 314.762C240.242 314.758 240.145 314.752 240.145 314.744C240.145 314.735 240.239 314.725 240.427 314.713C240.641 314.702 240.916 314.689 241.261 314.672C241.993 314.68 243.089 314.69 244.454 315.027C245.814 315.343 247.45 315.989 249.03 317.222C250.621 318.432 252.1 320.22 253.298 322.416C258.142 331.138 264.809 343.14 272.175 356.401C279.493 369.681 286.119 381.703 290.933 390.439C293.301 394.785 295.223 398.311 296.571 400.783C297.215 401.987 297.722 402.933 298.082 403.607C298.241 403.914 298.367 404.158 298.465 404.348C298.55 404.516 298.588 404.605 298.582 404.608Z" fill="#455A64"/>
<path d="M99.5154 202.326C97.8207 197.434 96.1454 192.504 95.3174 187.393C94.4903 182.282 94.5428 176.936 96.253 172.049C96.5116 171.309 98.7481 166.329 99.531 166.391C100.09 166.435 98.7425 171.067 99.0342 171.546C101.816 176.12 102.655 181.67 102.328 187.013C102 192.356 100.983 197.177 99.5154 202.326Z" fill="#263238"/>
<path d="M117.925 158.105L119.127 158.147C131.217 158.563 140.966 168.189 141.523 180.274C142.042 191.517 142.471 203.947 142.189 209.959C141.607 222.407 129.086 223.915 129.086 223.915C129.058 223.915 129.86 237.07 129.86 237.07L116.728 237.498L101.674 233.373L98.6262 182.585C97.9555 169.617 104.943 158.417 117.925 158.105Z" fill="#FFBF9D"/>
<path d="M129.088 223.915C129.088 223.915 121.223 224.107 113.039 218.564C113.039 218.564 116.842 228.523 129.307 227.829L129.088 223.915Z" fill="#FF5000"/>
<path d="M137.964 191.315C137.965 192.255 137.17 193.032 136.188 193.05C135.208 193.068 134.41 192.324 134.41 191.384C134.409 190.444 135.204 189.666 136.185 189.648C137.166 189.629 137.963 190.375 137.964 191.315Z" fill="#263238"/>
<path d="M138.685 185.681C138.457 185.906 137.144 184.863 135.23 184.802C133.319 184.714 131.88 185.65 131.682 185.408C131.583 185.301 131.822 184.89 132.449 184.465C133.066 184.043 134.108 183.646 135.3 183.693C136.492 183.741 137.479 184.214 138.041 184.683C138.613 185.155 138.798 185.581 138.685 185.681Z" fill="#263238"/>
<path d="M121.718 191.315C121.719 192.255 120.923 193.031 119.941 193.05C118.962 193.069 118.164 192.324 118.164 191.384C118.163 190.444 118.959 189.666 119.939 189.648C120.92 189.629 121.717 190.375 121.718 191.315Z" fill="#263238"/>
<path d="M119.913 185.48C119.684 185.705 118.369 184.661 116.456 184.601C114.546 184.513 113.108 185.449 112.908 185.208C112.81 185.1 113.047 184.69 113.676 184.266C114.292 183.843 115.335 183.447 116.526 183.493C117.719 183.541 118.706 184.015 119.267 184.483C119.838 184.954 120.024 185.381 119.913 185.48Z" fill="#263238"/>
<path d="M126.272 200.421C126.267 200.312 127.463 200.147 129.399 199.968C129.89 199.934 130.356 199.852 130.449 199.522C130.576 199.174 130.39 198.639 130.173 198.062C129.754 196.863 129.315 195.608 128.856 194.291C127.032 188.925 125.728 184.519 125.946 184.446C126.163 184.375 127.818 188.667 129.642 194.034C130.08 195.356 130.499 196.618 130.898 197.825C131.063 198.387 131.36 199.027 131.086 199.751C130.941 200.112 130.573 200.365 130.258 200.438C129.941 200.523 129.666 200.519 129.423 200.525C127.48 200.563 126.277 200.531 126.272 200.421Z" fill="#263238"/>
<path d="M120.739 179.516C120.462 179.996 118.623 179.418 116.365 179.293C114.108 179.121 112.209 179.451 111.997 178.94C111.905 178.697 112.302 178.27 113.112 177.902C113.914 177.533 115.138 177.265 116.493 177.353C117.846 177.444 119.024 177.871 119.771 178.341C120.526 178.813 120.863 179.287 120.739 179.516Z" fill="#263238"/>
<path d="M138.968 180.058C138.561 180.485 137.011 180.004 135.137 179.946C133.265 179.833 131.67 180.172 131.313 179.709C131.158 179.485 131.415 179.055 132.117 178.656C132.808 178.259 133.958 177.946 135.245 178.004C136.532 178.064 137.641 178.48 138.284 178.937C138.938 179.397 139.147 179.85 138.968 180.058Z" fill="#263238"/>
<path d="M99.3257 191.84C99.1169 191.741 90.8562 189.016 90.836 197.538C90.8157 206.061 100.191 204.612 100.207 204.368C100.222 204.124 99.3257 191.84 99.3257 191.84Z" fill="#FFBF9D"/>
<path d="M96.7955 200.844C96.7587 200.816 96.6465 200.947 96.3953 201.062C96.1506 201.173 95.7292 201.25 95.2858 201.082C94.386 200.75 93.6316 199.319 93.5939 197.782C93.5746 197.007 93.7383 196.268 94.0143 195.658C94.2765 195.035 94.6804 194.601 95.134 194.521C95.5857 194.418 95.9059 194.69 96.0089 194.93C96.1221 195.169 96.0678 195.339 96.1129 195.353C96.1368 195.375 96.2959 195.211 96.2279 194.858C96.1929 194.689 96.0935 194.488 95.8939 194.324C95.6897 194.157 95.3897 194.071 95.0733 194.105C94.4155 194.148 93.823 194.752 93.5185 195.422C93.1781 196.096 92.9757 196.926 92.9977 197.797C93.0483 199.515 93.9233 201.124 95.1542 201.482C95.7531 201.641 96.2536 201.461 96.5131 201.26C96.7799 201.05 96.8249 200.86 96.7955 200.844Z" fill="#FF5000"/>
<path d="M135.921 166.191C137.295 165.421 133.128 160.981 129.728 159.464C124.59 157.172 116.758 155.791 112.044 157.16C106.367 158.809 101.661 161.668 98.8382 166.862C96.0157 172.057 94.9816 178.094 95.1849 184.002C95.2475 185.804 95.4462 187.683 96.4186 189.201C97.6211 191.078 99.9128 192.25 99.8291 194.85C99.7987 195.8 100.076 196.758 100.731 197.446C102.301 199.095 104.198 197.524 105.066 195.955C106.918 192.606 107.102 188.618 107.242 184.793C107.341 182.074 107.434 179.297 106.651 176.692C106.225 175.274 105.547 173.935 105.2 172.496C104.853 171.057 104.886 169.421 105.777 168.238C105.921 168.045 106.161 167.803 106.464 167.533C108.864 165.402 112.239 164.747 115.271 165.799C120.082 167.466 128.294 169.949 130.424 168.308C133.488 165.945 134.215 164.412 134.215 164.412L135.921 166.191Z" fill="#263238"/>
<path d="M120.27 201.648C120.564 201.627 120.59 203.584 122.28 204.954C123.968 206.329 126.052 206.085 126.07 206.359C126.099 206.481 125.61 206.744 124.73 206.778C123.867 206.818 122.602 206.555 121.567 205.718C120.535 204.877 120.083 203.745 120.007 202.944C119.924 202.125 120.136 201.637 120.27 201.648Z" fill="#263238"/>
<path d="M100.125 218.311L100.212 215.385L129.376 226.669L134.119 235.746C134.119 235.746 145.367 247.634 149.766 252.823C155.225 259.263 165.807 278.232 165.807 278.232L145.569 265.718L123.422 231.407L100.125 218.311Z" fill="white"/>
<path d="M100.217 217.873L98.9696 223.959C98.9696 223.959 88.3997 236.388 86.5983 242.912C83.531 254.019 84.3167 267.72 84.3167 267.72L115.821 333.016L196.048 335.099C196.048 335.099 172.603 289.949 165.276 275.535C157.949 261.121 126.811 230.21 126.811 230.21C126.811 230.21 110.108 218.568 100.217 217.873Z" fill="#263238"/>
<path d="M164.646 274.365C164.639 274.37 164.583 274.321 164.479 274.222C164.357 274.101 164.208 273.953 164.026 273.771C163.605 273.34 163.033 272.753 162.311 272.011C160.798 270.446 158.66 268.233 156.032 265.512C150.714 260.04 143.374 252.471 134.985 244.405C133.927 243.407 132.881 242.42 131.851 241.447C130.804 240.493 129.773 239.553 128.76 238.628C127.74 237.712 126.707 236.851 125.712 235.985C124.69 235.159 123.687 234.344 122.674 233.61C122.155 233.265 121.641 232.923 121.135 232.588C120.616 232.268 120.071 232.001 119.551 231.713C118.495 231.163 117.463 230.64 116.442 230.181C114.414 229.236 112.48 228.45 110.699 227.777C107.138 226.42 104.186 225.514 102.146 224.895C101.153 224.607 100.366 224.379 99.7885 224.211C99.5419 224.139 99.3405 224.08 99.1749 224.032C99.0369 223.989 98.9669 223.964 98.9688 223.956C98.9706 223.948 99.0442 223.957 99.1859 223.984C99.3552 224.02 99.5603 224.064 99.8115 224.117C100.361 224.239 101.165 224.441 102.197 224.715C104.256 225.279 107.229 226.137 110.817 227.459C112.612 228.114 114.561 228.885 116.608 229.818C117.637 230.272 118.68 230.792 119.747 231.338C120.273 231.627 120.821 231.891 121.351 232.212C121.87 232.553 122.397 232.898 122.929 233.248C123.961 233.989 124.972 234.803 126.005 235.632C127.006 236.497 128.047 237.36 129.072 238.276C130.09 239.2 131.125 240.142 132.175 241.096C133.208 242.069 134.255 243.057 135.316 244.056C143.715 252.132 151.02 259.741 156.277 265.275C158.899 268.048 161.005 270.307 162.447 271.882C163.142 272.649 163.693 273.257 164.097 273.703C164.265 273.897 164.403 274.056 164.516 274.186C164.607 274.299 164.651 274.359 164.646 274.365Z" fill="#455A64"/>
<path d="M83.0156 365.115V414.805H259.189C265.287 414.805 270.23 409.862 270.23 403.764V376.157C270.23 370.059 265.287 365.116 259.189 365.116L83.0156 365.115Z" fill="#455A64"/>
<path d="M51.872 168.683C49.939 169.021 25.9114 171.315 19.4098 189.739C12.9081 208.164 75.5601 358.001 83.0176 365.115H125.131C125.131 365.115 124.692 341.083 113.725 307.305C102.758 273.527 78.6311 230.536 75.1222 226.15C71.6124 221.762 62.6424 166.802 51.872 168.683Z" fill="#455A64"/>
<path d="M242.866 365.115H90.5153C83.5298 365.115 77.8672 359.452 77.8672 352.466V330.546C77.8672 323.56 83.5298 317.897 90.5153 317.897H242.866C249.851 317.897 255.514 323.56 255.514 330.546V352.466C255.514 359.451 249.851 365.115 242.866 365.115Z" fill="#455A64"/>
<path d="M242.867 365.115C242.867 365.115 243.24 365.08 243.968 365.035C244.332 365.014 244.776 364.914 245.31 364.837C245.575 364.787 245.854 364.699 246.157 364.624C246.463 364.555 246.78 364.452 247.11 364.318C248.441 363.839 250.026 362.998 251.532 361.567C252.274 360.848 253.01 359.994 253.609 358.962C254.23 357.947 254.749 356.77 255.048 355.459C255.376 354.15 255.448 352.733 255.412 351.226C255.408 349.723 255.405 348.147 255.402 346.5C255.395 343.205 255.389 339.626 255.381 335.782C255.362 333.862 255.412 331.86 255.335 329.825C255.3 328.808 255.075 327.794 254.791 326.789C254.439 325.807 254.047 324.81 253.443 323.914C253.184 323.44 252.814 323.035 252.499 322.591C252.122 322.197 251.785 321.756 251.356 321.403C250.56 320.63 249.612 320.01 248.616 319.47C247.61 318.934 246.506 318.581 245.372 318.317C244.22 318.107 243.051 318.047 241.834 318.07C203.1 318.088 149.61 318.112 90.5283 318.14C86.8897 318.123 83.3431 319.812 81.0357 322.553C79.8683 323.912 79.0384 325.54 78.5665 327.249C78.0651 328.966 78.1009 330.752 78.1083 332.559C78.1083 336.156 78.1074 339.727 78.1065 343.27C78.1065 345.041 78.1055 346.806 78.1055 348.562C78.1055 349.441 78.1055 350.318 78.1046 351.192L78.1065 352.502L78.1755 353.783C78.5205 357.195 80.366 360.364 83.0533 362.373C84.3919 363.384 85.9292 364.116 87.542 364.512C89.1557 364.935 90.8245 364.889 92.5072 364.889C99.2085 364.891 105.769 364.894 112.17 364.897C137.773 364.916 160.828 364.934 180.194 364.948C199.551 364.981 215.217 365.006 226.053 365.025C231.461 365.044 235.662 365.06 238.521 365.07C239.94 365.08 241.024 365.088 241.763 365.094C242.493 365.098 242.867 365.115 242.867 365.115C242.867 365.115 242.492 365.131 241.762 365.14C241.022 365.145 239.937 365.153 238.519 365.164C235.66 365.174 231.459 365.189 226.052 365.209C215.215 365.227 199.549 365.253 180.192 365.285C160.827 365.3 137.771 365.317 112.169 365.337C105.767 365.339 99.2076 365.342 92.5054 365.345C90.8466 365.346 89.1078 365.398 87.4297 364.959C85.7563 364.549 84.1601 363.792 82.7718 362.743C79.9833 360.66 78.066 357.373 77.7063 353.832L77.6345 352.503L77.6327 351.192C77.6327 350.317 77.6327 349.441 77.6317 348.562C77.6317 346.806 77.6308 345.041 77.6308 343.27C77.6299 339.727 77.6299 336.157 77.629 332.559C77.6207 330.78 77.5821 328.905 78.1028 327.122C78.5931 325.346 79.4552 323.655 80.6668 322.244C83.0607 319.398 86.748 317.643 90.5246 317.66C149.606 317.688 203.098 317.713 241.831 317.73C243.033 317.709 244.26 317.773 245.434 317.992C246.598 318.266 247.731 318.631 248.76 319.183C249.781 319.739 250.752 320.378 251.566 321.172C252.003 321.536 252.348 321.987 252.734 322.393C253.056 322.849 253.433 323.265 253.698 323.751C254.313 324.671 254.713 325.693 255.069 326.7C255.359 327.73 255.585 328.768 255.619 329.808C255.689 331.876 255.633 333.856 255.646 335.782C255.639 339.627 255.632 343.206 255.627 346.5C255.623 348.147 255.62 349.723 255.617 351.226C255.646 352.722 255.567 354.183 255.227 355.503C254.916 356.831 254.383 358.023 253.747 359.047C253.134 360.089 252.384 360.949 251.628 361.671C250.095 363.107 248.486 363.942 247.141 364.41C246.807 364.541 246.487 364.64 246.178 364.706C245.871 364.778 245.59 364.864 245.322 364.91C244.784 364.98 244.336 365.072 243.97 365.084C243.241 365.112 242.867 365.115 242.867 365.115Z" fill="#263238"/>
<path d="M87.2895 194.935C86.2674 191.748 85.2452 188.561 84.2222 185.373C83.167 182.084 81.9848 178.604 79.3011 176.429C76.876 174.465 73.5373 173.898 70.4461 174.325C67.3549 174.752 62.2894 176.069 59.5469 177.557V178.222C62.5562 191.499 66.4478 204.575 71.1876 217.335C71.7341 218.807 72.3165 220.315 73.3837 221.468C75.2752 223.511 78.4299 224.034 81.1144 223.294C86.3584 221.849 89.6263 216.303 90.1295 210.887C90.6337 205.47 88.951 200.115 87.2895 194.935Z" fill="#455A64"/>
<path d="M256.242 410.934C256.242 410.934 282.757 441.819 283.977 441.648C285.198 441.477 293.312 434.939 294.282 434.188C295.253 433.436 271.082 405.524 269.091 404.176C267.1 402.828 256.242 410.934 256.242 410.934Z" fill="#455A64"/>
<path d="M82.5092 318.343C82.501 318.344 82.4715 318.219 82.42 317.974C82.3676 317.706 82.2967 317.345 82.2066 316.883C82.029 315.922 81.7686 314.505 81.3822 312.691C80.6251 309.061 79.4125 303.825 77.4474 297.492C75.4528 291.172 72.7057 283.749 68.8555 275.873C66.941 271.932 64.756 267.881 62.3033 263.793C59.8515 259.704 57.1191 255.587 54.2597 251.412C48.5198 243.073 42.8812 235.223 38.3502 227.689C33.8072 220.164 30.4262 212.956 28.3065 206.65C26.1454 200.352 25.2926 194.993 24.9402 191.301C24.8013 189.447 24.7185 188.006 24.7369 187.027C24.7369 186.557 24.7369 186.188 24.7369 185.915C24.7397 185.665 24.7452 185.536 24.7535 185.536C24.7618 185.536 24.7728 185.665 24.7857 185.914C24.7976 186.187 24.8133 186.555 24.8335 187.025C24.8464 188.001 24.9586 189.437 25.1261 191.282C25.5346 194.957 26.4343 200.282 28.6276 206.54C30.7786 212.805 34.178 219.97 38.7283 227.46C43.2676 234.962 48.9099 242.794 54.6553 251.14C57.5184 255.319 60.2526 259.446 62.7062 263.55C65.1608 267.653 67.344 271.722 69.253 275.68C73.0921 283.589 75.8135 291.045 77.7712 297.391C79.6986 303.751 80.8624 309.007 81.5644 312.653C81.9241 314.476 82.1541 315.899 82.3013 316.866C82.3722 317.332 82.4274 317.696 82.4678 317.966C82.5028 318.214 82.5166 318.342 82.5092 318.343Z" fill="#263238"/>
<path d="M74.3358 223.159C74.3201 223.165 74.2373 223.008 74.092 222.702C73.93 222.346 73.7267 221.901 73.4783 221.355C72.9512 220.183 72.2262 218.471 71.3632 216.342C69.6346 212.086 67.4109 206.134 65.2866 199.45C63.167 192.763 61.5505 186.618 60.5072 182.144C59.9847 179.907 59.5891 178.091 59.3444 176.829C59.233 176.241 59.142 175.76 59.0693 175.376C59.0113 175.043 58.9892 174.866 59.0049 174.862C59.0214 174.859 59.0748 175.029 59.1631 175.355C59.2588 175.735 59.3793 176.209 59.5265 176.789C59.8522 178.1 60.2956 179.886 60.8366 182.064C61.9627 186.512 63.6279 192.631 65.7439 199.306C67.8645 205.977 70.0329 211.935 71.6788 216.218C72.493 218.309 73.1609 220.025 73.6513 221.284C73.8656 221.842 74.0414 222.299 74.1812 222.665C74.2971 222.982 74.3505 223.152 74.3358 223.159Z" fill="#263238"/>
<path d="M269.839 406.202C269.839 406.335 227.901 406.441 176.182 406.441C124.444 406.441 82.5156 406.334 82.5156 406.202C82.5156 406.07 124.444 405.963 176.182 405.963C227.901 405.962 269.839 406.07 269.839 406.202Z" fill="#263238"/>
<path d="M253.289 364.831C253.289 364.963 216.068 365.07 170.164 365.07C124.244 365.07 87.0312 364.963 87.0312 364.831C87.0312 364.699 124.244 364.592 170.164 364.592C216.069 364.592 253.289 364.698 253.289 364.831Z" fill="#263238"/>
<path d="M232.46 255.987C231.666 249.803 229.941 244.323 229.941 244.323H221.24H220.338H211.637C211.637 244.323 209.912 249.803 209.118 255.987C208.245 262.788 208.682 270.59 215.215 274.052C218.681 275.888 222.861 275.888 226.327 274.055C232.876 270.595 233.333 262.79 232.46 255.987Z" fill="#D7EAF4"/>
<path opacity="0.1" d="M225.655 270.723C222.598 272.339 218.913 272.339 215.857 270.72C212.121 268.741 210.646 265.154 210.279 261.242L210.188 261.243C210.278 265.777 211.6 270.121 215.857 272.377C218.912 273.996 222.598 273.995 225.655 272.379C229.985 270.09 231.294 265.647 231.354 261.038L231.275 261.039C230.934 265.032 229.463 268.71 225.655 270.723Z" fill="#263238"/>
<path d="M217.914 274.701C218.172 274.633 219.753 277.98 219.841 285.048C219.848 285.654 220.177 294.998 219.907 295.808C219.907 295.808 218.391 298.064 217.914 298.451L220.772 298.806V274.701H217.914Z" fill="#263238"/>
<path d="M223.661 274.789C223.303 274.676 221.671 277.777 221.704 285.047C221.735 291.739 221.511 295.044 221.941 296.006C221.941 296.006 223.46 298.207 223.937 298.595L220.773 298.806V274.701L223.661 274.789Z" fill="#263238"/>
<path d="M231.593 299.174C231.593 300.547 226.811 301.659 220.912 301.659C215.013 301.659 210.23 300.547 210.23 299.174C210.23 297.802 215.013 296.689 220.912 296.689C226.811 296.689 231.593 297.802 231.593 299.174Z" fill="#263238"/>
<path d="M219.838 295.742C219.963 295.776 219.823 296.535 219.21 297.225C218.602 297.919 217.866 298.151 217.817 298.032C217.754 297.907 218.311 297.516 218.845 296.902C219.387 296.296 219.706 295.694 219.838 295.742Z" fill="#263238"/>
<path d="M223.877 297.906C223.821 298.024 223.092 297.764 222.453 297.087C221.809 296.414 221.587 295.673 221.707 295.624C221.833 295.563 222.223 296.144 222.806 296.751C223.382 297.365 223.943 297.784 223.877 297.906Z" fill="#263238"/>
<path d="M229.557 268.656C229.557 269.396 225.57 269.997 220.652 269.997C215.733 269.997 211.746 269.396 211.746 268.656C211.746 267.915 215.733 267.314 220.652 267.314C225.57 267.315 229.557 267.915 229.557 268.656Z" fill="#4EE39D"/>
<path opacity="0.3" d="M229.557 268.656C229.557 269.396 225.57 269.997 220.652 269.997C215.733 269.997 211.746 269.396 211.746 268.656C211.746 267.915 215.733 267.314 220.652 267.314C225.57 267.315 229.557 267.915 229.557 268.656Z" fill="#263238"/>
<path opacity="0.3" d="M213.077 244.983C213.077 244.983 206.291 259.876 214.81 268.534C214.81 268.534 213.229 264.327 214.116 256.255C214.632 251.559 217.39 246.091 217.39 246.091C215.824 245.85 214.392 245.476 213.077 244.983Z" fill="white"/>
<path d="M229.871 244.399C229.884 244.43 229.655 244.561 229.226 244.775C228.799 244.994 228.156 245.258 227.342 245.534C225.72 246.088 223.366 246.589 220.733 246.59C218.1 246.581 215.747 246.075 214.127 245.515C213.314 245.237 212.671 244.971 212.246 244.752C211.817 244.537 211.588 244.405 211.602 244.374C211.636 244.297 212.603 244.722 214.229 245.186C215.851 245.653 218.158 246.094 220.734 246.102C223.309 246.101 225.617 245.667 227.241 245.204C228.868 244.743 229.837 244.322 229.871 244.399Z" fill="#C8DAE4"/>
<path d="M223.699 275.146C223.744 275.263 222.497 275.777 220.862 275.759C219.225 275.753 217.986 275.221 218.033 275.104C218.074 274.967 219.315 275.267 220.865 275.272C222.414 275.29 223.659 275.008 223.699 275.146Z" fill="#263238"/>
<g opacity="0.3">
<path d="M219.246 275.878C219.502 276.92 219.759 277.963 220.014 279.005C220.072 279.241 220.148 279.502 220.357 279.628C220.623 279.789 220.989 279.635 221.172 279.382C221.355 279.129 221.406 278.809 221.47 278.504C221.641 277.68 222.02 276.656 222.421 275.917C221.433 276.138 220.217 276.166 219.246 275.878Z" fill="white"/>
</g>
<path d="M190.133 277.266L194.483 274.513C194.483 274.513 199.205 270.131 201.753 268.296C204.302 266.462 220.202 266.155 220.202 266.155C220.202 266.155 230.802 267.684 231.211 269.111C231.618 270.538 230.803 272.271 229.987 272.271C229.171 272.271 219.489 272.374 219.489 272.374C219.489 272.374 220.406 273.393 223.362 273.596C226.318 273.8 227.643 273.596 227.745 275.431C227.847 277.265 227.133 277.265 225.197 278.591C225.197 278.591 225.502 281.954 220.508 282.974C220.508 282.974 221.12 285.013 217.349 285.93C213.578 286.847 210.316 287.662 207.869 287.561C205.423 287.459 201.264 287.404 201.264 287.404L196.555 290.211L190.133 277.266Z" fill="#FFBF9D"/>
<path d="M216.68 278.081C216.696 277.943 218.706 278.082 221.182 278.167C223.66 278.257 225.674 278.26 225.68 278.399C225.688 278.529 223.666 278.746 221.165 278.655C218.665 278.569 216.663 278.209 216.68 278.081Z" fill="#FF5000"/>
<path d="M213.032 282.305C213.058 282.167 214.708 282.387 216.746 282.519C218.784 282.658 220.448 282.656 220.456 282.797C220.466 282.926 218.788 283.147 216.713 283.006C214.639 282.872 213.005 282.431 213.032 282.305Z" fill="#FF5000"/>
<path d="M187.914 277.087L191.228 274.931L198.885 290.637L195.407 292.854L187.914 277.087Z" fill="#263238"/>
<path d="M103.206 234.94C94.6355 240.694 91.9997 251.654 96.6401 260.586C105.52 277.681 123.45 307.719 127.295 311.83C132.972 317.898 134.792 321.198 145.695 320.551C156.597 319.905 196.052 294.213 196.052 294.213L187.384 275.977L153.092 290.934C153.092 290.934 143.991 277.264 142.627 273.064C141.265 268.865 136.495 261.758 134.109 254.652C131.723 247.545 117.754 229.777 107.873 232.685C106.227 233.17 104.665 233.96 103.206 234.94Z" fill="#263238"/>
<path d="M103.208 234.939C103.208 234.939 103.62 234.617 104.491 234.107C105.366 233.621 106.692 232.866 108.616 232.45C110.545 232.061 113.057 232.433 115.598 233.687C118.155 234.913 120.799 236.865 123.423 239.372C126.042 241.886 128.68 244.947 131.1 248.59C132.286 250.423 133.48 252.38 134.277 254.628C135.037 256.844 136.012 259.073 137.115 261.326C138.218 263.581 139.449 265.862 140.674 268.237C141.28 269.428 141.889 270.643 142.41 271.923C142.652 272.564 142.896 273.209 143.141 273.857C143.424 274.485 143.717 275.114 144.046 275.734C146.681 280.69 149.896 285.669 153.272 290.817L153.01 290.74C163.515 286.151 175.101 281.09 187.293 275.764L187.5 275.674L187.598 275.879C190.366 281.698 193.289 287.845 196.27 294.112L196.36 294.302L196.185 294.415C192.557 296.763 188.659 299.201 184.694 301.625C175.613 307.131 166.652 312.384 157.59 316.692C155.32 317.756 153.04 318.76 150.708 319.576C149.538 319.973 148.364 320.354 147.149 320.581C145.923 320.821 144.7 320.824 143.493 320.854C141.079 320.868 138.636 320.665 136.377 319.835C134.11 318.995 132.245 317.428 130.655 315.768C129.848 314.94 129.084 314.089 128.316 313.254L127.166 312.007C126.805 311.566 126.422 311.134 126.089 310.68C124.738 308.875 123.538 307.017 122.341 305.192C119.972 301.529 117.761 297.92 115.64 294.42C111.417 287.409 107.587 280.818 104.178 274.752C102.476 271.716 100.868 268.819 99.3845 266.057C98.6366 264.679 97.9217 263.334 97.24 262.024C96.9042 261.366 96.5408 260.739 96.2547 260.076C95.9474 259.425 95.6502 258.782 95.4423 258.117C94.5076 255.495 94.1865 252.878 94.2988 250.504C94.4092 248.123 94.9474 245.987 95.6631 244.173C95.998 243.253 96.4488 242.445 96.8444 241.675C97.0634 241.302 97.2989 240.954 97.5132 240.612C97.7239 240.266 97.9429 239.943 98.1839 239.654C98.6412 239.056 99.0625 238.506 99.5161 238.06C99.9457 237.594 100.339 237.175 100.739 236.85C101.128 236.515 101.455 236.203 101.765 235.965C102.077 235.739 102.342 235.548 102.559 235.392C102.983 235.086 103.208 234.939 103.208 234.939C103.208 234.939 103.001 235.113 102.584 235.432C102.372 235.593 102.113 235.79 101.807 236.022C101.503 236.264 101.182 236.582 100.8 236.921C100.408 237.25 100.023 237.672 99.6007 238.141C99.1555 238.589 98.7433 239.142 98.2952 239.738C98.0588 240.028 97.8444 240.35 97.6393 240.696C97.4295 241.038 97.1986 241.385 96.9852 241.756C96.5997 242.523 96.159 243.326 95.8343 244.241C95.1387 246.043 94.6208 248.16 94.5251 250.514C94.4266 252.862 94.7579 255.444 95.6926 258.027C95.9005 258.682 96.1967 259.315 96.5031 259.955C96.7855 260.605 97.1545 261.236 97.4921 261.891C98.1784 263.196 98.8979 264.538 99.6504 265.911C101.144 268.666 102.761 271.556 104.471 274.584C107.898 280.637 111.744 287.216 115.979 294.214C118.106 297.706 120.323 301.31 122.694 304.962C123.89 306.779 125.094 308.637 126.433 310.419C126.764 310.868 127.129 311.278 127.482 311.71L128.637 312.957C129.407 313.793 130.171 314.642 130.971 315.459C132.551 317.104 134.352 318.606 136.535 319.413C138.713 320.211 141.103 320.413 143.488 320.395C144.685 320.365 145.897 320.358 147.062 320.128C148.239 319.908 149.399 319.532 150.554 319.137C152.86 318.327 155.129 317.328 157.39 316.267C166.418 311.968 175.372 306.716 184.444 301.215C188.405 298.795 192.301 296.357 195.924 294.014L195.838 294.316C192.861 288.047 189.94 281.9 187.176 276.078L187.48 276.192C175.282 281.504 163.69 286.551 153.18 291.128L153.015 291.2L152.918 291.052C149.544 285.887 146.34 280.908 143.698 275.913C143.369 275.289 143.072 274.649 142.786 274.009C142.541 273.358 142.298 272.71 142.057 272.067C141.547 270.806 140.946 269.596 140.344 268.407C139.128 266.035 137.9 263.746 136.801 261.48C135.701 259.215 134.727 256.971 133.968 254.734C133.198 252.538 132.018 250.581 130.848 248.759C128.456 245.128 125.842 242.069 123.25 239.554C120.653 237.047 118.038 235.093 115.515 233.863C113.006 232.604 110.541 232.22 108.642 232.581C106.744 232.97 105.406 233.703 104.525 234.168C104.086 234.41 103.76 234.61 103.542 234.743C103.322 234.876 103.208 234.939 103.208 234.939Z" fill="#455A64"/>
<path d="M145.576 306.505C145.543 306.505 145.521 306.243 145.509 305.77C145.49 305.295 145.525 304.607 145.632 303.764C145.726 302.918 145.948 301.926 146.262 300.844C146.603 299.77 147.064 298.616 147.673 297.466C148.903 295.165 150.485 293.376 151.753 292.25C152.389 291.687 152.931 291.263 153.331 291.006C153.725 290.743 153.952 290.611 153.97 290.638C154.02 290.706 153.177 291.325 151.986 292.497C150.797 293.667 149.297 295.445 148.096 297.692C147.502 298.815 147.04 299.937 146.684 300.979C146.353 302.029 146.102 302.992 145.968 303.816C145.675 305.46 145.661 306.506 145.576 306.505Z" fill="#455A64"/>
<path d="M137.277 267.357C137.302 267.416 136.664 267.758 135.594 268.231C134.526 268.705 133.024 269.303 131.335 269.876C129.645 270.448 128.089 270.887 126.953 271.161C125.817 271.435 125.102 271.553 125.086 271.492C125.052 271.357 127.822 270.566 131.181 269.422C134.543 268.288 137.223 267.23 137.277 267.357Z" fill="#455A64"/>
<path d="M367.141 327C367.141 327 375.01 351.886 375.936 356.163C376.861 360.44 420.399 426.652 420.399 426.652L431.982 422.391C431.982 422.391 424.299 386.104 415.745 370.55C407.191 354.997 399.993 351.49 398.831 344.498C397.669 337.505 398.831 325.444 398.831 325.444L367.141 327Z" fill="#FFBF9D"/>
<path d="M358.192 309.891C357.803 311.835 363.246 344.887 365.579 352.274C367.912 359.662 369.079 365.884 369.079 365.884L373.896 437.43H388.772C388.772 437.43 391.567 416.105 393.159 404.186C394.929 390.926 397.854 382.604 395.132 368.217C392.41 353.83 384.633 315.723 384.633 315.723L358.192 309.891Z" fill="#FFBF9D"/>
<path d="M358.192 309.891C358.192 309.891 358.337 309.914 358.632 309.973C358.941 310.038 359.379 310.13 359.952 310.25C361.135 310.503 362.866 310.874 365.112 311.354C369.658 312.339 376.283 313.773 384.663 315.588L384.752 315.607L384.769 315.696C387.381 328.657 390.853 345.889 394.898 365.966C395.964 370.969 396.657 376.3 396.414 381.783C396.227 387.271 395.175 392.824 394.252 398.494C393.322 404.165 392.657 410.023 391.844 415.969C391.059 421.921 390.26 427.984 389.448 434.136C389.301 435.247 389.155 436.356 389.009 437.46L388.982 437.669H388.772C383.733 437.668 378.763 437.668 373.897 437.667H373.674L373.659 437.445C371.864 410.512 370.226 385.928 368.891 365.896L368.894 365.918C368.05 361.646 367.005 357.609 365.88 353.831C364.661 350.063 363.961 346.377 363.261 342.955C361.92 336.089 360.907 330.124 360.121 325.228C359.338 320.332 358.791 316.503 358.474 313.894C358.323 312.588 358.221 311.589 358.183 310.913C358.146 310.58 358.174 310.309 358.177 310.139C358.186 309.969 358.192 309.891 358.192 309.891C358.194 309.954 358.197 310.027 358.201 310.157C358.211 310.329 358.196 310.571 358.24 310.909C358.296 311.582 358.416 312.577 358.584 313.879C358.937 316.481 359.518 320.303 360.332 325.193C361.149 330.082 362.192 336.041 363.559 342.895C364.273 346.316 364.982 349.98 366.208 353.731C367.348 357.519 368.405 361.555 369.264 365.848L369.266 365.858L369.267 365.87C370.63 385.9 372.301 410.482 374.132 437.413L373.895 437.191C378.762 437.19 383.731 437.19 388.77 437.189L388.533 437.397C388.678 436.293 388.824 435.184 388.972 434.072C389.784 427.92 390.585 421.857 391.371 415.905C392.187 409.957 392.855 404.105 393.792 398.417C394.723 392.738 395.773 387.208 395.966 381.764C396.213 376.318 395.537 371.047 394.481 366.042C390.493 345.956 387.071 328.715 384.497 315.748L384.603 315.855C376.271 313.984 369.685 312.503 365.166 311.489C362.912 310.976 361.177 310.582 359.99 310.313C359.409 310.179 358.965 310.076 358.652 310.003C358.35 309.935 358.192 309.891 358.192 309.891Z" fill="#FF5000"/>
<path d="M371.759 431.121L371.766 432.431C371.766 432.431 351.554 441.567 351.375 445.785L391.662 445.136L390.917 430.466C384.969 433.599 378.705 434.043 371.759 431.121Z" fill="#263238"/>
<path d="M391.661 445.136L391.483 441.607L352.936 443.521C352.936 443.521 351.154 444.404 351.374 445.784L391.661 445.136Z" fill="#455A64"/>
<path d="M371.626 432.557C371.635 432.773 372.62 432.854 373.598 433.532C374.591 434.18 375.103 435.105 375.282 435.016C375.463 434.972 375.153 433.689 373.956 432.892C372.767 432.084 371.581 432.36 371.626 432.557Z" fill="white"/>
<path d="M367.427 434.539C367.385 434.749 368.242 435.101 368.922 436.002C369.627 436.88 369.808 437.862 370.004 437.85C370.19 437.88 370.309 436.617 369.443 435.515C368.587 434.405 367.428 434.334 367.427 434.539Z" fill="white"/>
<path d="M365.1 440.114C365.28 440.157 365.539 439.076 365.017 437.905C364.504 436.729 363.57 436.278 363.489 436.46C363.381 436.638 363.986 437.262 364.401 438.231C364.836 439.189 364.904 440.096 365.1 440.114Z" fill="white"/>
<path d="M413.841 421.763L414.416 422.881C414.416 422.881 401.107 439.477 402.787 443.161L436.948 425.094L429.935 412.876C426.211 418.141 421.048 421.242 413.841 421.763Z" fill="#263238"/>
<path d="M436.947 425.095L435.26 422.156L403.137 440.547C403.137 440.547 401.997 442.076 402.786 443.161L436.947 425.095Z" fill="#455A64"/>
<path d="M414.351 423.049C414.453 423.229 415.33 422.87 416.46 423.025C417.591 423.147 418.431 423.716 418.547 423.562C418.682 423.445 417.858 422.484 416.489 422.323C415.121 422.149 414.227 422.901 414.351 423.049Z" fill="white"/>
<path d="M411.623 426.568C411.678 426.766 412.564 426.695 413.537 427.169C414.521 427.613 415.103 428.374 415.266 428.278C415.438 428.224 414.991 427.092 413.772 426.526C412.556 425.949 411.534 426.392 411.623 426.568Z" fill="white"/>
<path d="M412.055 432.346C412.227 432.305 411.98 431.268 411.025 430.494C410.074 429.712 409.081 429.733 409.09 429.922C409.075 430.123 409.864 430.393 410.639 431.04C411.427 431.67 411.88 432.416 412.055 432.346Z" fill="white"/>
<path d="M317.79 161.935C316.99 155.703 315.252 150.181 315.252 150.181H306.484H305.574H296.807C296.807 150.181 295.069 155.703 294.269 161.935C293.389 168.788 293.829 176.65 300.413 180.139C303.906 181.989 308.117 181.988 311.611 180.141C318.21 176.655 318.671 168.79 317.79 161.935Z" fill="#D7EAF4"/>
<path d="M295.367 167.231C295.457 171.8 296.79 176.178 301.079 178.451C304.159 180.082 307.873 180.082 310.954 178.454C315.316 176.147 316.637 171.67 316.696 167.025L295.367 167.231Z" fill="#4EE39D"/>
<path opacity="0.1" d="M310.935 176.784C307.854 178.412 304.14 178.413 301.061 176.782C297.297 174.787 295.81 171.173 295.441 167.231L295.348 167.231C295.438 171.8 296.77 176.178 301.06 178.451C304.139 180.082 307.853 180.082 310.934 178.454C315.297 176.147 316.617 171.67 316.676 167.025L316.596 167.026C316.255 171.049 314.772 174.756 310.935 176.784Z" fill="#263238"/>
<path d="M303.133 180.794C303.392 180.725 304.987 184.098 305.074 191.22C305.081 191.831 305.413 201.247 305.141 202.063C305.141 202.063 303.614 204.337 303.133 204.727L306.012 205.085V180.795H303.133V180.794Z" fill="#263238"/>
<path d="M308.927 180.883C308.565 180.769 306.921 183.893 306.954 191.22C306.985 197.963 306.759 201.294 307.192 202.263C307.192 202.263 308.723 204.482 309.203 204.872L306.016 205.085V180.795L308.927 180.883Z" fill="#263238"/>
<path d="M316.915 206.708C316.915 208.091 312.096 209.213 306.151 209.213C300.207 209.213 295.387 208.092 295.387 206.708C295.387 205.326 300.206 204.204 306.151 204.204C312.096 204.204 316.915 205.326 316.915 206.708Z" fill="#263238"/>
<path d="M316.696 167.205C316.696 167.951 311.922 168.556 306.032 168.556C300.142 168.556 295.367 167.951 295.367 167.205C295.367 166.459 300.142 165.854 306.032 165.854C311.922 165.854 316.696 166.459 316.696 167.205Z" fill="#4EE39D"/>
<path opacity="0.3" d="M316.696 167.205C316.696 167.951 311.922 168.556 306.032 168.556C300.142 168.556 295.367 167.951 295.367 167.205C295.367 166.459 300.142 165.854 306.032 165.854C311.922 165.854 316.696 166.459 316.696 167.205Z" fill="#263238"/>
<path opacity="0.3" d="M298.257 150.847C298.257 150.847 291.418 165.854 300.004 174.578C300.004 174.578 298.41 170.34 299.304 162.205C299.824 157.473 302.603 151.963 302.603 151.963C301.026 151.72 299.582 151.342 298.257 150.847Z" fill="white"/>
<path d="M315.179 150.258C315.193 150.289 314.962 150.421 314.529 150.636C314.099 150.856 313.451 151.122 312.632 151.4C310.997 151.959 308.625 152.464 305.972 152.465C303.319 152.456 300.948 151.946 299.314 151.382C298.496 151.102 297.848 150.834 297.419 150.612C296.986 150.395 296.755 150.262 296.77 150.232C296.805 150.154 297.779 150.582 299.417 151.05C301.052 151.521 303.377 151.965 305.973 151.973C308.568 151.972 310.894 151.534 312.53 151.068C314.169 150.604 315.145 150.179 315.179 150.258Z" fill="#263238"/>
<path d="M308.961 181.241C309.007 181.359 307.75 181.877 306.101 181.859C304.452 181.853 303.203 181.317 303.251 181.198C303.293 181.06 304.543 181.363 306.105 181.367C307.666 181.386 308.921 181.102 308.961 181.241Z" fill="#263238"/>
<g opacity="0.3">
<path d="M304.477 181.979C304.734 183.03 304.993 184.08 305.25 185.13C305.309 185.369 305.385 185.631 305.594 185.758C305.863 185.92 306.231 185.765 306.416 185.51C306.601 185.257 306.652 184.933 306.717 184.625C306.889 183.796 307.272 182.763 307.675 182.018C306.68 182.242 305.455 182.268 304.477 181.979Z" fill="white"/>
</g>
<path d="M422.815 94.9435C422.388 92.2479 420.98 89.6204 418.662 88.1779C416.346 86.7353 413.085 86.7206 411.024 88.5091L409.66 88.8274C409.708 97.2785 409.757 105.73 409.805 114.18C409.811 115.277 409.89 116.533 410.752 117.213C411.456 117.768 412.492 117.729 413.299 117.339C414.106 116.949 414.728 116.267 415.303 115.58C418.37 111.914 420.671 107.61 422.015 103.023C422.783 100.405 423.242 97.6391 422.815 94.9435Z" fill="#263238"/>
<path d="M412.484 84.3652C407.211 77.3668 399.922 73.1679 391.174 72.6729C386.238 72.3942 384.153 73.3381 380.558 74.155C376.962 74.972 373.677 76.7522 371.435 79.6787C368.772 83.1545 366.495 87.0755 365.844 91.406C365.176 95.8542 365.343 100.24 366.048 103.876C366.904 108.292 369.639 115.1 372.132 118.843L379.676 120.068C385.966 120.534 392.343 120.996 398.536 119.805C404.73 118.614 410.823 115.551 414.325 110.306C419.189 103.017 417.757 91.3636 412.484 84.3652Z" fill="#263238"/>
<path d="M402.338 83.885L387.377 77.2334L383.387 77.5361C374.45 77.2104 367.892 86.8189 367.544 94.0547C367.157 102.093 367.002 111.923 368.043 117.901C370.135 129.922 380.267 131.321 380.267 131.321C380.267 131.321 379.274 145.508 379.038 149.507L402.911 140.913L406.194 88.128C406.205 85.9265 404.53 84.0837 402.338 83.885Z" fill="#FFBF9D"/>
<path d="M386.029 115.827C385.971 115.195 385.645 114.626 385.215 114.227C384.355 113.428 383.057 113.302 382.077 113.921C381.097 114.542 380.497 115.868 380.627 117.129C381.132 117.885 381.932 118.415 382.834 118.53C382.975 118.547 383.116 118.558 383.258 118.56C383.945 118.57 384.654 118.365 385.198 117.88C385.743 117.394 386.1 116.606 386.029 115.827Z" fill="#FF5000"/>
<path d="M370.391 104.746C370.374 105.563 371.052 106.25 371.904 106.283C372.755 106.317 373.46 105.684 373.477 104.867C373.493 104.051 372.815 103.362 371.965 103.328C371.112 103.295 370.407 103.929 370.391 104.746Z" fill="#263238"/>
<path d="M370.108 98.1833C370.302 98.382 371.46 97.4988 373.123 97.4777C374.784 97.4335 376.017 98.2707 376.194 98.0646C376.282 97.9735 376.081 97.6129 375.544 97.2339C375.015 96.8567 374.117 96.4951 373.082 96.5144C372.046 96.5356 371.18 96.9303 370.685 97.3277C370.179 97.727 370.012 98.0941 370.108 98.1833Z" fill="#263238"/>
<path d="M380.25 111.623C380.257 111.528 379.221 111.365 377.543 111.176C377.118 111.138 376.714 111.06 376.638 110.771C376.534 110.466 376.705 110.006 376.903 109.509C377.288 108.475 377.689 107.392 378.111 106.257C379.787 101.627 380.993 97.823 380.806 97.7577C380.619 97.6915 379.109 101.391 377.433 106.02C377.03 107.162 376.645 108.249 376.279 109.291C376.125 109.776 375.857 110.328 376.083 110.961C376.202 111.276 376.517 111.502 376.79 111.572C377.064 111.651 377.303 111.652 377.513 111.662C379.2 111.725 380.246 111.718 380.25 111.623Z" fill="#263238"/>
<path d="M380.249 131.307C380.249 131.307 388.362 131.709 396.322 126.763C396.322 126.763 392.147 135.179 380.07 134.229L380.249 131.307Z" fill="#FF5000"/>
<path d="M369.855 93.0995C370.141 93.5016 371.41 93.2108 372.9 93.313C374.392 93.3672 375.627 93.7877 375.949 93.4178C376.093 93.2366 375.924 92.8438 375.402 92.4426C374.888 92.0434 374.004 91.68 372.979 91.6257C371.954 91.5732 371.04 91.8428 370.492 92.186C369.935 92.531 369.731 92.9045 369.855 93.0995Z" fill="#263238"/>
<path d="M387.493 105.156C387.503 105.973 386.82 106.655 385.968 106.681C385.117 106.708 384.416 106.07 384.406 105.253C384.396 104.436 385.079 103.753 385.93 103.726C386.783 103.7 387.483 104.339 387.493 105.156Z" fill="#263238"/>
<path d="M392.589 98.4405C392.393 98.6373 391.242 97.7449 389.579 97.7118C387.919 97.6548 386.679 98.4828 386.504 98.2749C386.417 98.1829 386.62 97.8241 387.16 97.4487C387.692 97.0752 388.593 96.721 389.628 96.7486C390.664 96.778 391.526 97.1791 392.018 97.5803C392.52 97.9841 392.685 98.3512 392.589 98.4405Z" fill="#263238"/>
<path d="M390.113 92.6928C389.784 93.0681 388.502 92.6698 386.96 92.6422C385.418 92.5667 384.109 92.8796 383.811 92.483C383.68 92.2908 383.888 91.9136 384.461 91.5594C385.025 91.2061 385.968 90.9209 387.028 90.9549C388.088 90.9917 389.005 91.3386 389.539 91.7286C390.083 92.1187 390.259 92.5088 390.113 92.6928Z" fill="#263238"/>
<path d="M403.32 108.248C403.309 107.351 404.315 105.22 405.199 105.069C407.56 104.665 411.828 104.792 411.957 110.8C412.133 119.015 403.849 117.497 403.83 117.261C403.815 117.077 403.359 111.347 403.32 108.248Z" fill="#FFBF9D"/>
<path d="M406.031 114.213C406.066 114.186 406.176 114.31 406.42 114.415C406.658 114.518 407.066 114.584 407.491 114.414C408.352 114.078 409.053 112.684 409.061 111.203C409.066 110.455 408.895 109.746 408.617 109.162C408.353 108.567 407.955 108.155 407.517 108.087C407.08 107.996 406.776 108.264 406.68 108.497C406.575 108.73 406.632 108.892 406.588 108.907C406.565 108.928 406.409 108.774 406.468 108.433C406.498 108.269 406.59 108.073 406.781 107.911C406.974 107.747 407.262 107.659 407.567 107.685C408.202 107.716 408.784 108.286 409.09 108.927C409.429 109.57 409.64 110.366 409.634 111.206C409.618 112.862 408.804 114.43 407.623 114.799C407.049 114.962 406.563 114.798 406.31 114.609C406.049 114.411 406.002 114.227 406.031 114.213Z" fill="#FF5000"/>
<path d="M405.533 105.106L403.364 107.182C389.885 99.2316 375.463 76.5011 378.939 77.2896C378.939 77.2896 385.2 75.0034 391.839 76.4091C398.479 77.8158 411.025 81.6688 410.515 89.5458C410.005 97.4219 405.533 105.106 405.533 105.106Z" fill="#263238"/>
<path d="M410.092 104.902C410.076 104.94 409.53 104.74 408.566 104.329C407.602 103.918 406.222 103.287 404.549 102.437C401.216 100.737 396.682 98.1136 392.358 94.3131C388.029 90.5153 384.941 86.2097 383.264 82.8425C382.413 81.1626 381.858 79.7403 381.54 78.7384C381.219 77.7374 381.096 77.1689 381.131 77.1588C381.247 77.1174 381.87 79.3668 383.653 82.6364C385.409 85.9089 388.499 90.0976 392.77 93.8457C397.037 97.5966 401.489 100.255 404.755 102.047C406.391 102.943 407.738 103.632 408.668 104.109C409.6 104.588 410.111 104.861 410.092 104.902Z" fill="#455A64"/>
<path d="M409.165 117.848C409.248 119.545 407.939 120.988 406.242 121.071C404.545 121.154 403.102 119.846 403.019 118.148C402.937 116.451 404.245 115.008 405.941 114.926C407.639 114.842 409.082 116.151 409.165 117.848Z" fill="#263238"/>
<path d="M380.146 117.419C380.165 117.127 382.1 117.368 383.682 115.885C385.268 114.407 385.312 112.318 385.584 112.336C385.709 112.325 385.902 112.843 385.816 113.716C385.738 114.574 385.306 115.785 384.338 116.692C383.369 117.596 382.19 117.888 381.389 117.854C380.569 117.827 380.117 117.551 380.146 117.419Z" fill="#263238"/>
<path d="M368.398 78.3594C368.398 78.3594 370.406 74.4264 378.255 69.8512C386.239 65.1978 403.151 71.924 403.151 71.924L368.398 78.3594Z" fill="#4EE39D"/>
<path opacity="0.3" d="M368.398 78.3594C368.398 78.3594 370.406 74.4264 378.255 69.8512C386.239 65.1978 403.151 71.924 403.151 71.924L368.398 78.3594Z" fill="#263238"/>
<path d="M366.121 87.6896C366.121 87.6896 364.018 80.451 365.634 77.7499C367.249 75.0488 394.669 69.3669 404.676 70.101C404.676 70.101 405.813 70.0449 406.903 71.7395C407.993 73.4342 412.484 84.3638 412.484 84.3638C412.484 84.3638 381.404 78.5521 366.121 87.6896Z" fill="#4EE39D"/>
<path d="M412.896 112.566C412.813 112.515 413.67 111.225 414.621 108.943C415.106 107.806 415.561 106.404 415.947 104.819C416.302 103.228 416.571 101.45 416.648 99.569C416.702 97.6867 416.56 95.8936 416.316 94.2818C416.042 92.6745 415.686 91.243 415.283 90.0746C414.494 87.7304 413.73 86.3845 413.816 86.3394C413.845 86.3238 414.046 86.6522 414.387 87.2631C414.562 87.5658 414.764 87.9439 414.956 88.402C415.154 88.8574 415.408 89.3662 415.602 89.9624C416.052 91.1317 416.448 92.577 416.751 94.2082C417.022 95.8439 417.183 97.6692 417.126 99.5856C417.048 101.501 416.761 103.31 416.376 104.922C415.959 106.528 415.463 107.942 414.932 109.077C414.697 109.658 414.408 110.148 414.179 110.589C413.954 111.032 413.727 111.395 413.53 111.685C413.147 112.271 412.924 112.583 412.896 112.566Z" fill="#455A64"/>
<path d="M401.034 69.9693C401.035 70.0025 400.562 70.0466 399.708 70.0981C398.855 70.1441 397.621 70.2269 396.098 70.3493C393.054 70.5913 388.86 71.0743 384.288 71.9639C379.717 72.8618 375.649 73.9953 372.738 74.9171C371.281 75.3771 370.107 75.7653 369.3 76.0441C368.49 76.3182 368.036 76.4553 368.024 76.4241C368.012 76.3928 368.443 76.1977 369.234 75.8693C370.024 75.5363 371.184 75.0974 372.632 74.5951C375.525 73.5877 379.601 72.3954 384.196 71.4938C388.791 70.5986 393.015 70.1671 396.075 70.0107C397.605 69.9307 398.846 69.9003 399.703 69.9114C400.56 69.9178 401.034 69.9362 401.034 69.9693Z" fill="#263238"/>
<path d="M336.361 205.647H275.734V207.55H279.812L282.53 210.269H326.302L329.837 207.959H336.361V205.647Z" fill="#455A64"/>
<path d="M349.982 239.403C349.982 239.403 349.891 256.988 350.193 277.33C350.5 297.916 350.193 329.7 350.193 329.7C350.193 329.7 360.63 335.071 384.691 333.191C408.753 331.312 405.854 328.625 405.854 328.625C405.854 328.625 402.376 283.507 403.535 278.136C404.694 272.765 409.333 263.772 402.376 247.454C395.418 231.136 384.691 226.303 384.691 226.303L349.982 239.403Z" fill="#4EE39D"/>
<path d="M361.398 326.038C361.381 326.04 361.328 325.828 361.24 325.42C361.148 324.964 361.027 324.371 360.878 323.634C360.568 322.081 360.174 319.824 359.737 317.026C358.858 311.433 357.905 303.659 357.388 295.031C356.879 286.399 356.904 278.567 357.113 272.909C357.216 270.08 357.339 267.791 357.463 266.213C357.524 265.463 357.573 264.859 357.61 264.396C357.649 263.981 357.678 263.764 357.694 263.765C357.711 263.766 357.714 263.985 357.707 264.402C357.692 264.867 357.674 265.471 357.65 266.223C357.584 267.803 357.511 270.091 357.452 272.918C357.33 278.571 357.358 286.387 357.867 295.002C358.384 303.614 359.281 311.378 360.073 316.977C360.467 319.776 360.81 322.039 361.063 323.601C361.175 324.345 361.266 324.944 361.336 325.403C361.392 325.816 361.415 326.034 361.398 326.038Z" fill="#263238"/>
<path d="M372.477 150.759C372.688 150.373 379.311 140.111 379.854 139.709C380.397 139.307 387.841 130.506 399.216 129.198C410.59 127.892 401.673 141.079 401.673 141.079L372.477 150.759Z" fill="#263238"/>
<path d="M374.824 144.178C374.271 144.38 354.525 163.192 353.073 175.661C351.62 188.131 355.191 195.116 353.193 204.119C351.196 213.122 345.074 238.842 346.189 250.138C346.189 250.138 366.267 245.18 376.683 247.29C387.099 249.399 408.172 247.563 408.631 245.445C409.09 243.327 403.632 226.241 397.502 213.546C397.502 213.546 398.402 204.492 399.141 200.44C399.88 196.387 402.556 184.735 406.169 174.257C409.781 163.777 406.103 143.641 401.988 138.196C401.988 138.196 397.41 134.914 388.754 138.131C380.098 141.347 374.824 144.178 374.824 144.178Z" fill="#4EE39D"/>
<path d="M348.085 204.328C348.085 204.328 341.382 200.845 338.497 200.306C335.613 199.767 332.643 203.042 328.56 203.038C324.476 203.035 323.103 205.551 323.103 205.551L323.123 205.959L332.628 205.493C332.975 205.476 333.076 205.96 332.748 206.078C328.891 207.458 320.634 210.547 320.28 211.813C319.816 213.469 320.108 213.863 322.008 213.77C323.909 213.677 328.254 213.465 328.254 213.465C328.254 213.465 331.115 216.319 335.113 217.348C339.11 218.378 349.863 214.89 349.863 214.89L354.154 215.277L354.555 204.42L348.085 204.328Z" fill="#FFBF9D"/>
<path d="M378.924 162.815C378.991 163.487 381.837 203.175 379.405 203.294C376.974 203.413 354.621 202.632 354.621 202.632L353.977 220.102C353.977 220.102 377.192 227.028 392.121 225.548C407.05 224.068 405.761 213.067 405.905 200.684C406.049 188.301 403.929 159.95 402.699 154.338C401.367 148.26 396.547 140.574 388.958 142.259C383.6 143.45 377.358 147.214 378.924 162.815Z" fill="#4EE39D"/>
<path d="M378.924 162.815C378.924 162.815 378.891 162.602 378.853 162.182C378.815 161.747 378.762 161.127 378.693 160.319C378.639 158.682 378.474 156.236 378.993 153.139C379.3 151.607 379.711 149.893 380.594 148.186C381.465 146.484 382.881 144.847 384.807 143.687C386.754 142.598 389.101 141.814 391.669 141.894C392.944 142.01 394.229 142.375 395.419 143.013C396.608 143.659 397.662 144.579 398.601 145.626C400.485 147.734 401.82 150.447 402.651 153.394C403.063 154.88 403.247 156.436 403.457 158.003C403.658 159.576 403.83 161.18 403.996 162.812C404.643 169.344 405.171 176.336 405.59 183.703C405.796 187.386 405.98 191.163 406.077 195.026C406.19 198.894 406.117 202.835 406.099 206.85C406.057 208.858 406.013 210.893 405.734 212.933C405.462 214.965 405.017 217.026 404.089 218.932C403.15 220.829 401.63 222.459 399.776 223.528L399.087 223.944C398.849 224.064 398.595 224.153 398.349 224.26C397.851 224.452 397.367 224.697 396.853 224.846C395.817 225.108 394.789 225.448 393.718 225.553C386.629 226.543 379.638 225.645 372.99 224.629C366.332 223.523 359.953 222.046 353.911 220.318L353.742 220.27L353.749 220.092C353.979 213.994 354.199 208.162 354.408 202.623L354.417 202.412L354.627 202.419C359.514 202.583 364.203 202.739 368.667 202.888C370.899 202.95 373.074 203.011 375.19 203.07C376.247 203.088 377.29 203.106 378.316 203.123C378.574 203.127 378.828 203.127 379.079 203.12C379.184 203.114 379.379 203.126 379.408 203.105C379.444 203.105 379.511 203.018 379.561 202.924C379.754 202.513 379.837 202.006 379.91 201.525C380.164 199.565 380.187 197.628 380.216 195.769C380.235 193.906 380.213 192.109 380.18 190.381C380.111 186.926 379.991 183.75 379.869 180.88C379.621 175.14 379.359 170.625 379.182 167.543C379.093 166.013 379.024 164.836 378.977 164.023C378.935 163.228 378.924 162.815 378.924 162.815C378.924 162.815 378.944 162.917 378.965 163.119C378.985 163.336 379.012 163.633 379.047 164.02C379.109 164.833 379.2 166.008 379.316 167.537C379.535 170.616 379.836 175.13 380.121 180.87C380.261 183.74 380.399 186.917 380.485 190.376C380.526 192.105 380.555 193.905 380.545 195.772C380.522 197.64 380.509 199.575 380.257 201.575C380.18 202.075 380.112 202.577 379.878 203.089C379.806 203.21 379.733 203.365 379.521 203.443C379.307 203.497 379.24 203.463 379.092 203.477C378.832 203.485 378.576 203.486 378.318 203.483C377.289 203.469 376.244 203.454 375.185 203.44C373.068 203.387 370.891 203.334 368.658 203.279C364.193 203.14 359.503 202.994 354.614 202.843L354.833 202.64C354.634 208.179 354.423 214.012 354.203 220.111L354.041 219.885C360.058 221.597 366.434 223.067 373.068 224.163C376.387 224.694 379.775 225.124 383.218 225.364C386.657 225.571 390.174 225.605 393.643 225.081C394.698 224.978 395.694 224.645 396.707 224.391C397.208 224.246 397.673 224.008 398.157 223.823C398.394 223.72 398.641 223.634 398.871 223.519L399.532 223.118C401.313 222.09 402.756 220.544 403.663 218.721C404.557 216.886 404.996 214.875 405.265 212.874C405.541 210.867 405.587 208.845 405.63 206.844C405.65 202.835 405.727 198.89 405.62 195.039C405.527 191.183 405.349 187.409 405.149 183.729C404.743 176.368 404.231 169.377 403.602 162.853C403.44 161.223 403.273 159.62 403.077 158.052C402.873 156.486 402.694 154.944 402.295 153.491C401.488 150.593 400.181 147.916 398.348 145.85C397.434 144.824 396.412 143.925 395.265 143.295C394.115 142.674 392.879 142.317 391.649 142.199C389.179 142.107 386.845 142.865 384.943 143.918C383.058 145.042 381.665 146.626 380.797 148.293C379.917 149.964 379.496 151.655 379.177 153.172C378.634 156.24 378.767 158.682 378.789 160.315C378.838 161.123 378.876 161.743 378.901 162.179C378.924 162.599 378.924 162.815 378.924 162.815Z" fill="#263238"/>
<path d="M408.725 245.701C408.73 245.717 408.524 245.798 408.127 245.94C407.726 246.071 407.146 246.307 406.371 246.514C404.837 246.983 402.564 247.505 399.718 247.887C396.871 248.276 393.448 248.453 389.656 248.407C385.862 248.365 381.702 248.089 377.346 247.789C372.989 247.491 368.836 247.27 365.06 247.306C361.284 247.34 357.887 247.615 355.075 248.098C352.262 248.571 350.024 249.174 348.512 249.684C347.744 249.91 347.175 250.158 346.773 250.285C346.375 250.424 346.163 250.49 346.156 250.475C346.15 250.459 346.35 250.364 346.737 250.196C347.128 250.04 347.69 249.762 348.451 249.508C349.952 248.941 352.192 248.284 355.017 247.764C357.842 247.236 361.259 246.923 365.054 246.865C368.85 246.804 373.018 247.013 377.378 247.311C381.736 247.611 385.885 247.899 389.662 247.964C393.439 248.033 396.842 247.893 399.676 247.549C402.51 247.213 404.778 246.744 406.322 246.333C407.101 246.155 407.688 245.948 408.097 245.847C408.503 245.737 408.719 245.685 408.725 245.701Z" fill="#263238"/>
</svg>
