<svg width="298" height="196" viewBox="0 0 298 196" fill="none" xmlns="http://www.w3.org/2000/svg">
<path d="M172.572 16.1144C172.572 16.1144 141.457 6.46032 113.183 25.2652C84.9099 44.0696 72.723 79.4598 62.0967 107.847C51.4705 136.234 61.1436 164.205 84.8339 176.108C108.524 188.01 122.402 168.31 154.109 165.981C185.816 163.652 194.737 167.919 219.635 148.403C244.535 128.888 245.823 85.3372 222.446 54.1866C199.068 23.0361 172.572 16.1144 172.572 16.1144Z" fill="#4EE39D"/>
<g opacity="0.13">
<path d="M149.042 178.3L143.095 156.132L141.382 179.02C141.212 181.29 143.015 183.224 145.292 183.213C147.85 183.2 149.704 180.771 149.042 178.3Z" fill="#263238"/>
<path d="M117.449 177.44L119.274 154.969L108.985 175.03C107.697 177.541 109.02 180.603 111.731 181.387C114.456 182.175 117.219 180.268 117.449 177.44Z" fill="#263238"/>
<path d="M85.7896 164.988C89.2336 159.859 94.6557 151.612 94.6557 151.612L80.4199 158.961C77.8463 160.29 77.3798 163.774 79.5134 165.733C81.3928 167.459 84.3672 167.107 85.7896 164.988Z" fill="#263238"/>
<path d="M63.5648 81.8978C69.6228 83.1096 79.3196 84.951 79.3196 84.951L67.069 74.6261C64.8541 72.7597 61.458 73.6662 60.468 76.3879C59.5957 78.7865 61.0624 81.3973 63.5648 81.8978Z" fill="#263238"/>
<path d="M69.4595 40.0898C73.0516 42.1454 78.8225 45.3732 78.8225 45.3732L73.229 36.213C72.218 34.5569 69.8674 34.4124 68.6608 35.9318C67.5979 37.2703 67.9757 39.2408 69.4595 40.0898Z" fill="#263238"/>
<path d="M74.261 138.913L88.5951 130.095L71.8241 131.493C69.1582 131.715 67.4514 134.434 68.4101 136.932C69.3106 139.278 72.1207 140.229 74.261 138.913Z" fill="#263238"/>
<path d="M88.3206 141.765C88.656 140.407 90.0282 139.578 91.386 139.914C92.7435 140.249 93.5724 141.621 93.237 142.979C92.9015 144.337 91.5294 145.165 90.1715 144.83C88.8136 144.495 87.9852 143.122 88.3206 141.765Z" fill="#263238"/>
<path d="M92.4534 170.431C92.7888 169.073 94.161 168.244 95.5188 168.58C96.8763 168.915 97.7052 170.287 97.3697 171.645C97.0343 173.003 95.6622 173.831 94.3047 173.496C92.9468 173.161 92.118 171.788 92.4534 170.431Z" fill="#263238"/>
<path d="M64.3444 159.043C66.9315 159.043 69.0287 156.945 69.0287 154.358C69.0287 151.771 66.9315 149.674 64.3444 149.674C61.7574 149.674 59.6602 151.771 59.6602 154.358C59.6602 156.945 61.7574 159.043 64.3444 159.043Z" fill="#263238"/>
<path d="M127.391 168.367C127.726 167.01 129.098 166.181 130.456 166.516C131.813 166.852 132.642 168.224 132.307 169.582C131.971 170.939 130.599 171.768 129.242 171.432C127.884 171.097 127.055 169.725 127.391 168.367Z" fill="#263238"/>
<path d="M63.5765 121.569C64.0794 119.533 66.1378 118.29 68.1745 118.793C70.2107 119.296 71.4538 121.354 70.9508 123.391C70.4479 125.427 68.3891 126.67 66.3529 126.167C64.3166 125.664 63.0736 123.606 63.5765 121.569Z" fill="#263238"/>
<path d="M87.5727 33.5856L107.808 44.4162L92.2883 27.5073C90.7486 25.8299 88.1053 25.822 86.5554 27.4903C84.8146 29.3642 85.3175 32.3785 87.5727 33.5856Z" fill="#263238"/>
<path d="M118.411 18.0576L135.465 32.8051L125.356 12.6526C124.091 10.1301 120.839 9.38839 118.605 11.1126C116.359 12.8459 116.266 16.2024 118.411 18.0576Z" fill="#263238"/>
<path d="M150.333 8.58632C152.437 14.3948 155.889 23.6422 155.889 23.6422L158.368 7.81373C158.816 4.95223 156.28 2.51762 153.44 3.08192C150.936 3.5793 149.464 6.18696 150.333 8.58632Z" fill="#263238"/>
<path d="M220.967 39.1547C218.502 44.8195 214.652 53.9081 214.652 53.9081L227.334 44.117C229.626 42.3469 229.458 38.8359 227.008 37.2927C224.848 35.9332 221.985 36.8147 220.967 39.1547Z" fill="#263238"/>
<path d="M172.178 26.109L170.168 42.8178L179.503 28.8152C180.987 26.5893 179.919 23.5619 177.367 22.7592C174.97 22.0052 172.478 23.6142 172.178 26.109Z" fill="#263238"/>
<path d="M160.914 27.0198C161.187 28.3912 160.296 29.7241 158.925 29.9974C157.553 30.2702 156.22 29.3796 155.948 28.0082C155.675 26.6369 156.565 25.3036 157.937 25.0307C159.308 24.7575 160.641 25.6481 160.914 27.0198Z" fill="#263238"/>
<path d="M123.818 46.9112C124.715 47.9835 124.573 49.5806 123.501 50.4779C122.428 51.3753 120.831 51.2331 119.934 50.1607C119.036 49.0884 119.179 47.4913 120.251 46.594C121.324 45.6966 122.92 45.8388 123.818 46.9112Z" fill="#263238"/>
<path d="M78.5758 56.0366C79.0807 58.5738 77.433 61.0397 74.8958 61.5446C72.3586 62.0495 69.8927 60.4017 69.3878 57.8646C68.8829 55.3274 70.5307 52.8615 73.0679 52.3566C75.605 51.8517 78.0709 53.4994 78.5758 56.0366Z" fill="#263238"/>
<path d="M114.25 19.5246C114.523 20.8959 113.632 22.2289 112.261 22.5021C110.889 22.775 109.556 21.8844 109.284 20.513C109.011 19.1417 109.901 17.8087 111.273 17.5355C112.644 17.2626 113.977 18.1532 114.25 19.5246Z" fill="#263238"/>
<path d="M192.148 14.7216C193.43 16.382 193.123 18.7671 191.463 20.0485C189.802 21.3304 187.417 21.0235 186.136 19.3631C184.854 17.7026 185.161 15.3175 186.821 14.0357C188.481 12.7542 190.866 13.0611 192.148 14.7216Z" fill="#263238"/>
</g>
<path d="M117.462 139.733C117.563 139.697 117.66 139.645 117.75 139.577L177.665 94.2227L216.28 87.9224C216.874 87.825 217.274 87.2674 217.178 86.6754C217.081 86.0834 216.523 85.6818 215.931 85.778L177.05 92.122C176.875 92.1513 176.71 92.221 176.569 92.3279L116.439 137.845C115.96 138.207 115.866 138.888 116.228 139.366C116.522 139.754 117.027 139.889 117.462 139.733Z" fill="#BFBFBF" stroke="#263238" stroke-width="0.396" stroke-miterlimit="10" stroke-linecap="round" stroke-linejoin="round"/>
<path d="M181.567 135.47C181.803 135.384 181.956 135.143 181.921 134.885L176.473 86.9786C176.272 85.5182 176.942 84.0561 178.178 83.2539L181.684 80.98C181.935 80.8169 182.007 80.4807 181.844 80.2288C181.681 79.9766 181.344 79.9061 181.093 80.0688L177.587 82.3427C175.998 83.373 175.139 85.2509 175.397 87.1267L180.844 135.033C180.885 135.33 181.159 135.538 181.456 135.497C181.495 135.491 181.532 135.482 181.567 135.47Z" fill="#BFBFBF" stroke="#263238" stroke-width="0.396" stroke-miterlimit="10" stroke-linecap="round" stroke-linejoin="round"/>
<path d="M125.223 147.576C125.279 147.556 125.332 147.526 125.381 147.487L177.963 106.342L217.007 101.845C217.304 101.825 217.531 101.565 217.51 101.266C217.489 100.967 217.23 100.741 216.931 100.762L177.716 105.27C177.605 105.278 177.499 105.32 177.413 105.39L124.698 146.643C124.464 146.831 124.428 147.174 124.618 147.406C124.766 147.591 125.012 147.652 125.223 147.576Z" fill="#BFBFBF" stroke="#263238" stroke-width="0.396" stroke-miterlimit="10" stroke-linecap="round" stroke-linejoin="round"/>
<path d="M134.407 158.877C134.462 158.857 134.515 158.828 134.563 158.789L179.801 121.146L218.464 119.58C218.762 119.56 218.988 119.3 218.967 119C218.946 118.701 218.687 118.475 218.388 118.496L179.555 120.074C179.444 120.082 179.338 120.124 179.252 120.193L133.882 157.943C133.648 158.132 133.612 158.473 133.8 158.707C133.949 158.892 134.195 158.953 134.407 158.877Z" fill="#BFBFBF" stroke="#263238" stroke-width="0.396" stroke-miterlimit="10" stroke-linecap="round" stroke-linejoin="round"/>
<path d="M204.957 89.8028L206.03 89.6278L210.769 134.007C210.8 134.263 210.647 134.5 210.414 134.583C210.376 134.597 210.336 134.607 210.295 134.611C209.997 134.648 209.726 134.436 209.69 134.138L204.957 89.8028Z" fill="#BFBFBF" stroke="#263238" stroke-width="0.396" stroke-miterlimit="10" stroke-linecap="round" stroke-linejoin="round"/>
<path d="M193.273 91.7179L194.346 91.5428L198.132 134.267C198.164 134.523 198.011 134.761 197.777 134.845C197.74 134.859 197.701 134.868 197.661 134.874C197.363 134.911 197.092 134.7 197.054 134.402L193.273 91.7179Z" fill="#BFBFBF" stroke="#263238" stroke-width="0.396" stroke-miterlimit="10" stroke-linecap="round" stroke-linejoin="round"/>
<path d="M183.418 93.3165L184.491 93.1415L188.165 134.736C188.197 134.992 188.044 135.23 187.81 135.314C187.774 135.328 187.734 135.337 187.694 135.342C187.396 135.38 187.125 135.169 187.087 134.871L183.418 93.3165Z" fill="#BFBFBF" stroke="#263238" stroke-width="0.396" stroke-miterlimit="10" stroke-linecap="round" stroke-linejoin="round"/>
<path d="M139.83 122.861L139.831 122.862L158.465 152.958C158.631 153.207 158.563 153.544 158.314 153.711C158.277 153.736 158.237 153.756 158.197 153.77C157.967 153.853 157.702 153.773 157.561 153.56L138.961 123.52L139.83 122.861Z" fill="#BFBFBF" stroke="#263238" stroke-width="0.396" stroke-miterlimit="10" stroke-linecap="round" stroke-linejoin="round"/>
<path d="M148.743 116.114C148.798 116.157 148.847 116.21 148.884 116.273L165.312 147.41C165.462 147.67 165.373 148.002 165.113 148.152C165.085 148.168 165.055 148.182 165.025 148.193C164.783 148.28 164.505 148.184 164.371 147.953L147.943 116.817C147.929 116.793 147.92 116.769 147.91 116.745L148.743 116.114Z" fill="#BFBFBF" stroke="#263238" stroke-width="0.396" stroke-miterlimit="10" stroke-linecap="round" stroke-linejoin="round"/>
<path d="M129.341 130.802C129.343 130.803 129.344 130.805 129.346 130.807L150.403 159.464C150.584 159.703 150.538 160.043 150.299 160.225C150.253 160.259 150.205 160.285 150.154 160.303C149.937 160.382 149.685 160.314 149.538 160.121L128.481 131.463C128.479 131.462 128.478 131.459 128.477 131.457L129.341 130.802Z" fill="#BFBFBF" stroke="#263238" stroke-width="0.396" stroke-miterlimit="10" stroke-linecap="round" stroke-linejoin="round"/>
<path d="M156.762 110.046C156.802 110.087 156.837 110.133 156.864 110.188L171.774 142.521C171.903 142.791 171.789 143.116 171.519 143.245C171.502 143.254 171.485 143.261 171.468 143.267C171.209 143.36 170.916 143.244 170.795 142.991L155.902 110.696L156.762 110.046Z" fill="#BFBFBF" stroke="#263238" stroke-width="0.396" stroke-miterlimit="10" stroke-linecap="round" stroke-linejoin="round"/>
<path d="M164.758 103.994L178.105 137.435C178.214 137.715 178.077 138.029 177.797 138.139C177.793 138.141 177.788 138.143 177.783 138.145C177.507 138.244 177.201 138.106 177.094 137.832L163.859 104.674L164.758 103.994Z" fill="#BFBFBF" stroke="#263238" stroke-width="0.396" stroke-miterlimit="10" stroke-linecap="round" stroke-linejoin="round"/>
<path d="M142.289 166.236C142.359 166.211 142.427 166.174 142.489 166.126L181.219 136.01L218.875 134.795C219.274 134.783 219.588 134.448 219.576 134.048C219.563 133.649 219.228 133.335 218.828 133.348L180.937 134.571C180.785 134.575 180.637 134.628 180.516 134.723L141.6 164.983C141.284 165.228 141.227 165.683 141.473 165.999C141.67 166.253 142.002 166.339 142.289 166.236Z" fill="#BFBFBF" stroke="#263238" stroke-width="0.396" stroke-miterlimit="10" stroke-linecap="round" stroke-linejoin="round"/>
<path d="M168.212 167.421C168.281 167.396 168.347 167.36 168.409 167.313L210.605 134.936C210.922 134.692 210.981 134.238 210.736 133.921C210.492 133.604 210.037 133.545 209.721 133.79L167.524 166.167C167.207 166.411 167.149 166.865 167.393 167.182C167.59 167.437 167.924 167.525 168.212 167.421Z" fill="#BFBFBF" stroke="#263238" stroke-width="0.396" stroke-miterlimit="10" stroke-linecap="round" stroke-linejoin="round"/>
<path d="M158.036 167.145C158.109 167.118 158.18 167.079 158.244 167.027L197.909 135.11C198.221 134.86 198.271 134.404 198.019 134.092C197.769 133.78 197.313 133.732 197.002 133.982L157.336 165.9C157.025 166.15 156.976 166.606 157.226 166.918C157.425 167.165 157.753 167.247 158.036 167.145Z" fill="#BFBFBF" stroke="#263238" stroke-width="0.396" stroke-miterlimit="10" stroke-linecap="round" stroke-linejoin="round"/>
<path d="M149.349 166.418C149.421 166.392 149.491 166.354 149.554 166.303L188.116 135.642C188.428 135.393 188.481 134.937 188.232 134.625C187.983 134.312 187.527 134.258 187.214 134.508L148.653 165.17C148.339 165.419 148.287 165.874 148.536 166.187C148.735 166.436 149.065 166.52 149.349 166.418Z" fill="#BFBFBF" stroke="#263238" stroke-width="0.396" stroke-miterlimit="10" stroke-linecap="round" stroke-linejoin="round"/>
<path d="M194.791 187.377C194.331 189.963 195.721 192.374 197.895 192.76C200.069 193.148 202.205 191.365 202.666 188.779C203.126 186.193 201.737 183.782 199.562 183.395C197.387 183.009 195.251 184.791 194.791 187.377Z" fill="#263238" stroke="#263238" stroke-width="0.396" stroke-miterlimit="10" stroke-linecap="round" stroke-linejoin="round"/>
<path d="M196.585 188.084C196.305 189.655 197.149 191.119 198.47 191.355C199.792 191.59 201.089 190.507 201.369 188.936C201.648 187.365 200.804 185.901 199.483 185.666C198.162 185.431 196.864 186.514 196.585 188.084Z" fill="white" stroke="#263238" stroke-width="0.396" stroke-miterlimit="10" stroke-linecap="round" stroke-linejoin="round"/>
<path d="M196.925 181.682L200.289 187.21C200.635 187.779 200.6 188.502 200.199 189.034C199.717 189.675 198.838 189.868 198.131 189.489L191.672 186.023L196.925 181.682Z" fill="white" stroke="#263238" stroke-width="0.396" stroke-miterlimit="10" stroke-linecap="round" stroke-linejoin="round"/>
<path d="M176.032 186.52C176.492 183.934 175.102 181.524 172.928 181.137C170.753 180.75 168.618 182.533 168.157 185.119C167.697 187.705 169.087 190.115 171.261 190.502C173.436 190.889 175.572 189.106 176.032 186.52Z" fill="#263238" stroke="#263238" stroke-width="0.396" stroke-miterlimit="10" stroke-linecap="round" stroke-linejoin="round"/>
<path d="M169.96 185.829C169.68 187.4 170.524 188.864 171.845 189.099C173.167 189.334 174.464 188.251 174.744 186.68C175.023 185.109 174.179 183.645 172.858 183.41C171.537 183.175 170.239 184.258 169.96 185.829Z" fill="white" stroke="#263238" stroke-width="0.396" stroke-miterlimit="10" stroke-linecap="round" stroke-linejoin="round"/>
<path d="M170.296 179.426L173.66 184.954C174.006 185.523 173.971 186.246 173.57 186.778C173.088 187.419 172.209 187.612 171.502 187.233L165.043 183.767L170.296 179.426Z" fill="white" stroke="#263238" stroke-width="0.396" stroke-miterlimit="10" stroke-linecap="round" stroke-linejoin="round"/>
<path d="M203.356 166.266C203.816 163.68 202.427 161.27 200.252 160.883C198.078 160.496 195.942 162.279 195.482 164.865C195.021 167.451 196.411 169.861 198.586 170.248C200.76 170.635 202.896 168.852 203.356 166.266Z" fill="#263238" stroke="#263238" stroke-width="0.396" stroke-miterlimit="10" stroke-linecap="round" stroke-linejoin="round"/>
<path d="M197.288 165.576C197.008 167.147 197.853 168.611 199.174 168.846C200.495 169.081 201.792 167.998 202.072 166.427C202.352 164.856 201.507 163.392 200.186 163.157C198.865 162.922 197.567 164.005 197.288 165.576Z" fill="white" stroke="#263238" stroke-width="0.396" stroke-miterlimit="10" stroke-linecap="round" stroke-linejoin="round"/>
<path d="M197.625 159.173L200.989 164.701C201.335 165.27 201.299 165.993 200.899 166.525C200.416 167.166 199.538 167.359 198.83 166.98L192.371 163.514L197.625 159.173Z" fill="white" stroke="#263238" stroke-width="0.396" stroke-miterlimit="10" stroke-linecap="round" stroke-linejoin="round"/>
<path d="M230.563 166.74C231.023 164.154 229.634 161.744 227.459 161.357C225.285 160.97 223.149 162.752 222.689 165.338C222.229 167.924 223.618 170.334 225.793 170.721C227.967 171.108 230.103 169.326 230.563 166.74Z" fill="#263238" stroke="#263238" stroke-width="0.396" stroke-miterlimit="10" stroke-linecap="round" stroke-linejoin="round"/>
<path d="M224.495 166.046C224.215 167.617 225.06 169.081 226.381 169.316C227.702 169.552 228.999 168.469 229.279 166.898C229.559 165.327 228.714 163.863 227.393 163.627C226.072 163.393 224.774 164.475 224.495 166.046Z" fill="white" stroke="#263238" stroke-width="0.396" stroke-miterlimit="10" stroke-linecap="round" stroke-linejoin="round"/>
<path d="M224.832 159.643L228.196 165.172C228.542 165.741 228.506 166.464 228.106 166.996C227.623 167.637 226.745 167.83 226.037 167.451L219.578 163.985L224.832 159.643Z" fill="white" stroke="#263238" stroke-width="0.396" stroke-miterlimit="10" stroke-linecap="round" stroke-linejoin="round"/>
<path d="M188.645 188.588C189.372 188.326 190.061 187.949 190.686 187.461L227.607 158.695C228.629 157.899 229.259 156.7 229.336 155.406C229.421 153.971 228.81 152.57 227.7 151.657L213.441 139.779C213.058 139.464 212.51 139.447 212.11 139.741L186.139 158.815C185.655 159.169 185.55 159.849 185.904 160.334C186.258 160.817 186.936 160.924 187.422 160.568L198.978 152.11C198.991 152.135 199.006 152.159 199.021 152.183L199.246 152.528C199.772 153.337 199.874 154.357 199.518 155.255C199.313 155.772 198.968 156.221 198.521 156.552L162.435 183.298C161.827 183.749 161.562 184.513 161.76 185.243C161.958 185.973 162.572 186.498 163.324 186.58L185.348 188.977C186.479 189.1 187.602 188.964 188.645 188.588ZM212.477 141.882L226.32 153.335C226.895 153.807 227.212 154.534 227.167 155.277C227.127 155.947 226.801 156.568 226.271 156.981L189.351 185.748C188.275 186.586 186.937 186.965 185.583 186.817L164.44 184.515L199.815 158.297C200.587 157.724 201.183 156.949 201.538 156.054C202.153 154.503 202.028 152.638 201.118 151.239L200.895 150.895C200.857 150.837 200.814 150.783 200.767 150.734L212.477 141.882Z" fill="white" stroke="#263238" stroke-width="0.396" stroke-miterlimit="10" stroke-linecap="round" stroke-linejoin="round"/>
<path d="M199.244 152.526L198.977 152.109L200.765 150.733L201.117 151.238C201.523 151.863 201.723 152.665 201.832 153.383L199.524 155.233C199.87 154.34 199.767 153.33 199.244 152.526Z" fill="#263238" stroke="#263238" stroke-width="0.396" stroke-miterlimit="10" stroke-linecap="round" stroke-linejoin="round"/>
<path d="M220.823 76.0163C221.85 75.6464 222.459 74.5202 222.209 73.3516C221.934 72.0702 220.73 71.2235 219.518 71.4607L182.799 78.6525C181.588 78.8905 180.828 80.1212 181.103 81.4027C181.378 82.6842 182.582 83.5308 183.794 83.2936L220.513 76.1018C220.62 76.0809 220.723 76.0523 220.823 76.0163Z" fill="#263238" stroke="#263238" stroke-width="0.396" stroke-miterlimit="10" stroke-linecap="round" stroke-linejoin="round"/>
<path d="M214.962 88.7599C215.191 88.6776 215.343 88.4475 215.318 88.1944L214.575 80.83C214.429 79.3846 215.1 78.0022 216.327 77.2233L221.279 74.0762C221.532 73.9155 221.607 73.5797 221.447 73.3266C221.286 73.0736 220.95 72.9999 220.697 73.1595L215.744 76.3061C214.169 77.3072 213.307 79.0821 213.494 80.9389L214.237 88.3033C214.267 88.6019 214.534 88.8193 214.832 88.7892C214.877 88.7845 214.921 88.7746 214.962 88.7599Z" fill="white" stroke="#263238" stroke-width="0.396" stroke-miterlimit="10" stroke-linecap="round" stroke-linejoin="round"/>
<path d="M175.937 167.843C175.988 167.824 176.037 167.798 176.081 167.765L219.747 134.755C219.899 134.64 219.979 134.455 219.96 134.267L215.313 88.1947C215.283 87.8961 215.016 87.6787 214.718 87.7088C214.419 87.7381 214.202 88.005 214.232 88.3036L218.849 134.072L175.579 166.782L142.041 165.555L117.497 138.348C117.296 138.125 116.955 138.106 116.73 138.309C116.508 138.51 116.49 138.853 116.69 139.076L141.389 166.453C141.487 166.562 141.625 166.626 141.772 166.632L175.732 167.874C175.803 167.877 175.872 167.866 175.937 167.843Z" fill="white" stroke="#263238" stroke-width="0.396" stroke-miterlimit="10" stroke-linecap="round" stroke-linejoin="round"/>
<path d="M175.937 167.843C175.961 167.834 175.985 167.823 176.009 167.811C176.274 167.67 176.374 167.341 176.233 167.076L159.214 135.098C159.073 134.834 158.747 134.731 158.479 134.874C158.215 135.015 158.114 135.344 158.255 135.609L175.274 167.587C175.402 167.828 175.687 167.933 175.937 167.843Z" fill="white" stroke="#263238" stroke-width="0.396" stroke-miterlimit="10" stroke-linecap="round" stroke-linejoin="round"/>
<path d="M167.229 167.458C167.265 167.445 167.3 167.428 167.333 167.407C167.588 167.248 167.665 166.913 167.506 166.659L148.758 136.68C148.599 136.426 148.261 136.35 148.009 136.508C147.755 136.667 147.677 137.002 147.837 137.256L166.585 167.234C166.723 167.456 166.994 167.543 167.229 167.458Z" fill="white" stroke="#263238" stroke-width="0.396" stroke-miterlimit="10" stroke-linecap="round" stroke-linejoin="round"/>
<path d="M157.524 167.278C157.565 167.262 157.605 167.242 157.644 167.217C157.892 167.049 157.958 166.711 157.79 166.463L138.435 137.774C138.267 137.525 137.928 137.461 137.681 137.627C137.432 137.795 137.367 138.133 137.534 138.381L156.89 167.07C157.032 167.281 157.295 167.36 157.524 167.278Z" fill="white" stroke="#263238" stroke-width="0.396" stroke-miterlimit="10" stroke-linecap="round" stroke-linejoin="round"/>
<path d="M148.858 166.573C148.907 166.555 148.955 166.53 148.999 166.497C149.24 166.317 149.289 165.977 149.109 165.737L128.177 137.768C127.997 137.528 127.655 137.48 127.417 137.659C127.177 137.839 127.128 138.179 127.307 138.419L148.24 166.387C148.386 166.583 148.639 166.652 148.858 166.573Z" fill="white" stroke="#263238" stroke-width="0.396" stroke-miterlimit="10" stroke-linecap="round" stroke-linejoin="round"/>
<path d="M183.306 161.519C183.316 161.515 183.325 161.512 183.335 161.508C183.611 161.39 183.74 161.072 183.623 160.796L169.34 127.068C169.223 126.792 168.912 126.653 168.628 126.78C168.352 126.896 168.223 127.215 168.34 127.491L182.623 161.219C182.735 161.486 183.037 161.616 183.306 161.519Z" fill="white" stroke="#263238" stroke-width="0.396" stroke-miterlimit="10" stroke-linecap="round" stroke-linejoin="round"/>
<path d="M190.382 156.524C190.659 156.423 190.807 156.119 190.712 155.839L178.369 119.423C178.273 119.138 177.964 118.986 177.68 119.083C177.404 119.163 177.244 119.487 177.341 119.771L189.684 156.187C189.78 156.471 190.088 156.623 190.372 156.527C190.375 156.526 190.379 156.525 190.382 156.524Z" fill="white" stroke="#263238" stroke-width="0.396" stroke-miterlimit="10" stroke-linecap="round" stroke-linejoin="round"/>
<path d="M197.262 150.986C197.533 150.889 197.683 150.594 197.597 150.316L186.094 112.832C186.006 112.545 185.702 112.384 185.416 112.472C185.124 112.556 184.968 112.864 185.056 113.151L196.558 150.634C196.647 150.921 196.95 151.082 197.237 150.994C197.246 150.992 197.254 150.989 197.262 150.986Z" fill="white" stroke="#263238" stroke-width="0.396" stroke-miterlimit="10" stroke-linecap="round" stroke-linejoin="round"/>
<path d="M203.525 146.282C203.786 146.188 203.937 145.909 203.867 145.635L193.784 106.569C193.709 106.279 193.413 106.105 193.122 106.179C192.834 106.252 192.657 106.55 192.732 106.841L202.815 145.907C202.89 146.197 203.186 146.372 203.477 146.297C203.493 146.293 203.509 146.287 203.525 146.282Z" fill="white" stroke="#263238" stroke-width="0.396" stroke-miterlimit="10" stroke-linecap="round" stroke-linejoin="round"/>
<path d="M209.399 142.18C209.645 142.091 209.798 141.834 209.747 141.568L201.827 99.5821C201.772 99.287 201.488 99.0934 201.193 99.1492C200.898 99.2023 200.704 99.4886 200.759 99.7836L208.68 141.77C208.736 142.065 209.02 142.258 209.315 142.203C209.344 142.197 209.372 142.19 209.399 142.18Z" fill="white" stroke="#263238" stroke-width="0.396" stroke-miterlimit="10" stroke-linecap="round" stroke-linejoin="round"/>
<path d="M214.713 137.818C214.946 137.735 215.098 137.5 215.069 137.244L209.923 93.1881C209.888 92.8903 209.618 92.6769 209.32 92.7117C209.021 92.7482 208.809 93.0163 208.844 93.314L213.99 137.37C214.024 137.668 214.294 137.881 214.592 137.847C214.634 137.841 214.675 137.832 214.713 137.818Z" fill="white" stroke="#263238" stroke-width="0.396" stroke-miterlimit="10" stroke-linecap="round" stroke-linejoin="round"/>
<path d="M164.6 146.98C164.615 146.975 164.628 146.969 164.64 146.964C166.375 146.185 212.433 106.635 217.679 102.128C217.906 101.933 217.932 101.59 217.737 101.362C217.542 101.134 217.199 101.107 216.971 101.304C202.85 113.436 165.84 145.111 164.187 145.977C164.184 145.978 164.181 145.979 164.179 145.98C162.704 146.51 139.522 147.19 124.273 147.517C123.973 147.523 123.736 147.772 123.742 148.071C123.749 148.371 123.997 148.609 124.297 148.602C130.686 148.466 162.461 147.75 164.6 146.98Z" fill="white" stroke="#263238" stroke-width="0.396" stroke-miterlimit="10" stroke-linecap="round" stroke-linejoin="round"/>
<path d="M170.249 158.413C170.939 158.165 205.125 130.534 219.791 118.666C220.024 118.477 220.061 118.135 219.872 117.902C219.683 117.669 219.341 117.632 219.108 117.821C202.781 131.033 171.81 156.037 169.874 157.382C168.166 157.528 146.926 157.326 132.811 157.152C132.512 157.149 132.265 157.389 132.262 157.689C132.258 157.989 132.498 158.235 132.798 158.238C146.498 158.407 169.58 158.655 170.249 158.413Z" fill="white" stroke="#263238" stroke-width="0.396" stroke-miterlimit="10" stroke-linecap="round" stroke-linejoin="round"/>
<path d="M156.353 137.671C156.471 137.628 156.581 137.566 156.679 137.485L216.798 87.6874C217.26 87.3049 217.324 86.6202 216.942 86.1581C216.559 85.6959 215.874 85.6318 215.413 86.0143L155.569 135.583L117.036 137.627C116.437 137.658 115.977 138.17 116.009 138.769C116.041 139.368 116.552 139.828 117.151 139.796L156.043 137.733C156.15 137.728 156.254 137.707 156.353 137.671Z" fill="white" stroke="#263238" stroke-width="0.396" stroke-miterlimit="10" stroke-linecap="round" stroke-linejoin="round"/>
<path d="M175.876 168.909C175.994 168.866 176.104 168.804 176.201 168.723L221.693 134.232C222.155 133.85 222.219 133.165 221.836 132.703C221.454 132.241 220.769 132.177 220.307 132.559L175.092 166.82L140.001 164.554C139.402 164.585 138.942 165.097 138.974 165.696C139.006 166.295 139.517 166.755 140.116 166.723L175.566 168.971C175.672 168.966 175.777 168.944 175.876 168.909Z" fill="white" stroke="#263238" stroke-width="0.396" stroke-miterlimit="10" stroke-linecap="round" stroke-linejoin="round"/>
<path d="M93.2043 16.917L79.8789 25.0318L104.146 28.8421L116.379 20.6196L93.2043 16.917Z" fill="white" stroke="#263238" stroke-width="0.396" stroke-miterlimit="10" stroke-linecap="round" stroke-linejoin="round"/>
<path d="M86.5859 20.9888L109.623 25.1951L110.788 24.354L87.8801 20.2772L86.5859 20.9888Z" fill="#BDECD0" stroke="#263238" stroke-width="0.396" stroke-miterlimit="10" stroke-linecap="round" stroke-linejoin="round"/>
<path d="M104.145 28.8417L106.15 51.3036L117.982 41.4765L116.378 20.6191L104.145 28.8417Z" fill="white" stroke="#263238" stroke-width="0.396" stroke-miterlimit="10" stroke-linecap="round" stroke-linejoin="round"/>
<path d="M110.786 24.3535L113.336 45.2057L112.106 46.4357L109.621 25.1946L110.786 24.3535Z" fill="#BDECD0" stroke="#263238" stroke-width="0.396" stroke-miterlimit="10" stroke-linecap="round" stroke-linejoin="round"/>
<path d="M79.8789 25.0322L82.2858 46.8922L106.151 51.3045L104.146 28.8425L79.8789 25.0322Z" fill="white" stroke="#263238" stroke-width="0.396" stroke-miterlimit="10" stroke-linecap="round" stroke-linejoin="round"/>
<path d="M102.033 18.3711L90.3281 26.6918L91.7379 26.9738L103.307 18.5905L102.033 18.3711Z" fill="#BDECD0" stroke="#263238" stroke-width="0.396" stroke-miterlimit="10" stroke-linecap="round" stroke-linejoin="round"/>
<path d="M90.3281 26.6924L92.4721 48.7405L93.8232 49.0105L91.7379 26.9743L90.3281 26.6924Z" fill="#BDECD0" stroke="#263238" stroke-width="0.396" stroke-miterlimit="10" stroke-linecap="round" stroke-linejoin="round"/>
<path d="M97.9732 21.9033C97.9732 21.9033 90.7406 22.1001 88.5191 22.4395C86.2975 22.7789 88.765 24.134 89.8437 24.7034C90.9224 25.2729 91.3342 25.1454 93.2331 24.2116C95.1319 23.2774 97.9732 21.9033 97.9732 21.9033Z" fill="#BDECD0" stroke="#263238" stroke-width="0.396" stroke-miterlimit="10" stroke-linecap="round" stroke-linejoin="round"/>
<path d="M97.2786 21.5707C96.8573 21.8234 97.614 22.7801 97.7506 22.9559C98.4143 23.8109 99.2475 24.6195 100.121 25.2555C101.202 26.0428 102.456 26.5845 103.659 27.1516C103.804 27.2193 103.948 27.2874 104.092 27.3547C104.14 27.3769 104.357 27.4731 104.108 27.3614C103.835 27.2391 104.149 27.3848 104.23 27.4272C104.538 27.5876 104.838 27.7614 105.129 27.9499C105.633 28.277 106.109 28.6465 106.544 29.0615C107.383 29.8622 108.113 30.8514 108.463 31.9669C109.228 34.4055 108.172 36.9597 107.251 39.1971C106.79 40.3174 106.281 41.4159 105.774 42.516C105.606 42.8815 105.435 43.247 105.289 43.622C105.213 43.816 105.115 44.0366 105.122 44.2493C105.125 44.317 105.741 44.5534 105.815 44.5886C105.886 44.6227 106.513 44.8508 106.515 44.9141C106.499 44.4461 106.84 43.8992 107.026 43.4901C107.438 42.5813 107.866 41.68 108.263 40.7641C108.807 39.5079 109.338 38.2277 109.721 36.9118C110.038 35.8212 110.215 34.6732 110.059 33.5398C109.736 31.1963 107.889 29.3585 105.908 28.2445C105.327 27.9178 104.719 27.6355 104.118 27.3484C103.795 27.1943 103.471 27.0427 103.148 26.8906C103.139 26.8862 102.937 26.7876 103.07 26.8538C103.232 26.9342 102.931 26.7805 102.882 26.7548C102.69 26.6538 102.499 26.5492 102.311 26.4392C101.258 25.8206 100.34 24.9823 99.5267 24.075C99.1687 23.6759 98.6583 23.1421 98.5822 22.5789C98.568 22.4736 98.5636 22.3006 98.6721 22.2352C98.6163 22.2689 98.0564 21.9327 97.9791 21.8958C97.8888 21.8535 97.3638 21.5196 97.2786 21.5707Z" fill="#BDECD0" stroke="#263238" stroke-width="0.396" stroke-miterlimit="10" stroke-linecap="round" stroke-linejoin="round"/>
<path d="M96.7045 22.4424C96.7045 22.4424 91.8215 23.6435 91.3669 24.0383C90.9127 24.4335 90.919 25.0615 91.357 25.0469C91.7949 25.0322 96.7045 22.4424 96.7045 22.4424Z" fill="#263238" stroke="#263238" stroke-width="0.396" stroke-miterlimit="10" stroke-linecap="round" stroke-linejoin="round"/>
<path d="M98.1211 21.5622C98.1211 21.5622 98.8854 21.2589 100.094 20.2689C101.303 19.2789 102.331 18.5724 102.995 18.7692C103.659 18.966 105.436 20.1192 105.198 20.434C104.96 20.7488 104.518 20.6174 103.254 20.8205C101.99 21.0236 98.7408 21.7459 98.7408 21.7459L98.1211 21.5622Z" fill="#BDECD0" stroke="#263238" stroke-width="0.396" stroke-miterlimit="10" stroke-linecap="round" stroke-linejoin="round"/>
<path d="M105.196 20.4339C105.196 20.4339 105.088 19.8241 104.115 20.0173C103.143 20.2106 98.7383 21.7463 98.7383 21.7463L105.196 20.4339Z" fill="#263238" stroke="#263238" stroke-width="0.396" stroke-miterlimit="10" stroke-linecap="round" stroke-linejoin="round"/>
<path d="M97.3638 22.7608C96.9512 21.2905 96.4467 19.8356 95.8491 18.4306C95.3704 17.3044 94.8979 16.1294 94.2307 15.0974C93.6735 14.2357 92.9314 13.7146 91.8586 13.7617C90.4358 13.8239 89.1203 14.5478 87.7026 14.688C86.7126 14.7858 85.7202 14.5399 84.7477 14.3918C83.6262 14.2211 82.4722 14.1486 81.3781 14.5058C80.0539 14.9379 79.0282 15.9298 78.2267 17.0371C76.4063 19.5517 75.4567 23.0297 72.4103 24.3951C72.4 24.3999 73.0308 25.8085 73.0419 25.8033C77.7598 23.6883 77.7741 15.6221 83.7866 15.6546C84.8059 15.6602 85.8006 15.8863 86.8053 16.0276C87.9644 16.1908 89.0173 16.0332 90.1408 15.7097C91.2769 15.3826 92.5825 14.8559 93.7365 15.4C94.4932 15.7568 94.9356 16.563 95.3042 17.2754C95.3672 17.3974 95.4274 17.5206 95.488 17.6441C95.5953 17.8627 95.686 18.1692 95.2626 17.1372C95.2971 17.2208 95.3331 17.3036 95.3676 17.3867C95.4781 17.6544 95.5838 17.9241 95.6864 18.195C95.8816 18.7105 96.0642 19.2313 96.2372 19.7548C96.4122 20.2839 96.5813 20.8157 96.7318 21.3523C96.87 21.8437 97.2268 22.2726 97.3638 22.7608Z" fill="#BDECD0" stroke="#263238" stroke-width="0.396" stroke-miterlimit="10" stroke-linecap="round" stroke-linejoin="round"/>
<path d="M96.2461 21.8732C96.2461 21.8732 96.8437 22.4505 97.1355 22.4406C97.4274 22.4307 99.1302 22.0541 98.7401 21.7457C98.3496 21.4376 96.9431 21.3093 96.2461 21.8732Z" fill="#BDECD0" stroke="#263238" stroke-width="0.396" stroke-miterlimit="10" stroke-linecap="round" stroke-linejoin="round"/>
<path d="M155.463 20.5651L128.07 13.1516L141.565 27.3617L169.887 33.8181L155.463 20.5651Z" fill="#BDECD0" stroke="#263238" stroke-width="0.396" stroke-miterlimit="10" stroke-linecap="round" stroke-linejoin="round"/>
<path d="M159.739 24.3579L132.957 18.3372L137.161 22.6971L164.392 28.9868L159.739 24.3579Z" fill="#8C8C8C" stroke="#263238" stroke-width="0.396" stroke-miterlimit="10" stroke-linecap="round" stroke-linejoin="round"/>
<path d="M140.867 16.5071L153.211 30.0103L159.826 31.5788L147.21 18.4847L140.867 16.5071Z" fill="#8C8C8C" stroke="#263238" stroke-width="0.396" stroke-miterlimit="10" stroke-linecap="round" stroke-linejoin="round"/>
<path d="M141.567 27.3617L133.426 46.3134L121.125 30.6905L128.072 13.1516L141.567 27.3617Z" fill="#BDECD0" stroke="#263238" stroke-width="0.396" stroke-miterlimit="10" stroke-linecap="round" stroke-linejoin="round"/>
<path d="M132.96 18.3372L125.434 36.192L129.119 40.8632L137.164 22.6971L132.96 18.3372Z" fill="#8C8C8C" stroke="#263238" stroke-width="0.396" stroke-miterlimit="10" stroke-linecap="round" stroke-linejoin="round"/>
<path d="M133.426 46.3135L162.232 51.6832L169.887 33.8181L141.566 27.3617L133.426 46.3135Z" fill="#BDECD0" stroke="#263238" stroke-width="0.396" stroke-miterlimit="10" stroke-linecap="round" stroke-linejoin="round"/>
<path d="M147.411 20.7361C147.411 20.7361 146.116 18.8266 145.297 14.8029C144.479 10.7791 144.615 8.9381 141.887 8.39242C140.93 8.20075 138.477 10.6429 136.909 13.3024C135.34 15.962 136.841 17.3943 139.432 18.9628C142.023 20.5314 146.797 22.2362 146.797 22.2362L147.411 20.7361Z" fill="#8C8C8C" stroke="#263238" stroke-width="0.396" stroke-miterlimit="10" stroke-linecap="round" stroke-linejoin="round"/>
<path d="M149.214 20.5238C149.214 20.5238 154.104 18.6538 157.844 18.0785C161.584 17.5031 162.304 17.6468 162.304 17.6468C162.304 17.6468 164.03 21.2429 163.598 23.8323C163.521 24.2949 163.352 24.734 163.127 25.1443C161.97 27.2502 159.369 28.0984 157.134 27.215L147.891 22.305L149.214 20.5238Z" fill="#8C8C8C" stroke="#263238" stroke-width="0.396" stroke-miterlimit="10" stroke-linecap="round" stroke-linejoin="round"/>
<path d="M162.301 17.6468C162.301 17.6468 161.582 17.5031 157.842 18.0785C154.102 18.6538 149.211 20.5238 149.211 20.5238C149.211 20.5238 158.459 19.5084 160.164 18.8265C161.869 18.1446 162.301 17.6468 162.301 17.6468Z" fill="#263238" stroke="#263238" stroke-width="0.396" stroke-miterlimit="10" stroke-linecap="round" stroke-linejoin="round"/>
<path d="M147.486 23.4009C147.486 23.4009 147.271 21.2788 148.571 22.1001C149.867 22.9186 156.933 22.6881 158.323 23.4639C161.256 25.1006 164.188 28.9196 164.393 28.9877C164.598 29.0558 163.37 29.1239 158.255 28.9877C153.14 28.8511 151.299 27.1463 150.276 25.9872C149.253 24.8281 147.486 23.4009 147.486 23.4009Z" fill="#8C8C8C" stroke="#263238" stroke-width="0.396" stroke-miterlimit="10" stroke-linecap="round" stroke-linejoin="round"/>
<path d="M147.891 22.3047C147.891 22.3047 149.05 23.2594 150.823 24.078" stroke="#263238" stroke-width="0.396" stroke-miterlimit="10" stroke-linecap="round" stroke-linejoin="round"/>
<path d="M149.212 20.5237C149.212 20.5237 147.199 20.3799 146.479 21.387C145.76 22.394 146.911 23.2569 147.486 23.4006C148.062 23.5448 149.212 20.5237 149.212 20.5237Z" fill="#8C8C8C" stroke="#263238" stroke-width="0.396" stroke-miterlimit="10" stroke-linecap="round" stroke-linejoin="round"/>
<path d="M135.409 19.6447C135.409 19.6447 132.954 19.0309 131.863 19.9175C130.772 20.8042 130.227 24.0094 130.227 24.0094C130.227 24.0094 133.091 21.6908 134.455 21.077C135.818 20.4632 136.841 20.3951 136.841 20.3951L135.409 19.6447Z" fill="#545454" stroke="#263238" stroke-width="0.396" stroke-miterlimit="10" stroke-linecap="round" stroke-linejoin="round"/>
<path d="M146.48 21.3865C146.48 21.3865 144.208 21.6907 141.684 21.0769C139.161 20.4631 135.41 19.6445 135.41 19.6445C135.41 19.6445 138.274 21.4859 140.116 22.5769C141.957 23.6679 142.775 23.7364 144.344 23.5317C145.912 23.3269 147.487 23.4002 147.487 23.4002C147.487 23.4002 147.934 22.2419 146.48 21.3865Z" fill="#8C8C8C" stroke="#263238" stroke-width="0.396" stroke-miterlimit="10" stroke-linecap="round" stroke-linejoin="round"/>
<path d="M153.207 30.0107L145.496 48.5218L152.325 49.8226L159.823 31.5793L153.207 30.0107Z" fill="#8C8C8C" stroke="#263238" stroke-width="0.396" stroke-miterlimit="10" stroke-linecap="round" stroke-linejoin="round"/>
<path d="M118.27 59.7688L138.529 80.9449L115.825 80.7517L91.2734 56.9434L118.27 59.7688Z" fill="#BDECD0" stroke="#263238" stroke-width="0.396" stroke-miterlimit="10" stroke-linecap="round" stroke-linejoin="round"/>
<path d="M115.826 80.7517L111.982 87.1633L88.3438 62.504L91.2742 56.9434L115.826 80.7517Z" fill="#BDECD0" stroke="#263238" stroke-width="0.396" stroke-miterlimit="10" stroke-linecap="round" stroke-linejoin="round"/>
<path d="M111.98 87.1636L135.376 86.728L138.529 80.9452L115.824 80.752L111.98 87.1636Z" fill="#BDECD0" stroke="#263238" stroke-width="0.396" stroke-miterlimit="10" stroke-linecap="round" stroke-linejoin="round"/>
<path d="M128.172 70.0438L103.605 68.8436L101.074 66.4395L126.15 68.0219L128.172 70.0438Z" fill="white" stroke="#263238" stroke-width="0.396" stroke-miterlimit="10" stroke-linecap="round" stroke-linejoin="round"/>
<path d="M103.606 68.8436L100.212 74.9337L97.8984 72.4895L101.075 66.4395L103.606 68.8436Z" fill="white" stroke="#263238" stroke-width="0.396" stroke-miterlimit="10" stroke-linecap="round" stroke-linejoin="round"/>
<path d="M109.299 58.8658L129.106 80.7721L125.952 80.7975L105.922 58.5078L109.299 58.8658Z" fill="white" stroke="#263238" stroke-width="0.396" stroke-miterlimit="10" stroke-linecap="round" stroke-linejoin="round"/>
<path d="M129.106 80.7717L126.105 86.9268L122.926 86.9521L125.952 80.7971L129.106 80.7717Z" fill="white" stroke="#263238" stroke-width="0.396" stroke-miterlimit="10" stroke-linecap="round" stroke-linejoin="round"/>
<path d="M82.3085 88.3909C82.5148 88.2677 82.79 88.2103 83.1207 88.2012C83.0846 88.4015 83.0628 88.6419 83.0731 88.9373C82.8807 88.9405 82.7397 88.9718 82.6538 89.0229C81.8923 89.4648 82.6962 93.7258 85.2108 100.099C85.3727 100.52 85.547 100.944 85.7263 101.38L85.1003 101.921C84.9537 101.562 84.7799 101.133 84.5874 100.643C84.1225 99.4472 83.5456 97.9277 83.0328 96.3746C80.9664 90.1337 81.5569 88.8308 82.3085 88.3909Z" fill="#BDECD0" stroke="#263238" stroke-width="0.396" stroke-miterlimit="10" stroke-linecap="round" stroke-linejoin="round"/>
<path d="M94.9625 93.1141L94.3352 93.6103C93.8818 93.3561 93.7107 93.2622 93.2842 93.027C88.5778 90.472 85.4854 89.3213 83.8737 89.0211C83.8511 88.6956 83.865 88.4382 83.918 88.2588C86.5202 88.652 91.0203 90.9175 93.9016 92.4821C94.4033 92.7546 94.5788 92.8967 94.9625 93.1141Z" fill="#BDECD0" stroke="#263238" stroke-width="0.396" stroke-miterlimit="10" stroke-linecap="round" stroke-linejoin="round"/>
<path d="M80.5781 105.935L80.8209 105.715L99.0543 89.256L100.393 90.8356L85.3079 104.016L80.5781 105.935Z" fill="#8C8C8C" stroke="#263238" stroke-width="0.396" stroke-miterlimit="10" stroke-linecap="round" stroke-linejoin="round"/>
<path d="M97.9062 92.6869L99.0539 89.256L100.393 90.8356L97.9062 92.6869Z" fill="#595959" stroke="#263238" stroke-width="0.396" stroke-miterlimit="10" stroke-linecap="round" stroke-linejoin="round"/>
<path d="M83.3516 105.357L105.444 138.939L131.997 115.303L101.07 89.9736L83.3516 105.357Z" fill="#263238" stroke="#263238" stroke-width="0.396" stroke-miterlimit="10" stroke-linecap="round" stroke-linejoin="round"/>
<path d="M97.4433 93.1164L96.8137 93.6602C96.3242 93.36 95.855 93.078 95.398 92.804C88.3832 88.6555 84.7634 87.5835 84.1025 87.9574C84.0165 88.008 83.9508 88.1059 83.9167 88.2587C83.8637 88.4381 83.8498 88.6955 83.8724 89.021C83.9821 90.8185 85.1364 94.7107 87.3639 99.9245C87.5536 100.381 87.7587 100.844 87.9686 101.319L87.3453 101.864C87.1735 101.473 86.9691 101.004 86.7434 100.473C86.1949 99.1709 85.5118 97.5176 84.8933 95.8306C83.5687 92.2223 83.1038 90.15 83.0729 88.9375C83.0626 88.642 83.0844 88.4017 83.1204 88.2013C83.2182 87.6659 83.4522 87.4117 83.7092 87.2659C85.4279 86.2961 92.0981 89.9437 96.0141 92.2591C96.5507 92.5743 97.0315 92.8638 97.4433 93.1164Z" fill="#BDECD0" stroke="#263238" stroke-width="0.396" stroke-miterlimit="10" stroke-linecap="round" stroke-linejoin="round"/>
<path d="M105.444 138.939L99.8784 139.804L80.5781 105.935L86.3193 102.82L83.3513 105.357L105.444 138.939Z" fill="#595959" stroke="#263238" stroke-width="0.396" stroke-miterlimit="10" stroke-linecap="round" stroke-linejoin="round"/>
<path d="M99.8789 139.804L101.49 133.347" stroke="#263238" stroke-width="0.396" stroke-miterlimit="10" stroke-linecap="round" stroke-linejoin="round"/>
<path d="M144.239 82.9288C144.239 82.9288 143.224 66.2271 143.788 63.7441L147.173 81.913L144.239 82.9288Z" fill="#263238" stroke="#263238" stroke-width="0.396" stroke-miterlimit="10" stroke-linecap="round" stroke-linejoin="round"/>
<path d="M143.789 63.7439C143.789 63.7439 144.353 60.1327 146.384 59.907C148.416 59.6813 150.108 61.4871 150.334 62.5024C150.56 63.5181 150.673 64.9853 150.673 64.9853C150.673 64.9853 148.528 61.4871 146.723 62.0514C144.917 62.6157 144.241 65.6625 144.241 65.6625L143.789 63.7439Z" fill="#263238" stroke="#263238" stroke-width="0.396" stroke-miterlimit="10" stroke-linecap="round" stroke-linejoin="round"/>
<path d="M150.332 62.502L151.686 80.3322L154.733 78.9779C154.733 78.9779 152.364 66.0002 150.332 62.502Z" fill="#263238" stroke="#263238" stroke-width="0.396" stroke-miterlimit="10" stroke-linecap="round" stroke-linejoin="round"/>
<path d="M139.973 83.1995L157.229 76.9657L158.042 84.4644L150.905 88.0786L139.973 83.1995Z" fill="white" stroke="#263238" stroke-width="0.396" stroke-miterlimit="10" stroke-linecap="round" stroke-linejoin="round"/>
<path d="M157.227 76.9657L168.701 78.0499L157.678 82.1157L157.227 76.9657Z" fill="white" stroke="#263238" stroke-width="0.396" stroke-miterlimit="10" stroke-linecap="round" stroke-linejoin="round"/>
<path d="M152.511 76.6167L147.837 71.0731C147.837 71.0731 147.402 80.6389 147.402 80.9648C147.402 81.2907 152.511 78.2475 152.511 78.2475V76.6167Z" fill="#BDECD0"/>
<path d="M141.75 84.0089L139.902 73.7909L150.229 78.9001L154.251 84.0089L145.99 87.2699L141.75 84.0089Z" fill="#BDECD0"/>
<path d="M148.165 81.6171L151.426 72.8125L161.164 68.2577L159.876 84.1104L147.621 84.3345L148.165 81.6171Z" fill="#BDECD0"/>
<path d="M158.039 84.4649L158.167 83.7351L160.121 72.5956L169.034 74.2259L167.078 80.2043" fill="#BDECD0"/>
<path d="M139.973 83.1991L137.754 129.004L144.44 128.335L150.903 131.01L150.68 84.6552L139.973 83.1991Z" fill="white" stroke="#263238" stroke-width="0.396" stroke-miterlimit="10" stroke-linecap="round" stroke-linejoin="round"/>
<path d="M142.576 87.8837C143.176 87.8837 143.663 89.2744 143.663 90.9903C143.663 92.7062 143.176 94.0969 142.576 94.0969C141.975 94.0969 141.488 92.7062 141.488 90.9903C141.488 89.2744 141.975 87.8837 142.576 87.8837ZM146.692 100.786C146.692 102.502 147.178 103.893 147.779 103.893C148.38 103.893 148.867 102.502 148.867 100.786C148.867 99.0703 148.38 97.6795 147.779 97.6795C147.178 97.6795 146.692 99.0707 146.692 100.786ZM141.489 110.716C141.489 112.432 141.975 113.823 142.576 113.823C143.176 113.823 143.664 112.432 143.664 110.716C143.664 109 143.177 107.61 142.576 107.61C141.975 107.61 141.489 109.001 141.489 110.716ZM146.692 120.512C146.692 122.228 147.178 123.619 147.779 123.619C148.38 123.619 148.867 122.228 148.867 120.512C148.867 118.797 148.38 117.406 147.779 117.406C147.178 117.406 146.692 118.797 146.692 120.512Z" fill="#BDECD0"/>
<path d="M145.172 98.586L145.52 84.4452" stroke="#263238" stroke-width="0.396" stroke-miterlimit="10" stroke-linecap="round" stroke-linejoin="round"/>
<path d="M144.441 128.336L145.119 100.776" stroke="#263238" stroke-width="0.396" stroke-miterlimit="10" stroke-linecap="round" stroke-linejoin="round"/>
<path d="M150.903 131.01L176.754 116.97L168.703 78.0498L150.68 84.6555L150.903 131.01Z" fill="white" stroke="#263238" stroke-width="0.396" stroke-miterlimit="10" stroke-linecap="round" stroke-linejoin="round"/>
<path d="M155.472 96.1153C155.472 97.8312 154.985 99.2219 154.384 99.2219C153.784 99.2219 153.297 97.8312 153.297 96.1153C153.297 94.3998 153.784 93.0087 154.384 93.0087C154.985 93.0087 155.472 94.3998 155.472 96.1153Z" fill="#BDECD0"/>
<path d="M155.315 112.735C155.315 114.451 154.829 115.842 154.228 115.842C153.628 115.842 153.141 114.451 153.141 112.735C153.141 111.02 153.627 109.629 154.228 109.629C154.829 109.629 155.315 111.02 155.315 112.735Z" fill="#BDECD0"/>
<path d="M166.755 92.4475C167.356 92.4475 167.843 91.0566 167.843 89.3409C167.843 87.6251 167.356 86.2343 166.755 86.2343C166.155 86.2343 165.668 87.6251 165.668 89.3409C165.668 91.0566 166.155 92.4475 166.755 92.4475Z" fill="#BDECD0"/>
<path d="M167.857 109.31C168.458 109.31 168.944 107.919 168.944 106.203C168.944 104.487 168.458 103.097 167.857 103.097C167.256 103.097 166.77 104.487 166.77 106.203C166.77 107.919 167.256 109.31 167.857 109.31Z" fill="#BDECD0"/>
<path d="M159.88 90.3225C160.481 90.3225 160.968 88.9316 160.968 87.2159C160.968 85.5001 160.481 84.1093 159.88 84.1093C159.28 84.1093 158.793 85.5001 158.793 87.2159C158.793 88.9316 159.28 90.3225 159.88 90.3225Z" fill="#BDECD0"/>
<path d="M161.839 103.26C161.839 104.975 161.352 106.366 160.751 106.366C160.151 106.366 159.664 104.976 159.664 103.26C159.664 101.544 160.151 100.153 160.751 100.153C161.352 100.153 161.839 101.544 161.839 103.26Z" fill="#BDECD0"/>
<path d="M173.798 117.084C174.399 117.084 174.886 115.693 174.886 113.978C174.886 112.262 174.399 110.871 173.798 110.871C173.198 110.871 172.711 112.262 172.711 113.978C172.711 115.693 173.198 117.084 173.798 117.084Z" fill="#BDECD0"/>
<path d="M153.908 128.273C154.508 128.273 154.995 126.882 154.995 125.166C154.995 123.45 154.508 122.059 153.908 122.059C153.307 122.059 152.82 123.45 152.82 125.166C152.82 126.882 153.307 128.273 153.908 128.273Z" fill="#BDECD0"/>
<path d="M170.841 100.355C171.442 100.355 171.929 98.9638 171.929 97.2481C171.929 95.5324 171.442 94.1415 170.841 94.1415C170.241 94.1415 169.754 95.5324 169.754 97.2481C169.754 98.9638 170.241 100.355 170.841 100.355Z" fill="#BDECD0"/>
<path d="M163.081 119.725C163.081 121.441 162.594 122.831 161.994 122.831C161.393 122.831 160.906 121.441 160.906 119.725C160.906 118.009 161.393 116.618 161.994 116.618C162.594 116.618 163.081 118.009 163.081 119.725Z" fill="#BDECD0"/>
<path d="M154.731 86.201C154.731 86.201 153.716 69.4993 154.28 67.0164L157.665 85.1852L154.731 86.201Z" fill="#263238" stroke="#263238" stroke-width="0.396" stroke-miterlimit="10" stroke-linecap="round" stroke-linejoin="round"/>
<path d="M154.281 67.0162C154.281 67.0162 154.846 63.4051 156.877 63.1794C158.908 62.9536 160.601 64.7594 160.827 65.7747C161.052 66.7905 161.165 68.2577 161.165 68.2577C161.165 68.2577 159.021 64.7594 157.216 65.3237C155.41 65.888 154.733 68.9348 154.733 68.9348L154.281 67.0162Z" fill="#263238" stroke="#263238" stroke-width="0.396" stroke-miterlimit="10" stroke-linecap="round" stroke-linejoin="round"/>
<path d="M160.824 65.7743L162.179 83.6046L165.225 82.2503C165.225 82.2503 162.855 69.2726 160.824 65.7743Z" fill="#263238" stroke="#263238" stroke-width="0.396" stroke-miterlimit="10" stroke-linecap="round" stroke-linejoin="round"/>
<path d="M202.161 70.0188L174.378 69.3083L164.48 64.4581L187.853 64.5738L202.161 70.0188Z" fill="#BDECD0" stroke="#263238" stroke-width="0.396" stroke-miterlimit="10" stroke-linecap="round" stroke-linejoin="round"/>
<path d="M209.026 25.4209L187.852 64.5738L202.16 70.0188L212.278 26.7174L209.95 27.9834L209.026 25.4209Z" fill="#BDECD0" stroke="#263238" stroke-width="0.396" stroke-miterlimit="10" stroke-linecap="round" stroke-linejoin="round"/>
<path d="M209.949 27.9834L195.234 67.6139" stroke="#263238" stroke-width="0.396" stroke-miterlimit="10" stroke-linecap="round" stroke-linejoin="round"/>
<path d="M209.028 25.4209L185.851 31.296L164.48 64.4582L187.853 64.5738L209.028 25.4209Z" fill="#BDECD0" stroke="#263238" stroke-width="0.396" stroke-miterlimit="10" stroke-linecap="round" stroke-linejoin="round"/>
<path d="M199.136 29.3925C199.136 29.3925 204.559 20.8164 201.664 19.0324C198.769 17.2484 191.741 27.8263 191.422 30.8268" stroke="#263238" stroke-width="0.792" stroke-miterlimit="10" stroke-linecap="round" stroke-linejoin="round"/>
<path d="M203.312 27.068C203.312 27.068 206.595 21.7795 208.81 22.7778C211.025 23.7761 209.384 26.8851 209.384 26.8851" stroke="#263238" stroke-width="0.792" stroke-miterlimit="10" stroke-linecap="round" stroke-linejoin="round"/>
</svg>
