<svg width="64" height="64" viewBox="0 0 64 64" fill="none" xmlns="http://www.w3.org/2000/svg">
<mask id="mask0_3776_40247" style="mask-type:alpha" maskUnits="userSpaceOnUse" x="0" y="0" width="64" height="64">
<rect width="64" height="64" fill="#D9D9D9"/>
</mask>
<g mask="url(#mask0_3776_40247)">
<path d="M15.9987 53.3332C13.0654 53.3332 10.5543 52.2887 8.46536 50.1998C6.37648 48.111 5.33203 45.5998 5.33203 42.6665V21.3332C5.33203 18.3998 6.37648 15.8887 8.46536 13.7998C10.5543 11.7109 13.0654 10.6665 15.9987 10.6665H47.9987C50.932 10.6665 53.4431 11.7109 55.532 13.7998C57.6209 15.8887 58.6654 18.3998 58.6654 21.3332V42.6665C58.6654 45.5998 57.6209 48.111 55.532 50.1998C53.4431 52.2887 50.932 53.3332 47.9987 53.3332H15.9987ZM15.9987 21.9998H47.9987C49.2876 21.9998 50.4987 22.1998 51.632 22.5998C52.7654 22.9998 53.7765 23.5776 54.6654 24.3332V21.3332C54.6654 19.4665 54.0209 17.8887 52.732 16.5998C51.4431 15.3109 49.8654 14.6665 47.9987 14.6665H15.9987C14.132 14.6665 12.5543 15.3109 11.2654 16.5998C9.97648 17.8887 9.33203 19.4665 9.33203 21.3332V24.3332C10.2209 23.5776 11.232 22.9998 12.3654 22.5998C13.4987 22.1998 14.7098 21.9998 15.9987 21.9998ZM9.53203 31.0665L41.332 38.7332C41.6431 38.8221 41.9654 38.8332 42.2987 38.7665C42.632 38.6998 42.9098 38.5554 43.132 38.3332L53.7987 29.3998C53.2209 28.3776 52.4209 27.5554 51.3987 26.9332C50.3765 26.3109 49.2431 25.9998 47.9987 25.9998H15.9987C14.4431 25.9998 13.0654 26.4776 11.8654 27.4332C10.6654 28.3887 9.88759 29.5998 9.53203 31.0665Z" fill="#4EE39D"/>
</g>
</svg>
