<svg width="28" height="28" viewBox="0 0 28 28" fill="none" xmlns="http://www.w3.org/2000/svg">
<mask id="mask0_3776_38465" style="mask-type:alpha" maskUnits="userSpaceOnUse" x="0" y="0" width="28" height="28">
<rect width="28" height="28" fill="#D9D9D9"/>
</mask>
<g mask="url(#mask0_3776_38465)">
<path d="M13.9974 14C12.7141 14 11.6155 13.543 10.7016 12.6292C9.78767 11.7153 9.33073 10.6167 9.33073 9.33332C9.33073 8.04999 9.78767 6.95138 10.7016 6.03749C11.6155 5.1236 12.7141 4.66666 13.9974 4.66666C15.2807 4.66666 16.3793 5.1236 17.2932 6.03749C18.2071 6.95138 18.6641 8.04999 18.6641 9.33332C18.6641 10.6167 18.2071 11.7153 17.2932 12.6292C16.3793 13.543 15.2807 14 13.9974 14ZM4.66406 23.3333V20.0667C4.66406 19.4055 4.8342 18.7979 5.17448 18.2437C5.51476 17.6896 5.96684 17.2667 6.53073 16.975C7.73628 16.3722 8.96128 15.9201 10.2057 15.6187C11.4502 15.3174 12.7141 15.1667 13.9974 15.1667C15.2807 15.1667 16.5446 15.3174 17.7891 15.6187C19.0335 15.9201 20.2585 16.3722 21.4641 16.975C22.028 17.2667 22.48 17.6896 22.8203 18.2437C23.1606 18.7979 23.3307 19.4055 23.3307 20.0667V23.3333H4.66406ZM6.9974 21H20.9974V20.0667C20.9974 19.8528 20.9439 19.6583 20.837 19.4833C20.73 19.3083 20.5891 19.1722 20.4141 19.075C19.3641 18.55 18.3043 18.1562 17.2349 17.8937C16.1655 17.6312 15.0863 17.5 13.9974 17.5C12.9085 17.5 11.8293 17.6312 10.7599 17.8937C9.69045 18.1562 8.63073 18.55 7.58073 19.075C7.40573 19.1722 7.26476 19.3083 7.15781 19.4833C7.05087 19.6583 6.9974 19.8528 6.9974 20.0667V21ZM13.9974 11.6667C14.6391 11.6667 15.1884 11.4382 15.6453 10.9812C16.1023 10.5243 16.3307 9.97499 16.3307 9.33332C16.3307 8.69166 16.1023 8.14235 15.6453 7.68541C15.1884 7.22846 14.6391 6.99999 13.9974 6.99999C13.3557 6.99999 12.8064 7.22846 12.3495 7.68541C11.8925 8.14235 11.6641 8.69166 11.6641 9.33332C11.6641 9.97499 11.8925 10.5243 12.3495 10.9812C12.8064 11.4382 13.3557 11.6667 13.9974 11.6667Z" fill="#4EE39D"/>
</g>
</svg>
