<svg width="28" height="28" viewBox="0 0 28 28" fill="none" xmlns="http://www.w3.org/2000/svg">
<mask id="mask0_3776_35479" style="mask-type:alpha" maskUnits="userSpaceOnUse" x="0" y="0" width="28" height="28">
<rect width="28" height="28" fill="#D9D9D9"/>
</mask>
<g mask="url(#mask0_3776_35479)">
<path d="M22.6829 23.9164C20.4843 23.9164 18.2755 23.4052 16.0565 22.3829C13.8377 21.3605 11.7972 19.9183 9.93502 18.0563C8.08041 16.1941 6.64191 14.1553 5.61952 11.94C4.59713 9.72491 4.08594 7.51806 4.08594 5.31947C4.08594 4.96947 4.2026 4.67586 4.43594 4.43864C4.66927 4.20161 4.96094 4.0831 5.31094 4.0831H9.11602C9.4106 4.0831 9.67048 4.17925 9.89565 4.37156C10.1208 4.56367 10.264 4.80109 10.3253 5.08381L10.9941 8.51643C11.0403 8.83493 11.0306 9.10861 10.9649 9.33748C10.899 9.56634 10.7808 9.75854 10.6102 9.9141L7.91581 12.5371C8.34942 13.3312 8.84487 14.0824 9.40215 14.7908C9.95923 15.4989 10.5624 16.1753 11.2116 16.8199C11.8518 17.4602 12.5323 18.0548 13.2533 18.6037C13.9743 19.1526 14.7529 19.6634 15.589 20.1361L18.207 17.4954C18.3896 17.3054 18.6106 17.1722 18.8702 17.0958C19.1296 17.0196 19.3992 17.0009 19.679 17.0398L22.9186 17.6996C23.2131 17.7773 23.4536 17.9276 23.6399 18.1505C23.8261 18.3733 23.9193 18.6261 23.9193 18.9088V22.6914C23.9193 23.0414 23.8008 23.3331 23.5637 23.5664C23.3265 23.7998 23.0329 23.9164 22.6829 23.9164Z" fill="#4EE39D"/>
</g>
</svg>
