<svg width="28" height="28" viewBox="0 0 28 28" fill="none" xmlns="http://www.w3.org/2000/svg">
<mask id="mask0_3776_39132" style="mask-type:alpha" maskUnits="userSpaceOnUse" x="0" y="0" width="28" height="28">
<rect width="28" height="28" fill="#D9D9D9"/>
</mask>
<g mask="url(#mask0_3776_39132)">
<path d="M4.66927 23.3333C4.0276 23.3333 3.4783 23.1049 3.02135 22.6479C2.56441 22.191 2.33594 21.6417 2.33594 21V6.99999C2.33594 6.35832 2.56441 5.80902 3.02135 5.35207C3.4783 4.89513 4.0276 4.66666 4.66927 4.66666H23.3359C23.9776 4.66666 24.5269 4.89513 24.9839 5.35207C25.4408 5.80902 25.6693 6.35832 25.6693 6.99999V21C25.6693 21.6417 25.4408 22.191 24.9839 22.6479C24.5269 23.1049 23.9776 23.3333 23.3359 23.3333H4.66927ZM14.0026 15.1667L4.66927 9.33332V21H23.3359V9.33332L14.0026 15.1667ZM14.0026 12.8333L23.3359 6.99999H4.66927L14.0026 12.8333ZM4.66927 9.33332V6.99999V21V9.33332Z" fill="#4EE39D"/>
</g>
</svg>
