<svg width="28" height="28" viewBox="0 0 28 28" fill="none" xmlns="http://www.w3.org/2000/svg">
<mask id="mask0_4084_12306" style="mask-type:alpha" maskUnits="userSpaceOnUse" x="0" y="0" width="28" height="28">
<rect width="28" height="28" fill="#D9D9D9"/>
</mask>
<g mask="url(#mask0_4084_12306)">
<path d="M22.8749 13.1904L7.57378 17.2355C7.15786 17.3417 6.76411 17.3163 6.39253 17.1594C6.02075 17.0023 5.72121 16.745 5.49391 16.3876L3.08649 12.3804C2.96243 12.1844 2.94338 11.9728 3.02932 11.7454C3.11527 11.5181 3.27792 11.3783 3.51728 11.326L3.94136 11.2184C4.06095 11.1795 4.17577 11.1747 4.28582 11.2038C4.39568 11.233 4.49845 11.2857 4.59411 11.3619L7.41657 13.7626L12.2404 12.5038L7.30661 5.89869C7.11528 5.63989 7.07124 5.35454 7.17449 5.04265C7.27754 4.73096 7.49211 4.52942 7.8182 4.43803L8.20641 4.33711C8.34543 4.29375 8.49166 4.28782 8.64507 4.31932C8.79829 4.35063 8.93256 4.4216 9.04786 4.53224L16.9608 11.2519L21.9416 9.93274C22.3843 9.81762 22.808 9.87926 23.2127 10.1177C23.6173 10.3562 23.8772 10.6969 23.9923 11.1397C24.1074 11.5824 24.0606 12.0061 23.852 12.4107C23.6434 12.8154 23.3177 13.0753 22.8749 13.1904ZM5.25386 23.3337C5.08781 23.3337 4.94907 23.2779 4.83766 23.1665C4.72624 23.0551 4.67053 22.9164 4.67053 22.7503C4.67053 22.5843 4.72624 22.4455 4.83766 22.3341C4.94907 22.2227 5.08781 22.167 5.25386 22.167H22.7539C22.9199 22.167 23.0587 22.2227 23.1701 22.3341C23.2815 22.4455 23.3372 22.5843 23.3372 22.7503C23.3372 22.9164 23.2815 23.0551 23.1701 23.1665C23.0587 23.2779 22.9199 23.3337 22.7539 23.3337H5.25386Z" fill="#4EE39D"/>
</g>
</svg>
