<svg width="40" height="40" viewBox="0 0 40 40" fill="none" xmlns="http://www.w3.org/2000/svg">
<mask id="mask0_3776_34673" style="mask-type:alpha" maskUnits="userSpaceOnUse" x="4" y="4" width="32" height="32">
<rect x="35.5" y="35.5" width="31" height="31" transform="rotate(180 35.5 35.5)" fill="#D9D9D9" stroke="#414254"/>
</mask>
<g mask="url(#mask0_3776_34673)">
<path d="M6.60365 17.2508V13.2758L17.2532 17.5356L17.2703 17.5425V17.524V12.724H17.2796L17.265 12.7138L13.2703 9.91749V6.60746L19.9209 8.60264L19.9202 8.60501L19.9281 8.60264L26.5786 6.60746V9.91749L22.584 12.7138L22.5786 12.7061V12.724V17.524V17.5425L22.5958 17.5356L33.2453 13.2758V17.2508L22.584 24.7138L22.5786 24.7061V24.724V30.5907C22.5786 31.3206 22.3189 31.9453 21.799 32.4652C21.2791 32.985 20.6545 33.2448 19.9245 33.2448C19.1945 33.2448 18.5699 32.985 18.05 32.4652C17.5301 31.9453 17.2703 31.3206 17.2703 30.5907V24.724H17.2796L17.265 24.7138L6.60365 17.2508Z" fill="#282A3E" stroke="#282A3E" stroke-width="0.025"/>
</g>
</svg>
