<svg width="128" height="128" viewBox="0 0 128 128" fill="none" xmlns="http://www.w3.org/2000/svg">
<rect width="128" height="128" rx="64" fill="#07071C"/>
<mask id="mask0_3294_48742" style="mask-type:alpha" maskUnits="userSpaceOnUse" x="21" y="21" width="86" height="86">
<rect x="21.3359" y="21.3359" width="85.3333" height="85.3333" fill="#D9D9D9"/>
</mask>
<g mask="url(#mask0_3294_48742)">
<path d="M49.7812 83.5612V43.5612C49.7812 42.7316 50.0479 42.0797 50.5813 41.6056C51.1146 41.1316 51.7368 40.8945 52.4479 40.8945C52.685 40.8945 52.922 40.9242 53.159 40.9834C53.3961 41.0427 53.6331 41.1316 53.8701 41.2501L85.3368 61.339C85.7516 61.6353 86.0627 61.9612 86.2701 62.3168C86.4775 62.6723 86.5812 63.0871 86.5812 63.5612C86.5812 64.0353 86.4775 64.4501 86.2701 64.8056C86.0627 65.1612 85.7516 65.4871 85.3368 65.7834L53.8701 85.8723C53.6331 85.9908 53.3961 86.0797 53.159 86.139C52.922 86.1982 52.685 86.2279 52.4479 86.2279C51.7368 86.2279 51.1146 85.9908 50.5813 85.5168C50.0479 85.0427 49.7812 84.3908 49.7812 83.5612Z" fill="#4EE39D"/>
</g>
</svg>
