<svg width="32" height="32" viewBox="0 0 32 32" fill="none" xmlns="http://www.w3.org/2000/svg">
<mask id="mask0_3776_9888" style="mask-type:alpha" maskUnits="userSpaceOnUse" x="0" y="0" width="32" height="32">
<rect width="32" height="32" fill="#D9D9D9"/>
</mask>
<g mask="url(#mask0_3776_9888)">
<path d="M16.0003 23.0334L9.80033 26.7667C9.62256 26.8778 9.43367 26.9278 9.23367 26.9167C9.03367 26.9056 8.85589 26.8445 8.70034 26.7334C8.54478 26.6223 8.42811 26.4778 8.35034 26.3001C8.27256 26.1223 8.25589 25.9223 8.30033 25.7001L9.93367 18.6334L4.467 13.8667C4.28922 13.7112 4.18367 13.539 4.15033 13.3501C4.117 13.1612 4.12256 12.9778 4.167 12.8001C4.21145 12.6223 4.31145 12.4723 4.467 12.3501C4.62256 12.2278 4.81145 12.1556 5.03367 12.1334L12.267 11.5001L15.067 4.8334C15.1559 4.6334 15.2892 4.4834 15.467 4.3834C15.6448 4.2834 15.8226 4.2334 16.0003 4.2334C16.1781 4.2334 16.3559 4.2834 16.5337 4.3834C16.7114 4.4834 16.8448 4.6334 16.9337 4.8334L19.7337 11.5001L26.967 12.1334C27.1892 12.1556 27.3781 12.2278 27.5337 12.3501C27.6892 12.4723 27.7892 12.6223 27.8337 12.8001C27.8781 12.9778 27.8837 13.1612 27.8503 13.3501C27.817 13.539 27.7114 13.7112 27.5337 13.8667L22.067 18.6334L23.7003 25.7001C23.7448 25.9223 23.7281 26.1223 23.6503 26.3001C23.5726 26.4778 23.4559 26.6223 23.3003 26.7334C23.1448 26.8445 22.967 26.9056 22.767 26.9167C22.567 26.9278 22.3781 26.8778 22.2003 26.7667L16.0003 23.0334Z" fill="white"/>
</g>
</svg>
