<svg width="144" height="144" viewBox="0 0 144 144" fill="none" xmlns="http://www.w3.org/2000/svg">
<rect width="144" height="144" rx="20" fill="#4EE39D"/>
<path d="M14.6434 45H20.4634V61.05H28.9534V66H14.6434V45ZM35.1268 66V61.29H45.7168V66H35.1268ZM35.1268 49.71V45H45.7168V49.71H35.1268ZM35.1268 57.36V52.8H45.1168V57.36H35.1268ZM31.1668 45H36.7468V66H31.1668V45ZM53.4311 62.61L53.6111 58.32H64.3811L64.5311 62.61H53.4311ZM58.9211 53.61L56.1611 59.91L56.5211 61.2L54.0911 66H47.4911L58.9211 43.59L70.3811 66H63.7811L61.3811 61.41L61.7111 59.91L58.9211 53.61ZM72.4461 45H78.4761V66H72.4461V45ZM80.3061 66H76.4061V60.9H80.0661C80.7661 60.9 81.4461 60.83 82.1061 60.69C82.7861 60.53 83.3961 60.26 83.9361 59.88C84.4761 59.48 84.9061 58.93 85.2261 58.23C85.5661 57.51 85.7361 56.6 85.7361 55.5C85.7361 54.4 85.5661 53.5 85.2261 52.8C84.9061 52.08 84.4761 51.53 83.9361 51.15C83.3961 50.75 82.7861 50.48 82.1061 50.34C81.4461 50.18 80.7661 50.1 80.0661 50.1H76.4061V45H80.3061C82.6861 45 84.7261 45.43 86.4261 46.29C88.1461 47.13 89.4661 48.33 90.3861 49.89C91.3261 51.45 91.7961 53.32 91.7961 55.5C91.7961 57.66 91.3261 59.53 90.3861 61.11C89.4661 62.67 88.1461 63.88 86.4261 64.74C84.7261 65.58 82.6861 66 80.3061 66ZM98.8768 66V61.29H109.467V66H98.8768ZM98.8768 49.71V45H109.467V49.71H98.8768ZM98.8768 57.36V52.8H108.867V57.36H98.8768ZM94.9168 45H100.497V66H94.9168V45ZM119.191 56.73H125.161L131.461 66H124.681L119.191 56.73ZM113.491 45H119.311V66H113.491V45ZM117.211 49.92V45H121.741C123.661 45 125.241 45.3 126.481 45.9C127.741 46.5 128.671 47.33 129.271 48.39C129.891 49.43 130.201 50.64 130.201 52.02C130.201 53.38 129.891 54.6 129.271 55.68C128.671 56.74 127.741 57.57 126.481 58.17C125.241 58.75 123.661 59.04 121.741 59.04H117.211V54.63H121.261C121.881 54.63 122.401 54.54 122.821 54.36C123.241 54.18 123.561 53.91 123.781 53.55C124.021 53.19 124.141 52.76 124.141 52.26C124.141 51.76 124.021 51.34 123.781 51C123.561 50.64 123.241 50.37 122.821 50.19C122.401 50.01 121.881 49.92 121.261 49.92H117.211ZM46.3139 99.56C46.6339 99.8 47.0139 100.01 47.4539 100.19C47.8939 100.39 48.3239 100.49 48.7439 100.49C49.2039 100.49 49.6339 100.32 50.0339 99.98C50.4539 99.64 50.6639 99.04 50.6639 98.18V77H57.0539V99.56C57.0539 100.62 56.8439 101.52 56.4239 102.26C56.0239 103 55.4639 103.59 54.7439 104.03C54.0439 104.49 53.2339 104.82 52.3139 105.02C51.4139 105.22 50.4539 105.32 49.4339 105.32C48.5939 105.32 47.7839 105.23 47.0039 105.05C46.2039 104.87 45.4839 104.65 44.8439 104.39C44.1839 104.13 43.6039 103.86 43.1039 103.58L46.3139 99.56ZM65.3466 98V93.29H75.9366V98H65.3466ZM65.3466 81.71V77H75.9366V81.71H65.3466ZM65.3466 89.36V84.8H75.3366V89.36H65.3466ZM61.3866 77H66.9666V98H61.3866V77ZM77.8608 82.19V77H95.4408V82.19H89.5608V98H83.7408V82.19H77.8608Z" fill="white"/>
</svg>
