<svg width="28" height="28" viewBox="0 0 28 28" fill="none" xmlns="http://www.w3.org/2000/svg">
<mask id="mask0_4084_12320" style="mask-type:alpha" maskUnits="userSpaceOnUse" x="0" y="0" width="28" height="28">
<rect width="28" height="28" fill="#D9D9D9"/>
</mask>
<g mask="url(#mask0_4084_12320)">
<path d="M6.54881 24.4996C6.01176 24.4996 5.56337 24.3197 5.20365 23.96C4.84392 23.6002 4.66406 23.1519 4.66406 22.6148V7.71764C4.66406 7.18058 4.84392 6.73219 5.20365 6.37247C5.56337 6.01275 6.01176 5.83289 6.54881 5.83289H8.61265V3.8586C8.61265 3.67757 8.67215 3.52755 8.79115 3.40855C8.91015 3.28975 9.06006 3.23035 9.2409 3.23035C9.42192 3.23035 9.57194 3.28975 9.69094 3.40855C9.80974 3.52755 9.86915 3.67757 9.86915 3.8586V5.83289H18.2155V3.81368C18.2155 3.64762 18.2712 3.50889 18.3826 3.39747C18.494 3.28605 18.6328 3.23035 18.7988 3.23035C18.9647 3.23035 19.1033 3.28605 19.2147 3.39747C19.3263 3.50889 19.3821 3.64762 19.3821 3.81368V5.83289H21.446C21.983 5.83289 22.4314 6.01275 22.7911 6.37247C23.1509 6.73219 23.3307 7.18058 23.3307 7.71764V22.6148C23.3307 23.1519 23.1509 23.6002 22.7911 23.96C22.4314 24.3197 21.983 24.4996 21.446 24.4996H6.54881ZM6.54881 23.3329H21.446C21.6256 23.3329 21.7902 23.2581 21.9398 23.1086C22.0893 22.9591 22.1641 22.7945 22.1641 22.6148V12.3843H5.83073V22.6148C5.83073 22.7945 5.90549 22.9591 6.05502 23.1086C6.20455 23.2581 6.36915 23.3329 6.54881 23.3329ZM13.9974 16.5123C13.7567 16.5123 13.5469 16.4229 13.368 16.2442C13.1893 16.0655 13.0999 15.8557 13.0999 15.6148C13.0999 15.3741 13.1893 15.1644 13.368 14.9857C13.5469 14.807 13.7567 14.7176 13.9974 14.7176C14.2381 14.7176 14.4479 14.807 14.6268 14.9857C14.8055 15.1644 14.8949 15.3741 14.8949 15.6148C14.8949 15.8557 14.8055 16.0655 14.6268 16.2442C14.4479 16.4229 14.2381 16.5123 13.9974 16.5123ZM9.33073 16.5123C9.09001 16.5123 8.8802 16.4229 8.70131 16.2442C8.52262 16.0655 8.43327 15.8557 8.43327 15.6148C8.43327 15.3741 8.52262 15.1644 8.70131 14.9857C8.8802 14.807 9.09001 14.7176 9.33073 14.7176C9.57145 14.7176 9.78126 14.807 9.96015 14.9857C10.1388 15.1644 10.2282 15.3741 10.2282 15.6148C10.2282 15.8557 10.1388 16.0655 9.96015 16.2442C9.78126 16.4229 9.57145 16.5123 9.33073 16.5123ZM18.6641 16.5123C18.4233 16.5123 18.2135 16.4229 18.0346 16.2442C17.856 16.0655 17.7666 15.8557 17.7666 15.6148C17.7666 15.3741 17.856 15.1644 18.0346 14.9857C18.2135 14.807 18.4233 14.7176 18.6641 14.7176C18.9048 14.7176 19.1146 14.807 19.2935 14.9857C19.4722 15.1644 19.5615 15.3741 19.5615 15.6148C19.5615 15.8557 19.4722 16.0655 19.2935 16.2442C19.1146 16.4229 18.9048 16.5123 18.6641 16.5123ZM13.9974 20.9996C13.7567 20.9996 13.5469 20.9102 13.368 20.7315C13.1893 20.5528 13.0999 20.343 13.0999 20.1021C13.0999 19.8614 13.1893 19.6516 13.368 19.4727C13.5469 19.294 13.7567 19.2046 13.9974 19.2046C14.2381 19.2046 14.4479 19.294 14.6268 19.4727C14.8055 19.6516 14.8949 19.8614 14.8949 20.1021C14.8949 20.343 14.8055 20.5528 14.6268 20.7315C14.4479 20.9102 14.2381 20.9996 13.9974 20.9996ZM9.33073 20.9996C9.09001 20.9996 8.8802 20.9102 8.70131 20.7315C8.52262 20.5528 8.43327 20.343 8.43327 20.1021C8.43327 19.8614 8.52262 19.6516 8.70131 19.4727C8.8802 19.294 9.09001 19.2046 9.33073 19.2046C9.57145 19.2046 9.78126 19.294 9.96015 19.4727C10.1388 19.6516 10.2282 19.8614 10.2282 20.1021C10.2282 20.343 10.1388 20.5528 9.96015 20.7315C9.78126 20.9102 9.57145 20.9996 9.33073 20.9996ZM18.6641 20.9996C18.4233 20.9996 18.2135 20.9102 18.0346 20.7315C17.856 20.5528 17.7666 20.343 17.7666 20.1021C17.7666 19.8614 17.856 19.6516 18.0346 19.4727C18.2135 19.294 18.4233 19.2046 18.6641 19.2046C18.9048 19.2046 19.1146 19.294 19.2935 19.4727C19.4722 19.6516 19.5615 19.8614 19.5615 20.1021C19.5615 20.343 19.4722 20.5528 19.2935 20.7315C19.1146 20.9102 18.9048 20.9996 18.6641 20.9996Z" fill="#4EE39D"/>
</g>
</svg>
