<svg width="64" height="64" viewBox="0 0 64 64" fill="none" xmlns="http://www.w3.org/2000/svg">
<mask id="mask0_3776_40844" style="mask-type:alpha" maskUnits="userSpaceOnUse" x="0" y="0" width="64" height="64">
<rect width="64" height="64" fill="#D9D9D9"/>
</mask>
<g mask="url(#mask0_3776_40844)">
<path d="M31.9987 42.6666C34.132 42.6666 36.032 42.0333 37.6987 40.7666C39.3654 39.4999 40.5765 37.8666 41.332 35.8666H22.6654C23.4209 37.8666 24.632 39.4999 26.2987 40.7666C27.9654 42.0333 29.8654 42.6666 31.9987 42.6666ZM25.332 31.9999C26.4431 31.9999 27.3876 31.611 28.1654 30.8333C28.9431 30.0555 29.332 29.111 29.332 27.9999C29.332 26.8888 28.9431 25.9444 28.1654 25.1666C27.3876 24.3888 26.4431 23.9999 25.332 23.9999C24.2209 23.9999 23.2765 24.3888 22.4987 25.1666C21.7209 25.9444 21.332 26.8888 21.332 27.9999C21.332 29.111 21.7209 30.0555 22.4987 30.8333C23.2765 31.611 24.2209 31.9999 25.332 31.9999ZM38.6654 31.9999C39.7765 31.9999 40.7209 31.611 41.4987 30.8333C42.2765 30.0555 42.6654 29.111 42.6654 27.9999C42.6654 26.8888 42.2765 25.9444 41.4987 25.1666C40.7209 24.3888 39.7765 23.9999 38.6654 23.9999C37.5543 23.9999 36.6098 24.3888 35.832 25.1666C35.0543 25.9444 34.6654 26.8888 34.6654 27.9999C34.6654 29.111 35.0543 30.0555 35.832 30.8333C36.6098 31.611 37.5543 31.9999 38.6654 31.9999ZM20.4547 17.2786L28.2654 7.13327C28.7543 6.51105 29.3229 6.04438 29.9714 5.73327C30.6194 5.42216 31.2971 5.2666 32.0047 5.2666C32.7118 5.2666 33.3876 5.42216 34.032 5.73327C34.6765 6.04438 35.2431 6.51105 35.732 7.13327L43.5427 17.2786L55.3987 21.2666C56.4209 21.6222 57.2209 22.2246 57.7987 23.0739C58.3765 23.9233 58.6654 24.8615 58.6654 25.8886C58.6654 26.3628 58.598 26.8362 58.4634 27.3086C58.3283 27.781 58.1067 28.2337 57.7987 28.6666L50.1987 39.5333L50.4654 51.0666C50.4654 52.4444 49.9987 53.611 49.0654 54.5666C48.132 55.5222 47.0169 55.9999 45.72 55.9999C45.6391 55.9999 45.2209 55.9333 44.4654 55.7999L31.9987 52.3333L19.5467 55.7946C19.3147 55.887 19.0763 55.9444 18.8314 55.9666C18.5865 55.9888 18.362 55.9999 18.158 55.9999C16.8518 55.9999 15.7431 55.5179 14.832 54.5539C13.9209 53.5904 13.4876 52.4057 13.532 50.9999L13.7987 39.4499L6.1987 28.5999C5.8907 28.163 5.66914 27.7064 5.53403 27.2299C5.39936 26.753 5.33203 26.2764 5.33203 25.7999C5.33203 24.7777 5.61914 23.853 6.19336 23.0259C6.76759 22.1993 7.56936 21.6128 8.5987 21.2666L20.4547 17.2786Z" fill="#4EE39D"/>
</g>
</svg>
