<svg width="32" height="32" viewBox="0 0 32 32" fill="none" xmlns="http://www.w3.org/2000/svg">
<path fill-rule="evenodd" clip-rule="evenodd" d="M16 0C7.16344 0 0 7.16344 0 16C0 24.8366 7.16344 32 16 32C24.8366 32 32 24.8366 32 16C32 7.16344 24.8366 0 16 0ZM11.1918 8C11.2392 8.03755 11.2767 8.03755 11.3143 8.03265C11.5086 8.01633 11.6751 8.06367 11.7829 8.24164C11.8019 8.27249 11.8209 8.30335 11.84 8.33421C12.0627 8.69525 12.2859 9.05695 12.498 9.42696C12.6515 9.69448 12.798 9.96634 12.9446 10.2385C13.0521 10.438 13.1597 10.6377 13.2702 10.836C13.313 10.9163 13.3665 10.992 13.4199 11.0677C13.4501 11.1104 13.4803 11.1532 13.5086 11.1968C13.5768 11.3052 13.642 11.4166 13.7057 11.5253L13.716 11.5429C13.8531 11.8025 13.8466 12.0637 13.6425 12.2711C13.4277 12.4907 13.1968 12.6988 12.9663 12.9065C12.885 12.9797 12.8038 13.053 12.7233 13.1266C12.6233 13.2184 12.5217 13.3088 12.4203 13.399C12.2601 13.5416 12.1001 13.684 11.9461 13.8319C11.7502 14.0213 11.6996 14.2581 11.8318 14.5079C11.8441 14.5308 11.8563 14.5537 11.8686 14.5766C12.0603 14.9357 12.2518 15.2944 12.4621 15.6458C13.2915 17.0287 14.3511 18.2043 15.6899 19.1104C16.2058 19.4614 16.743 19.7831 17.285 20.09C17.796 20.379 17.9952 20.33 18.392 19.8876C18.6015 19.6548 18.8068 19.42 19.0124 19.1849C19.1689 19.006 19.3255 18.8269 19.4842 18.6483C19.5724 18.5488 19.6785 18.4606 19.7814 18.3757C19.9904 18.1994 20.2189 18.1798 20.4589 18.3006C20.474 18.3079 20.4893 18.3151 20.5046 18.3223C20.5575 18.3471 20.6109 18.3722 20.6565 18.4051C21.0822 18.7096 21.5415 18.9544 22.0003 19.1988C22.2276 19.3199 22.4548 19.441 22.6777 19.5692C22.9076 19.7012 23.1334 19.8393 23.3586 19.9769C23.487 20.0554 23.6152 20.1338 23.7439 20.2108C23.9349 20.3235 24.0116 20.4884 23.9986 20.7153C23.9627 21.3537 23.8565 21.9806 23.4859 22.5194C23.3308 22.7431 23.1104 22.939 22.8884 23.0974C22.2728 23.5284 21.5855 23.7946 20.854 23.9578C20.1895 24.1064 19.5267 24.0525 18.8899 23.8533C17.6605 23.4746 16.4491 23.0403 15.3339 22.3823C14.3217 21.7831 13.4009 21.0598 12.5486 20.2516C11.4694 19.2247 10.5061 18.1047 9.72732 16.8295C9.21956 16.0018 8.8571 15.1103 8.52893 14.2009C8.32975 13.6523 8.13383 13.1087 8.04566 12.5274C7.94443 11.8695 8.01464 11.236 8.22526 10.6123C8.41465 10.049 8.65139 9.51023 9.00894 9.02859C9.28976 8.65471 9.64079 8.38041 10.0947 8.25796C10.3511 8.19011 10.6092 8.13199 10.8672 8.07388C10.9754 8.04949 11.0837 8.0251 11.1918 8Z" fill="white"/>
</svg>
