<svg width="64" height="64" viewBox="0 0 64 64" fill="none" xmlns="http://www.w3.org/2000/svg">
<path fill-rule="evenodd" clip-rule="evenodd" d="M32 0C14.3269 0 0 14.3269 0 32C0 49.6731 14.3269 64 32 64C49.6731 64 64 49.6731 64 32C64 14.3269 49.6731 0 32 0ZM24.9644 15.0364C26.7849 14.9536 27.3665 14.9333 32.0016 14.9333H31.9963C36.6328 14.9333 37.2123 14.9536 39.0328 15.0364C40.8497 15.1196 42.0906 15.4073 43.1786 15.8293C44.3022 16.2649 45.2515 16.848 46.2009 17.7974C47.1502 18.746 47.7333 19.6982 48.1707 20.8207C48.5902 21.9058 48.8782 23.146 48.9636 24.9629C49.0453 26.7834 49.0667 27.3651 49.0667 32.0002C49.0667 36.6352 49.0453 37.2155 48.9636 39.036C48.8782 40.8522 48.5902 42.0927 48.1707 43.1782C47.7333 44.3004 47.1502 45.2526 46.2009 46.2012C45.2526 47.1506 44.3018 47.7351 43.1797 48.171C42.0938 48.5931 40.8522 48.8807 39.0353 48.9639C37.2148 49.0467 36.6349 49.067 31.9995 49.067C27.3648 49.067 26.7834 49.0467 24.963 48.9639C23.1464 48.8807 21.9059 48.5931 20.82 48.171C19.6982 47.7351 18.746 47.1506 17.7977 46.2012C16.8487 45.2526 16.2656 44.3004 15.8294 43.1779C15.4077 42.0927 15.12 40.8525 15.0365 39.0356C14.954 37.2152 14.9333 36.6352 14.9333 32.0002C14.9333 27.3651 14.9547 26.7831 15.0361 24.9626C15.1179 23.1464 15.4059 21.9058 15.829 20.8203C16.2663 19.6982 16.8495 18.746 17.7988 17.7974C18.7474 16.8484 19.6996 16.2653 20.8221 15.8293C21.9073 15.4073 23.1475 15.1196 24.9644 15.0364Z" fill="url(#paint0_linear_3776_41717)"/>
<path fill-rule="evenodd" clip-rule="evenodd" d="M30.4719 18.0091C30.7692 18.0087 31.089 18.0088 31.4341 18.009L32.003 18.0091C36.5598 18.0091 37.0999 18.0255 38.8994 18.1073C40.5634 18.1834 41.4665 18.4614 42.0681 18.695C42.8646 19.0044 43.4324 19.3741 44.0294 19.9715C44.6268 20.5688 44.9965 21.1377 45.3066 21.9342C45.5402 22.5351 45.8186 23.4382 45.8943 25.1022C45.9761 26.9013 45.9939 27.4418 45.9939 31.9965C45.9939 36.5512 45.9761 37.0917 45.8943 38.8908C45.8182 40.5548 45.5402 41.4579 45.3066 42.0588C44.9972 42.8553 44.6268 43.4224 44.0294 44.0194C43.4321 44.6167 42.865 44.9865 42.0681 45.2958C41.4673 45.5305 40.5634 45.8078 38.8994 45.8839C37.1003 45.9657 36.5598 45.9835 32.003 45.9835C27.4458 45.9835 26.9057 45.9657 25.1065 45.8839C23.4425 45.8071 22.5394 45.5291 21.9374 45.2955C21.141 44.9861 20.5721 44.6164 19.9748 44.019C19.3774 43.4217 19.0076 42.8542 18.6976 42.0574C18.464 41.4565 18.1856 40.5534 18.1099 38.8894C18.0281 37.0902 18.0117 36.5498 18.0117 31.9922C18.0117 27.4347 18.0281 26.8971 18.1099 25.0979C18.1859 23.4339 18.464 22.5308 18.6976 21.9292C19.0069 21.1327 19.3774 20.5638 19.9748 19.9665C20.5721 19.3692 21.141 18.9994 21.9374 18.6893C22.5391 18.4547 23.4425 18.1773 25.1065 18.1009C26.681 18.0298 27.2911 18.0084 30.4719 18.0049V18.0091ZM41.1132 20.843C39.9825 20.843 39.0652 21.7592 39.0652 22.8903C39.0652 24.021 39.9825 24.9383 41.1132 24.9383C42.2439 24.9383 43.1612 24.021 43.1612 22.8903C43.1612 21.7596 42.2439 20.8423 41.1132 20.8423V20.843ZM23.2383 32.0004C23.2383 27.1602 27.1626 23.2359 32.0028 23.2359H32.0025C36.8427 23.2359 40.7659 27.1602 40.7659 32.0004C40.7659 36.8407 36.843 40.7632 32.0028 40.7632C27.1626 40.7632 23.2383 36.8407 23.2383 32.0004Z" fill="url(#paint1_linear_3776_41717)"/>
<path d="M32.0014 26.3115C35.1432 26.3115 37.6904 28.8584 37.6904 32.0005C37.6904 35.1422 35.1432 37.6894 32.0014 37.6894C28.8594 37.6894 26.3125 35.1422 26.3125 32.0005C26.3125 28.8584 28.8594 26.3115 32.0014 26.3115Z" fill="url(#paint2_linear_3776_41717)"/>
<defs>
<linearGradient id="paint0_linear_3776_41717" x1="0" y1="32" x2="64" y2="32" gradientUnits="userSpaceOnUse">
<stop stop-color="#4EE39D"/>
<stop offset="1" stop-color="#0DC97A"/>
</linearGradient>
<linearGradient id="paint1_linear_3776_41717" x1="18.0117" y1="31.9942" x2="45.9939" y2="31.9942" gradientUnits="userSpaceOnUse">
<stop stop-color="#4EE39D"/>
<stop offset="1" stop-color="#0DC97A"/>
</linearGradient>
<linearGradient id="paint2_linear_3776_41717" x1="26.3125" y1="32.0005" x2="37.6904" y2="32.0005" gradientUnits="userSpaceOnUse">
<stop stop-color="#4EE39D"/>
<stop offset="1" stop-color="#0DC97A"/>
</linearGradient>
</defs>
</svg>
