<svg width="298" height="196" viewBox="0 0 298 196" fill="none" xmlns="http://www.w3.org/2000/svg">
<g clip-path="url(#clip0_4084_30223)">
<path d="M169.534 74.6899C169.534 74.6899 168.194 71.4896 165.079 71.1381C161.964 70.787 161.61 73.4018 161.018 74.0653C160.427 74.7289 160.269 73.2458 158.771 73.4798C157.273 73.7139 157.233 74.9629 156.76 75.5485C156.287 76.134 156.287 75.197 155.419 75.3924C154.552 75.5875 154.71 76.017 154.473 76.4071C154.237 76.7975 153.96 75.978 153.251 76.251C152.541 76.5241 152.62 77.2266 152.62 77.2266H171.939C171.939 77.2266 172.373 76.251 171.663 75.4314C170.954 74.6119 169.89 75.4314 169.534 74.6899Z" stroke="#263238" stroke-width="0.596" stroke-miterlimit="10"/>
<path d="M191.302 16.3003C191.302 16.3003 187.887 8.14668 179.951 7.25184C172.016 6.357 171.112 13.0192 169.605 14.7096C168.099 16.4 167.697 12.6213 163.88 13.2182C160.062 13.8148 159.962 16.9966 158.757 18.4883C157.552 19.9797 157.552 17.5935 155.342 18.0908C153.132 18.588 153.534 19.6819 152.931 20.676C152.328 21.6705 151.625 19.5822 149.817 20.2784C148.009 20.9743 148.21 22.7643 148.21 22.7643H197.43C197.43 22.7643 198.535 20.2784 196.727 18.1905C194.918 16.1013 192.207 18.1897 191.302 16.3003Z" stroke="#263238" stroke-width="0.596" stroke-miterlimit="10"/>
<path d="M119.884 44.8138C119.884 44.8138 117.555 39.2533 112.143 38.6429C106.732 38.0326 106.115 42.5757 105.088 43.7287C104.06 44.8816 103.786 42.3046 101.183 42.7117C98.5803 43.1187 98.5114 45.2886 97.6895 46.3056C96.8675 47.3226 96.8675 45.6952 95.3605 46.0345C93.8535 46.3734 94.1273 47.1193 93.7165 47.7974C93.3053 48.4755 92.8261 47.0515 91.5929 47.5263C90.3598 48.0011 90.4967 49.2214 90.4967 49.2214H124.063C124.063 49.2214 124.816 47.5263 123.583 46.1023C122.35 44.6783 120.501 46.1023 119.884 44.8138Z" stroke="#263238" stroke-width="0.596" stroke-miterlimit="10"/>
<path d="M227.912 57.5156C227.912 69.4617 217.587 79.1462 204.85 79.1462C192.114 79.1462 181.789 69.4617 181.789 57.5156C181.789 45.5694 192.114 13.4781 204.85 13.4781C217.587 13.4781 227.912 45.5694 227.912 57.5156Z" fill="#4EE39D"/>
<path opacity="0.32" d="M227.912 57.5156C227.912 69.4617 217.587 79.1462 204.85 79.1462C192.114 79.1462 181.789 69.4617 181.789 57.5156C181.789 45.5694 192.114 13.4781 204.85 13.4781C217.587 13.4781 227.912 45.5694 227.912 57.5156Z" fill="white"/>
<path d="M202.891 87.5941L203.256 75.7499L196.273 65.3287L203.25 73.0189V65.015L199.444 52.7734L203.566 62.5039L204.283 46.5946L204.676 63.9165L204.835 66.7413L210.015 62.6126L205.311 68.9384L205.152 73.0189L211.104 68.8233L210.543 69.6409L205.469 74.5064L205.786 87.583L202.891 87.5941Z" fill="#787878"/>
<path d="M154.352 73.3382C154.352 81.8213 147.02 88.6978 137.977 88.6978C128.933 88.6978 121.601 81.8213 121.601 73.3382C121.601 64.8556 128.933 44.9229 137.977 44.9229C147.021 44.9229 154.352 64.8552 154.352 73.3382Z" fill="#4EE39D"/>
<path opacity="0.32" d="M154.352 73.3382C154.352 81.8213 147.02 88.6978 137.977 88.6978C128.933 88.6978 121.601 81.8213 121.601 73.3382C121.601 64.8556 128.933 44.9229 137.977 44.9229C147.021 44.9229 154.352 64.8552 154.352 73.3382Z" fill="white"/>
<path d="M136.581 94.6962L136.84 86.286L131.883 78.8862L136.836 84.347V78.6635L134.134 69.9709L137.061 76.8802L137.569 65.5834L137.849 77.8834L137.962 79.8894L141.64 76.9574L138.3 81.4493L138.187 84.347L142.414 81.3678L142.015 81.9482L138.413 85.403L138.637 94.6887L136.581 94.6962Z" fill="#787878"/>
<path d="M104.839 78.1937C104.839 84.4067 99.4697 89.4436 92.8453 89.4436C86.2214 89.4436 80.8513 84.4067 80.8513 78.1937C80.8513 71.9806 86.221 57.3815 92.8453 57.3815C99.4697 57.3815 104.839 71.9806 104.839 78.1937Z" fill="#4EE39D"/>
<path opacity="0.32" d="M104.839 78.1937C104.839 84.4067 99.4697 89.4436 92.8453 89.4436C86.2214 89.4436 80.8513 84.4067 80.8513 78.1937C80.8513 71.9806 86.221 57.3815 92.8453 57.3815C99.4697 57.3815 104.839 71.9806 104.839 78.1937Z" fill="white"/>
<path d="M91.8241 93.8373L92.014 87.6771L88.3826 82.2572L92.0108 86.257V82.0941L90.0317 75.7274L92.1756 80.7883L92.5478 72.5137L92.7528 81.5227L92.8351 82.9921L95.5291 80.8446L93.0827 84.1348L93.0003 86.257L96.096 84.0749L95.8038 84.5L93.1651 87.0305L93.3299 93.8314L91.8241 93.8373Z" fill="#787878"/>
<path d="M226.258 98.8377V62.0138" stroke="#00B552" stroke-width="0.596" stroke-miterlimit="10" stroke-linecap="round" stroke-linejoin="round"/>
<path d="M226.336 62.651C226.336 62.651 226.466 64.3832 227.309 65.6023C228.151 66.8214 229.447 67.9763 228.799 70.8633C228.151 73.7508 227.827 74.6488 227.957 75.2906C228.086 75.9321 228.216 75.5472 228.346 76.8305C228.475 78.1139 227.892 79.2045 227.892 79.2045C227.892 79.2045 228.799 78.0496 227.438 76.4455C226.077 74.8415 226.206 72.6601 226.206 71.826C226.206 70.9918 226.336 62.651 226.336 62.651Z" fill="#00B552" stroke="#00B552" stroke-width="0.596" stroke-miterlimit="10" stroke-linecap="round" stroke-linejoin="round"/>
<path d="M222.306 82.7423C222.306 82.7423 194.304 80.1563 163.548 86.1904C132.791 92.2249 122.692 93.9488 113.97 95.3858C105.248 96.8225 101.117 97.3974 101.117 97.3974C101.117 97.3974 113.97 104.006 143.809 101.42C173.647 98.834 222.306 82.7423 222.306 82.7423Z" fill="#ABABAB"/>
<path d="M141.016 108.029C186.256 106.961 219.234 103.155 248.315 102.69C268.578 102.363 283.181 102.76 292.164 103.178C291.723 100.436 291.144 97.7209 290.445 95.0415C275.64 91.972 228.109 82.2434 222.305 82.7438C215.413 83.3388 160.788 100.27 121.773 95.1006C102.002 92.4803 72.8006 91.9247 48.799 92.0114C40.6537 96.4915 32.3824 100.511 25.6094 104.928C40.0494 106.058 62.534 107.398 93.2835 108.029H141.016Z" fill="#4EE39D"/>
<path opacity="0.39" d="M141.016 108.029C186.256 106.961 219.234 103.155 248.315 102.69C268.578 102.363 283.181 102.76 292.164 103.178C291.723 100.436 291.144 97.7209 290.445 95.0415C275.64 91.972 228.109 82.2434 222.305 82.7438C215.413 83.3388 160.788 100.27 121.773 95.1006C102.002 92.4803 72.8006 91.9247 48.799 92.0114C40.6537 96.4915 32.3824 100.511 25.6094 104.928C40.0494 106.058 62.534 107.398 93.2835 108.029H141.016Z" fill="white"/>
<path d="M11.7847 134.773L10.7266 122.973L292.72 122.212L290.074 134.773H11.7847Z" fill="#4EE39D"/>
<path d="M290.157 133.605C283.403 154.177 264.122 172.708 223.61 182.145C151.007 199.057 40.831 182.937 16.3447 143.566C14.0975 139.957 12.5427 136.651 11.5859 133.605H290.157Z" fill="#4EE39D"/>
<path d="M292.452 122.747H11C12.0497 116.688 15.9844 111.83 21.5219 107.486C22.8922 106.409 24.3567 105.368 25.9029 104.347C40.3219 105.492 62.7737 106.848 93.4783 107.486C96.7657 107.554 100.141 107.614 103.617 107.666C117.036 107.861 129.494 107.766 141.141 107.486C186.315 106.405 219.245 102.552 248.284 102.082C268.517 101.75 283.099 102.153 292.069 102.576C292.32 104.208 292.528 105.843 292.678 107.486C293.156 112.56 293.118 117.678 292.452 122.747Z" fill="#4EE39D"/>
<path d="M127.015 130.521C127.015 131.543 114.684 132.372 99.4723 132.372C84.2609 132.372 71.9297 131.543 71.9297 130.521C71.9297 129.499 84.2609 128.671 99.4723 128.671C114.684 128.671 127.015 129.5 127.015 130.521Z" fill="#263238"/>
<path d="M116.822 109.745L113.211 86.2845" stroke="#263238" stroke-width="1.192" stroke-miterlimit="10" stroke-linecap="round"/>
<path d="M126.362 123.622C126.396 120.569 123.924 118.067 120.84 118.033C117.757 117.999 115.229 120.446 115.195 123.499C115.161 126.551 117.633 129.053 120.716 129.087C123.8 129.121 126.328 126.674 126.362 123.622Z" fill="#263238" stroke="#263238" stroke-width="0.596" stroke-miterlimit="10" stroke-linecap="round" stroke-linejoin="round"/>
<path d="M73.4368 95.8332C72.9006 95.1598 72.2263 94.8868 72.2263 94.8868C72.2263 94.8868 73.389 93.1546 73.1235 92.4832C72.858 91.8118 71.3025 91.8004 70.8929 92.3327C70.4829 92.8654 70.0024 93.7993 70.0024 93.7993C70.0024 93.7993 69.5443 91.7873 69.0057 91.4485C68.4671 91.1096 65.8317 90.8224 65.487 91.6904C65.1422 92.5585 65.8126 93.3666 65.8126 93.3666C65.8126 93.3666 65.0666 93.629 65.1972 94.2323C65.3277 94.8359 66.34 95.178 66.34 95.178L66.8698 96.6548C66.8698 96.6548 65.4491 96.7111 65.3755 97.5142C65.3019 98.3172 66.1131 98.3901 66.3834 98.392C66.654 98.394 66.7137 99.3988 66.7137 99.3988L66.5545 102.611C66.5545 102.611 65.1892 104.275 65.3771 106.285C65.565 108.295 64.9587 116.927 64.9532 117.664C64.9476 118.4 65.4826 119.207 66.1589 119.213C66.8351 119.218 69.2768 118.298 69.8878 118.035C70.4984 117.772 72.4683 116.648 72.7506 115.11C73.0328 113.572 72.7267 109.285 72.7318 108.616C72.737 107.946 72.614 106.271 72.5535 105.334C72.493 104.396 71.6591 102.85 71.6591 102.85L71.8545 99.3696C71.8545 99.3696 71.9982 98.2325 72.0679 97.9653C72.1376 97.6982 72.8759 98.4401 73.5562 97.9094C74.2369 97.379 73.973 96.5066 73.4368 95.8332Z" fill="#263238" stroke="#263238" stroke-width="0.596" stroke-miterlimit="10" stroke-linecap="round" stroke-linejoin="round"/>
<path d="M81.244 110.151L71.7031 110.684L71.8269 112.225L81.3001 111.692L81.244 110.151Z" fill="#263238" stroke="#263238" stroke-width="0.596" stroke-miterlimit="10" stroke-linejoin="round"/>
<path d="M94.6615 113.564C94.4648 113.366 89.6337 108.866 88.6251 107.927C88.5064 107.816 88.3528 107.749 88.19 107.737L85.8316 107.568C85.4144 107.538 85.0613 107.869 85.0705 108.283L85.1632 112.545L86.3355 113.429L86.5488 114.452L94.5027 115.021C94.5027 115.021 94.8808 113.784 94.6615 113.564ZM88.4049 112.642L85.6899 111.163L85.7185 108.795C85.7225 108.46 86.0166 108.202 86.353 108.237L88.0324 108.414C88.1609 108.427 88.2812 108.484 88.3735 108.573L92.7512 112.82L88.4049 112.642Z" fill="#263238" stroke="#263238" stroke-width="0.596" stroke-miterlimit="10" stroke-linecap="round" stroke-linejoin="round"/>
<path d="M69.3236 124.326L85.4227 124.445L86.0894 125.591L88.2194 125.607C88.2194 125.607 87.5236 121.385 84.2691 118.892C81.0147 116.399 74.624 116.403 73.3204 117.011C72.0168 117.618 70.8087 119.358 69.8598 121.203C68.9112 123.047 69.3236 124.326 69.3236 124.326Z" fill="#263238" stroke="#263238" stroke-width="0.596" stroke-miterlimit="10" stroke-linecap="round" stroke-linejoin="round"/>
<path d="M78.7903 85.6292L74.8516 114.724" stroke="#263238" stroke-width="1.192" stroke-miterlimit="10" stroke-linecap="round"/>
<path d="M87.4397 126.138L113.376 126.329C113.376 126.329 114.929 125.538 115.975 123.649C117.021 121.76 119.924 117.915 120.442 117.701C120.959 117.486 127.52 117.023 127.52 117.023C127.52 117.023 128.482 116.593 126.653 114.756C124.825 112.919 122.257 111.441 120.129 110.258C118.001 109.075 114.547 107.737 113.958 107.733C113.368 107.728 113.072 107.945 112.92 108.6C112.767 109.256 112.681 110.933 112.605 111.297C112.528 111.661 112.233 111.805 111.79 111.875C111.347 111.944 110.906 111.868 110.906 111.868C110.906 111.868 109.724 112.224 109.795 112.589C109.866 112.955 110.23 113.614 110.23 113.614L110.225 114.197L111.916 114.721L108.398 121.989L99.0404 121.92L99.0898 115.355C99.0898 115.355 99.2398 114.992 98.6563 114.185C98.0727 113.379 95.7274 111.684 95.3592 111.681C94.9907 111.678 85.6365 111.171 84.8969 111.531C84.1573 111.89 83.3409 112.686 83.3409 112.686C83.3409 112.686 73.1652 113.632 70.7276 114.417C68.2899 115.201 67.6184 116.291 67.0962 117.162C66.5739 118.034 65.3089 119.629 65.3089 119.629C65.3089 119.629 64.1307 119.548 64.1239 120.423C64.1172 121.298 64.0312 122.975 64.2489 123.414C64.4666 123.853 64.9813 124.003 65.2018 124.078C65.4224 124.152 69.3264 124.327 69.3264 124.327C69.3264 124.327 71.7227 119.239 72.7608 118.371C73.7989 117.503 78.5154 117.465 80.6477 118.064C82.7797 118.663 86.9369 124.383 87.4397 126.138Z" fill="white" stroke="#263238" stroke-width="0.596" stroke-miterlimit="10" stroke-linecap="round" stroke-linejoin="round"/>
<path d="M112.916 108.6C112.763 109.256 112.677 110.933 112.601 111.297C112.524 111.661 112.228 111.805 111.786 111.875C111.343 111.944 110.902 111.868 110.902 111.868C110.902 111.868 109.72 112.224 109.791 112.589C109.862 112.955 110.225 113.614 110.225 113.614L110.221 114.197L111.912 114.721L108.394 121.989L99.0363 121.92L99.0156 124.692L111.468 124.783C111.468 124.783 116.328 115.482 116.636 113.734C116.943 111.986 116.953 110.819 116.151 109.573C115.35 108.327 113.954 107.733 113.954 107.733C113.365 107.728 113.068 107.945 112.916 108.6Z" fill="#263238" stroke="#263238" stroke-width="0.596" stroke-miterlimit="10" stroke-linecap="round" stroke-linejoin="round"/>
<path d="M77.4565 132.22C81.1391 131.833 83.8081 128.565 83.4177 124.92C83.0274 121.274 79.7256 118.632 76.043 119.019C72.3604 119.405 69.6914 122.673 70.0818 126.319C70.4721 129.964 73.7739 132.606 77.4565 132.22Z" fill="#6E6E6E" stroke="#263238" stroke-width="0.596" stroke-miterlimit="10" stroke-linecap="round" stroke-linejoin="round"/>
<path d="M79.9667 125.645C79.9798 123.89 78.5536 122.457 76.7807 122.444C75.0078 122.431 73.5601 123.842 73.547 125.597C73.5338 127.352 74.96 128.785 76.7329 128.798C78.5055 128.812 79.9532 127.4 79.9667 125.645Z" fill="white" stroke="#263238" stroke-width="0.596" stroke-miterlimit="10" stroke-linecap="round" stroke-linejoin="round"/>
<path d="M129.864 126.763C130.307 123.571 128.051 120.627 124.826 120.189C121.601 119.751 118.627 121.983 118.184 125.176C117.742 128.369 119.997 131.312 123.223 131.751C126.448 132.189 129.422 129.956 129.864 126.763Z" fill="#6E6E6E" stroke="#263238" stroke-width="0.596" stroke-miterlimit="10" stroke-linecap="round" stroke-linejoin="round"/>
<path d="M126.847 125.99C126.859 124.448 125.605 123.187 124.046 123.176C122.488 123.165 121.215 124.406 121.203 125.949C121.192 127.491 122.446 128.751 124.004 128.763C125.563 128.774 126.836 127.533 126.847 125.99Z" fill="white" stroke="#263238" stroke-width="0.596" stroke-miterlimit="10" stroke-linecap="round" stroke-linejoin="round"/>
<path d="M110.187 118.5L107.891 120.088L108.476 120.676L111.063 119.528L111.511 118.802L110.78 117.994C110.78 117.994 110.266 117.772 110.187 118.5Z" fill="#263238" stroke="#263238" stroke-width="0.596" stroke-miterlimit="10" stroke-linecap="round" stroke-linejoin="round"/>
<path d="M105.667 122.844L108.873 117.834L109.387 118.13L107.144 122.417L107.8 123.37L105 123.349L105.667 122.844Z" fill="#263238" stroke="#263238" stroke-width="0.596" stroke-miterlimit="10" stroke-linecap="round" stroke-linejoin="round"/>
<path d="M96.5986 114.024C96.4023 113.826 91.5708 109.326 90.5626 108.386C90.4439 108.276 90.2903 108.209 90.1275 108.197L87.7691 108.027C87.3519 107.997 86.9988 108.329 87.008 108.743L87.1007 113.005L88.273 113.889L88.4863 114.912L96.4402 115.481C96.4402 115.481 96.8179 114.244 96.5986 114.024ZM90.342 113.102L87.6266 111.623L87.6552 109.255C87.6592 108.921 87.9534 108.662 88.2897 108.697L89.9691 108.874C90.0976 108.887 90.2179 108.944 90.3102 109.033L94.6879 113.28L90.342 113.102Z" fill="#6E6E6E" stroke="#263238" stroke-width="0.596" stroke-miterlimit="10" stroke-linecap="round" stroke-linejoin="round"/>
<path d="M67.4522 116.762L68.6021 116.77C69.0117 116.773 69.2804 117.195 69.1069 117.562L68.2562 119.361C68.1002 119.691 67.7638 119.901 67.3956 119.898L65.3047 119.883L67.4522 116.762Z" fill="white" stroke="#263238" stroke-width="0.596" stroke-miterlimit="10" stroke-linecap="round" stroke-linejoin="round"/>
<path d="M64.1024 121.726C64.0968 122.44 64.1179 123.15 64.2484 123.414C64.4662 123.853 64.9809 124.003 65.2014 124.077C65.4219 124.152 69.326 124.327 69.326 124.327C69.326 124.327 69.8968 123.115 70.6013 121.774L64.1024 121.726Z" fill="white" stroke="#263238" stroke-width="0.596" stroke-miterlimit="10" stroke-linecap="round" stroke-linejoin="round"/>
<path d="M86.3594 124.05C86.9087 124.913 87.3063 125.668 87.4409 126.138L113.377 126.329C113.377 126.329 114.588 125.711 115.592 124.266L86.3594 124.05Z" fill="white" stroke="#263238" stroke-width="0.596" stroke-miterlimit="10" stroke-linecap="round" stroke-linejoin="round"/>
<path d="M102.911 103.987L103.005 103.236L102.309 102.576L102.311 102.574L103.262 100.253L103.74 99.7594C103.879 99.6152 103.874 99.3863 103.729 99.248C103.583 99.1097 103.352 99.1148 103.212 99.259L97.5234 105.138C97.3837 105.282 97.3889 105.511 97.5346 105.649C97.6802 105.787 97.9115 105.782 98.0512 105.638L99.0794 104.575L100.935 104.05L100.97 104.013L101.613 104.507L102.461 104.469L111.184 113.234L111.502 112.574L102.911 103.987ZM102.087 102.404L101.628 102.897L101.049 102.541L102.743 100.789L102.087 102.404ZM99.4647 104.177L100.85 102.746L101.435 103.104L100.782 103.804L99.4647 104.177Z" fill="#263238"/>
<path d="M117.352 119.925L120.779 113.992L116.321 86.2402" stroke="#263238" stroke-width="1.192" stroke-miterlimit="10" stroke-linecap="round"/>
<path d="M75.3906 114.394L80.2094 85.171" stroke="#263238" stroke-width="1.192" stroke-miterlimit="10" stroke-linecap="round"/>
<path d="M77.7031 86.0228L89.5339 86.7128L94.6803 85.8802L119.156 86.9311L116.97 85.6729C116.548 85.4302 116.073 85.2931 115.585 85.273L81.3465 83.8864C80.462 83.8505 79.6066 84.2036 79.0091 84.8506L77.7031 86.0228Z" fill="white" stroke="#263238" stroke-width="0.596" stroke-miterlimit="10" stroke-linecap="round" stroke-linejoin="round"/>
<path d="M85.8281 85.2123L90.7631 85.5165" stroke="#263238" stroke-width="1.192" stroke-miterlimit="10" stroke-linecap="round"/>
<path d="M77.521 102.427L65.8203 102.341L65.8133 103.278L77.514 103.364L77.521 102.427Z" fill="#263238"/>
<path d="M77.5078 102.96C77.5078 102.96 79.5363 103.039 80.2667 104.828C80.9971 106.617 81.554 113.501 81.554 113.501" stroke="#263238" stroke-width="1.192" stroke-miterlimit="10" stroke-linejoin="round"/>
<path d="M80.2659 104.387C80.2659 104.387 80.2165 101.976 81.5691 101.986C82.9216 101.996 84.1162 105.017 84.0346 106.891C83.953 108.765 81.4504 108.747 81.0524 107.74C80.654 106.733 80.2659 104.387 80.2659 104.387Z" stroke="#263238" stroke-width="0.596" stroke-miterlimit="10" stroke-linejoin="round"/>
<path d="M80.8856 102.265C80.2383 102.896 80.2658 104.387 80.2658 104.387C80.2658 104.387 80.6539 106.733 81.0523 107.74C81.2462 108.23 81.938 108.483 82.6067 108.401L80.8856 102.265Z" fill="#263238" stroke="#263238" stroke-width="0.596" stroke-miterlimit="10" stroke-linejoin="round"/>
<path d="M164.949 31.3971C164.949 31.3971 166.338 27.7311 169.579 26.906C172.819 26.0813 178.004 33.3216 178.93 35.8879C179.856 38.4542 178.56 44.3201 178.56 45.6949C178.56 47.0696 180.504 48.7194 181.06 47.8029C181.615 46.8864 181.615 46.8864 181.615 46.8864C181.615 46.8864 182.263 46.4281 181.986 48.0779C181.708 49.7277 179.671 51.2857 177.634 51.1025C175.597 50.9193 172.449 50.0028 172.449 50.0028C172.449 50.0028 170.412 53.3938 168.468 56.5102C166.523 59.6265 163.098 58.8014 163.098 58.8014L164.394 56.4184C164.394 56.4184 163.931 58.9847 161.709 58.9847C159.487 58.9847 158.469 57.7017 158.469 57.7017C158.469 57.7017 160.413 58.435 161.802 54.4939C163.191 50.5528 161.895 44.1373 160.876 40.7459C159.857 37.3545 162.079 31.3971 164.949 31.3971Z" fill="#263238" stroke="#263238" stroke-width="0.596" stroke-miterlimit="10" stroke-linecap="round" stroke-linejoin="round"/>
<path d="M164.392 66.6837C164.392 66.6837 165.212 73.6473 165.292 74.2825C165.372 74.9177 165.211 83.3337 165.211 83.3337C165.211 83.3337 163.539 88.9234 163.86 92.0997C164.181 95.2755 163.848 105.327 163.286 107.392C162.725 109.456 164.73 113.823 164.971 113.743C165.212 113.664 167.297 107.312 167.217 105.962C167.136 104.612 166.707 100.595 166.707 100.595C166.707 100.595 169.783 93.7349 170.024 89.9238C170.265 86.1128 170.265 84.7629 170.265 84.7629C170.265 84.7629 171.387 81.587 171.468 80.0783C171.548 78.5699 171.869 73.8057 171.869 73.8057C171.869 73.8057 170.746 68.2479 168.982 66.4216C167.217 64.5957 164.695 65.5953 164.392 66.6837Z" fill="white" stroke="#263238" stroke-width="0.596" stroke-miterlimit="10" stroke-linecap="round" stroke-linejoin="round"/>
<path d="M219.476 158.985C219.476 160.328 208.474 161.417 194.902 161.417C181.33 161.417 170.328 160.328 170.328 158.985C170.328 157.642 181.33 156.552 194.902 156.552C208.474 156.552 219.476 157.642 219.476 158.985Z" fill="#263238"/>
<path d="M179.041 107.582C179.041 107.582 178.688 116.099 179.395 121.116C180.102 126.133 181.87 135.817 182.106 142.234C182.341 148.651 181.517 151.218 181.517 151.218C181.517 151.218 181.399 152.501 183.166 152.735C184.934 152.968 187.056 152.152 187.174 151.568C187.292 150.984 187.41 145.851 188.235 140.134C189.06 134.417 189.767 135.351 189.531 127.883C189.296 120.416 187.881 115.749 187.41 113.766C186.938 111.782 186.821 106.415 186.821 106.415L179.041 107.582Z" fill="white" stroke="#263238" stroke-width="0.596" stroke-miterlimit="10" stroke-linecap="round" stroke-linejoin="round"/>
<path d="M183.919 151.092C183.919 151.092 184.159 150.063 183.039 149.271C181.919 148.479 181.199 148.163 180.959 149.034C180.719 149.905 180.559 151.409 180.559 151.409C180.559 151.409 179.039 152.755 176.959 154.101C174.88 155.448 172.32 155.606 172.24 156.794C172.16 157.981 172.96 157.902 175.199 158.139C177.439 158.377 182.158 158.06 183.358 157.744C184.559 157.427 185.758 157.585 187.038 157.189C188.318 156.793 188.078 155.526 188.078 153.943C188.078 152.359 187.918 150.934 187.678 150.696C187.438 150.459 184.559 151.013 183.919 151.092Z" fill="white" stroke="#263238" stroke-width="0.596" stroke-miterlimit="10" stroke-linecap="round" stroke-linejoin="round"/>
<path d="M183.038 149.271C181.918 148.48 181.198 148.163 180.958 149.034C180.718 149.905 180.558 151.409 180.558 151.409L179.758 152.28C179.758 152.28 180.238 152.597 180.878 152.756C181.518 152.914 182.317 153.785 182.317 153.785L183.917 151.093C183.918 151.092 184.158 150.063 183.038 149.271Z" fill="white" stroke="#263238" stroke-width="0.596" stroke-miterlimit="10" stroke-linecap="round" stroke-linejoin="round"/>
<path d="M188.055 155.885C186.636 156.205 183.132 156.856 178.479 157.268C175.003 157.576 173.149 157.053 172.27 156.646C172.257 156.694 172.243 156.741 172.24 156.793C172.16 157.981 172.96 157.902 175.199 158.139C177.439 158.377 182.158 158.06 183.358 157.743C184.559 157.427 185.758 157.585 187.038 157.189C187.724 156.977 187.972 156.513 188.055 155.885Z" fill="white" stroke="#263238" stroke-width="0.596" stroke-miterlimit="10" stroke-linecap="round" stroke-linejoin="round"/>
<path d="M185.168 108.516C185.168 108.516 183.872 116.216 185.404 122.633C186.936 129.05 189.412 139.784 189.412 144.101C189.412 148.418 189.412 151.685 189.412 151.685C189.412 151.685 189.647 153.318 191.887 153.552C194.126 153.785 194.597 152.969 194.834 151.335C195.069 149.701 197.426 136.401 197.073 131.85C196.719 127.3 194.244 122.983 193.891 119.366C193.537 115.75 195.423 109.216 195.423 109.216L185.168 108.516Z" fill="white" stroke="#263238" stroke-width="0.596" stroke-miterlimit="10" stroke-linecap="round" stroke-linejoin="round"/>
<path d="M178.337 88.2146C178.337 88.2146 176.686 99.0653 175.979 101.982C175.272 104.899 175.39 107.349 175.39 107.349C175.39 107.349 178.573 110.149 185.644 111.199C192.716 112.249 200.377 110.382 200.377 110.382C200.377 110.382 201.674 101.982 202.028 95.5648C202.381 89.1476 200.106 82.515 198.651 81.8061C198.651 81.8061 198.256 81.5642 197.549 82.1473C196.841 82.7305 191.891 84.714 186.823 86.4643C181.755 88.2146 178.337 88.2146 178.337 88.2146Z" fill="white" stroke="#263238" stroke-width="0.596" stroke-miterlimit="10" stroke-linecap="round" stroke-linejoin="round"/>
<path d="M196.609 84.131C196.609 84.131 200.381 90.7814 199.792 98.132C199.203 105.483 198.26 110.616 198.26 110.616" stroke="#263238" stroke-width="0.596" stroke-miterlimit="10" stroke-linecap="round" stroke-linejoin="round"/>
<path d="M189.441 109.715C189.191 110.194 188.983 110.689 188.828 111.2" stroke="#263238" stroke-width="0.596" stroke-miterlimit="10" stroke-linecap="round" stroke-linejoin="round"/>
<path d="M199.326 101.516C199.326 101.516 192.91 104.348 189.969 108.834" stroke="#263238" stroke-width="0.596" stroke-miterlimit="10" stroke-linecap="round" stroke-linejoin="round"/>
<path d="M180.938 92.7649C180.938 92.7649 182.116 94.7484 185.534 96.0318" stroke="#263238" stroke-width="0.596" stroke-miterlimit="10" stroke-linecap="round" stroke-linejoin="round"/>
<path d="M184.281 96.8085C184.762 96.9945 185.27 97.1402 185.771 97.1986" stroke="#263238" stroke-width="0.596" stroke-miterlimit="10" stroke-linecap="round" stroke-linejoin="round"/>
<path d="M181.641 95.3315C181.641 95.3315 182.587 96.0601 183.812 96.6137" stroke="#263238" stroke-width="0.596" stroke-miterlimit="10" stroke-linecap="round" stroke-linejoin="round"/>
<path d="M169.21 56.2351C169.21 56.2351 165.413 59.6261 164.765 62.1925C164.117 64.7588 164.395 66.6836 164.395 66.6836L168.006 67.1418C168.006 67.1418 169.766 72.4577 170.506 73.741C171.247 75.0244 175.321 78.0486 175.321 78.0486C175.321 78.0486 177.728 86.4808 178.006 87.4887C178.283 88.497 178.469 89.0467 178.469 89.0467C178.469 89.0467 186.431 89.4131 191.894 87.3969C197.357 85.3806 198.653 81.806 198.653 81.806C198.653 81.806 196.06 77.2235 194.394 75.3904C192.727 73.5574 190.412 69.9828 190.412 69.9828C190.412 69.9828 191.246 62.5589 185.69 54.6768C180.135 46.7946 175.598 50.9189 175.598 50.9189L169.21 56.2351Z" fill="#4EE39D" stroke="#263238" stroke-width="0.596" stroke-miterlimit="10" stroke-linecap="round" stroke-linejoin="round"/>
<path d="M148.008 50.3692C148.008 50.3692 151.341 49.5445 153.193 48.5362C155.045 47.5279 155.693 44.9616 155.785 44.3201C155.878 43.6786 154.489 44.3201 153.193 45.3284C151.896 46.3363 148.008 50.3692 148.008 50.3692Z" fill="#263238" stroke="#263238" stroke-width="0.596" stroke-miterlimit="10" stroke-linecap="round" stroke-linejoin="round"/>
<path d="M153.192 43.2204C153.192 43.2204 153.748 45.3285 154.303 45.8786C154.859 46.4286 155.877 46.3368 156.062 47.8034C156.247 49.27 155.692 50.6447 156.34 50.8279C156.988 51.0112 158.007 50.9198 158.007 50.9198C158.007 50.9198 161.895 54.5858 162.914 54.2193C163.933 53.8529 166.062 51.5612 166.062 51.5612C166.062 51.5612 167.729 53.9443 168.47 56.5106C169.21 59.0769 168.562 64.3928 170.506 64.9428C172.451 65.4929 174.488 59.8102 174.58 56.7857C174.673 53.7611 175.599 50.9198 175.599 50.9198C175.599 50.9198 172.729 48.1702 171.618 44.9624C170.507 41.7547 172.636 39.0051 169.488 34.789C166.34 30.5729 160.415 29.29 156.711 31.6726C153.007 34.0549 150.229 39.3708 153.192 43.2204Z" fill="white" stroke="#263238" stroke-width="0.596" stroke-miterlimit="10" stroke-linecap="round" stroke-linejoin="round"/>
<path d="M171.594 44.895C170.535 41.7156 172.612 38.9747 169.486 34.7882C166.338 30.5721 160.412 29.2891 156.709 31.6718C153.488 33.7444 150.969 38.035 152.316 41.6502C153.114 41.6309 153.722 41.3755 153.931 40.8373C154.394 39.6457 154.672 38.0878 154.672 38.0878C154.672 38.0878 157.449 34.0549 158.56 34.4217C159.671 34.7882 159.857 38.6378 161.245 39.0043C162.634 39.3707 165.504 39.0961 166.245 38.546C166.986 37.9959 167.264 39.7376 168.375 41.6624C169.175 43.0486 170.456 45.0053 171.594 44.895Z" fill="#263238" stroke="#263238" stroke-width="0.596" stroke-miterlimit="10" stroke-linecap="round" stroke-linejoin="round"/>
<path d="M165.234 39.9208C165.234 39.9208 165.697 36.5298 167.179 36.5298C168.66 36.5298 169.679 38.6378 169.216 40.3791C168.753 42.1207 166.994 41.7538 166.994 41.7538" fill="white"/>
<path d="M165.234 39.9208C165.234 39.9208 165.697 36.5298 167.179 36.5298C168.66 36.5298 169.679 38.6378 169.216 40.3791C168.753 42.1207 166.994 41.7538 166.994 41.7538" stroke="#263238" stroke-width="0.596" stroke-miterlimit="10" stroke-linecap="round" stroke-linejoin="round"/>
<path d="M159.952 38.546C159.952 38.546 160.415 40.6541 156.804 44.2287C153.192 47.8033 148.008 50.3692 148.008 50.3692L153.193 43.2204C153.193 43.2204 155.415 40.379 159.952 38.546Z" fill="#4EE39D" stroke="#263238" stroke-width="0.596" stroke-miterlimit="10" stroke-linecap="round" stroke-linejoin="round"/>
<path d="M159.956 38.546C159.956 38.546 165.974 35.5215 170.418 36.0715L168.566 33.6884C168.566 33.6884 159.03 32.9552 151.438 39.9208L153.196 43.2204C153.196 43.2204 156.437 39.9208 159.956 38.546Z" fill="#4EE39D" stroke="#263238" stroke-width="0.596" stroke-miterlimit="10" stroke-linecap="round" stroke-linejoin="round"/>
<path d="M158.302 45.3741C158.623 45.8344 158.684 46.3438 158.438 46.5113C158.192 46.6792 157.733 46.442 157.412 45.9817C157.091 45.5215 157.03 45.012 157.276 44.8446C157.522 44.6767 157.981 44.9139 158.302 45.3741Z" fill="#263238"/>
<path d="M159.398 51.469C159.398 51.469 161.25 50.4607 161.621 48.3527" stroke="#263238" stroke-width="0.596" stroke-miterlimit="10" stroke-linecap="round" stroke-linejoin="round"/>
<path d="M166.062 51.5608L168.007 48.9027L167.914 54.8604L166.062 51.5608Z" fill="#263238" stroke="#263238" stroke-width="0.596" stroke-miterlimit="10" stroke-linecap="round" stroke-linejoin="round"/>
<path d="M166.522 104.72L154.578 156.137" stroke="#263238" stroke-width="1.192" stroke-miterlimit="10" stroke-linecap="round" stroke-linejoin="round"/>
<path d="M155.823 157.288C156.857 156.428 156.264 154.763 154.913 154.759C152.791 154.753 149.236 154.734 148.468 154.67C147.357 154.578 146.431 155.953 146.986 157.053C147.542 158.153 151.153 159.069 153.745 158.337C154.609 158.092 155.308 157.716 155.823 157.288Z" fill="white" stroke="#263238" stroke-width="0.596" stroke-miterlimit="10" stroke-linecap="round" stroke-linejoin="round"/>
<path d="M153.532 158.333C153.532 157.263 152.655 156.396 151.574 156.396C150.493 156.396 149.617 157.263 149.617 158.333C149.617 159.403 150.493 160.271 151.574 160.271C152.655 160.271 153.532 159.403 153.532 158.333Z" fill="white" stroke="#263238" stroke-width="0.596" stroke-miterlimit="10" stroke-linecap="round" stroke-linejoin="round"/>
<path d="M163.203 109.059C163.203 109.059 163.279 110.429 163.436 110.999C163.593 111.569 164.116 113.33 164.169 114.004C164.221 114.678 165.163 113.901 164.954 112.813C164.744 111.725 164.535 110.119 164.535 110.119C164.535 110.119 165.32 108.875 165.006 107.269" fill="white"/>
<path d="M163.203 109.059C163.203 109.059 163.279 110.429 163.436 110.999C163.593 111.569 164.116 113.33 164.169 114.004C164.221 114.678 165.163 113.901 164.954 112.813C164.744 111.725 164.535 110.119 164.535 110.119C164.535 110.119 165.32 108.875 165.006 107.269" stroke="#263238" stroke-width="0.596" stroke-miterlimit="10" stroke-linecap="round" stroke-linejoin="round"/>
<path d="M166.206 107.995C165.962 108.153 165.851 108.451 165.879 108.739C165.939 109.345 166.073 110.453 166.265 110.377C166.526 110.274 167.102 109.756 166.788 108.771C166.563 108.068 166.446 107.841 166.206 107.995Z" fill="white" stroke="#263238" stroke-width="0.596" stroke-miterlimit="10" stroke-linecap="round" stroke-linejoin="round"/>
<path d="M165.949 109.083C165.704 109.241 165.593 109.539 165.622 109.827C165.681 110.433 165.816 111.541 166.006 111.465C166.268 111.362 166.844 110.844 166.53 109.859C166.306 109.156 166.188 108.929 165.949 109.083Z" fill="white" stroke="#263238" stroke-width="0.596" stroke-miterlimit="10" stroke-linecap="round" stroke-linejoin="round"/>
<path d="M165.527 110.482C165.282 110.639 165.172 110.937 165.2 111.225C165.259 111.832 165.394 112.94 165.584 112.864C165.846 112.761 166.422 112.242 166.108 111.258C165.884 110.555 165.766 110.328 165.527 110.482Z" fill="white" stroke="#263238" stroke-width="0.596" stroke-miterlimit="10" stroke-linecap="round" stroke-linejoin="round"/>
<path d="M175.874 54.9518L176.337 77.7735L166.708 100.595C166.708 100.595 165.411 101.511 165.319 102.336C165.226 103.161 164.856 106.002 164.486 106.736C164.116 107.469 162.912 107.927 164.301 107.927C165.69 107.927 166.615 106.919 166.615 106.919C166.615 106.919 166.43 110.219 167.078 110.31C167.726 110.402 168.652 107.927 168.652 107.927C168.652 107.927 170.134 107.102 170.319 105.727C170.504 104.353 170.041 100.962 170.041 100.503C170.041 100.045 182.911 83.4558 183.096 82.2646C183.281 81.0731 183.189 80.2484 183.189 79.9734C183.189 79.6983 184.3 59.1683 184.392 57.8849C184.485 56.6016 184.3 54.8604 184.3 54.8604" fill="#4EE39D"/>
<path d="M175.874 54.9518L176.337 77.7735L166.708 100.595C166.708 100.595 165.411 101.511 165.319 102.336C165.226 103.161 164.856 106.002 164.486 106.736C164.116 107.469 162.912 107.927 164.301 107.927C165.69 107.927 166.615 106.919 166.615 106.919C166.615 106.919 166.43 110.219 167.078 110.31C167.726 110.402 168.652 107.927 168.652 107.927C168.652 107.927 170.134 107.102 170.319 105.727C170.504 104.353 170.041 100.962 170.041 100.503C170.041 100.045 182.911 83.4558 183.096 82.2646C183.281 81.0731 183.189 80.2484 183.189 79.9734C183.189 79.6983 184.3 59.1683 184.392 57.8849C184.485 56.6016 184.3 54.8604 184.3 54.8604" stroke="#263238" stroke-width="0.596" stroke-miterlimit="10" stroke-linecap="round" stroke-linejoin="round"/>
<path d="M183.189 79.973C183.189 79.7358 184.014 64.4518 184.301 59.4142C180.059 56.3092 177.233 58.4733 175.976 59.9473L176.337 77.7736L166.708 100.595C166.708 100.595 165.412 101.511 165.319 102.337C165.226 103.161 164.856 106.003 164.486 106.736C164.116 107.469 162.912 107.927 164.301 107.927C165.69 107.927 166.615 106.919 166.615 106.919C166.615 106.919 166.43 110.219 167.078 110.31C167.726 110.402 168.652 107.927 168.652 107.927C168.652 107.927 170.134 107.102 170.319 105.728C170.504 104.353 170.041 100.962 170.041 100.503C170.041 100.045 182.911 83.4558 183.096 82.2647C183.281 81.0732 183.189 80.2481 183.189 79.973Z" fill="white" stroke="#263238" stroke-width="0.596" stroke-miterlimit="10" stroke-linecap="round" stroke-linejoin="round"/>
<path d="M167.703 98.235L166.708 100.595C166.708 100.595 165.412 101.511 165.319 102.336C165.226 103.161 164.856 106.002 164.486 106.736C164.116 107.469 162.912 107.927 164.301 107.927C165.69 107.927 166.615 106.919 166.615 106.919C166.615 106.919 166.43 110.219 167.078 110.31C167.726 110.402 168.652 107.927 168.652 107.927C168.652 107.927 170.134 107.102 170.319 105.727C170.504 104.353 170.041 100.962 170.041 100.503C170.041 100.445 170.247 100.129 170.607 99.6192L167.703 98.235Z" fill="white" stroke="#263238" stroke-width="0.596" stroke-miterlimit="10" stroke-linecap="round" stroke-linejoin="round"/>
<path d="M188.726 150.063C188.726 150.063 188.006 151.805 187.686 152.359C187.366 152.914 186.246 154.656 182.327 156.398C178.407 158.14 177.767 158.06 178.247 159.248C178.727 160.436 185.766 160.515 190.086 160.436C194.406 160.356 196.085 159.96 196.005 158.694C195.925 157.427 195.285 154.338 195.285 154.338C195.285 154.338 196.325 152.438 195.765 152.121C195.205 151.804 191.526 152.28 191.526 152.28C191.526 152.28 190.486 148.162 188.726 150.063Z" fill="white" stroke="#263238" stroke-width="0.596" stroke-miterlimit="10" stroke-linecap="round" stroke-linejoin="round"/>
<path d="M190.081 154.893L191.521 152.28C191.521 152.28 190.48 148.162 188.721 150.063C188.721 150.063 188.015 151.771 187.691 152.341C188.515 152.062 186.961 153.626 186.961 153.626C186.961 153.626 188.401 153.547 189.041 154.101C189.176 154.218 189.301 154.321 189.413 154.411C189.832 154.745 190.081 154.893 190.081 154.893Z" fill="white" stroke="#263238" stroke-width="0.596" stroke-miterlimit="10" stroke-linecap="round" stroke-linejoin="round"/>
<path d="M196.011 158.694C196.002 158.545 195.984 158.37 195.962 158.179C194.864 158.466 192.827 158.859 189.372 159.09C184.643 159.406 179.866 158.813 178.135 158.562C178.088 158.745 178.137 158.959 178.254 159.248C178.734 160.436 185.773 160.515 190.093 160.436C194.411 160.357 196.091 159.961 196.011 158.694Z" fill="white" stroke="#263238" stroke-width="0.596" stroke-miterlimit="10" stroke-linecap="round" stroke-linejoin="round"/>
<path d="M189.367 159.09C189.367 159.09 191.927 155.447 195.287 154.339L189.367 159.09Z" fill="white"/>
<path d="M189.367 159.09C189.367 159.09 191.927 155.447 195.287 154.339" stroke="#263238" stroke-width="0.596" stroke-miterlimit="10" stroke-linecap="round" stroke-linejoin="round"/>
<path d="M107.172 173.035C107.172 174.131 104.318 175.017 100.795 175.017C99.7917 175.017 98.8404 174.946 97.9965 174.82C97.3437 174.718 96.7546 174.584 96.253 174.426C95.1146 174.072 94.4141 173.579 94.4141 173.035C94.4141 172.492 95.1146 171.999 96.253 171.645C96.7546 171.487 97.3437 171.353 97.9965 171.25C98.8404 171.124 99.7917 171.053 100.795 171.053C104.318 171.053 107.172 171.94 107.172 173.035Z" fill="white" stroke="#263238" stroke-width="0.596" stroke-miterlimit="10" stroke-linecap="round" stroke-linejoin="round"/>
<path d="M98.0013 1.17212V174.82C97.3485 174.718 96.7594 174.584 96.2578 174.426V1.17212H98.0013Z" fill="white" stroke="#263238" stroke-width="0.596" stroke-miterlimit="10" stroke-linecap="round" stroke-linejoin="round"/>
<path d="M98.0001 0.0369106C98.0001 0.0369106 95.0971 -0.825224 92.7749 5.78381C90.4527 12.3929 91.9039 13.8299 87.8399 21.8755C83.7758 29.9216 81.1634 27.6224 78.5506 32.2204C75.9378 36.8183 76.2284 44.0018 76.2284 44.0018L77.6797 61.5302C77.6797 61.5302 78.2604 52.0475 82.6147 47.7372C86.9689 43.4269 90.4523 46.8751 92.7745 41.1282C95.0967 35.3813 95.5377 23.7692 98.1505 22.3326L98.0001 0.0369106Z" fill="#4EE39D" stroke="#263238" stroke-width="0.596" stroke-miterlimit="10" stroke-linecap="round" stroke-linejoin="round"/>
</g>
<defs>
<clipPath id="clip0_4084_30223">
<rect width="298" height="196" fill="white"/>
</clipPath>
</defs>
</svg>
