<svg width="40" height="40" viewBox="0 0 40 40" fill="none" xmlns="http://www.w3.org/2000/svg">
<mask id="mask0_6092_32171" style="mask-type:alpha" maskUnits="userSpaceOnUse" x="0" y="0" width="40" height="40">
<rect y="40" width="40" height="40" transform="rotate(-90 0 40)" fill="#D9D9D9"/>
</mask>
<g mask="url(#mask0_6092_32171)">
<path d="M20.0007 24.0833L32.2507 11.8333C32.6673 11.4167 33.1535 11.2153 33.709 11.2292C34.2646 11.2431 34.7507 11.4583 35.1673 11.875C35.584 12.2917 35.7923 12.7778 35.7923 13.3333C35.7923 13.8889 35.584 14.375 35.1673 14.7917L22.3757 27.625C22.0423 27.9583 21.6673 28.2083 21.2507 28.375C20.834 28.5417 20.4173 28.625 20.0007 28.625C19.584 28.625 19.1673 28.5417 18.7507 28.375C18.334 28.2083 17.959 27.9583 17.6257 27.625L4.79234 14.7917C4.37567 14.375 4.17428 13.8819 4.18817 13.3125C4.20206 12.7431 4.41734 12.25 4.83401 11.8333C5.25067 11.4167 5.73678 11.2083 6.29234 11.2083C6.84789 11.2083 7.33401 11.4167 7.75067 11.8333L20.0007 24.0833Z" fill="#4EE39D"/>
</g>
</svg>
