<svg width="32" height="32" viewBox="0 0 32 32" fill="none" xmlns="http://www.w3.org/2000/svg">
<mask id="mask0_3776_28039" style="mask-type:alpha" maskUnits="userSpaceOnUse" x="0" y="0" width="32" height="32">
<rect width="32" height="32" fill="#D9D9D9"/>
</mask>
<g mask="url(#mask0_3776_28039)">
<path d="M12.7343 20.2L24.0343 8.9C24.3009 8.63333 24.612 8.5 24.9676 8.5C25.3232 8.5 25.6343 8.63333 25.9009 8.9C26.1676 9.16667 26.3009 9.48333 26.3009 9.85C26.3009 10.2167 26.1676 10.5333 25.9009 10.8L13.6676 23.0667C13.4009 23.3333 13.0898 23.4667 12.7343 23.4667C12.3787 23.4667 12.0676 23.3333 11.8009 23.0667L6.06759 17.3333C5.80093 17.0667 5.67315 16.75 5.68426 16.3833C5.69537 16.0167 5.83426 15.7 6.10093 15.4333C6.36759 15.1667 6.68426 15.0333 7.05093 15.0333C7.41759 15.0333 7.73426 15.1667 8.00093 15.4333L12.7343 20.2Z" fill="#585969"/>
</g>
</svg>
