<svg width="256" height="256" viewBox="0 0 256 256" fill="none" xmlns="http://www.w3.org/2000/svg">
<mask id="mask0_3454_41032" style="mask-type:alpha" maskUnits="userSpaceOnUse" x="0" y="0" width="256" height="256">
<rect width="256" height="256" fill="#D9D9D9"/>
</mask>
<g mask="url(#mask0_3454_41032)">
<path d="M112.142 150.608L87.2222 125.688C85.4515 123.917 83.2809 123.032 80.7102 123.032C78.1395 123.032 75.8631 124.006 73.8809 125.955C72.112 127.766 71.2275 129.956 71.2275 132.523C71.2275 135.088 72.1333 137.256 73.9449 139.027L105.713 171.061C107.546 172.873 109.684 173.779 112.126 173.779C114.569 173.779 116.717 172.873 118.572 171.061L181.54 108.029C183.531 106.081 184.526 103.832 184.526 101.283C184.526 98.7333 183.531 96.4685 181.54 94.488C179.591 92.7173 177.287 91.8765 174.628 91.9653C171.968 92.0542 169.737 92.984 167.934 94.7547L112.142 150.608ZM128.012 236.261C113.174 236.261 99.1706 233.428 86.0009 227.76C72.8329 222.092 61.3315 214.341 51.4969 204.507C41.6622 194.672 33.9111 183.173 28.2435 170.011C22.576 156.848 19.7422 142.847 19.7422 128.008C19.7422 112.993 22.576 98.9005 28.2435 85.7307C33.9111 72.5627 41.6586 61.1049 51.4862 51.3573C61.3137 41.608 72.8106 33.8907 85.9769 28.2053C99.1431 22.5182 113.148 19.6747 127.99 19.6747C143.009 19.6747 157.106 22.5165 170.281 28.2C183.454 33.8836 194.913 41.5965 204.657 51.3387C214.403 61.0809 222.117 72.5369 227.801 85.7067C233.486 98.8765 236.329 112.974 236.329 128C236.329 142.844 233.485 156.851 227.798 170.019C222.113 183.187 214.396 194.685 204.646 204.515C194.899 214.344 183.444 222.092 170.281 227.76C157.118 233.428 143.028 236.261 128.012 236.261ZM128.004 218.093C153.077 218.093 174.362 209.316 191.857 191.76C209.35 174.203 218.097 152.949 218.097 128C218.097 102.926 209.35 81.6418 191.857 64.1467C174.362 46.6533 153.067 37.9067 127.972 37.9067C103.054 37.9067 81.8142 46.6533 64.2515 64.1467C46.6906 81.6418 37.9102 102.937 37.9102 128.032C37.9102 152.949 46.688 174.189 64.2435 191.752C81.8009 209.313 103.054 218.093 128.004 218.093Z" fill="#4EE39D"/>
</g>
</svg>
