<svg width="64" height="64" viewBox="0 0 64 64" fill="none" xmlns="http://www.w3.org/2000/svg">
<mask id="mask0_3776_41238" style="mask-type:alpha" maskUnits="userSpaceOnUse" x="0" y="0" width="64" height="64">
<rect width="64" height="64" fill="#D9D9D9"/>
</mask>
<g mask="url(#mask0_3776_41238)">
<path d="M32 43.6459C35.2036 43.6459 37.948 42.499 40.2333 40.2052C42.5187 37.911 43.6613 35.1708 43.6613 31.9846C43.6613 28.781 42.5187 26.0366 40.2333 23.7512C37.948 21.4659 35.2036 20.3232 32 20.3232C28.7964 20.3232 26.052 21.4659 23.7667 23.7512C21.4813 26.0366 20.3387 28.781 20.3387 31.9846C20.3387 35.1708 21.4813 37.911 23.7667 40.2052C26.052 42.499 28.7964 43.6459 32 43.6459ZM33.0307 31.7746L37.528 35.9746C37.7604 36.1795 37.8878 36.4426 37.91 36.7639C37.9322 37.0852 37.8187 37.3621 37.5693 37.5946C37.364 37.7999 37.1118 37.9137 36.8127 37.9359C36.5136 37.9581 36.2478 37.8581 36.0153 37.6359L31.2053 33.1232C31 32.9179 30.846 32.7017 30.7433 32.4746C30.6411 32.247 30.59 31.9999 30.59 31.7332V25.0612C30.59 24.7128 30.7062 24.4223 30.9387 24.1899C31.1711 23.9575 31.4616 23.8412 31.81 23.8412C32.1589 23.8412 32.4496 23.9575 32.682 24.1899C32.9144 24.4223 33.0307 24.7128 33.0307 25.0612V31.7746ZM32 56.9892C31.7778 56.9892 31.5624 56.967 31.354 56.9226C31.1456 56.8781 30.9302 56.8115 30.708 56.7226C24.9404 54.6679 20.3804 51.0904 17.028 45.9899C13.676 40.889 12 35.3128 12 29.2612V16.9126C12 16.1024 12.236 15.3615 12.708 14.6899C13.1796 14.0179 13.776 13.535 14.4973 13.2412L30.6513 7.2359C31.1229 7.05813 31.5724 6.96924 32 6.96924C32.4276 6.96924 32.8771 7.05813 33.3487 7.2359L49.5027 13.2412C50.224 13.535 50.8204 14.0179 51.292 14.6899C51.764 15.3615 52 16.1024 52 16.9126V29.2612C52 35.3128 50.324 40.889 46.972 45.9899C43.6196 51.0904 39.0596 54.6679 33.292 56.7226C33.0698 56.8115 32.8544 56.8781 32.646 56.9226C32.4376 56.967 32.2222 56.9892 32 56.9892Z" fill="#4EE39D"/>
</g>
</svg>
