<svg width="64" height="64" viewBox="0 0 64 64" fill="none" xmlns="http://www.w3.org/2000/svg">
<mask id="mask0_3776_10495" style="mask-type:alpha" maskUnits="userSpaceOnUse" x="0" y="0" width="64" height="64">
<rect width="64" height="64" fill="#D9D9D9"/>
</mask>
<g mask="url(#mask0_3776_10495)">
<path d="M36.6013 60.4668C36.9569 60.5557 37.3346 60.6002 37.7346 60.6002C38.1346 60.6002 38.5124 60.5557 38.868 60.4668L58.668 54.4002C58.668 52.0002 57.9902 50.2113 56.6346 49.0335C55.2791 47.8557 53.3346 47.2668 50.8013 47.2668H39.1346C37.1346 47.2668 35.5902 47.1668 34.5013 46.9668C33.4124 46.7668 32.5124 46.5557 31.8013 46.3335L27.7346 44.9335C27.468 44.8446 27.2791 44.6779 27.168 44.4335C27.0569 44.189 27.0457 43.9335 27.1346 43.6668C27.2235 43.4002 27.3902 43.2113 27.6346 43.1002C27.8791 42.9891 28.1346 42.9779 28.4013 43.0668L32.3346 44.3335C33.4013 44.689 34.3791 44.9335 35.268 45.0668C36.1569 45.2002 37.1791 45.2668 38.3346 45.2668H43.2013C43.5569 45.2668 43.8457 45.1557 44.068 44.9335C44.2902 44.7113 44.4013 44.4224 44.4013 44.0668C44.4013 43.0446 44.0457 42.0335 43.3346 41.0335C42.6235 40.0335 41.6013 39.2891 40.268 38.8002L23.9346 32.6668C23.7124 32.5779 23.4791 32.5113 23.2346 32.4668C22.9902 32.4224 22.7569 32.4002 22.5346 32.4002H17.0013V54.8668L36.6013 60.4668ZM2.66797 54.6668C2.66797 55.7779 3.05686 56.7224 3.83464 57.5002C4.61241 58.2779 5.55686 58.6668 6.66797 58.6668H8.93464C10.0457 58.6668 10.9902 58.2779 11.768 57.5002C12.5457 56.7224 12.9346 55.7779 12.9346 54.6668V36.4002C12.9346 35.2891 12.5457 34.3446 11.768 33.5668C10.9902 32.7891 10.0457 32.4002 8.93464 32.4002H6.66797C5.55686 32.4002 4.61241 32.7891 3.83464 33.5668C3.05686 34.3446 2.66797 35.2891 2.66797 36.4002V54.6668ZM43.068 32.0002C42.5791 32.0002 42.0902 31.9002 41.6013 31.7002C41.1124 31.5002 40.668 31.2224 40.268 30.8668L32.1346 22.9335C30.8013 21.6446 29.6902 20.2113 28.8013 18.6335C27.9124 17.0557 27.468 15.3335 27.468 13.4668C27.468 11.2002 28.2569 9.27794 29.8346 7.70016C31.4124 6.12238 33.3346 5.3335 35.6013 5.3335C37.1124 5.3335 38.4902 5.72238 39.7346 6.50016C40.9791 7.27794 42.0902 8.24461 43.068 9.40016C44.0457 8.24461 45.1569 7.27794 46.4013 6.50016C47.6457 5.72238 49.0235 5.3335 50.5346 5.3335C52.8013 5.3335 54.7235 6.12238 56.3013 7.70016C57.8791 9.27794 58.668 11.2002 58.668 13.4668C58.668 15.3335 58.2235 17.0557 57.3346 18.6335C56.4457 20.2113 55.3346 21.6446 54.0013 22.9335L45.868 30.8668C45.468 31.2224 45.0235 31.5002 44.5346 31.7002C44.0457 31.9002 43.5569 32.0002 43.068 32.0002Z" fill="#4EE39D"/>
</g>
</svg>
