<svg width="28" height="28" viewBox="0 0 28 28" fill="none" xmlns="http://www.w3.org/2000/svg">
<mask id="mask0_3776_3478" style="mask-type:alpha" maskUnits="userSpaceOnUse" x="0" y="0" width="28" height="28">
<rect width="28" height="28" fill="#D9D9D9"/>
</mask>
<g mask="url(#mask0_3776_3478)">
<path d="M7.0026 16.3333H16.3359V14H7.0026V16.3333ZM7.0026 12.8333H21.0026V10.5H7.0026V12.8333ZM7.0026 9.33331H21.0026V6.99998H7.0026V9.33331ZM2.33594 25.6666V4.66665C2.33594 4.02498 2.56441 3.47567 3.02135 3.01873C3.4783 2.56179 4.0276 2.33331 4.66927 2.33331H23.3359C23.9776 2.33331 24.5269 2.56179 24.9839 3.01873C25.4408 3.47567 25.6693 4.02498 25.6693 4.66665V18.6666C25.6693 19.3083 25.4408 19.8576 24.9839 20.3146C24.5269 20.7715 23.9776 21 23.3359 21H7.0026L2.33594 25.6666ZM6.01094 18.6666H23.3359V4.66665H4.66927V19.9791L6.01094 18.6666Z" fill="#4EE39D"/>
</g>
</svg>
