<svg width="28" height="28" viewBox="0 0 28 28" fill="none" xmlns="http://www.w3.org/2000/svg">
<mask id="mask0_6544_3740" style="mask-type:alpha" maskUnits="userSpaceOnUse" x="0" y="0" width="28" height="28">
<rect width="28" height="28" fill="#D9D9D9"/>
</mask>
<g mask="url(#mask0_6544_3740)">
<path d="M13.9997 19.8335C14.3302 19.8335 14.6073 19.7217 14.8309 19.4981C15.0545 19.2745 15.1663 18.9974 15.1663 18.6668V14.0002C15.1663 13.6696 15.0545 13.3925 14.8309 13.1689C14.6073 12.9453 14.3302 12.8335 13.9997 12.8335C13.6691 12.8335 13.392 12.9453 13.1684 13.1689C12.9448 13.3925 12.833 13.6696 12.833 14.0002V18.6668C12.833 18.9974 12.9448 19.2745 13.1684 19.4981C13.392 19.7217 13.6691 19.8335 13.9997 19.8335ZM13.9997 10.5002C14.3302 10.5002 14.6073 10.3884 14.8309 10.1647C15.0545 9.94113 15.1663 9.66405 15.1663 9.3335C15.1663 9.00294 15.0545 8.72586 14.8309 8.50225C14.6073 8.27863 14.3302 8.16683 13.9997 8.16683C13.6691 8.16683 13.392 8.27863 13.1684 8.50225C12.9448 8.72586 12.833 9.00294 12.833 9.3335C12.833 9.66405 12.9448 9.94113 13.1684 10.1647C13.392 10.3884 13.6691 10.5002 13.9997 10.5002ZM13.9997 25.6668C12.3858 25.6668 10.8691 25.3606 9.44967 24.7481C8.03023 24.1356 6.79551 23.3043 5.74551 22.2543C4.69551 21.2043 3.86426 19.9696 3.25176 18.5502C2.63926 17.1307 2.33301 15.6141 2.33301 14.0002C2.33301 12.3863 2.63926 10.8696 3.25176 9.45016C3.86426 8.03072 4.69551 6.796 5.74551 5.746C6.79551 4.696 8.03023 3.86475 9.44967 3.25225C10.8691 2.63975 12.3858 2.3335 13.9997 2.3335C15.6136 2.3335 17.1302 2.63975 18.5497 3.25225C19.9691 3.86475 21.2038 4.696 22.2538 5.746C23.3038 6.796 24.1351 8.03072 24.7476 9.45016C25.3601 10.8696 25.6663 12.3863 25.6663 14.0002C25.6663 15.6141 25.3601 17.1307 24.7476 18.5502C24.1351 19.9696 23.3038 21.2043 22.2538 22.2543C21.2038 23.3043 19.9691 24.1356 18.5497 24.7481C17.1302 25.3606 15.6136 25.6668 13.9997 25.6668ZM13.9997 23.3335C16.6052 23.3335 18.8122 22.4293 20.6205 20.621C22.4288 18.8127 23.333 16.6057 23.333 14.0002C23.333 11.3946 22.4288 9.18766 20.6205 7.37933C18.8122 5.571 16.6052 4.66683 13.9997 4.66683C11.3941 4.66683 9.18717 5.571 7.37884 7.37933C5.57051 9.18766 4.66634 11.3946 4.66634 14.0002C4.66634 16.6057 5.57051 18.8127 7.37884 20.621C9.18717 22.4293 11.3941 23.3335 13.9997 23.3335Z" fill="#4EE39D"/>
</g>
</svg>
