<svg width="64" height="64" viewBox="0 0 64 64" fill="none" xmlns="http://www.w3.org/2000/svg">
<rect x="63" y="63" width="62" height="62" rx="31" transform="rotate(-180 63 63)" stroke="#4EE39D" stroke-width="2"/>
<mask id="mask0_6014_52752" style="mask-type:alpha" maskUnits="userSpaceOnUse" x="12" y="12" width="40" height="40">
<rect x="52" y="52" width="40" height="40" transform="rotate(-180 52 52)" fill="#D9D9D9"/>
</mask>
<g mask="url(#mask0_6014_52752)">
<path d="M37.3003 31.9991L24.4416 19.1399C24.1957 18.8944 24.0743 18.6006 24.0774 18.2587C24.0807 17.9167 24.2053 17.623 24.4511 17.3774C24.6967 17.1316 24.9905 17.0087 25.3324 17.0087C25.6743 17.0087 25.9681 17.1316 26.2136 17.3774L38.9511 30.1049C39.2203 30.3741 39.4168 30.6742 39.5407 31.0053C39.6646 31.3367 39.7266 31.668 39.7266 31.9991C39.7266 32.3302 39.6646 32.6614 39.5407 32.9928C39.4168 33.3239 39.2203 33.6241 38.9511 33.8932L26.2136 46.6303C25.9681 46.8762 25.6727 46.9974 25.3274 46.9941C24.9824 46.991 24.6871 46.8666 24.4416 46.6207C24.1957 46.3752 24.0728 46.0814 24.0728 45.7395C24.0728 45.3975 24.1957 45.1038 24.4416 44.8582L37.3003 31.9991Z" fill="#4EE39D"/>
</g>
</svg>
