<svg width="64" height="64" viewBox="0 0 64 64" fill="none" xmlns="http://www.w3.org/2000/svg">
<rect x="1" y="1" width="62" height="62" rx="31" stroke="#4EE39D" stroke-width="2"/>
<mask id="mask0_6014_52748" style="mask-type:alpha" maskUnits="userSpaceOnUse" x="12" y="12" width="40" height="40">
<rect x="12" y="12" width="40" height="40" fill="#D9D9D9"/>
</mask>
<g mask="url(#mask0_6014_52748)">
<path d="M26.6997 32.0009L39.5584 44.8601C39.8043 45.1056 39.9257 45.3994 39.9226 45.7413C39.9193 46.0833 39.7947 46.377 39.5489 46.6226C39.3033 46.8684 39.0095 46.9913 38.6676 46.9913C38.3257 46.9913 38.0319 46.8684 37.7864 46.6226L25.0489 33.8951C24.7797 33.6259 24.5832 33.3258 24.4593 32.9947C24.3354 32.6633 24.2734 32.332 24.2734 32.0009C24.2734 31.6698 24.3354 31.3386 24.4593 31.0072C24.5832 30.6761 24.7797 30.3759 25.0489 30.1068L37.7864 17.3697C38.0319 17.1238 38.3273 17.0026 38.6726 17.0059C39.0176 17.009 39.3129 17.1334 39.5584 17.3793C39.8043 17.6248 39.9272 17.9186 39.9272 18.2605C39.9272 18.6025 39.8043 18.8962 39.5584 19.1418L26.6997 32.0009Z" fill="#4EE39D"/>
</g>
</svg>
