<svg width="28" height="28" viewBox="0 0 28 28" fill="none" xmlns="http://www.w3.org/2000/svg">
<mask id="mask0_6536_44348" style="mask-type:alpha" maskUnits="userSpaceOnUse" x="0" y="0" width="28" height="28">
<rect width="28" height="28" fill="#D9D9D9"/>
</mask>
<g mask="url(#mask0_6536_44348)">
<path d="M14.0295 24.5C13.6989 24.5 13.4219 24.3882 13.1982 24.1646C12.9746 23.941 12.8628 23.6639 12.8628 23.3333V21.9917C11.9878 21.7972 11.2198 21.4569 10.5587 20.9708C9.89755 20.4847 9.36283 19.8042 8.9545 18.9292C8.81839 18.6569 8.81352 18.3701 8.93991 18.0687C9.0663 17.7674 9.29477 17.5486 9.62533 17.4125C9.89755 17.2958 10.1795 17.3007 10.4712 17.4271C10.7628 17.5535 10.9864 17.7625 11.142 18.0542C11.4726 18.6375 11.8906 19.0799 12.3962 19.3812C12.9017 19.6826 13.5239 19.8333 14.2628 19.8333C15.0601 19.8333 15.7357 19.6535 16.2899 19.2937C16.8441 18.934 17.1212 18.375 17.1212 17.6167C17.1212 16.9361 16.9073 16.3965 16.4795 15.9979C16.0517 15.5993 15.0601 15.1472 13.5045 14.6417C11.8323 14.1167 10.6851 13.4896 10.0628 12.7604C9.44061 12.0312 9.1295 11.1417 9.1295 10.0917C9.1295 8.82778 9.53783 7.84583 10.3545 7.14583C11.1712 6.44583 12.0073 6.04722 12.8628 5.95V4.66667C12.8628 4.33611 12.9746 4.05903 13.1982 3.83542C13.4219 3.61181 13.6989 3.5 14.0295 3.5C14.3601 3.5 14.6371 3.61181 14.8607 3.83542C15.0844 4.05903 15.1962 4.33611 15.1962 4.66667V5.95C15.9351 6.06667 16.5767 6.30486 17.1212 6.66458C17.6656 7.02431 18.1128 7.46667 18.4628 7.99167C18.6378 8.24444 18.6719 8.52639 18.5649 8.8375C18.458 9.14861 18.2392 9.37222 17.9087 9.50833C17.6364 9.625 17.3545 9.62986 17.0628 9.52292C16.7712 9.41597 16.4989 9.22639 16.2462 8.95417C15.9934 8.68194 15.6969 8.47292 15.3566 8.32708C15.0163 8.18125 14.5934 8.10833 14.0878 8.10833C13.2323 8.10833 12.5809 8.29792 12.1337 8.67708C11.6864 9.05625 11.4628 9.52778 11.4628 10.0917C11.4628 10.7333 11.7545 11.2389 12.3378 11.6083C12.9212 11.9778 13.9323 12.3667 15.3712 12.775C16.7128 13.1639 17.7288 13.7812 18.4191 14.6271C19.1094 15.4729 19.4545 16.45 19.4545 17.5583C19.4545 18.9389 19.0462 19.9889 18.2295 20.7083C17.4128 21.4278 16.4017 21.875 15.1962 22.05V23.3333C15.1962 23.6639 15.0844 23.941 14.8607 24.1646C14.6371 24.3882 14.3601 24.5 14.0295 24.5Z" fill="#4EE39D"/>
</g>
</svg>
