<svg width="64" height="64" viewBox="0 0 64 64" fill="none" xmlns="http://www.w3.org/2000/svg">
<path fill-rule="evenodd" clip-rule="evenodd" d="M0 32C0 49.6731 14.3269 64 32 64C49.6731 64 64 49.6731 64 32C64 14.3269 49.6731 0 32 0C14.3269 0 0 14.3269 0 32ZM26.143 46.6666L26.6875 38.5097L26.687 38.5093L41.5256 25.1186C42.1768 24.5407 41.3834 24.2588 40.5189 24.7831L22.2061 36.3364L14.2959 33.8675C12.5877 33.3445 12.5754 32.1706 14.6794 31.3267L45.5034 19.4411C46.9113 18.802 48.2701 19.7793 47.7326 21.934L42.4833 46.6708C42.1167 48.4286 41.0546 48.849 39.583 48.037L31.5866 42.1292L27.743 45.8666C27.7309 45.8784 27.7188 45.8902 27.7068 45.9018C27.277 46.3204 26.9213 46.6666 26.143 46.6666Z" fill="url(#paint0_linear_6001_48222)"/>
<defs>
<linearGradient id="paint0_linear_6001_48222" x1="0" y1="32" x2="64" y2="32" gradientUnits="userSpaceOnUse">
<stop stop-color="#4EE39D"/>
<stop offset="1" stop-color="#0DC97A"/>
</linearGradient>
</defs>
</svg>
