<svg width="20" height="23" viewBox="0 0 20 23" fill="none" xmlns="http://www.w3.org/2000/svg">
<path d="M6.72221 1.90833V0.391663H13.2736V1.90833H6.72221ZM9.23958 14.6049H10.7563V8.05345H9.23958V14.6049ZM9.99792 22.6167C8.71167 22.6167 7.51175 22.3757 6.39817 21.8939C5.28478 21.4123 4.3111 20.7546 3.47712 19.9208C2.64335 19.0868 1.98564 18.1131 1.504 16.9997C1.02217 15.8862 0.78125 14.6862 0.78125 13.4C0.78125 12.1137 1.02217 10.9138 1.504 9.80025C1.98564 8.68686 2.64335 7.71318 3.47712 6.8792C4.3111 6.04543 5.28478 5.38772 6.39817 4.90608C7.51175 4.42425 8.70739 4.18333 9.98508 4.18333C11.081 4.18333 12.1367 4.3767 13.1523 4.76345C14.1679 5.15001 15.1005 5.68357 15.9503 6.36412L17.2873 5.05629L18.3416 6.11066L17.0338 7.44766C17.7143 8.27794 18.2479 9.20311 18.6345 10.2232C19.0212 11.2432 19.2146 12.3035 19.2146 13.4041C19.2146 14.6876 18.9737 15.8862 18.4918 16.9997C18.0102 18.1131 17.3525 19.0868 16.5187 19.9208C15.6847 20.7546 14.7111 21.4123 13.5977 21.8939C12.4841 22.3757 11.2842 22.6167 9.99792 22.6167Z" fill="white"/>
</svg>
