<svg width="28" height="28" viewBox="0 0 28 28" fill="none" xmlns="http://www.w3.org/2000/svg">
<mask id="mask0_4084_12313" style="mask-type:alpha" maskUnits="userSpaceOnUse" x="0" y="0" width="28" height="28">
<rect width="28" height="28" fill="#D9D9D9"/>
</mask>
<g mask="url(#mask0_4084_12313)">
<path d="M5.2474 23.3335C5.08212 23.3335 4.94358 23.2775 4.83177 23.1655C4.71997 23.0535 4.66406 22.9147 4.66406 22.7493C4.66406 22.5838 4.71997 22.4453 4.83177 22.3339C4.94358 22.2225 5.08212 22.1668 5.2474 22.1668H22.7474C22.9127 22.1668 23.0512 22.2228 23.163 22.3348C23.2748 22.4468 23.3307 22.5855 23.3307 22.751C23.3307 22.9165 23.2748 23.0549 23.163 23.1663C23.0512 23.2778 22.9127 23.3335 22.7474 23.3335H5.2474ZM21.2576 17.711L6.01915 13.2911C5.60342 13.1805 5.27365 12.9546 5.02981 12.6136C4.78598 12.2725 4.66406 11.8919 4.66406 11.4717V6.82514C4.66406 6.58578 4.75983 6.39435 4.95135 6.25085C5.14269 6.10715 5.35658 6.06787 5.59302 6.13301L6.00106 6.25055C6.11928 6.28964 6.21767 6.34622 6.29623 6.4203C6.37479 6.49419 6.43574 6.59103 6.4791 6.71081L7.67494 10.2266L12.4405 11.6108L11.6238 3.41497C11.5803 3.08889 11.6868 2.82153 11.9435 2.61289C12.2 2.40425 12.486 2.34951 12.8016 2.44868L13.1991 2.56039C13.3379 2.59753 13.4598 2.66928 13.5646 2.77564C13.6692 2.8818 13.7462 3.00362 13.7956 3.1411L17.1384 12.9793L22.1101 14.4309C22.4609 14.5437 22.7521 14.7482 22.9836 15.0443C23.215 15.3404 23.3307 15.679 23.3307 16.0599C23.3307 16.5534 23.1284 16.9942 22.7238 17.3823C22.3191 17.7704 21.8304 17.88 21.2576 17.711Z" fill="#4EE39D"/>
</g>
</svg>
