<svg width="28" height="28" viewBox="0 0 28 28" fill="none" xmlns="http://www.w3.org/2000/svg">
<mask id="mask0_6007_50706" style="mask-type:alpha" maskUnits="userSpaceOnUse" x="0" y="0" width="28" height="28">
<rect width="28" height="28" fill="#D9D9D9"/>
</mask>
<g mask="url(#mask0_6007_50706)">
<path d="M13.9993 18.6667C15.4577 18.6667 16.6973 18.1563 17.7181 17.1354C18.7389 16.1146 19.2493 14.875 19.2493 13.4167C19.2493 11.9584 18.7389 10.7188 17.7181 9.69794C16.6973 8.6771 15.4577 8.16669 13.9993 8.16669C12.541 8.16669 11.3014 8.6771 10.2806 9.69794C9.25977 10.7188 8.74935 11.9584 8.74935 13.4167C8.74935 14.875 9.25977 16.1146 10.2806 17.1354C11.3014 18.1563 12.541 18.6667 13.9993 18.6667ZM13.9993 16.5667C13.1243 16.5667 12.3806 16.2604 11.7681 15.6479C11.1556 15.0354 10.8493 14.2917 10.8493 13.4167C10.8493 12.5417 11.1556 11.7979 11.7681 11.1854C12.3806 10.5729 13.1243 10.2667 13.9993 10.2667C14.8743 10.2667 15.6181 10.5729 16.2306 11.1854C16.8431 11.7979 17.1493 12.5417 17.1493 13.4167C17.1493 14.2917 16.8431 15.0354 16.2306 15.6479C15.6181 16.2604 14.8743 16.5667 13.9993 16.5667ZM13.9993 22.1667C11.1605 22.1667 8.57435 21.3743 6.24102 19.7896C3.90768 18.2049 2.21602 16.0806 1.16602 13.4167C2.21602 10.7528 3.90768 8.62849 6.24102 7.04377C8.57435 5.45905 11.1605 4.66669 13.9993 4.66669C16.8382 4.66669 19.4243 5.45905 21.7577 7.04377C24.091 8.62849 25.7827 10.7528 26.8327 13.4167C25.7827 16.0806 24.091 18.2049 21.7577 19.7896C19.4243 21.3743 16.8382 22.1667 13.9993 22.1667Z" fill="white"/>
</g>
</svg>
