<svg width="64" height="64" viewBox="0 0 64 64" fill="none" xmlns="http://www.w3.org/2000/svg">
<path fill-rule="evenodd" clip-rule="evenodd" d="M0 32C0 49.6731 14.3269 64 32 64C49.6731 64 64 49.6731 64 32C64 14.3269 49.6731 0 32 0C14.3269 0 0 14.3269 0 32ZM52.0912 30.7754C52.087 41.2644 43.5543 49.7991 33.0631 49.8034H33.0552C29.8706 49.8023 26.7414 49.0033 23.9621 47.4873L13.875 50.1334L16.5745 40.2732C14.9093 37.3874 14.0331 34.114 14.0345 30.7604C14.0387 20.269 22.5748 11.7334 33.0629 11.7334C38.1532 11.7356 42.9308 13.7172 46.5233 17.3139C50.1158 20.9105 52.0932 25.6912 52.0912 30.7754Z" fill="url(#paint0_linear_6001_48224)"/>
<path fill-rule="evenodd" clip-rule="evenodd" d="M18.4464 45.6108L24.4323 44.0406L25.0098 44.3833C27.438 45.8243 30.2215 46.5868 33.0595 46.5879H33.0659C41.7829 46.5879 48.8777 39.4929 48.8811 30.7723C48.8828 26.5463 47.2393 22.5728 44.2533 19.5834C41.2673 16.5939 37.2964 14.9468 33.0721 14.9453C24.3483 14.9453 17.2535 22.0395 17.25 30.7595C17.2488 33.7479 18.0849 36.6582 19.6681 39.1762L20.0441 39.7746L18.4464 45.6108ZM41.9945 34.8705C42.3261 35.0308 42.55 35.139 42.6456 35.2986C42.7645 35.4968 42.7645 36.4488 42.3685 37.5596C41.9721 38.6701 40.0727 39.6838 39.1591 39.8202C38.34 39.9427 37.3035 39.9938 36.1645 39.6318C35.474 39.4127 34.5884 39.1202 33.4541 38.6303C28.9968 36.7056 25.9846 32.3856 25.4153 31.5691C25.3755 31.5119 25.3476 31.4719 25.332 31.4512L25.3282 31.446C25.0766 31.1103 23.3906 28.8609 23.3906 26.5328C23.3906 24.3428 24.4664 23.1948 24.9616 22.6664C24.9955 22.6302 25.0267 22.597 25.0547 22.5664C25.4905 22.0904 26.0056 21.9714 26.3225 21.9714C26.6395 21.9714 26.9568 21.9744 27.2338 21.9883C27.268 21.99 27.3035 21.9898 27.3403 21.9896C27.6173 21.9879 27.9628 21.9859 28.3035 22.8044C28.4346 23.1194 28.6264 23.5865 28.8288 24.079C29.2379 25.075 29.6899 26.1755 29.7694 26.3347C29.8883 26.5727 29.9675 26.8503 29.809 27.1677C29.7853 27.2153 29.7633 27.2602 29.7422 27.3031C29.6232 27.5462 29.5356 27.7249 29.3336 27.9608C29.2542 28.0535 29.1721 28.1535 29.09 28.2535C28.9264 28.4527 28.7628 28.6519 28.6204 28.7938C28.3824 29.0309 28.1346 29.2881 28.412 29.7641C28.6893 30.2401 29.6435 31.797 31.0569 33.0577C32.5763 34.413 33.8968 34.9858 34.5662 35.2761C34.6969 35.3328 34.8028 35.3787 34.8804 35.4176C35.3557 35.6557 35.6331 35.6158 35.9104 35.2986C36.1878 34.9813 37.099 33.9102 37.4159 33.4343C37.7328 32.9585 38.0499 33.0378 38.4856 33.1964C38.9215 33.3552 41.259 34.5053 41.7345 34.7432C41.8273 34.7897 41.914 34.8316 41.9945 34.8705Z" fill="url(#paint1_linear_6001_48224)"/>
<defs>
<linearGradient id="paint0_linear_6001_48224" x1="0" y1="32" x2="64" y2="32" gradientUnits="userSpaceOnUse">
<stop stop-color="#4EE39D"/>
<stop offset="1" stop-color="#0DC97A"/>
</linearGradient>
<linearGradient id="paint1_linear_6001_48224" x1="17.25" y1="30.7666" x2="48.8811" y2="30.7666" gradientUnits="userSpaceOnUse">
<stop stop-color="#4EE39D"/>
<stop offset="1" stop-color="#0DC97A"/>
</linearGradient>
</defs>
</svg>
