<svg width="496" height="496" viewBox="0 0 496 496" fill="none" xmlns="http://www.w3.org/2000/svg">
<g clip-path="url(#clip0_3148_24580)">
<mask id="path-2-inside-1_3148_24580" fill="white">
<path d="M440.361 298.505H261.061C257.855 298.505 255.246 295.896 255.246 292.69V31.5219C255.246 28.3157 257.855 25.7068 261.061 25.7068H440.361C443.567 25.7068 446.176 28.3148 446.176 31.5219V292.69C446.177 295.896 443.568 298.505 440.361 298.505ZM261.061 25.9558C257.991 25.9558 255.494 28.4536 255.494 31.5229V292.69C255.494 295.76 257.992 298.257 261.061 298.257H440.361C443.431 298.257 445.928 295.759 445.928 292.69V31.5219C445.928 28.4526 443.43 25.9548 440.361 25.9548H261.061V25.9558Z"/>
</mask>
<path d="M440.361 298.505H261.061C257.855 298.505 255.246 295.896 255.246 292.69V31.5219C255.246 28.3157 257.855 25.7068 261.061 25.7068H440.361C443.567 25.7068 446.176 28.3148 446.176 31.5219V292.69C446.177 295.896 443.568 298.505 440.361 298.505ZM261.061 25.9558C257.991 25.9558 255.494 28.4536 255.494 31.5229V292.69C255.494 295.76 257.992 298.257 261.061 298.257H440.361C443.431 298.257 445.928 295.759 445.928 292.69V31.5219C445.928 28.4526 443.43 25.9548 440.361 25.9548H261.061V25.9558Z" fill="#3D3D4D"/>
<path d="M446.176 292.69H445.184V292.69L446.176 292.69ZM261.061 25.9558V26.9478H262.053V25.9558H261.061ZM261.061 25.9548V24.9628H260.069V25.9548H261.061ZM440.361 297.513H261.061V299.497H440.361V297.513ZM261.061 297.513C258.403 297.513 256.238 295.348 256.238 292.69H254.254C254.254 296.444 257.307 299.497 261.061 299.497V297.513ZM256.238 292.69V31.5219H254.254V292.69H256.238ZM256.238 31.5219C256.238 28.8636 258.403 26.6988 261.061 26.6988V24.7148C257.307 24.7148 254.254 27.7679 254.254 31.5219H256.238ZM261.061 26.6988H440.361V24.7148H261.061V26.6988ZM440.361 26.6988C443.02 26.6988 445.184 28.8627 445.184 31.5219H447.168C447.168 27.7668 444.115 24.7148 440.361 24.7148V26.6988ZM445.184 31.5219V292.69H447.168V31.5219H445.184ZM445.184 292.69C445.185 295.348 443.021 297.513 440.361 297.513V299.497C444.116 299.497 447.169 296.444 447.168 292.689L445.184 292.69ZM261.061 24.9638C257.443 24.9638 254.502 27.9059 254.502 31.5229H256.486C256.486 29.0014 258.539 26.9478 261.061 26.9478V24.9638ZM254.502 31.5229V292.69H256.486V31.5229H254.502ZM254.502 292.69C254.502 296.308 257.444 299.249 261.061 299.249V297.265C258.54 297.265 256.486 295.212 256.486 292.69H254.502ZM261.061 299.249H440.361V297.265H261.061V299.249ZM440.361 299.249C443.979 299.249 446.92 296.307 446.92 292.69H444.936C444.936 295.211 442.883 297.265 440.361 297.265V299.249ZM446.92 292.69V31.5219H444.936V292.69H446.92ZM446.92 31.5219C446.92 27.9048 443.978 24.9628 440.361 24.9628V26.9468C442.883 26.9468 444.936 29.0005 444.936 31.5219H446.92ZM440.361 24.9628H261.061V26.9468H440.361V24.9628ZM260.069 25.9548V25.9558H262.053V25.9548H260.069Z" fill="#3D3D4D" mask="url(#path-2-inside-1_3148_24580)"/>
<mask id="path-4-inside-2_3148_24580" fill="white">
<path d="M233.604 298.505H54.3034C51.0972 298.505 48.4883 295.896 48.4883 292.69V31.5219C48.4883 28.3157 51.0962 25.7068 54.3034 25.7068H233.604C236.811 25.7068 239.42 28.3148 239.42 31.5219V292.69C239.42 295.896 236.811 298.505 233.604 298.505ZM54.3034 25.9558C51.2341 25.9558 48.7363 28.4536 48.7363 31.5229V292.69C48.7363 295.76 51.2341 298.257 54.3034 298.257H233.604C236.675 298.257 239.172 295.759 239.172 292.69V31.5219C239.172 28.4526 236.674 25.9548 233.604 25.9548H54.3034V25.9558Z"/>
</mask>
<path d="M233.604 298.505H54.3034C51.0972 298.505 48.4883 295.896 48.4883 292.69V31.5219C48.4883 28.3157 51.0962 25.7068 54.3034 25.7068H233.604C236.811 25.7068 239.42 28.3148 239.42 31.5219V292.69C239.42 295.896 236.811 298.505 233.604 298.505ZM54.3034 25.9558C51.2341 25.9558 48.7363 28.4536 48.7363 31.5229V292.69C48.7363 295.76 51.2341 298.257 54.3034 298.257H233.604C236.675 298.257 239.172 295.759 239.172 292.69V31.5219C239.172 28.4526 236.674 25.9548 233.604 25.9548H54.3034V25.9558Z" fill="#3D3D4D"/>
<path d="M239.42 292.69H240.412H239.42ZM54.3034 25.9558V26.9478H55.2954V25.9558H54.3034ZM54.3034 25.9548V24.9628H53.3114V25.9548H54.3034ZM233.604 297.513H54.3034V299.497H233.604V297.513ZM54.3034 297.513C51.6451 297.513 49.4803 295.348 49.4803 292.69H47.4963C47.4963 296.444 50.5494 299.497 54.3034 299.497V297.513ZM49.4803 292.69V31.5219H47.4963V292.69H49.4803ZM49.4803 31.5219C49.4803 28.8635 51.6442 26.6988 54.3034 26.6988V24.7148C50.5483 24.7148 47.4963 27.768 47.4963 31.5219H49.4803ZM54.3034 26.6988H233.604V24.7148H54.3034V26.6988ZM233.604 26.6988C236.263 26.6988 238.428 28.8627 238.428 31.5219H240.412C240.412 27.7668 237.358 24.7148 233.604 24.7148V26.6988ZM238.428 31.5219V292.69H240.412V31.5219H238.428ZM238.428 292.69C238.428 295.348 236.263 297.513 233.604 297.513V299.497C237.358 299.497 240.412 296.444 240.412 292.69H238.428ZM54.3034 24.9638C50.6863 24.9638 47.7443 27.9058 47.7443 31.5229H49.7283C49.7283 29.0015 51.782 26.9478 54.3034 26.9478V24.9638ZM47.7443 31.5229V292.69H49.7283V31.5229H47.7443ZM47.7443 292.69C47.7443 296.308 50.6864 299.249 54.3034 299.249V297.265C51.7819 297.265 49.7283 295.212 49.7283 292.69H47.7443ZM54.3034 299.249H233.604V297.265H54.3034V299.249ZM233.604 299.249C237.223 299.249 240.164 296.307 240.164 292.69H238.18C238.18 295.211 236.127 297.265 233.604 297.265V299.249ZM240.164 292.69V31.5219H238.18V292.69H240.164ZM240.164 31.5219C240.164 27.9048 237.222 24.9628 233.604 24.9628V26.9468C236.126 26.9468 238.18 29.0005 238.18 31.5219H240.164ZM233.604 24.9628H54.3034V26.9468H233.604V24.9628ZM53.3114 25.9548V25.9558H55.2954V25.9548H53.3114Z" fill="#3D3D4D" mask="url(#path-4-inside-2_3148_24580)"/>
<path d="M495.996 359.086H-0.00390625V359.334H495.996V359.086Z" fill="#E0E0E0"/>
<path d="M67.1893 373.236H51.2578V373.484H67.1893V373.236Z" fill="#E0E0E0"/>
<path d="M222.086 370.548H168.984V370.796H222.086V370.548Z" fill="#E0E0E0"/>
<path d="M104.14 382.452H68.1797V382.7H104.14V382.452Z" fill="#E0E0E0"/>
<path d="M418.165 370.419H375.32V370.667H418.165V370.419Z" fill="#E0E0E0"/>
<path d="M433.287 370.419H427.008V370.667H433.287V370.419Z" fill="#E0E0E0"/>
<path d="M367.139 376.599H313.68V376.847H367.139V376.599Z" fill="#E0E0E0"/>
<path d="M165.717 95.5296H123.722C121.656 95.5296 119.98 93.8541 119.98 91.7878V91.1708C119.98 89.1044 121.656 87.429 123.722 87.429H165.717C167.783 87.429 169.458 89.1044 169.458 91.1708V91.7878C169.458 93.8541 167.783 95.5296 165.717 95.5296Z" fill="#3D3D4D"/>
<path d="M377.029 95.5296H335.035C332.968 95.5296 331.293 93.8541 331.293 91.7878V91.1708C331.293 89.1044 332.968 87.429 335.035 87.429H377.029C379.095 87.429 380.771 89.1044 380.771 91.1708V91.7878C380.771 93.8541 379.096 95.5296 377.029 95.5296Z" fill="#3D3D4D"/>
<path d="M12.3828 123.595C172.321 123.595 332.259 123.595 492.198 123.595" stroke="#3D3D4D" stroke-width="0.744" stroke-miterlimit="10" stroke-linecap="round" stroke-linejoin="round"/>
<path opacity="0.21" d="M448.127 456.541C448.127 459.901 355.359 462.624 240.923 462.624C126.487 462.624 33.7188 459.9 33.7188 456.541C33.7188 453.182 126.487 450.458 240.923 450.458C355.359 450.458 448.127 453.182 448.127 456.541Z" fill="#F5F5F5"/>
<path d="M250.199 262.983H245.149C228.235 262.983 214.523 249.272 214.523 232.357V173.524C214.523 156.609 228.235 142.898 245.149 142.898H250.199C267.113 142.898 280.825 156.609 280.825 173.524V232.357C280.825 249.272 267.113 262.983 250.199 262.983Z" fill="#07071C" stroke="#263238" stroke-width="0.744" stroke-miterlimit="10" stroke-linecap="round" stroke-linejoin="round"/>
<path d="M255.294 191.974C254.026 191.016 252.246 190.825 250.794 191.452C248.815 188.079 244.176 186.567 240.586 188.105C239.379 184.28 235.527 181.429 231.499 181.477L231.499 181.477C227.267 181.528 223.307 184.773 222.425 188.914L222.425 188.914C222.395 189.055 222.393 189.269 222.395 189.472C222.398 189.696 222.408 189.977 222.423 190.29C222.436 190.582 222.455 190.934 222.475 191.304C222.495 191.69 222.517 192.094 222.535 192.47C222.571 193.243 222.597 193.998 222.587 194.585C222.582 194.88 222.568 195.118 222.545 195.289C222.535 195.363 222.525 195.415 222.516 195.448L221.748 196.231L222.908 196.246L256.515 196.667L256.904 196.672L257.002 196.295C257.456 194.541 256.653 193.001 255.294 191.974ZM222.505 195.48C222.505 195.48 222.506 195.478 222.508 195.474C222.506 195.478 222.505 195.48 222.505 195.48Z" stroke="#3D3D4D" stroke-width="0.992"/>
<path d="M259.73 218.343C258.865 217.69 257.67 217.538 256.662 217.918C255.278 215.705 252.233 214.705 249.803 215.645C248.91 213.08 246.3 211.191 243.568 211.224C240.636 211.26 237.897 213.504 237.287 216.373L237.287 216.373C237.273 216.437 237.261 216.497 237.25 216.554C237.219 216.707 237.193 216.836 237.153 216.965C237.101 217.132 237.042 217.24 236.969 217.316C236.852 217.435 236.676 217.501 236.383 217.512C236.164 217.521 235.946 217.5 235.7 217.475C235.594 217.465 235.484 217.454 235.365 217.445L235.365 217.445C232.942 217.256 230.526 218.942 229.866 221.281L229.688 221.914L230.346 221.911L260.464 221.801L260.846 221.8L260.942 221.429C261.269 220.166 260.686 219.064 259.73 218.343Z" stroke="#3D3D4D" stroke-width="0.992"/>
<path d="M263.616 177.196C264.263 177.004 264.997 177.121 265.541 177.533C266.172 178.01 266.581 178.76 266.355 179.632L266.26 180.002L265.877 180.004L247.346 180.071L246.688 180.073L246.866 179.441C247.296 177.913 248.866 176.818 250.447 176.942C250.447 176.942 250.448 176.942 250.448 176.942L250.409 177.436C250.469 177.441 250.53 177.447 250.591 177.453C250.973 177.49 251.38 177.529 251.638 177.266C251.8 177.1 251.848 176.861 251.895 176.63C251.901 176.598 251.907 176.567 251.914 176.536L263.616 177.196ZM263.616 177.196C262.719 175.899 260.929 175.301 259.43 175.783L263.616 177.196Z" stroke="#3D3D4D" stroke-width="0.992"/>
<path d="M210.965 177.927C210.965 186.362 210.965 194.798 210.965 203.233" stroke="#263238" stroke-width="0.744" stroke-miterlimit="10" stroke-linecap="round" stroke-linejoin="round"/>
<path d="M210.965 176.592V173.182" stroke="#263238" stroke-width="0.744" stroke-miterlimit="10" stroke-linecap="round" stroke-linejoin="round"/>
<path d="M101.027 262.983H95.9776C79.063 262.983 65.3516 249.272 65.3516 232.357V173.524C65.3516 156.609 79.063 142.898 95.9776 142.898H101.027C117.941 142.898 131.653 156.609 131.653 173.524V232.357C131.653 249.272 117.941 262.983 101.027 262.983Z" stroke="#263238" stroke-width="0.744" stroke-miterlimit="10" stroke-linecap="round" stroke-linejoin="round"/>
<path d="M61.793 177.927C61.793 186.362 61.793 194.798 61.793 203.233" stroke="#263238" stroke-width="0.744" stroke-miterlimit="10" stroke-linecap="round" stroke-linejoin="round"/>
<path d="M61.793 176.592V173.182" stroke="#263238" stroke-width="0.744" stroke-miterlimit="10" stroke-linecap="round" stroke-linejoin="round"/>
<path d="M398.507 262.983H393.458C376.543 262.983 362.832 249.272 362.832 232.357V173.524C362.832 156.609 376.543 142.898 393.458 142.898H398.507C415.422 142.898 429.133 156.609 429.133 173.524V232.357C429.133 249.272 415.421 262.983 398.507 262.983Z" stroke="#263238" stroke-width="0.744" stroke-miterlimit="10" stroke-linecap="round" stroke-linejoin="round"/>
<path d="M398.683 192.808L398.447 192.331C396.783 188.97 392.11 187.475 388.806 189.246L388.238 189.55L388.089 188.923C387.216 185.258 383.584 182.424 379.816 182.469L398.683 192.808ZM398.683 192.808L399.142 192.539M398.683 192.808L399.142 192.539M399.142 192.539C400.316 191.852 401.915 191.946 403.001 192.766C404.018 193.534 404.559 194.551 404.419 195.67L371.851 195.262M399.142 192.539L371.851 195.262M371.851 195.262C371.87 195.066 371.88 194.842 371.884 194.602C371.894 193.981 371.867 193.198 371.83 192.423C371.811 192.007 371.79 191.618 371.77 191.249C371.751 190.897 371.733 190.564 371.718 190.244C371.704 189.933 371.694 189.667 371.692 189.461C371.691 189.357 371.691 189.274 371.694 189.21C371.696 189.154 371.7 189.127 371.7 189.121C371.701 189.119 371.701 189.119 371.701 189.12C372.485 185.434 376.047 182.515 379.816 182.469L371.851 195.262Z" stroke="#3D3D4D" stroke-width="0.992"/>
<path d="M407.736 218.739C406.896 218.104 405.67 218.031 404.76 218.564C403.554 216.126 400.191 215.051 397.793 216.334C397.168 213.707 394.579 211.688 391.879 211.72C389.179 211.753 386.639 213.834 386.077 216.476C385.987 216.896 385.928 217.356 385.628 217.662C385.14 218.16 384.326 217.994 383.631 217.939C381.444 217.769 379.244 219.304 378.648 221.415L408.767 221.305C409.03 220.285 408.576 219.374 407.736 218.739Z" fill="white"/>
<path d="M411.27 178.041L411.506 178.518L411.965 178.249C412.352 178.023 412.89 178.054 413.247 178.324C413.518 178.529 413.675 178.764 413.717 179.013L396.419 179.076C396.905 178.343 397.798 177.862 398.675 177.931L398.676 177.931C398.715 177.934 398.763 177.938 398.815 177.944C398.982 177.96 399.202 177.981 399.395 177.974C399.67 177.963 400.02 177.896 400.297 177.613L400.297 177.613C400.466 177.44 400.552 177.239 400.603 177.073C400.641 176.95 400.669 176.813 400.689 176.711C400.694 176.684 400.699 176.66 400.704 176.639C401.002 175.241 402.365 174.123 403.795 174.106C405.225 174.089 406.615 175.173 406.946 176.564L407.095 177.191L407.663 176.886C408.891 176.228 410.653 176.792 411.27 178.041Z" stroke="#3D3D4D" stroke-width="0.992"/>
<path d="M359.27 177.927C359.27 186.362 359.27 194.798 359.27 203.233" stroke="#263238" stroke-width="0.744" stroke-miterlimit="10" stroke-linecap="round" stroke-linejoin="round"/>
<path d="M359.27 176.592V173.182" stroke="#263238" stroke-width="0.744" stroke-miterlimit="10" stroke-linecap="round" stroke-linejoin="round"/>
<path d="M346.731 153.186C336.14 146.295 321.969 149.296 315.079 159.888C308.188 170.479 311.189 184.651 321.781 191.54C329.958 196.859 340.255 196.262 347.702 190.85L354.417 192.305L353.211 185.146C353.283 185.04 353.364 184.945 353.434 184.838C360.323 174.248 357.323 160.076 346.731 153.186Z" fill="#4EE39D"/>
<path d="M309.805 163.06C312.076 155.977 318.131 150.231 325.323 148.335" stroke="#4EE39D" stroke-width="0.496" stroke-miterlimit="10" stroke-linecap="round" stroke-linejoin="round"/>
<path d="M328.652 147.581C329.725 147.211 330.874 147.066 332.005 147.157" stroke="#4EE39D" stroke-width="0.496" stroke-miterlimit="10" stroke-linecap="round" stroke-linejoin="round"/>
<path d="M333.388 182.129L322.902 174.321L325.627 170.662L332.659 175.898L342.32 164.373L345.816 167.303L333.388 182.129Z" fill="white"/>
<path d="M220.244 441.294L236.9 409.75L215.792 400.771L204 440.855L220.244 441.294Z" fill="#4EE39D"/>
<path opacity="0.7" d="M220.244 441.294L236.9 409.75L215.792 400.771L204 440.855L220.244 441.294Z" fill="white"/>
<path d="M215.748 456.542L204.587 451.966C204.587 451.966 203.282 450.337 202.233 449.99C201.188 449.646 197.446 448.672 197.446 448.672L175.504 438.699C176.087 437.904 176.668 437.225 177.238 436.649C177.933 435.946 178.618 435.395 179.291 434.972C181.649 433.494 183.54 433.31 185.644 434.133C188.849 435.387 201.511 433.765 201.511 433.765C201.511 433.765 204.382 433.891 205.712 430.196C206.174 428.915 205.95 427.422 208.484 427.749C210.73 428.039 213.265 430.822 212.679 432.87C212.771 434.014 212.054 434.893 211.294 435.759L218.547 437.44C218.547 437.44 224.38 437.386 223.133 439.475C222.421 440.668 221.804 446.588 219.252 450.785C218.656 451.762 218.094 452.689 217.601 453.501H217.599C216.503 455.304 215.748 456.542 215.748 456.542Z" fill="#263238"/>
<path opacity="0.7" d="M175.504 438.697L197.446 448.671C197.446 448.671 201.187 449.646 202.233 449.989C203.282 450.336 204.587 451.964 204.587 451.964L215.748 456.541C215.748 456.541 216.503 455.303 217.598 453.5L177.24 436.647C176.668 437.224 176.087 437.903 175.504 438.697Z" fill="white"/>
<path d="M195.567 433.794C195.714 433.746 195.879 433.809 195.964 433.939C196.357 434.539 196.596 435.238 196.629 435.993C196.647 436.391 196.004 436.47 195.987 436.068C195.957 435.398 195.75 434.781 195.406 434.257C195.292 434.081 195.363 433.858 195.56 433.795C195.563 433.796 195.565 433.795 195.567 433.794Z" fill="white"/>
<path d="M197.793 433.631C197.939 433.584 198.104 433.647 198.189 433.778C198.582 434.377 198.822 435.077 198.856 435.832C198.874 436.229 198.231 436.309 198.213 435.907C198.183 435.236 197.976 434.619 197.633 434.096C197.519 433.92 197.589 433.697 197.787 433.633C197.789 433.632 197.791 433.631 197.793 433.631Z" fill="white"/>
<path d="M200.047 433.559C200.194 433.511 200.359 433.575 200.444 433.706C200.837 434.305 201.077 435.004 201.111 435.759C201.129 436.157 200.486 436.236 200.467 435.835C200.437 435.164 200.23 434.547 199.887 434.023C199.773 433.848 199.843 433.624 200.041 433.561C200.044 433.56 200.045 433.56 200.047 433.559Z" fill="white"/>
<path d="M214.658 382.263L235.247 354.651L216.449 342.94L199.227 379.424L214.658 382.263Z" fill="#4EE39D"/>
<path opacity="0.7" d="M214.658 382.263L235.247 354.651L216.449 342.94L199.227 379.424L214.658 382.263Z" fill="white"/>
<path d="M208.093 396.138L198.128 390.11C198.128 390.11 197.125 388.362 196.176 387.875C195.23 387.391 191.806 385.904 191.806 385.904L172.359 373.12C173.034 372.449 173.689 371.888 174.32 371.423C175.087 370.855 175.823 370.432 176.529 370.129C178.999 369.071 180.829 369.177 182.714 370.276C185.585 371.95 197.905 372.289 197.905 372.289C197.905 372.289 200.625 372.836 202.445 369.51C203.076 368.357 203.086 366.9 205.453 367.589C207.554 368.2 209.557 371.232 208.692 373.099C208.61 374.205 207.795 374.937 206.94 375.65L213.609 378.333C213.609 378.333 219.182 379.15 217.68 380.959C216.823 381.99 215.353 387.547 212.292 391.17C211.578 392.015 210.905 392.814 210.313 393.516L210.311 393.515C208.998 395.07 208.093 396.138 208.093 396.138Z" fill="#263238"/>
<path opacity="0.7" d="M172.359 373.12L191.806 385.904C191.806 385.904 195.229 387.392 196.176 387.875C197.125 388.362 198.128 390.11 198.128 390.11L208.093 396.139C208.093 396.139 208.998 395.071 210.311 393.514L174.32 371.424C173.689 371.888 173.033 372.448 172.359 373.12Z" fill="white"/>
<path d="M192.232 371.43C192.38 371.408 192.527 371.492 192.589 371.629C192.875 372.259 192.999 372.962 192.918 373.687C192.876 374.069 192.251 374.049 192.294 373.663C192.365 373.019 192.259 372.4 192.01 371.849C191.926 371.665 192.028 371.462 192.225 371.431C192.227 371.43 192.229 371.43 192.232 371.43Z" fill="white"/>
<path d="M194.38 371.606C194.528 371.583 194.675 371.668 194.738 371.806C195.023 372.436 195.147 373.139 195.067 373.864C195.024 374.246 194.399 374.226 194.442 373.84C194.513 373.195 194.407 372.576 194.158 372.026C194.075 371.841 194.176 371.639 194.374 371.608C194.376 371.607 194.378 371.607 194.38 371.606Z" fill="white"/>
<path d="M196.536 371.873C196.684 371.851 196.83 371.935 196.893 372.073C197.179 372.703 197.303 373.406 197.223 374.131C197.181 374.513 196.556 374.493 196.598 374.107C196.67 373.464 196.563 372.844 196.314 372.293C196.231 372.108 196.332 371.906 196.53 371.875C196.53 371.875 196.534 371.874 196.536 371.873Z" fill="white"/>
<path d="M219.594 380.582L195.102 365.842C195.102 365.842 235.689 290.957 247.103 280.261C258.517 269.564 270.07 274.827 283.446 289.441C298.374 305.749 318.424 336.929 318.424 336.929L281.345 344.444L256.015 312.058L219.594 380.582Z" fill="#263238"/>
<path opacity="0.3" d="M219.594 380.582L195.102 365.842C195.102 365.842 235.689 290.957 247.103 280.261C258.517 269.564 270.07 274.827 283.446 289.441C298.374 305.749 318.424 336.929 318.424 336.929L281.345 344.444L256.015 312.058L219.594 380.582Z" fill="white"/>
<path d="M199.195 428.294C199.195 428.294 241.633 323.115 248 316.23C252.552 311.307 257.443 313.276 257.443 313.276L285.282 346.703L269.474 354.238L225.762 440.29L199.195 428.294Z" fill="#263238"/>
<path opacity="0.3" d="M199.195 428.294C199.195 428.294 241.633 323.115 248 316.23C252.552 311.307 257.443 313.276 257.443 313.276L285.282 346.703L269.474 354.238L225.762 440.29L199.195 428.294Z" fill="white"/>
<path d="M272.812 332.67C266.642 325.405 260.128 317.188 254.469 309.518C260.641 316.781 267.15 325.003 272.812 332.67Z" fill="#263238"/>
<path d="M256.87 312.524C252.447 312.238 248.404 314.987 246.353 318.764C245.555 320.238 243.815 324.228 243.077 325.816L234.486 344.73C231.617 350.914 224.155 367.003 221.373 372.997L216.93 382.386L221.153 372.896C227.295 359.319 236.431 339.228 242.778 325.68C243.54 324.082 245.283 320.151 246.122 318.632C248.216 314.814 252.469 312.129 256.87 312.524Z" fill="#263238"/>
<path d="M394.203 224.28C389.935 232.36 383.52 247.6 387.793 255.155C378.505 256.159 371.865 256.748 362.986 260.915C362.093 254.886 363.156 255.923 363.156 255.923C370.977 256.379 373.25 240.521 373.582 233.385L394.203 224.28Z" fill="#F9B373"/>
<path opacity="0.2" d="M385.805 227.971L373.684 233.339C373.62 235.015 373.413 236.681 373.066 238.321C376.812 238.9 383.117 236.399 384.667 232.678C385.329 231.192 385.714 229.597 385.805 227.971Z" fill="black"/>
<path d="M375.312 191.467C371.729 193.521 370.053 199.636 368.74 203.346C367.511 206.821 365.692 211.291 371.617 207.693C377.543 204.095 387.871 185.332 375.312 191.467Z" fill="#263238"/>
<path opacity="0.2" d="M387.918 237.251C387.918 237.251 382.07 245.586 372.406 242.81C373.371 238.3 373.394 234.89 373.299 232.643C374.101 232.554 373.428 231.239 373.428 231.239L387.918 237.251Z" fill="black"/>
<path d="M387.783 237.874C380.615 240.887 373.519 240.266 368.573 235.715C365.39 232.794 363.234 228.634 362.886 223.94C362.834 223.325 362.825 222.693 362.837 222.054C363.227 210.381 369.862 192.746 383.131 191.177C392.586 189.993 401.231 196.704 402.41 206.172C402.763 208.863 402.45 211.6 401.539 214.164C397.482 226.13 396.155 234.353 387.783 237.874Z" fill="#F9B373"/>
<path d="M382.007 213.199C381.747 214.491 380.705 215.326 379.856 215.092C379.008 214.857 378.636 213.631 378.977 212.355C379.32 211.08 380.301 210.231 381.129 210.463C381.955 210.694 382.353 211.904 382.007 213.199Z" fill="#263238"/>
<path d="M370.803 210.331C370.543 211.622 369.479 212.454 368.651 212.223C367.823 211.993 367.43 210.762 367.772 209.487C368.113 208.212 369.095 207.364 369.924 207.594C370.752 207.825 371.133 209.117 370.803 210.331Z" fill="#263238"/>
<path d="M374.329 210.874C372.314 213.582 369.935 215.999 367.258 218.057C368.366 219.422 370.022 220.227 371.779 220.257L374.329 210.874Z" fill="#FF7800"/>
<path d="M368.062 203.474C368.222 203.632 368.456 203.691 368.673 203.632C370.134 203.159 371.732 203.403 372.986 204.29C373.238 204.505 373.617 204.474 373.832 204.222C374.048 203.969 374.017 203.591 373.765 203.376L373.763 203.374C372.207 202.211 370.185 201.875 368.337 202.473C368.016 202.559 367.826 202.888 367.911 203.208C367.912 203.213 367.914 203.217 367.915 203.222C367.95 203.313 367.999 203.398 368.062 203.474Z" fill="#263238"/>
<path d="M385.565 208.615C385.683 208.643 385.808 208.635 385.921 208.589C386.199 208.407 386.275 208.034 386.094 207.758C386.091 207.754 386.089 207.751 386.087 207.747C385.03 206.11 383.243 205.089 381.296 205.012C380.965 205.018 380.701 205.291 380.707 205.623C380.722 205.952 380.992 206.212 381.32 206.213C382.855 206.319 384.25 207.145 385.08 208.439C385.208 208.566 385.385 208.631 385.565 208.615Z" fill="#263238"/>
<path d="M375.846 223.134C378.33 223.064 380.771 222.467 383.007 221.382C383.118 221.795 383.167 222.222 383.153 222.65C383.15 223.411 382.96 224.16 382.599 224.831C381.862 226.202 380.213 227.483 376.534 227.609C376.262 227.631 375.99 227.64 375.717 227.635C375.426 226.126 375.027 224.64 374.523 223.187C374.523 223.187 375.021 223.19 375.846 223.134Z" fill="#263238"/>
<path d="M382.95 221.367C383.061 221.78 383.11 222.207 383.096 222.634C382.056 223.727 379.639 224.282 376.173 224.431L375.789 223.118C378.273 223.05 380.714 222.453 382.95 221.367Z" fill="white"/>
<path d="M378.541 225.781C379.828 225.228 381.202 224.906 382.6 224.832C381.863 226.203 380.213 227.483 376.535 227.609C376.996 226.806 377.698 226.166 378.541 225.781Z" fill="#FF3F3E"/>
<path d="M380.383 184.27C389.543 183.689 409.625 192.92 410.952 197.609C411.653 199.614 411.393 201.812 410.284 203.587C414.072 208.926 404.786 226.402 395.103 223.323C388.93 221.374 390.508 219.126 391.027 218.636C393.368 216.54 392.636 212.288 392.066 206.872C391.842 204.737 393.478 203.021 395.924 201.957C393.687 197.84 388.779 195.758 384.155 197.242C384.155 197.242 376.353 199.653 374.581 190.709C374.519 190.319 374.499 189.924 374.52 189.531C374.687 186.459 377.312 184.103 380.383 184.27Z" fill="#263238"/>
<path d="M380.383 184.27C389.543 183.689 409.625 192.92 410.952 197.609C411.653 199.614 411.393 201.812 410.284 203.587C414.072 208.926 404.786 226.402 395.103 223.323C388.93 221.374 390.508 219.126 391.027 218.636C393.368 216.54 392.636 212.288 392.066 206.872C391.842 204.737 393.478 203.021 395.924 201.957C393.687 197.84 388.779 195.758 384.155 197.242C384.155 197.242 376.353 199.653 374.581 190.709C374.519 190.319 374.499 189.924 374.52 189.531C374.687 186.459 377.312 184.103 380.383 184.27Z" fill="#263238"/>
<path d="M404.112 225.615C402.004 227.999 399.035 229.45 395.858 229.649C391.65 229.883 390.451 225.896 392.368 222.39C394.102 219.291 398.392 215.317 402.249 216.777C406.107 218.238 406.663 222.654 404.112 225.615Z" fill="#F9B373"/>
<path opacity="0.1" d="M394.762 223.931C395.657 221.973 397.455 220.451 399.532 219.891C400.416 219.653 401.529 219.662 402.05 220.413" stroke="black" stroke-width="0.496" stroke-miterlimit="10"/>
<g opacity="0.3">
<path d="M397.116 202.64C400.346 202.188 403.64 202.3 406.834 202.953C407.301 203.048 407.501 202.332 407.031 202.236C403.696 201.553 400.289 201.451 396.918 201.923C396.446 201.989 396.647 202.705 397.116 202.64Z" fill="white"/>
</g>
<path d="M394.442 265.33C394.442 265.33 396.292 263.981 392.885 259.47C389.367 254.81 386.823 251.226 386.823 251.226L387.632 245.292C387.632 245.292 363.644 250.469 356.306 257.081C349.096 263.579 333.25 285.018 328.978 292.749C324.705 300.48 302.685 327.18 302.685 327.18L292.309 340.201L360.668 354.238L394.442 265.33Z" fill="#263238"/>
<path opacity="0.2" d="M394.442 265.33C394.442 265.33 396.292 263.981 392.885 259.47C389.367 254.81 386.823 251.226 386.823 251.226L387.632 245.292C387.632 245.292 363.644 250.469 356.306 257.081C349.096 263.579 333.25 285.018 328.978 292.749C324.705 300.48 302.685 327.18 302.685 327.18L292.309 340.201L360.668 354.238L394.442 265.33Z" fill="white"/>
<path d="M292.75 317.863C292.75 317.863 286.33 312.978 281.481 311.542C276.631 310.105 273.995 310.899 273.712 312.145C273.429 313.392 273.124 315.297 273.124 315.297C273.124 315.297 267.096 315.618 267.193 318.183C267.255 319.854 269.651 321.443 269.651 321.443C269.319 321.57 269.073 324.757 271.939 325.307C271.939 325.307 271.982 327.915 275.981 327.938C280.231 327.962 289.726 327.493 290.141 327.587C290.556 327.683 292.75 317.863 292.75 317.863Z" fill="#F9B373"/>
<path d="M364.271 261.914C369.075 254.269 380.494 254.274 385.079 262.052C386.748 264.884 386.949 267.539 384.966 272.085C379.278 285.12 357.8 324.744 354.952 327.592C352.104 330.44 290.148 327.696 290.148 327.696L290.773 316.152L339.851 306.801C339.851 306.801 361.283 266.782 364.146 262.116C364.186 262.049 364.228 261.981 364.271 261.914Z" fill="#263238"/>
<path opacity="0.2" d="M364.271 261.914C369.075 254.269 380.494 254.274 385.079 262.052C386.748 264.884 386.949 267.539 384.966 272.085C379.278 285.12 357.8 324.744 354.952 327.592C352.104 330.44 290.148 327.696 290.148 327.696L290.773 316.152L339.851 306.801C339.851 306.801 361.283 266.782 364.146 262.116C364.186 262.049 364.228 261.981 364.271 261.914Z" fill="white"/>
<path d="M328.891 295.907C338.358 285.551 348.708 274.364 358.292 264.19L358.232 264.342L358.248 260.89L358.249 260.683L358.454 260.684L361.307 260.696C360.975 260.776 374.088 255.922 374.019 255.93C378.272 254.322 382.559 252.797 386.827 251.227C382.59 252.877 378.369 254.574 374.117 256.187C374.084 256.2 361.375 261.071 361.345 261.083H361.308L358.455 261.096L358.662 260.89L358.677 264.342C358.682 264.436 358.679 264.429 358.617 264.494C349.101 274.711 338.591 285.797 328.891 295.907Z" fill="#263238"/>
<path d="M291.574 316.153C305.442 313.34 325.695 309.336 339.806 306.58C346.72 295.471 355.352 282.788 362.744 271.194C366.726 264.264 373.376 255.422 382.46 258.959C373.408 255.557 366.912 264.486 362.994 271.353C355.343 283.156 347.731 295.435 339.893 307.024C325.716 309.675 305.586 313.633 291.574 316.153Z" fill="#263238"/>
<path d="M341.273 310.202C343.351 314.073 346.287 317.477 349.873 320.004L349.496 320.257C348.904 317.933 347.693 315.772 346.362 313.746C345.01 311.72 343.523 309.76 341.74 308.089C345.444 311.255 348.601 315.416 349.969 320.147L350.116 320.781C346.283 318.141 343.123 314.481 341.273 310.202Z" fill="#263238"/>
<path d="M356.887 327.938C364.408 314.359 372.559 301.025 381.219 288.138C373.696 301.722 365.546 315.053 356.887 327.938Z" fill="#263238"/>
<path d="M397.733 252.817C397.733 252.817 394.715 247.47 395.69 239.644C396.666 231.819 414.98 189.742 419.283 187.847C423.586 185.952 425.829 187.974 425.829 187.974L397.733 252.817Z" fill="#4EE39D"/>
<path d="M464.032 207.077C464.038 217.993 399.628 376.818 397.991 378.456C396.353 380.093 353.236 358.261 352.691 359.353C352.145 360.444 424.189 189.611 425.827 187.974C427.464 186.336 464.028 200.974 464.032 207.077Z" fill="#263238"/>
<path d="M239.004 457.53H406.426V349.062H239.004V457.53Z" fill="#263238"/>
<path d="M236.369 369.896H385.383C390.782 369.896 395.158 365.519 395.158 360.12V338.003C395.158 332.604 390.782 328.228 385.383 328.228H236.369C230.97 328.228 226.594 332.604 226.594 338.003V360.12C226.594 365.519 230.969 369.896 236.369 369.896Z" fill="#263238"/>
<path opacity="0.3" d="M239.008 369.896V378.289L390.44 378.452C393.33 378.455 395.676 377.247 395.676 375.756V370.166L239.008 369.896Z" fill="black"/>
<path opacity="0.3" d="M373.292 354.239C376.998 354.239 380.002 351.235 380.002 347.529C380.002 343.823 376.998 340.819 373.292 340.819C369.586 340.819 366.582 343.823 366.582 347.529C366.582 351.235 369.586 354.239 373.292 354.239Z" fill="black"/>
<path d="M239.129 424.118C292.111 423.473 351.553 423.467 404.535 424.118C351.553 424.768 292.111 424.762 239.129 424.118Z" fill="#263238"/>
<path opacity="0.3" d="M406.43 434.893H239.008V457.53H406.43V434.893Z" fill="black"/>
<path d="M94.6414 236.176C85.3166 254.675 94.7753 273.117 94.7753 273.117C89.9502 286.242 88.124 304.415 87.4553 318.164C86.9207 329.553 87.9007 333.026 87.1587 337.912C86.3126 343.465 82.3634 350.86 80.7445 357.748C76.4283 377.473 73.7995 397.527 72.86 417.695L72.4444 421.504L71.6875 434.466L79.186 437.035L82.17 424.771L83.0846 420.996L83.1798 421.014L109.178 339.752L133.276 237.303L94.6414 236.176Z" fill="#FFBFB8"/>
<path opacity="0.3" d="M94.6414 236.176C85.3166 254.675 94.7753 273.117 94.7753 273.117C89.9502 286.242 88.124 304.415 87.4553 318.164C86.9207 329.553 87.9007 333.026 87.1587 337.912C86.3126 343.465 82.3634 350.86 80.7445 357.748C76.4283 377.473 73.7995 397.527 72.86 417.695L72.4444 421.504L71.6875 434.466L79.186 437.035L82.17 424.771L83.0846 420.996L83.1798 421.014L109.178 339.752L133.276 237.303L94.6414 236.176Z" fill="black"/>
<path d="M86.2374 454.942C85.2861 453.661 84.1086 452.564 82.7634 451.705C82.7634 451.705 79.4819 446.241 80.7447 432.611L75.3849 429.642C73.512 428.649 71.2195 428.928 69.6392 430.34C69.421 430.531 69.2345 430.756 69.0897 431.007C68.4419 432.315 67.8814 433.664 67.4122 435.046C65.8677 439.751 64.6078 444.546 63.6406 449.404L64.6654 449.701L67.3825 440.792C68.2733 437.749 69.7583 441.965 69.5946 445.425C69.4309 448.884 69.9507 452.849 76.6328 454.675C84.3952 456.842 87.7363 457.362 86.2374 454.942Z" fill="#263238"/>
<path d="M80.9185 427.666C80.9185 427.666 80.6071 433.961 80.9185 441.104C80.8699 444.727 81.5147 448.325 82.8192 451.705C82.8192 451.705 77.5487 451.319 76.2413 447.37C74.9348 443.421 74.905 431.112 69.6484 430.399C70.2665 429.657 70.9638 428.985 71.7267 428.394C72.9012 427.444 80.9185 427.666 80.9185 427.666Z" fill="#FFBFB8"/>
<path opacity="0.3" d="M80.9185 427.666C80.9185 427.666 80.6071 433.961 80.9185 441.104C80.8699 444.727 81.5147 448.325 82.8192 451.705C82.8192 451.705 77.5487 451.319 76.2413 447.37C74.9348 443.421 74.905 431.112 69.6484 430.399C70.2665 429.657 70.9638 428.985 71.7267 428.394C72.9012 427.444 80.9185 427.666 80.9185 427.666Z" fill="black"/>
<path d="M155.169 422.283L155.22 422.278L156.987 336.963L150.825 231.9L113.409 241.892C109.742 262.278 124.07 277.244 124.07 277.244C123.269 291.201 126.713 309.152 130.009 322.515C132.726 333.577 134.672 336.635 135.354 341.52C136.126 347.028 134.448 355.239 134.864 362.306C136.362 382.565 139.591 402.656 144.495 422.367L145.123 425.81L148.092 438.445L156.007 438.772L155.368 426.151L155.169 422.283Z" fill="#FFBFB8"/>
<path opacity="0.3" d="M155.169 422.283L155.22 422.278L156.987 336.963L150.825 231.9L113.409 241.892C109.742 262.278 124.07 277.244 124.07 277.244C123.269 291.201 126.713 309.152 130.009 322.515C132.726 333.577 134.672 336.635 135.354 341.52C136.126 347.028 134.448 355.239 134.864 362.306C136.362 382.565 139.591 402.656 144.495 422.367L145.123 425.81L148.092 438.445L156.007 438.772L155.368 426.151L155.169 422.283Z" fill="black"/>
<path d="M167.881 453.918C166.606 452.953 165.16 452.238 163.62 451.81C163.62 451.81 158.927 447.504 156.195 434.081L150.256 432.775C148.178 432.353 146.058 433.28 144.956 435.091C144.788 435.332 144.672 435.605 144.615 435.893C144.365 437.326 144.211 438.775 144.155 440.229C144.021 445.184 144.184 450.142 144.645 455.076H145.714V445.751C145.714 442.574 148.327 446.197 149.144 449.568C149.961 452.938 151.595 456.517 158.543 456.412C166.649 456.249 170.005 455.744 167.881 453.918Z" fill="#263238"/>
<path d="M155.011 429.285C155.011 429.285 156.496 435.418 158.783 442.173C159.762 445.667 161.405 448.939 163.623 451.81C163.623 451.81 158.47 452.938 156.081 449.523C153.69 446.107 150.142 434.319 144.93 435.151C145.321 434.252 145.82 433.405 146.415 432.627C147.246 431.363 155.011 429.285 155.011 429.285Z" fill="#FFBFB8"/>
<path opacity="0.3" d="M155.011 429.285C155.011 429.285 156.496 435.418 158.783 442.173C159.762 445.667 161.405 448.939 163.623 451.81C163.623 451.81 158.47 452.938 156.081 449.523C153.69 446.107 150.142 434.319 144.93 435.151C145.321 434.252 145.82 433.405 146.415 432.627C147.246 431.363 155.011 429.285 155.011 429.285Z" fill="black"/>
<path d="M158.848 295.106L160.557 328.595C160.557 328.595 126.854 331.823 111.041 331.823C95.2287 331.823 82.8207 331.823 82.8207 331.823C82.8207 331.823 82.4368 265.873 88.8898 243.131C94.82 222.234 102.078 216.889 102.078 216.889C102.078 216.889 149.101 216.077 149.101 218.973C155.268 234.753 158.325 265.977 158.848 295.106Z" fill="#4EE39D"/>
<path d="M156.926 209.966L159.944 211.092C159.944 211.092 164.279 210.534 166.312 210.944C171.081 211.905 176.044 217.692 176.044 217.692C176.044 217.692 180.11 222.926 179.856 223.932C179.395 225.757 176.431 223.673 176.045 223.325C175.659 222.977 172.776 220.638 172.776 220.638C172.776 220.638 172.73 221.561 174.031 222.929C175.333 224.296 176.056 224.754 175.239 225.757C174.422 226.759 174.085 226.456 172.544 226.322C172.544 226.322 171.104 228.21 168.262 226.613C168.262 226.613 167.59 227.94 165.374 226.811C163.158 225.682 161.232 224.717 160.124 223.62C159.014 222.524 157.074 220.722 157.074 220.722L152.5 219.309L156.926 209.966Z" fill="#FFBFB8"/>
<path d="M137.506 147.431C137.506 147.431 145.563 146.676 148.1 154.215C150.638 161.756 147.629 199.109 148.698 201.629C149.768 204.148 162.598 211.659 162.598 211.659L156.002 220.678C156.002 220.678 135.88 216.995 132.658 211.659C129.437 206.322 137.506 147.431 137.506 147.431Z" fill="#4EE39D"/>
<path opacity="0.3" d="M137.506 147.431C137.506 147.431 145.563 146.676 148.1 154.215C150.638 161.756 147.629 199.109 148.698 201.629C149.768 204.148 162.598 211.659 162.598 211.659L156.002 220.678C156.002 220.678 135.88 216.995 132.658 211.659C129.437 206.322 137.506 147.431 137.506 147.431Z" fill="white"/>
<path opacity="0.3" d="M148.929 181.686C149.093 181.376 146.28 194.448 147.825 205.647C148.427 210.012 149.557 211.671 149.557 211.671L145.71 212.278C145.71 212.278 142.441 193.946 148.929 181.686Z" fill="black"/>
<path d="M149.555 175.963C149.564 172.258 148.673 168.607 146.944 165.33L137.505 147.431C135.144 147.134 132.636 146.852 130.304 146.644C123.022 146.154 114.266 146.227 106.985 146.717C103.21 147.188 99.238 148.572 95.15 150.486C94.6391 150.934 91.0848 155.206 92.8148 160.809C101.456 189.525 103.044 204.12 102.08 216.889C118.026 218.953 143.575 222.824 148.505 219.943C141.984 194.328 149.528 186.882 149.555 175.963Z" fill="#4EE39D"/>
<path opacity="0.3" d="M149.555 175.963C149.564 172.258 148.673 168.607 146.944 165.33L137.505 147.431C135.144 147.134 132.636 146.852 130.304 146.644C123.022 146.154 114.266 146.227 106.985 146.717C103.21 147.188 99.238 148.572 95.15 150.486C94.6391 150.934 91.0848 155.206 92.8148 160.809C101.456 189.525 103.044 204.12 102.08 216.889C118.026 218.953 143.575 222.824 148.505 219.943C141.984 194.328 149.528 186.882 149.555 175.963Z" fill="white"/>
<path opacity="0.3" d="M103.032 178.975L105.65 202.884C105.65 202.884 137.948 207.005 140.379 208.796C142.81 210.588 148.104 216.785 148.104 216.785L141.659 221.723L102.522 209.082C102.159 204.52 101.791 200.242 101.398 197.242L103.032 178.975Z" fill="black"/>
<path d="M120.484 168.603C120.484 170.054 118.043 171.23 115.031 171.23C112.019 171.23 109.578 170.054 109.578 168.603C109.578 167.152 112.019 165.977 115.031 165.977C118.043 165.977 120.484 167.152 120.484 168.603Z" fill="white"/>
<path opacity="0.3" d="M148.974 170.814L142.438 156.787C142.438 156.787 149.059 159.75 148.974 170.814Z" fill="black"/>
<g opacity="0.3">
<path d="M121.688 192.517C126.881 191.981 131.657 188.449 133.693 183.641C133.966 186.391 132.606 189.588 129.859 191.503C127.111 193.417 124.477 192.953 121.688 192.517Z" fill="black"/>
</g>
<path d="M186.68 192.521L185.266 181.294H172.234L171.047 192.521C171.047 196.646 174.096 200.069 177.987 200.521V213.414C177.987 213.944 177.557 214.373 177.028 214.373H176.67C175.943 214.373 175.228 214.546 174.583 214.878L171.111 216.663H186.617L183.138 214.874C182.498 214.545 181.786 214.372 181.066 214.372H180.7C180.17 214.372 179.741 213.943 179.741 213.413V200.52C183.63 200.069 186.68 196.646 186.68 192.521Z" fill="#4EE39D"/>
<path opacity="0.7" d="M186.68 192.521L185.266 181.294H172.234L171.047 192.521C171.047 196.646 174.096 200.069 177.987 200.521V213.414C177.987 213.944 177.557 214.373 177.028 214.373H176.67C175.943 214.373 175.228 214.546 174.583 214.878L171.111 216.663H186.617L183.138 214.874C182.498 214.545 181.786 214.372 181.066 214.372H180.7C180.17 214.372 179.741 213.943 179.741 213.413V200.52C183.63 200.069 186.68 196.646 186.68 192.521Z" fill="white"/>
<path opacity="0.6" d="M185.568 190.08H172.095L171.852 192.384C171.852 196.373 175.002 199.609 178.863 199.609C182.723 199.609 185.874 196.373 185.874 192.384L185.568 190.08Z" fill="#4EE39D"/>
<g opacity="0.6">
<path d="M172.469 181.434C176.667 180.754 180.88 180.749 185.078 181.434C180.88 182.118 176.667 182.113 172.469 181.434Z" fill="#4EE39D"/>
</g>
<path d="M163.237 154.215H158.559V159.357H163.237V154.215Z" fill="#CC7058"/>
<path d="M152.496 218.316V187.567L158.128 175.768V160.155C158.336 160.123 161.214 160.012 161.066 160.155C160.919 160.299 161.066 218.316 161.066 218.316H152.496Z" fill="#263238"/>
<path d="M169.298 218.316V187.567L163.666 175.768V160.155C163.458 160.123 160.58 160.012 160.728 160.155C160.875 160.299 160.728 218.316 160.728 218.316H169.298Z" fill="#263238"/>
<path d="M163.886 160.573H157.911C157.467 160.573 157.109 160.214 157.109 159.771V159.35C157.109 158.906 157.468 158.548 157.911 158.548H163.886C164.329 158.548 164.687 158.907 164.687 159.35V159.771C164.687 160.214 164.328 160.573 163.886 160.573Z" fill="#263238"/>
<path d="M166.143 191.599H154.895V211.658H166.143V191.599Z" fill="#4EE39D"/>
<path d="M163.667 165.279H158.129V174.802H163.667V165.279Z" fill="#4EE39D"/>
<path d="M163.668 169.341H159.965V170.813H163.668V169.341Z" fill="white"/>
<path d="M164.208 200.696H157V202.168H164.208V200.696Z" fill="white"/>
<path d="M162.598 197.309H158.848V198.781H162.598V197.309Z" fill="white"/>
<path d="M162.598 204.042H158.848V205.515H162.598V204.042Z" fill="white"/>
<path d="M202.369 220.971H146.02C144.76 220.971 143.738 219.949 143.738 218.689V218.313C143.738 217.054 144.76 216.032 146.02 216.032H202.369C203.629 216.032 204.651 217.053 204.651 218.313V218.689C204.651 219.95 203.629 220.971 202.369 220.971Z" fill="#263238"/>
<path opacity="0.3" d="M202.369 220.971H146.02C144.76 220.971 143.738 219.949 143.738 218.689V218.313C143.738 217.054 144.76 216.032 146.02 216.032H202.369C203.629 216.032 204.651 217.053 204.651 218.313V218.689C204.651 219.95 203.629 220.971 202.369 220.971Z" fill="white"/>
<path d="M136.392 211.875L139.609 212.051C139.609 212.051 143.58 210.225 145.642 210.009C150.481 209.503 156.945 213.547 156.945 213.547C156.945 213.547 162.387 217.329 162.444 218.365C162.549 220.245 159.097 219.14 158.625 218.923C158.153 218.705 154.704 217.333 154.704 217.333C154.704 217.333 154.935 218.229 156.585 219.146C158.234 220.062 159.062 220.285 158.582 221.485C158.101 222.685 157.689 222.496 156.178 222.828C156.178 222.828 155.367 225.06 152.177 224.383C152.177 224.383 151.932 225.85 149.48 225.433C147.029 225.016 144.902 224.67 143.516 223.955C142.13 223.24 139.741 222.098 139.741 222.098L134.953 222.115L136.392 211.875Z" fill="#FFBFB8"/>
<path d="M95.1487 150.487C95.1487 150.487 88.2275 153.63 86.4399 167.863C85.3874 176.244 78.3532 215.296 82.8162 219.942C87.2802 224.589 137.978 223.415 137.978 223.415V210.381L100.827 204.316C100.827 204.316 103.617 169.972 103.643 165.977C103.668 161.981 95.1487 150.487 95.1487 150.487Z" fill="#4EE39D"/>
<path opacity="0.3" d="M95.1489 150.487C95.1489 150.487 88.565 153.106 86.4401 167.863C85.2358 176.223 78.3533 215.296 82.8163 219.942C87.2803 224.589 137.978 223.415 137.978 223.415V210.381L100.827 204.316C100.827 204.316 103.618 169.972 103.643 165.977C103.668 161.981 95.1489 150.487 95.1489 150.487Z" fill="white"/>
<path d="M109.734 130.212C109.634 129.994 101.214 127.038 98.2268 117.624C95.2389 108.21 96.1972 97.0626 101.196 92.5669C106.194 88.0711 128.811 88.7943 131.445 89.9261C134.079 91.058 138.152 97.5874 139.721 102.013C142.044 108.564 139.769 119.195 137.587 123.052C135.405 126.909 109.734 130.212 109.734 130.212Z" fill="#263238"/>
<path d="M109.904 122.027C111.805 129.021 114.136 141.967 109.578 146.659C109.578 146.659 114.451 151.087 127.264 155.748C131.081 154.768 131.39 146.659 131.39 146.659C123.387 144.789 123.165 138.968 124.13 133.505L109.904 122.027Z" fill="#FFBFB8"/>
<path opacity="0.2" d="M115.844 126.704L124.292 133.489C124.056 134.773 123.932 136.074 123.921 137.379C120.952 136.948 116.496 133.652 115.962 130.504C115.7 129.255 115.66 127.968 115.844 126.704Z" fill="black"/>
<path d="M103.967 107.907C106.104 119.265 106.773 124.12 113.291 129.569C123.062 137.72 136.468 133.43 137.775 121.848C138.947 111.455 135.251 94.5734 123.536 90.8167C115.826 88.0252 107.312 92.0121 104.52 99.7229C103.571 102.345 103.378 105.181 103.967 107.907Z" fill="#FFBFB8"/>
<path d="M103.215 119.976C104.979 122.059 107.411 123.141 109.482 123.302C112.598 123.543 113.226 118.491 111.645 115.678C110.221 113.147 106.961 111.864 104.178 112.943C101.436 114.006 101.197 117.594 103.215 119.976Z" fill="#FFBFB8"/>
<path opacity="0.2" d="M109.71 118.232C109.438 117.177 108.734 116.234 107.799 115.666C106.863 115.097 105.708 114.912 104.656 115.161" stroke="black" stroke-width="0.496" stroke-miterlimit="10" stroke-linecap="round" stroke-linejoin="round"/>
<path d="M119.256 106.54C119.402 106.532 119.54 106.466 119.631 106.344C121.058 104.443 123.114 104.675 123.138 104.678C123.443 104.713 123.704 104.499 123.714 104.193C123.724 103.886 123.481 103.608 123.172 103.569C123.065 103.556 120.483 103.262 118.714 105.621C118.537 105.856 118.6 106.209 118.853 106.409C118.976 106.504 119.119 106.548 119.256 106.54Z" fill="#263238"/>
<path d="M136.117 102.087C136.223 102.029 136.301 101.929 136.327 101.797C136.381 101.524 136.194 101.223 135.911 101.122C133.068 100.112 131.373 101.535 131.303 101.598C131.102 101.77 131.108 102.1 131.317 102.333C131.524 102.566 131.854 102.615 132.056 102.443C132.121 102.386 133.454 101.305 135.715 102.108C135.861 102.159 136.005 102.148 136.117 102.087Z" fill="#263238"/>
<path d="M129.691 108.334C129.691 108.334 132.248 112.249 134.73 114.538C135.163 114.938 135.076 115.646 134.574 115.936C133.283 116.684 131.572 116.497 131.572 116.497L129.691 108.334Z" fill="#F2877E"/>
<path d="M122.872 108.101C122.853 108.087 122.837 108.086 122.818 108.072L125.281 107.024C125.281 107.024 124.832 107.934 124.13 108.265C124.549 108.606 124.909 109.19 125.076 109.891C125.357 111.072 124.984 112.12 124.242 112.23C123.5 112.34 122.67 111.472 122.39 110.29C122.158 109.316 122.375 108.443 122.872 108.101Z" fill="#263238"/>
<path d="M133.032 106.177C133.028 106.174 133.024 106.174 133.02 106.17L135.483 105.12C135.483 105.12 134.974 106.143 134.194 106.409C134.604 106.74 134.955 107.3 135.116 107.97C135.391 109.115 135.014 110.132 134.274 110.242C133.535 110.352 132.712 109.513 132.437 108.368C132.196 107.362 132.461 106.455 133.032 106.177Z" fill="#263238"/>
<path d="M132.35 119.696C131.726 120.952 131.081 123.329 131.081 123.329C130.854 123.305 130.626 123.281 130.401 123.245C127.323 122.846 126.008 121.648 125.483 120.442C125.198 119.781 125.158 119.11 125.195 118.571C125.233 117.948 125.403 117.515 125.403 117.515C126.927 118.698 129.772 119.29 131.303 119.543C131.942 119.656 132.35 119.696 132.35 119.696Z" fill="#263238"/>
<path d="M131.303 119.543L130.9 120.603C128.003 120.221 126.006 119.564 125.195 118.571C125.233 117.948 125.403 117.515 125.403 117.515C126.926 118.699 129.771 119.29 131.303 119.543Z" fill="white"/>
<path d="M130.398 123.246C127.321 122.847 126.005 121.649 125.48 120.443C126.524 120.618 127.766 120.948 128.823 121.561C129.632 122.025 130.105 122.644 130.398 123.246Z" fill="#FF3F3E"/>
<path d="M121.352 97.9881C122.419 130.55 109.514 121.946 113.037 136.132C108.152 128.708 105.465 119.696 104.128 110.788C103.271 106.352 102.426 102.049 103.644 97.6974C105.129 93.4209 109.667 89.3775 113.973 89.0055C115.53 88.8081 123.07 90.1017 124.292 91.0867C125.539 92.0371 122.125 96.5923 121.352 97.9881Z" fill="#263238"/>
<path d="M124.514 141.573L124.292 147.747L111.102 141.51L106.984 146.717C108.274 149.199 117.113 152.569 128.129 156.583C131.077 153.144 131.645 150.091 131.389 146.659L124.514 141.573Z" fill="white"/>
<path d="M102.853 125.33L99.3805 109.959C99.6592 107.69 97.704 105.515 95.4442 105.171C93.1845 104.828 90.8721 106.061 89.523 107.906C88.1739 109.751 87.6818 112.11 87.6997 114.396C87.7294 118.18 89.0657 121.878 91.0745 125.086C92.0814 126.695 93.2936 128.228 94.9066 129.229C96.5196 130.23 98.5938 130.628 100.348 129.902C102.103 129.177 103.344 127.163 102.853 125.33Z" fill="#263238"/>
<path d="M133.698 89.071C133.698 89.071 130.888 83.2499 124.866 82.0456C118.845 80.8414 107.906 84.354 107.906 84.354L133.698 89.071Z" fill="#4EE39D"/>
<path opacity="0.3" d="M133.698 89.071C133.698 89.071 130.888 83.2499 124.866 82.0456C118.845 80.8414 107.906 84.354 107.906 84.354L133.698 89.071Z" fill="black"/>
<path d="M137.733 97.4517C137.733 97.4517 137.537 90.6505 135.642 89.0712C133.747 87.492 131.081 86.0814 122.343 84.6072C113.605 83.1331 104.118 83.5686 104.118 83.5686L98.6563 94.3983C98.6563 94.3983 130.364 92.2933 137.733 97.4517Z" fill="#4EE39D"/>
<path d="M101.621 88.5177C112.365 87.8759 127.986 87.5456 137.314 93.3418L135.319 92.2397C124.754 87.8808 112.859 88.2072 101.621 88.5177Z" fill="white"/>
<path d="M101.398 89.7565C112.143 89.1147 127.764 88.7843 137.092 94.5806L135.097 93.4785C124.532 89.1196 112.638 89.446 101.398 89.7565Z" fill="white"/>
</g>
<defs>
<clipPath id="clip0_3148_24580">
<rect width="496" height="496" rx="99.2" fill="white"/>
</clipPath>
</defs>
</svg>
