<svg width="64" height="64" viewBox="0 0 64 64" fill="none" xmlns="http://www.w3.org/2000/svg">
<path fill-rule="evenodd" clip-rule="evenodd" d="M0 32C0 49.6731 14.3269 64 32 64C49.6731 64 64 49.6731 64 32C64 14.3269 49.6731 0 32 0C14.3269 0 0 14.3269 0 32ZM26.1335 46.6667L26.678 38.5097L26.6775 38.5093L41.5161 25.1187C42.1673 24.5407 41.3738 24.2589 40.5093 24.7831L22.1965 36.3364L14.2864 33.8675C12.5782 33.3445 12.5659 32.1707 14.6699 31.3267L45.4939 19.4411C46.9017 18.802 48.2605 19.7793 47.7231 21.934L42.4738 46.6708C42.1072 48.4286 41.0451 48.849 39.5735 48.0371L31.5771 42.1292L27.7335 45.8667C27.7214 45.8785 27.7093 45.8902 27.6973 45.9019C27.2674 46.3204 26.9118 46.6667 26.1335 46.6667Z" fill="url(#paint0_linear_3776_41704)"/>
<defs>
<linearGradient id="paint0_linear_3776_41704" x1="0" y1="32" x2="64" y2="32" gradientUnits="userSpaceOnUse">
<stop stop-color="#4EE39D"/>
<stop offset="1" stop-color="#0DC97A"/>
</linearGradient>
</defs>
</svg>
