<?xml version="1.0" encoding="utf-8"?>
<!-- Generator: Adobe Illustrator 27.3.1, SVG Export Plug-In . SVG Version: 6.00 Build 0)  -->
<svg version="1.1" id="_Слой_1" xmlns="http://www.w3.org/2000/svg" xmlns:xlink="http://www.w3.org/1999/xlink" x="0px"
	 y="0px" viewBox="0 0 1366 287" style="enable-background:new 0 0 1366 287;" xml:space="preserve">
<style type="text/css">
	.st0{fill:url(#SVGID_1_);}
	.st1{fill:url(#SVGID_00000142864465952409272910000005524489014741051045_);}
	.st2{fill:#FFFFFF;}
	.st3{enable-background:new    ;}
</style>
<linearGradient id="SVGID_1_" gradientUnits="userSpaceOnUse" x1="151.145" y1="-5.64" x2="151.145" y2="120.2" gradientTransform="matrix(1 0 0 -1 0 288)">
	<stop  offset="0" style="stop-color:#070729;stop-opacity:0"/>
	<stop  offset="0.15" style="stop-color:#0D1E32;stop-opacity:0.24"/>
	<stop  offset="0.39" style="stop-color:#153E3E;stop-opacity:0.57"/>
	<stop  offset="0.62" style="stop-color:#1B5646;stop-opacity:0.81"/>
	<stop  offset="0.83" style="stop-color:#1F644C;stop-opacity:0.95"/>
	<stop  offset="1" style="stop-color:#21694E"/>
</linearGradient>
<path class="st0" d="M139.4,233.6l50.8-65.9c-1.2,1.5-2.4,3.1-3.7,4.6c-5.1-0.1-10.2-0.2-15.3-0.3c-19.7,20.5-39.4,41.1-59.1,61.6
	C121.2,233.7,130.3,233.7,139.4,233.6L139.4,233.6z"/>
<linearGradient id="SVGID_00000142138957516163014550000017604684980061215889_" gradientUnits="userSpaceOnUse" x1="101.885" y1="-5.62" x2="101.885" y2="116.19" gradientTransform="matrix(1 0 0 -1 0 288)">
	<stop  offset="0" style="stop-color:#070729;stop-opacity:0"/>
	<stop  offset="0.19" style="stop-color:#183C3E;stop-opacity:0.27"/>
	<stop  offset="0.39" style="stop-color:#296E52;stop-opacity:0.53"/>
	<stop  offset="0.58" style="stop-color:#369662;stop-opacity:0.73"/>
	<stop  offset="0.75" style="stop-color:#40B26D;stop-opacity:0.88"/>
	<stop  offset="0.89" style="stop-color:#45C374;stop-opacity:0.97"/>
	<stop  offset="1" style="stop-color:#48CA77"/>
</linearGradient>
<path style="fill:url(#SVGID_00000142138957516163014550000017604684980061215889_);" d="M67.6,234c6.2-0.1,12.5-0.1,18.7-0.2
	c20.6-20.6,41.2-41.3,61.8-61.9l-19.5-0.1c-24.3,20.8-48.7,41.6-73,62.4C59.6,234.1,63.6,234.1,67.6,234L67.6,234z"/>
<g>
	<path class="st2" d="M252.1,87.3c-14.3,19.4-35.1,46.9-62.9,81.8c-0.1,0.1-0.1,0.1-0.1,0.2c-0.9,1.1-1.7,2.1-2.6,3.2
		c-3.6-0.1-7.1-0.1-10.6-0.2c-1.7,0-3.3-0.1-5-0.1l-9.6,0l-13.6-0.1c-6.4-0.1-12.8-0.2-19.2-0.2c2.8-2.9,5.7-5.8,8.5-8.7
		c12.1-4.4,24.1-8.8,36.2-13.2c0.1-0.1,0.2-0.3,0.3-0.4c14.5-17.8,29-35.5,43.5-53.3c0.1-0.1,0.2-0.3,0.3-0.4
		c2.8-3.4,5.6-6.8,8.4-10.3c1.3-1.6,2.7-3.2,4-4.8c0.5-0.5,1.4-1.6,2.6-2.9c2.9-3.1,32.6-23.6,35.8-20.3
		C271.5,60.9,259.1,77.9,252.1,87.3L252.1,87.3z"/>
	<path class="st2" d="M188.8,116.3c-6.9-4.9-13.7-9.7-20.6-14.6c-15.1-4.4-30.3-8.9-45.4-13.3c-0.2-1-0.4-2-0.6-3
		c30.7,0.2,61.4,0.4,92.2,0.7C205.8,96.2,197.3,106.2,188.8,116.3L188.8,116.3z"/>
</g>
<g class="st3">
	<path class="st2" d="M348.9,192c0,26.3-12.9,41.4-39.8,41.4c-12.5,0-23.8-5.2-28-10.1l9.4-22.1c3.8,2.8,9.4,5.2,14.6,5.2
		c10.6,0,14.8-7.5,14.8-19.3V66.2h28.9V192z"/>
	<path class="st2" d="M477.6,220.2c-10.6,8.9-25.6,13.2-40.5,13.2c-34.1,0-56.9-22.1-56.9-55.5c0-30.8,21.2-55.5,56-55.5
		c27.3,0,50.1,19.5,50.1,49.2c0,6.6-0.5,10.6-1.6,14.6h-76.4c2.4,16,15.1,24.7,31.8,24.7c12.9,0,23.8-4.7,29.9-9.6L477.6,220.2z
		 M407.2,168h52c0.2-12.9-8.7-23.1-24.2-23.1C418.8,145,410.1,154.2,407.2,168z"/>
	<path class="st2" d="M505.8,95.6h27V125h34.1v25.4h-34.1V189c0,11.5,3.8,19.1,12.7,19.1c7.3,0,12.5-3.3,16.2-6.1l8.2,20.9
		c-6.4,5.2-17.6,10.3-31.3,10.3c-24,0-32.9-15.5-32.9-42.6V95.6z"/>
</g>
<g class="st3">
	<path class="st2" d="M600.6,66.2h28.9v137.6h74.1v27h-103V66.2z"/>
</g>
<g class="st3">
	<path class="st2" d="M809.4,220.2c-10.6,8.9-25.6,13.2-40.5,13.2c-34.1,0-56.9-22.1-56.9-55.5c0-30.8,21.2-55.5,56-55.5
		c27.3,0,50.1,19.5,50.1,49.2c0,6.6-0.5,10.6-1.6,14.6h-76.4c2.4,16,15.1,24.7,31.8,24.7c12.9,0,23.8-4.7,29.9-9.6L809.4,220.2z
		 M739.1,168h52c0.2-12.9-8.7-23.1-24.2-23.1C750.6,145,741.9,154.2,739.1,168z"/>
	<path class="st2" d="M841.4,132.5c9.2-5.4,23.5-10.1,37.4-10.1c31.3,0,42.3,16,42.3,44v64.4h-23.5v-12.2
		c-5.6,8-16.9,13.6-31.3,13.6c-19.3,0-33.2-12-33.2-32.5c0-23.3,17.2-34.3,38.6-34.3c9.4,0,18.8,3.1,24,6.8
		c0.7-17.6-4-27.3-19.8-27.3c-12.2,0-20,3.8-27.8,7.3L841.4,132.5z M895.8,199.8V189c-4.7-3.5-10.8-5.2-18.6-5.2
		c-8.9,0-16.9,4.2-16.9,13.2c0,8,6.6,12.5,15.1,12.5C886.6,209.4,892.5,204.5,895.8,199.8z"/>
	<path class="st2" d="M1022.6,219.8c-7.1,7.5-16.7,12.9-30.3,12.9c-30.3,0-49.9-21.4-49.9-53.6c0-33.4,24-56.7,58.1-56.7
		c9.4,0,16.2,1.6,22.1,5.2V66.2h27v164.7h-27V219.8z M1022.6,196.7v-42.6c-6.8-4.2-13.6-6.4-20.9-6.4c-16,0-30.3,10.8-30.3,30.3
		c0,18.8,12.2,29.4,26.6,29.4C1007.7,207.5,1016.4,202.8,1022.6,196.7z"/>
	<path class="st2" d="M1170.5,220.2c-10.6,8.9-25.6,13.2-40.5,13.2c-34.1,0-56.9-22.1-56.9-55.5c0-30.8,21.2-55.5,56-55.5
		c27.3,0,50.1,19.5,50.1,49.2c0,6.6-0.5,10.6-1.6,14.6h-76.4c2.4,16,15.1,24.7,31.8,24.7c12.9,0,23.8-4.7,29.9-9.6L1170.5,220.2z
		 M1100.2,168h52c0.2-12.9-8.7-23.1-24.2-23.1C1111.7,145,1103,154.2,1100.2,168z"/>
	<path class="st2" d="M1201.1,125h27v10.3c4.9-6.8,11.5-12.2,24.2-12.2c8.7,0,12.9,1.4,16.5,4l-9.6,25.4c-5.2-3.1-8-4-13.6-4
		c-9.4,0-14.3,5.2-17.4,11.3v71h-27V125z"/>
</g>
</svg>
